<svg xmlns="http://www.w3.org/2000/svg" xmlns:xlink="http://www.w3.org/1999/xlink" width="395.6" height="103.2" viewBox="0 0 395.6 103.2"><circle fill="#fff" cx="50.1" cy="50.2" r="49.2"/><path opacity=".1" fill="#010101" enable-background="new" d="M81.4 59.1c0-17.3-14-31.3-31.3-31.3s-31.3 14-31.3 31.3h8.9c0-12.4 10-22.4 22.4-22.4s22.4 10 22.4 22.4"/><circle opacity=".1" fill="#010101" enable-background="new" cx="52.3" cy="56.5" r="17"/><linearGradient id="a" gradientUnits="userSpaceOnUse" x1="-382.913" y1="418.827" x2="-382.913" y2="418.38" gradientTransform="matrix(82 0 0 -82 31448.988 34375.672)"><stop offset="0" stop-color="#83B5E0"/><stop offset="1" stop-color="#0A5A95"/></linearGradient><circle fill="url(#a)" cx="50.1" cy="50.2" r="18.3"/><linearGradient id="b" gradientUnits="userSpaceOnUse" x1="-150.85" y1="-435.303" x2="-150.85" y2="-476.019" gradientTransform="matrix(1 0 0 -1 202.5 -435.224)"><stop offset="0" stop-color="#EF6B5A"/><stop offset="1" stop-color="#DF2628"/></linearGradient><path fill="url(#b)" d="M94.8 27.8C82.5 3 52.5-7.1 27.7 5.2 19.9 9.1 13.3 14.9 8.5 22l20.1 34.9c-3.7-11.8 2.8-24.3 14.6-28.1 2.1-.7 4.2-1 6.4-1"/><linearGradient id="c" gradientUnits="userSpaceOnUse" x1="-190.308" y1="-521.033" x2="-169.727" y2="-487.03" gradientTransform="matrix(1 0 0 -1 202.5 -435.224)"><stop offset="0" stop-color="#398C42"/><stop offset="1" stop-color="#4DB749"/></linearGradient><path fill="url(#c)" d="M8.5 22C-6.9 45-.8 76.1 22.2 91.5c7.1 4.8 15.3 7.6 23.9 8.3l21-35.8c-7.9 9.5-22 10.9-31.5 3-3.2-2.7-5.7-6.2-7-10.2"/><linearGradient id="d" gradientUnits="userSpaceOnUse" x1="-121.381" y1="-524.66" x2="-143.305" y2="-471.865" gradientTransform="matrix(1 0 0 -1 202.5 -435.224)"><stop offset="0" stop-color="#E4B024"/><stop offset=".3" stop-color="#FCD20D"/></linearGradient><path fill="url(#d)" d="M46.1 99.9c27.6 2.1 51.7-18.6 53.7-46.2.7-8.9-1-17.8-5-25.8H49.7c12.3 0 22.3 10 22.2 22.4 0 5-1.7 9.8-4.8 13.8"/><linearGradient id="e" gradientUnits="userSpaceOnUse" x1="-183.5" y1="-490.784" x2="-183.5" y2="-454.99" gradientTransform="matrix(1 0 0 -1 202.5 -435.224)"><stop offset="0" stop-color="#010101" stop-opacity=".15"/><stop offset=".3" stop-color="#010101" stop-opacity=".06"/><stop offset="1" stop-color="#010101" stop-opacity=".03"/></linearGradient><path fill="url(#e)" d="M8.5 22l20.1 34.9c-1.5-5-1.2-10.4.9-15.2l-20.1-21"/><linearGradient id="f" gradientUnits="userSpaceOnUse" x1="-134.069" y1="-502.36" x2="-158.677" y2="-527.415" gradientTransform="matrix(1 0 0 -1 202.5 -435.224)"><stop offset="0" stop-color="#010101" stop-opacity=".15"/><stop offset=".3" stop-color="#010101" stop-opacity=".06"/><stop offset="1" stop-color="#010101" stop-opacity=".03"/></linearGradient><path fill="url(#f)" d="M46.1 99.9l21-35.8c-3.3 4-7.9 6.6-13 7.6l-8.9 28.2"/><linearGradient id="g" gradientUnits="userSpaceOnUse" x1="-134.445" y1="-509.551" x2="-130.866" y2="-474.206" gradientTransform="matrix(1 0 0 -1 202.5 -435.224)"><stop offset="0" stop-color="#010101" stop-opacity=".15"/><stop offset=".3" stop-color="#010101" stop-opacity=".06"/><stop offset="1" stop-color="#010101" stop-opacity=".03"/></linearGradient><path fill="url(#g)" d="M94.8 27.8H49.7c6.8 0 13.2 3.2 17.4 8.5l28.6-7.2"/><ellipse fill="#262268" cx="123.7" cy="49.8" rx="49.8" ry="49.8"/><radialGradient id="h" cx="124.411" cy="377.668" r="87.454" gradientTransform="translate(0 -371.604)" gradientUnits="userSpaceOnUse"><stop offset="0" stop-color="#68C5D5"/><stop offset=".16" stop-color="#67C2D3"/><stop offset=".28" stop-color="#64B9CF"/><stop offset=".385" stop-color="#5DA8C6"/><stop offset=".483" stop-color="#5493BB"/><stop offset=".576" stop-color="#4975AB"/><stop offset=".665" stop-color="#3B5198"/><stop offset=".749" stop-color="#2F2F7F"/><stop offset=".815" stop-color="#262268"/><stop offset="1" stop-color="#596BAE"/></radialGradient><ellipse fill="url(#h)" cx="123.7" cy="49.8" rx="48.8" ry="48.9"/><radialGradient id="i" cx="124.397" cy="383.499" r="43.829" gradientTransform="translate(0 -371.604)" gradientUnits="userSpaceOnUse"><stop offset="0" stop-color="#1680BC"/><stop offset=".338" stop-color="#08609F"/><stop offset="1" stop-color="#1D2156"/></radialGradient><path fill="url(#i)" d="M116.7 75.1c-.1-.3-.7-1-1.2-1.2s-1 .7-1.3-.8c-1.1.6-1.5-.2-1.5-.2s-1.1.1-1.4 1.5c-.5.6-1.9 3-1.2.6.7-2.5-.8-.2-.9 1-.3.5-.7.6-.4-1.9-1-.3-1.5-2.6-.9-2.7-.6-.9-.1-2.2.4-2.1s1.4-1.1 1.4-1.4.4-.1.4-2 .7-2.4.8-.8c.1 1.6 1-.5.9-1.3s.1-2.6.7-1.5c-.7-2.6-.1-2.7.3-1 1 .1 1 .6 1 .6 1.1-.3 1.6.6 1.7 1 1-1.2 2.1.1 2.1.1s.7-.2.4 1c-.3 1.2 1.5.6 1-.3.9-.5 2.2.9 2.7 1.9.4.9-.7 2.3.2 2.6.9.3.5 1.9.5 1.9s1.9 1 .6 1.9l-.4 1.1s.8.9 1.1.4c.3-.6.4.6.4.6-.1-.2.2 1.2 1.4 1.5 1.2.3 1.9 2.1.6 2.2-1.3 0-1.4 0-1.7.7-.3.8-2 .8-2.9-.2-.9.3-2.5-.1-2.1-.8-.8.5-1.5-.8-.9-1.3s-.3-1.3-.7-.5c-.3.8-2 1.2-1.9-.2 0-.4.9-.6 1-.3-.2.3-.1-.1-.2-.1z"/><radialGradient id="j" cx="124.398" cy="383.5" r="43.827" gradientTransform="translate(0 -371.604)" gradientUnits="userSpaceOnUse"><stop offset="0" stop-color="#1680BC"/><stop offset=".338" stop-color="#08609F"/><stop offset="1" stop-color="#1D2156"/></radialGradient><path fill="url(#j)" d="M157.1 36.9c.3.3.8.2 1.1.1.3-.1.2-.3.5-.4.2-.1 1.2.4.9 1.3-.6.1-.8.8-.8.8s-.6.2-.9.1c-.3-.1-.3-.1-.7 0-.4 0-1.4-.5-.3-.5 1.1 0-.1-.5-.6-.5-.4 0-.1-.4.4-.3-.2-.6 0-1.1.4-.6z"/><radialGradient id="k" cx="124.394" cy="383.497" r="43.834" gradientTransform="translate(0 -371.604)" gradientUnits="userSpaceOnUse"><stop offset="0" stop-color="#1680BC"/><stop offset=".338" stop-color="#08609F"/><stop offset="1" stop-color="#1D2156"/></radialGradient><path fill="url(#k)" d="M153.5 39c-.3.3 0 1.1.4 1.1s.9-.2.9-.2.3.6 0 .7c-.3.2-1.1.1 0 .5s1.4.3 1.5.1.4-.9.6-.8c.2-.4-.6-.7-.2-.9.4-.2.1-1.1.1-1.1s-.6 0-.8.4-.6 0-.8 0c0 .2-.2.4-.2.4l-.2-.4s-1.1 0-1.3.2z"/><radialGradient id="l" cx="125.113" cy="387.648" r="48.151" gradientTransform="translate(0 -371.604)" gradientUnits="userSpaceOnUse"><stop offset="0" stop-color="#1680BC"/><stop offset=".264" stop-color="#0F629B"/><stop offset=".844" stop-color="#131B46"/><stop offset="1" stop-color="#10112D"/></radialGradient><path fill="url(#l)" d="M145.9 39.7c0-.1.3-.5.2 0-.2.4.9.7 1.2.3 1-1.4-1-2.1-1.9-1.5-.9.7-1.4-.8-.4-1s1.1-2 0-2c1-.5-.4-1.9-1.5-2.2-.2-1.6-1.8-2.6-2.7-2s-1 .5-2.2-.3c-1.3-.8-1.9 1.6-1 2.7.9 1.1.3 2.8.3 2.5 0 0-.4.6-.3.9-1.1.4-1.4-1.2-2.1-1.5-.5.6-1.3 1-1.3 1l.1-1.3s-3.4-1.8-4.4-1.3c-1.3.4-1.6 3.3-.4 3.8 1.2.4-1.5 1.5 1.2 4.3s3.7 2.9 4.3 2.5c.1-.1.4-.3.7-.5 0 .1.1.2.1.3.7 1-1.6 1.8-1.9 3.3-.3 1.5 0 4.2 1.3 4.3.3-1.5 2.7-.9 1.4.4-1.4 1.3-.4 1.6-.4 1.6s.1 2.5 2.2 1.7c-.1.1-.1.3-.1.5-.6-.1-2-.3-2.4.7-.4 1.3-2.3-.4-3.6.1-1.3.6-3.2 2.4-2.6 3.7 1.2-.6 2.2 2.1.5 1.5-1.7-.5-1.4.5-1.4.5s-1.8 1.4-.1 2.9c-.7.1-1.8.8-1.4 2.4 0 0-.7 0-.8 1.4-2.4.5-2.3 1.2 1.4.4-1.5.8 1 1.1 2.1 1s4 1.3 1.8 1.3-1.5 1.1 1.1 1.1c2.6.1 2.3.7 2.7.6.4 0 2.1 1.3 2 2.1-.1.7 1.8 1.5 3 .7.1.8 3.3.2 3.7-1.2 3.5.5 3.4-.1 2.6-.5-1.7-.3-4.9-2.6-1.5-1.4s.1-.9-.8-1.7c-2-.4-2.1-2-2.1-2s1.1-.6.2-2.2c2.1-.4.8-1.1 1.1-1.9.2-.7 1.3-1.6 1.7-1.7.1-.1.7 0 .1.2-.5 0-.1 1.3.4 1.4 1.9.2 1.3-2.2.2-2.7s-.1-1.8.7-.9c.8.9 2.5-.1 1.9-1.3 1 .7 1.6-1.6 1.2-2.9 1.4-1.2 1.3-3.6.3-4.1-.5-.3-.8-.4-.9-.8.6-.3 1.5-.5 1.8-.2.5.5 2-.9 1.9-2.4.6.3 1.6-2.8.8-4 2-2.7 1.4-3 .8-2.5-1 1.4-4.2 3-1.7.6 2.4-2.3-.6-.6-1.7-.2-1.2 1.5-2.5.8-2.5.8s.1-1.2-1.5-1.3c.7-2-.4-1.3-.8-1.8-.6-.5-.7-1.9-.6-2.2z"/><radialGradient id="m" cx="124.396" cy="383.497" r="43.83" gradientTransform="translate(0 -371.604)" gradientUnits="userSpaceOnUse"><stop offset="0" stop-color="#1680BC"/><stop offset=".338" stop-color="#08609F"/><stop offset="1" stop-color="#1D2156"/></radialGradient><path fill="url(#m)" d="M120.6 19.8c-.3.8 1 2.1 1.6 1.7.7-.4 1.6-1.2 1.6-1.2s1 .8.6 1.4-2 1.2.3.9c2.4-.3 2.8-.8 2.8-1.2 0-.5.1-2.1.5-2.2 0-.8-1.6-.8-1.1-1.6.6-.8-.8-2.2-.8-2.2s-1 .6-1.2 1.6c-.1 1-1.1.5-1.6.7.1.5 0 1 0 1l-.6-.5c.2-.1-2 .8-2.1 1.6z"/><radialGradient id="n" cx="124.397" cy="383.49" r="43.837" gradientTransform="translate(0 -371.604)" gradientUnits="userSpaceOnUse"><stop offset="0" stop-color="#1680BC"/><stop offset=".338" stop-color="#08609F"/><stop offset="1" stop-color="#1D2156"/></radialGradient><path fill="url(#n)" d="M124.4 61.2c-.3.3 0 1.1.4 1.1s.9-.2.9-.2.3.6 0 .7c-.3.2-1.1.1 0 .5s1.4.3 1.5.1.4-.9.6-.8c.2-.4-.6-.7-.2-.9.4-.2.1-1.1.1-1.1s-.6 0-.8.4c-.2.4-.6 0-.8 0 0 .2-.2.4-.2.4l-.2-.4c.1 0-1.1-.1-1.3.2z"/><defs><ellipse id="o" cx="123.7" cy="49.8" rx="48.8" ry="48.9"/></defs><clipPath id="p"><use xlink:href="#o" overflow="visible"/></clipPath><linearGradient id="q" gradientUnits="userSpaceOnUse" x1="134.32" y1="385.471" x2="148.467" y2="386.677" gradientTransform="translate(0 -371.604)"><stop offset="0" stop-color="#1680BC"/><stop offset=".338" stop-color="#08609F"/><stop offset="1" stop-color="#1D2156"/></linearGradient><path clip-path="url(#p)" fill="url(#q)" d="M124.8.8c-.8.2.5 2.9.5 2.9s0 1.9.3 2 2.4.6 3.5 2 .5 2.1-.4 1.7c-.9-.4-.7.8-.7.8s2.7.9.7.8c-2.1-.1 1.4 1.5 1.2 1.6-.2.2-.4 1-.4 1s-1.8.2-.3.8c5.3 2.2-.6 1.6-.6 1.6l-.7.9 1.5 1.8 1.1.8s2.4-.8 3.1-.9c.7-.1 2.6-1.5 2.6-1.5s.6.4.1-.4c-.4-.8 1.5-.5 2 .2l3.5 1.6c0 .1.1.2.2.3.7.5-.6 1.3-.5 2.1.1.9.9 2.3 1.8 2.1-.2-.8 1.6-.9 1 0s.1.9.1.9.5 1.3 1.7.6c0 .4.2 1.2 1.2 1.2 0 0-.1.4.7.7-.1 1.5.4 1.5.5-.7.2 1 .8-.4 1-1 .1-.7 1.5-2.1 1.1-.8-.4 1.3 4 1.7 4.5.2s2.2-2.3 2.3-2.5-3.8-.6-3.4-.4c.4.2 1.2-.8.9-1.7.5.1.7-1.9-.1-2.5 1-2 .5-2.1.2-1.7-.5 1-2.5 2.5-1.1.7 1.4-1.9-.5-.2-1.2.2-.6 1.1-1.6.9-1.6.9s-.2-.8-1.3-.5c.1-1.4-.5-.7-.9-1-.2-.2-.5-.5-.6-.8.9.4 2.2.8 2 .1-.1-.5 1.8.5 1.8.3l2.4-.3 2.3-1.5C141.9.1 124.8.8 124.8.8z"/><defs><ellipse id="r" cx="123.7" cy="49.8" rx="48.8" ry="48.9"/></defs><clipPath id="s"><use xlink:href="#r" overflow="visible"/></clipPath><linearGradient id="t" gradientUnits="userSpaceOnUse" x1="102.487" y1="387.643" x2="94.668" y2="399.126" gradientTransform="translate(0 -371.604)"><stop offset="0" stop-color="#1680BC"/><stop offset=".338" stop-color="#08609F"/><stop offset="1" stop-color="#1D2156"/></linearGradient><path clip-path="url(#s)" fill="url(#t)" d="M102.7 5.1c-8.9 4-15.6 12.2-15.6 12.2s.8 1.8 1.1 1.7c.3-.1-2 4.7-.3 5s6.5-3 5.6-2.7.5-1.8.5-1.8 2.5-1.1 1 .2 1.9.2 1.9.4c-.1.3.4 1 .4 1s-1.2 1.3.3.7c5.2-1.7.7 1.5.7 1.5l.1 1.1 2.2.4 1.3-.1s1.2-2 1.6-2.6.9-2.8.9-2.8.7-.1-.2-.4c-.9-.3.8-1.3 1.6-1.2l3.6-1.1c.1.1.2.1.4.1.8-.1.4 1.3 1.1 1.9.7.5 2.2 1.1 2.8.4-.7-.5.6-1.7.7-.6.2 1 .6.6.6.6s1.3-2.2 1.7-3.5c.2.3 2.3-2.8 1.7-4.3-.6-1.5.4-2.9.3-3.1-.1-.2-.8.4-.3.3.5-.2-1.3.6-1.6-1.7-.2-2.4-.6.2-.8 1 .3 1.3 3.6-5.1 3.6-5.1l4.2-1.7c.1-.2-9.5-1-21.1 4.2z"/><linearGradient id="u" gradientUnits="userSpaceOnUse" x1="122.8" y1="400.593" x2="122.8" y2="381.586" gradientTransform="translate(0 -371.604)"><stop offset=".014" stop-color="#010101" stop-opacity="0"/><stop offset=".65" stop-color="#C5E0E3" stop-opacity=".2"/><stop offset=".822" stop-color="#C5E0E3"/><stop offset=".85" stop-color="#CDE5E8"/><stop offset=".944" stop-color="#E9F6F7"/><stop offset="1" stop-color="#F2FAFB"/></linearGradient><ellipse opacity=".5" fill="url(#u)" enable-background="new" cx="122.8" cy="19.5" rx="25.9" ry="16.8"/><linearGradient id="v" gradientUnits="userSpaceOnUse" x1="124.52" y1="419.162" x2="136.258" y2="412.269" gradientTransform="translate(0 -371.604)"><stop offset="0" stop-color="#DF7426"/><stop offset=".545" stop-color="#DF7426"/><stop offset=".701" stop-color="#EB8923"/><stop offset=".859" stop-color="#F3961F"/><stop offset="1" stop-color="#F69B1E"/></linearGradient><path fill="url(#v)" d="M175.4 36.2l-1.2 7.7s-1.7-14.2-3.8-19.5c-3.2-8.1-4.6-8.1-4.7-8.1 2.2 5.5 1.8 8.4 1.8 8.4s-3.8-10.4-13.9-13.7c-11.9-3.9-18-2.5-18-2.4 0 .1 12.3 2.1 14.5 5.1 0 0-5.2 0-10.4 1.5-.2.1 19.1 2.4 23.1 21.8 0 0-2.1-4.4-4.7-5.2 1.7 5.3 1.3 15.2-.4 20.2-.2.6-.4-2.8-3.7-4.2 1 7.4-.1 19.2-5.2 22.5-.4.3 3.2-11.6.7-7-14.9 22.9-32.7 9.3-39.9 4.4 5.8 1.4 11.9.4 15.5-2 3.6-2.5 5.7-4.2 7.6-3.8s3.2-1.5 1.7-3.2-5.1-4-9.9-2.8c-3.4.9-7.7 4.7-14.2.9-5.5-3.3-5.5-5.9-5.5-7.6 0-1.7 1.5-4.3 4.3-3.9 2.5.4 1.2-1.1 3.8 0 .7.3-.1-3.5-1.1-5.9 2-4.1 8.4-5.4 8.9-5.7.9-.7.4-1 .7-2 .3-.9.5-3.4-6.7-2.7-3.3.3-5.4-4-6.1-5 .2-1.3.6-2.5 1.1-3.6.5-1 1-1.9 1.6-2.6.2-.2.3-.4.4-.6 1.1-1.2 2.4-2.3 4-3.2.8-.5-9.2 0-13.7 5.9-1.2.2-2.9-.2-4.7-.2-2.3 0-4.2.3-5.8.7-.3.1-.7 0-1.2-.1-1.5-1.5-5.7-5.3-5.9-10.3 0 0-6.1 4.7-5.2 17.5-.1 7.1-2.2 5.1-3.3 8.9-.5 1.8.8 3.2.8 3.3l1.5-1.6S68.7 54.6 81 75.6c10.6 18.1 28.3 26.1 46.7 24.6 3.2-.2 6.5-.7 9.7-1.5 42.7-10.7 38-62.5 38-62.5z"/><linearGradient id="w" gradientUnits="userSpaceOnUse" x1="105.333" y1="402.673" x2="114.444" y2="403.454" gradientTransform="translate(0 -371.604)"><stop offset=".011" stop-color="#941A1D"/><stop offset=".897" stop-color="#E65F25"/></linearGradient><path fill="url(#w)" d="M108.4 23.2s1.9 5.1 6 5.1c7.9 0 8.1.1 8.1 1 .2 2.9-1.3 3.9-1.8 4.3-.6.4-8.1 4.8-8.4 6.1s-8.7-11.9-8.7-11.9l4.8-4.6z"/><linearGradient id="x" gradientUnits="userSpaceOnUse" x1="90.748" y1="400.077" x2="123.636" y2="404.188" gradientTransform="translate(0 -371.604)"><stop offset=".011" stop-color="#941A1D"/><stop offset=".136" stop-color="#A32521"/><stop offset=".498" stop-color="#C74527"/><stop offset=".789" stop-color="#DD5726"/><stop offset=".972" stop-color="#E65F25"/></linearGradient><path fill="url(#x)" d="M112.6 28.6s2.6 3.3.6 4.6c-2.4 1.6 3.4 2 5.4.8 2.1-1.2 3.4-2.9 3.4-3.1.1-.3.8-2.6-3.6-1.8-2.6.5-3.6.7-5.8-.5z"/><linearGradient id="y" gradientUnits="userSpaceOnUse" x1="111.128" y1="408.81" x2="113.75" y2="407.656" gradientTransform="translate(0 -371.604)"><stop offset="0" stop-color="#F2C9AA"/><stop offset="1" stop-color="#FCF9CE"/></linearGradient><path fill="url(#y)" d="M120.7 33.6c.4-.3 1.4-1 1.7-2.5-.3.1-.3-.2-.6-.1-5.8 6.1-6.1 1.8-9.2 2.7-2.9.8-3.6 1.9-3.7 2 0 .1.1.1.1.2.8.4 1.6 1.8 2.2 3 .6.7 1 1 1 .8.4-1.3 7.9-5.7 8.5-6.1z"/><linearGradient id="z" gradientUnits="userSpaceOnUse" x1="102.761" y1="440.866" x2="146.875" y2="442.682" gradientTransform="translate(0 -371.604)"><stop offset="0" stop-color="#B21F24"/><stop offset="1" stop-color="#DF7426"/></linearGradient><path fill="url(#z)" d="M77.1 38.4c-1.2 2.5-8.8 15.4 3.6 36.9 12.2 21 33.3 27.9 54.9 23.3 6.2-1.3 13.3-6.2 17.8-9.7-2.9-7.3-1.2-7.1-2.7-6.1-17.4 10.8-31.2.1-41.9-1.2-39.3-5-31.6-43.3-31.6-43.3l-.1.1z"/><linearGradient id="A" gradientUnits="userSpaceOnUse" x1="113.267" y1="434.031" x2="136.268" y2="442.244" gradientTransform="translate(0 -371.604)"><stop offset="0" stop-color="#941A1D"/><stop offset="1" stop-color="#DF7426"/></linearGradient><path fill="url(#A)" d="M109.9 67.9c3.7 1.1 11.8.2 15.3-2.4 2.3-1.7 4.1-3.1 5.6-3.6-2.6-1.8-2.7.7-8.2 2-11.5 2.7-17.1-3.1-17.1-3.1.8 4.6 3.7 6.8 5 7.6-.5-.3-.7-.5-.6-.5z"/><linearGradient id="B" gradientUnits="userSpaceOnUse" x1="100.156" y1="430.586" x2="122.599" y2="430.586" gradientTransform="matrix(.999 .049 -.049 .999 -3.217 -362.863)"><stop offset=".056" stop-color="#B21F24"/><stop offset="1" stop-color="#DD5E26"/></linearGradient><path fill="url(#B)" d="M97.4 88.8S87.8 78 85.1 65.9c-3.9-3.7-6.7-6.9-8.6-9.2 1.1 8.6 5.5 22 20.9 32.1z"/><linearGradient id="C" gradientUnits="userSpaceOnUse" x1="336.538" y1="192.131" x2="348.738" y2="229.927" gradientTransform="matrix(.993 .119 -.119 .993 -227.208 -166.598)"><stop offset=".056" stop-color="#DE7326"/><stop offset="1" stop-color="#F5C08E"/></linearGradient><path fill="url(#C)" d="M89.4 78.9s-6.6-9.4-4.1-17.4c2.2-7.2-.5-2.9-2-1.4-1.6 1.6-2.4-4.6-2.4-5.3-.2 0-3.2 14.7 8.5 24.1z"/><linearGradient id="D" gradientUnits="userSpaceOnUse" x1="103.624" y1="409.93" x2="103.624" y2="452.177" gradientTransform="matrix(.999 .045 -.045 .999 -3.93 -363.057)"><stop offset=".056" stop-color="#DE7326"/><stop offset="1" stop-color="#F5C08E"/></linearGradient><path fill="url(#D)" d="M79.6 70.7s-1.5-19.1 3.3-21.8c7.6-4.3.6-3.3-1.6-2.1s-2-6.7-1.7-7.5c.3-.7-7.9 7.5 0 31.4z"/><path fill="#A31D21" d="M112.7 14.5l-6 6.1s.2 7.8.4 10c.7.8 3 6.4 1.2 5.1s-.5-1.3-.3-.6c-.1.1-4.3-9.1 4.7-20.6z"/><linearGradient id="E" gradientUnits="userSpaceOnUse" x1="85.593" y1="397.501" x2="81.01" y2="385.756" gradientTransform="translate(0 -371.604)"><stop offset=".011" stop-color="#941A1D"/><stop offset=".472" stop-color="#E65F25"/><stop offset="1" stop-color="#F8BD60"/></linearGradient><path fill="url(#E)" d="M84.2 9.8s-6.4 4.9-5.2 18.3c4.9-4.4 11.9-7.7 11.9-7.7-1.1-.8-6.5-5.1-6.7-10.6z"/><linearGradient id="F" gradientUnits="userSpaceOnUse" x1="105.229" y1="400.187" x2="116.212" y2="385.751" gradientTransform="translate(0 -371.604)"><stop offset=".197" stop-color="#DE7326"/><stop offset=".843" stop-color="#F8BD60"/><stop offset="1" stop-color="#FDF9D1"/></linearGradient><path fill="url(#F)" d="M99.9 24.4l9.6 11.9c-2.8-11.7-.6-18.7 6.2-22.5.9-.6-14.3.2-15.8 10.6z"/><linearGradient id="G" gradientUnits="userSpaceOnUse" x1="99.397" y1="419.899" x2="110.531" y2="442.167" gradientTransform="translate(0 -371.604)"><stop offset=".017" stop-color="#941A1D"/><stop offset=".5" stop-color="#E15425"/><stop offset="1" stop-color="#DF7426"/></linearGradient><path fill="url(#G)" d="M93.1 53.8C94.7 43.5 109 45 109 45c-.6.5-3.1.8-3.8 2.7-2.3 6.5-.1 20.6 14.3 26.6 1.6.7-28.8-5.3-26.4-20.5z"/><linearGradient id="H" gradientUnits="userSpaceOnUse" x1="116.236" y1="406.232" x2="119.016" y2="408.751" gradientTransform="translate(0 -371.604)"><stop offset="0" stop-color="#EEA272"/><stop offset=".186" stop-color="#F0A878"/><stop offset=".406" stop-color="#F1B585"/><stop offset=".643" stop-color="#F6CD9C"/><stop offset=".89" stop-color="#FBEEBB"/><stop offset="1" stop-color="#FCF9CE"/></linearGradient><path fill="url(#H)" d="M122.3 31.3h-.2c-.2.2-.9 1-2.5 2.4-3 2.4-4.3 1.8-6.5 2.3-1 .2-2 .9-2.6 1.5.3.4.5.9.7 1.3.6.7 1 1 1 .8.3-1.3 7.8-5.6 8.4-6.1.5-.2 1.3-.8 1.7-2.2z"/><linearGradient id="I" gradientUnits="userSpaceOnUse" x1="99.974" y1="412.229" x2="112.746" y2="425.262" gradientTransform="translate(0 -371.604)"><stop offset=".197" stop-color="#DF7426"/><stop offset=".843" stop-color="#F8BD60"/><stop offset="1" stop-color="#FDF9D1"/></linearGradient><path fill="url(#I)" d="M113.1 46.9c.1-2.2-.1-7.5-2.3-9.7-1.7-1.7-2.1-3.8-2.4-6C89.6 38.1 87 47.3 88.8 47c15-2.4 19.3-2.7 24.3-.1z"/><linearGradient id="J" gradientUnits="userSpaceOnUse" x1="1038.811" y1="-787.351" x2="1038.811" y2="-739.468" gradientTransform="matrix(.967 .254 -.254 .967 -1123.29 531.772)"><stop offset=".056" stop-color="#DE7326"/><stop offset="1" stop-color="#F5C08E"/></linearGradient><path fill="url(#J)" d="M73.1 59.7s1.3-16.9 9.8-23.1c6.7-4.9 1.5-3.1-1.1-2.9-2.7.2-4.2 1.9-3.6 1.3-.1-.2-6.4 5-5.1 24.7z"/><linearGradient id="K" gradientUnits="userSpaceOnUse" x1="42.2" y1="341.178" x2="26.011" y2="367.543" gradientTransform="matrix(.99 -.08 .095 1.173 8.929 -366.297)"><stop offset=".056" stop-color="#DE7326"/><stop offset="1" stop-color="#F2C06E"/></linearGradient><path fill="url(#K)" d="M72.2 46.7s4.5-14.4 13.7-14.3c6.1.1 1.3-5.1-.6-5.9s-2.4-.8-2.8-.4c-.7.6-6.7.3-10.3 20.6z"/><linearGradient id="L" gradientUnits="userSpaceOnUse" x1="138.134" y1="428.51" x2="120.935" y2="431.795" gradientTransform="translate(0 -371.604)"><stop offset=".005" stop-color="#FFFAEF"/><stop offset=".276" stop-color="#F3F19F"/><stop offset=".31" stop-color="#F2EC91"/><stop offset=".467" stop-color="#ECC267"/><stop offset=".618" stop-color="#E7A147"/><stop offset=".761" stop-color="#E2872C"/><stop offset=".892" stop-color="#E07926"/><stop offset="1" stop-color="#DF7426"/></linearGradient><path fill="url(#L)" d="M134.2 60.8c.7-.7.2-3.3-4.1-4.9-3.9-1.4-10.1 2.2-11.9 2.9 0 0 7-1.3 9.6-.9 3.4.7 4.7 4.6 6.4 2.9z"/><linearGradient id="M" gradientUnits="userSpaceOnUse" x1="-279.846" y1="753.712" x2="-279.846" y2="793.731" gradientTransform="matrix(.992 .126 -.126 .992 455.52 -678.862)"><stop offset=".056" stop-color="#DE7326"/><stop offset="1" stop-color="#F2C06E"/></linearGradient><path fill="url(#M)" d="M78.9 56.1s-.8-14.2 5.6-20.2c5-4.8.9-2.7-1.2-2.3-2.2.5-3.2 2-2.9 1.4 0-.1-4.7 4.9-1.5 21.1z"/><linearGradient id="N" gradientUnits="userSpaceOnUse" x1="-176.346" y1="652.768" x2="-176.346" y2="692.783" gradientTransform="matrix(.932 .362 -.362 .932 484.061 -514.013)"><stop offset=".056" stop-color="#DE7326"/><stop offset="1" stop-color="#F2C06E"/></linearGradient><path fill="url(#N)" d="M74 51.6s2.7-13.9 10.3-18.3c6-3.4 1.5-2.4-.6-2.5-2.3-.1-3.6 1.2-3.1.7-.1-.2-5.8 3.6-6.6 20.1z"/><linearGradient id="O" gradientUnits="userSpaceOnUse" x1="-275.475" y1="482.067" x2="-286.618" y2="498.781" gradientTransform="matrix(.81 -.586 .586 .81 23.781 -503.579)"><stop offset=".056" stop-color="#DE7326"/><stop offset="1" stop-color="#F2C072"/></linearGradient><path fill="url(#O)" d="M83.1 57.3s-1.5-8.5 1.7-12.6c2.5-3.3.3-1.7-.9-1.2s-1.7 1.5-1.5 1.1c.1-.4-5.5 4 .7 12.7z"/><linearGradient id="P" gradientUnits="userSpaceOnUse" x1="-269.479" y1="476.568" x2="-280.622" y2="493.281" gradientTransform="matrix(.81 -.586 .586 .81 23.781 -503.579)"><stop offset=".056" stop-color="#DE7326"/><stop offset="1" stop-color="#F2C072"/></linearGradient><path fill="url(#P)" d="M84.7 49.3s-1.5-8.5 1.7-12.6c2.5-3.3.3-1.7-.9-1.2S83.8 37 84 36.6c.2-.3-5.4 4 .7 12.7z"/><linearGradient id="Q" gradientUnits="userSpaceOnUse" x1="80.59" y1="403.392" x2="75.715" y2="412.492" gradientTransform="translate(0 -371.604)"><stop offset=".056" stop-color="#DE7326"/><stop offset="1" stop-color="#EED8A6"/></linearGradient><path fill="url(#Q)" d="M75.9 37.8s3.4-7 8-8.4c3.6-1.1 1.1-1.1 0-1.4-1.2-.3-2 .2-1.7 0s-6.2.1-6.3 9.8z"/><linearGradient id="R" gradientUnits="userSpaceOnUse" x1="80.071" y1="408.937" x2="75.196" y2="418.037" gradientTransform="translate(0 -371.604)"><stop offset=".056" stop-color="#DE7326"/><stop offset="1" stop-color="#EED8A6"/></linearGradient><path fill="url(#R)" d="M75.4 43.3s3.4-7 8-8.4c3.6-1.1 1.1-1.1 0-1.4-1.2-.3-2 .2-1.7 0 .3-.1-6.2.1-6.3 9.8z"/><linearGradient id="S" gradientUnits="userSpaceOnUse" x1="85.631" y1="405.091" x2="80.919" y2="416.79" gradientTransform="translate(0 -371.604)"><stop offset=".056" stop-color="#DE7326"/><stop offset="1" stop-color="#F2C072"/></linearGradient><path fill="url(#S)" d="M77.9 41.8S83.9 29.4 92 27c6.4-1.9 2-1.9 0-2.4-2.1-.5-3.6.3-3 0 .5-.3-10.9.1-11.1 17.2z"/><linearGradient id="T" gradientUnits="userSpaceOnUse" x1="87.39" y1="399.385" x2="76.247" y2="416.099" gradientTransform="translate(0 -371.604)"><stop offset=".056" stop-color="#DE7326"/><stop offset="1" stop-color="#F2C072"/></linearGradient><path fill="url(#T)" d="M82 35.1s3.8-7.7 8.8-9.2c4-1.2 1.2-1.2 0-1.5-1.3-.3-2.2.2-1.9 0 .3-.2-6.8.1-6.9 10.7z"/><linearGradient id="U" gradientUnits="userSpaceOnUse" x1="88.108" y1="402.738" x2="77.952" y2="417.971" gradientTransform="translate(0 -371.604)"><stop offset=".056" stop-color="#DE7326"/><stop offset="1" stop-color="#F2C072"/></linearGradient><path fill="url(#U)" d="M83.2 37.8s3.4-7 8-8.4c3.6-1.1 1.1-1.1 0-1.4-1.2-.3-2 .2-1.7 0 .3-.1-6.1.1-6.3 9.8z"/><linearGradient id="V" gradientUnits="userSpaceOnUse" x1="120.751" y1="400.421" x2="121.556" y2="401.855" gradientTransform="translate(0 -371.604)"><stop offset="0" stop-color="#8B8C8A"/><stop offset="1" stop-color="#170F0C"/></linearGradient><path fill="url(#V)" d="M122.5 29.3c0-.7-.1-1-3.7-1 .4.2 1.1.5 1.9 1.2 1 .8 1.2 1.7 1.3 2.7.4-.7.6-1.6.5-2.9z"/><linearGradient id="W" gradientUnits="userSpaceOnUse" x1="89.215" y1="395.513" x2="89.215" y2="391.11" gradientTransform="translate(0 -371.604)"><stop offset=".056" stop-color="#DE7326"/><stop offset="1" stop-color="#F5C08E"/></linearGradient><path fill="url(#W)" d="M102 19.5l-3 4.9s-12.2-1.9-22.5 8.1c-.9.8 6.7-17.7 25.5-13z"/><linearGradient id="X" gradientUnits="userSpaceOnUse" x1="110.203" y1="389.392" x2="119.418" y2="378.623" gradientTransform="matrix(.999 .04 -.04 .999 -5.36 -364.618)"><stop offset=".056" stop-color="#DE7326"/><stop offset="1" stop-color="#F5C08E"/></linearGradient><path fill="url(#X)" d="M91 28.2s3.2-6 7.4-7.8c-2.1.1-7 1.8-7.4 7.8z"/><linearGradient id="Y" gradientUnits="userSpaceOnUse" x1="83.264" y1="399.732" x2="78.389" y2="408.831" gradientTransform="translate(0 -371.604)"><stop offset=".056" stop-color="#DE7326"/><stop offset="1" stop-color="#EED8A6"/></linearGradient><path fill="url(#Y)" d="M78.6 34.1s3.4-7 8-8.4c3.6-1.1 1.1-1.1 0-1.4-1.2-.3-2 .2-1.7 0 .2-.1-6.2.1-6.3 9.8z"/><linearGradient id="Z" gradientUnits="userSpaceOnUse" x1="136.783" y1="370.005" x2="145.785" y2="359.485" gradientTransform="matrix(.995 .104 -.104 .995 -13.59 -352.925)"><stop offset=".056" stop-color="#DE7326"/><stop offset="1" stop-color="#F5C08E"/></linearGradient><path fill="url(#Z)" d="M85.7 29.2s3.5-5.7 7.7-7.2c-2-.1-6.9 1.3-7.7 7.2z"/><linearGradient id="aa" gradientUnits="userSpaceOnUse" x1="127.602" y1="363.887" x2="138.417" y2="365.368" gradientTransform="matrix(.996 .09 -.09 .996 -12.832 -355.766)"><stop offset=".056" stop-color="#DE7326"/><stop offset="1" stop-color="#F5C08E"/></linearGradient><path fill="url(#aa)" d="M91.8 19.5s-2.7 1.2-7.4-.8l4.2 2.1 3.2-1.3z"/><linearGradient id="ab" gradientUnits="userSpaceOnUse" x1="76.098" y1="390.94" x2="91.365" y2="393.031" gradientTransform="translate(0 -371.604)"><stop offset=".056" stop-color="#DE7326"/><stop offset="1" stop-color="#F5C08E"/></linearGradient><path fill="url(#ab)" d="M90.5 20.2s-3.6 1.4-10.4-.7l5.9 2.3c.7-.6 4.5-1.6 4.5-1.6z"/><linearGradient id="ac" gradientUnits="userSpaceOnUse" x1="129.712" y1="363.311" x2="139.65" y2="364.672" gradientTransform="matrix(.996 .09 -.09 .996 -12.832 -355.766)"><stop offset=".056" stop-color="#DE7326"/><stop offset="1" stop-color="#F5C08E"/></linearGradient><path fill="url(#ac)" d="M93.1 19.1s-2.4.7-6.7-1l4.2 2.1c.4-.4 2.5-1.1 2.5-1.1z"/><linearGradient id="ad" gradientUnits="userSpaceOnUse" x1="82.987" y1="394.194" x2="74.026" y2="393.274" gradientTransform="translate(0 -371.604)"><stop offset=".056" stop-color="#DE7326"/><stop offset="1" stop-color="#F5C08E"/></linearGradient><path fill="url(#ad)" d="M85.7 21.8s-1.8 1.5-6.2 1.5l3.9.1 2.3-1.6z"/><linearGradient id="ae" gradientUnits="userSpaceOnUse" x1="132.269" y1="371.102" x2="144.666" y2="356.615" gradientTransform="matrix(.995 .104 -.104 .995 -13.59 -352.925)"><stop offset=".056" stop-color="#DE7326"/><stop offset="1" stop-color="#F5C08E"/></linearGradient><path fill="url(#ae)" d="M81.5 29.3s6-7.8 10.9-9.6c-2.5-.1-10 2.6-10.9 9.6z"/><linearGradient id="af" gradientUnits="userSpaceOnUse" x1="144.325" y1="470.075" x2="168.604" y2="432.627" gradientTransform="translate(0 -371.604)"><stop offset="0" stop-color="#DD5E26"/><stop offset=".736" stop-color="#F6EC1B"/><stop offset=".778" stop-color="#F6EC31"/><stop offset=".837" stop-color="#F9EF5C"/><stop offset=".889" stop-color="#F9F17C"/><stop offset=".932" stop-color="#FBF38F"/><stop offset=".961" stop-color="#FAF396"/></linearGradient><path fill="url(#af)" d="M174.4 42.6s.6 14.5-19.5 34.7c-2.2 2.2-14.4 13.6-14 17 .2 1.2 32-4.9 33.5-51.7z"/><linearGradient id="ag" gradientUnits="userSpaceOnUse" x1="158.47" y1="390.681" x2="142.572" y2="383.699" gradientTransform="translate(0 -371.604)"><stop offset="0" stop-color="#F69B1E"/><stop offset=".736" stop-color="#F6EC1B"/><stop offset=".778" stop-color="#F6EC31"/><stop offset=".837" stop-color="#F9EF5C"/><stop offset=".889" stop-color="#F9F17C"/><stop offset=".932" stop-color="#FBF38F"/><stop offset=".961" stop-color="#FAF396"/></linearGradient><path fill="url(#ag)" d="M135.4 8.5c24.3 1.9 29 19.3 29 18.2 0-16.9-23.1-18.2-29-18.2z"/><linearGradient id="ah" gradientUnits="userSpaceOnUse" x1="169.167" y1="406.599" x2="146.911" y2="385.938" gradientTransform="translate(0 -371.604)"><stop offset="0" stop-color="#DD5E26"/><stop offset=".736" stop-color="#F6EC1B"/><stop offset=".778" stop-color="#F6EC31"/><stop offset=".837" stop-color="#F9EF5C"/><stop offset=".889" stop-color="#F9F17C"/><stop offset=".932" stop-color="#FBF38F"/><stop offset=".961" stop-color="#FAF396"/></linearGradient><path fill="url(#ah)" d="M142.8 15.1s16.8 3.4 21.6 21.3c.6 2.4-2-14.5-1.2-12.9s-6.8-7.9-20.4-8.4z"/><linearGradient id="ai" gradientUnits="userSpaceOnUse" x1="38.748" y1="517.64" x2="29.43" y2="508.002" gradientTransform="matrix(1 -.028 .028 1 109.259 -482.354)"><stop offset="0" stop-color="#F69B1E"/><stop offset=".736" stop-color="#F6EC1B"/><stop offset=".778" stop-color="#F6EC31"/><stop offset=".837" stop-color="#F9EF5C"/><stop offset=".889" stop-color="#F9F17C"/><stop offset=".932" stop-color="#FBF38F"/><stop offset=".961" stop-color="#FAF396"/></linearGradient><path fill="url(#ai)" d="M149.5 14.7s15.2 3.2 15.3 27.3c.1 17.1 2.6 6.4 5.1 2.6 2.2-3.3.7-7.4.6-7.3 0 0-1.1-3.1-.4-1.8 0 .1-1-.9-1-.9.3-.1-.4-17.4-19.6-19.9z"/><linearGradient id="aj" gradientUnits="userSpaceOnUse" x1="165.394" y1="418.45" x2="170.639" y2="400.406" gradientTransform="translate(0 -371.604)"><stop offset="0" stop-color="#F69B1E"/><stop offset=".736" stop-color="#F6EC1B"/><stop offset=".778" stop-color="#F6EC31"/><stop offset=".837" stop-color="#F9EF5C"/><stop offset=".889" stop-color="#F9F17C"/><stop offset=".932" stop-color="#FBF38F"/><stop offset=".961" stop-color="#FAF396"/></linearGradient><path fill="url(#aj)" d="M166.6 17.9s5.5 14.2-.3 21.3c-1.9 2.3-2.1 14.1.2 13s1.8 6.3 1.5 7.1c.1.2 11.4-18.1-1.4-41.4z"/><linearGradient id="ak" gradientUnits="userSpaceOnUse" x1="-20.84" y1="584.99" x2="-21.032" y2="571.266" gradientTransform="matrix(.999 -.041 .041 .999 158.274 -534.151)"><stop offset="0" stop-color="#F69B1E"/><stop offset=".736" stop-color="#F6EC1B"/><stop offset=".778" stop-color="#F6EC31"/><stop offset=".837" stop-color="#F9EF5C"/><stop offset=".889" stop-color="#F9F17C"/><stop offset=".932" stop-color="#FBF38F"/><stop offset=".961" stop-color="#FAF396"/></linearGradient><path fill="url(#ak)" d="M159 32.9s3.4 10.1-.2 17.3l2.7 6.1c2.1-5 4.6-15.3-2.5-23.4z"/><linearGradient id="al" gradientUnits="userSpaceOnUse" x1="-156.752" y1="708.774" x2="-147.3" y2="690.155" gradientTransform="matrix(.998 -.071 .071 .998 265.11 -655.527)"><stop offset="0" stop-color="#F69B1E"/><stop offset=".736" stop-color="#F6EC1B"/><stop offset=".778" stop-color="#F6EC31"/><stop offset=".837" stop-color="#F9EF5C"/><stop offset=".889" stop-color="#F9F17C"/><stop offset=".932" stop-color="#FBF38F"/><stop offset=".961" stop-color="#FAF396"/></linearGradient><path fill="url(#al)" d="M165.1 31.7s2.4 16-6.2 30.4c.1 3.3-.5 6.4-1.3 8.8.4.5.9.8 1.5.9-.3.3-.6.5-.9.8-.5.2-1 .5-1.6.7-.1.3-.2.5-.3.7.6-.4 1.2-.9 1.9-1.5 1.8-.8 3.3-1.4 3.3-1.4s-.3.1-1.1.4c-.5.2-1 .3-1.4.2 6.8-5.9 15.8-19.4 6.1-40zm-10 42.5c-.8.4-1.3.9-1.4 1.2-.1.2.4.1 1.3-.4 0-.3.1-.6.1-.8z"/><linearGradient id="am" gradientUnits="userSpaceOnUse" x1="117.224" y1="461.455" x2="118.495" y2="440.832" gradientTransform="matrix(.998 -.071 .071 .998 -.458 -373.406)"><stop offset="0" stop-color="#DD5E26"/><stop offset=".736" stop-color="#F6EC1B"/><stop offset=".778" stop-color="#F6EC31"/><stop offset=".837" stop-color="#F9EF5C"/><stop offset=".889" stop-color="#F9F17C"/><stop offset=".932" stop-color="#FBF38F"/><stop offset=".961" stop-color="#FAF396"/></linearGradient><path fill="url(#am)" d="M154.5 48.7s6.8 19.2-14.8 37.3c-1.3 1.1 8.8.6 9.6.2 2.6-1.2 5.6-9 5.3-8.1-.4 1 10-13.8-.1-29.4z"/><linearGradient id="an" gradientUnits="userSpaceOnUse" x1="119.184" y1="467.105" x2="159.048" y2="443.279" gradientTransform="translate(0 -371.604)"><stop offset="0" stop-color="#B82025"/><stop offset=".078" stop-color="#BA2025"/><stop offset=".182" stop-color="#BF2E26"/><stop offset=".301" stop-color="#C84827"/><stop offset=".431" stop-color="#D36E28"/><stop offset=".571" stop-color="#E2A025"/><stop offset=".715" stop-color="#F3DA0C"/><stop offset=".792" stop-color="#F6EC1B"/><stop offset=".814" stop-color="#F6EC1F"/><stop offset=".846" stop-color="#F6EC2B"/><stop offset=".884" stop-color="#F7ED42"/><stop offset=".927" stop-color="#F9F06F"/><stop offset=".974" stop-color="#FCF5A7"/><stop offset="1" stop-color="#FCF8C9"/></linearGradient><path fill="url(#an)" d="M163.9 60.9s-4.1 25-32.3 27c-11 .8-26.9-1.8-25.5 2.4.4 1.3 2.5 6.7 7.2 8 12.9 3.4 47 2.3 50.6-37.4z"/><linearGradient id="ao" gradientUnits="userSpaceOnUse" x1="165.162" y1="420.973" x2="205.999" y2="426.505" gradientTransform="matrix(.995 .099 -.099 .995 -6.154 -357.688)"><stop offset=".056" stop-color="#DE7326"/><stop offset="1" stop-color="#F5C08E"/></linearGradient><path fill="url(#ao)" d="M140.4 79.8s-17.3 3.9-28.4-5.6c-10.2-8.7-5.2-1.4-3.8 2.2 1.4 3.7-6.6.9-7.8.3-1.2-.5 19 12.1 40 3.1z"/><linearGradient id="ap" gradientUnits="userSpaceOnUse" x1="174.338" y1="402.211" x2="221.756" y2="417.114" gradientTransform="matrix(.99 .145 -.145 .99 -10.535 -348.976)"><stop offset=".056" stop-color="#DE7326"/><stop offset="1" stop-color="#F5C08E"/></linearGradient><path fill="url(#ap)" d="M129.3 89.2s-20.6-4-27.1-18c-5.6-11.9-4.1-3.2-4.3.8-.3 4.1-6-1.5-6.8-2.5-.2.1 10.5 16.9 38.2 19.7z"/><linearGradient id="aq" gradientUnits="userSpaceOnUse" x1="-631.932" y1="1028.215" x2="-609.385" y2="1071.382" gradientTransform="matrix(.984 -.18 .18 .984 525.806 -1055.705)"><stop offset=".056" stop-color="#DE7326"/><stop offset="1" stop-color="#F5C08E"/></linearGradient><path fill="url(#aq)" d="M106.8 87.4S97 79.8 92.5 69.3c-3.7-1.3-8.7-4.3-8.8-4.8 1.7 8.2 10 17.7 23.1 22.9z"/><linearGradient id="ar" gradientUnits="userSpaceOnUse" x1="197.8" y1="1.365" x2="197.8" y2="108.18" gradientTransform="matrix(1 0 0 -1 0 106)"><stop offset="0" stop-color="#0D0D0D"/><stop offset=".19" stop-color="#363636"/><stop offset=".583" stop-color="#868686"/><stop offset=".863" stop-color="#B9B9B9"/><stop offset="1" stop-color="#ccc"/></linearGradient><path opacity=".7" fill="url(#ar)" enable-background="new" d="M197.8.1c-27.7 0-47 20-47 50.1 0 26.8 18.8 51.2 47 51.2s47-24.4 47-51.2c0-30.1-19.3-50.1-47-50.1zm0 92.5C181 92.6 179 67.4 179 49.1c0-19.7 3.2-41.6 18.8-41.6s18.8 22 18.8 41.8c0 18.3-2 43.3-18.8 43.3z"/><path d="M197.4 8.4c-15.1 0-18.2 21.2-18.2 40.3 0 17.8 2.1 42 18.4 42s18-24 18-41.8c0-19.1-3.1-40.5-18.2-40.5z" fill="none"/><linearGradient id="as" gradientUnits="userSpaceOnUse" x1="197.4" y1="4.343" x2="197.4" y2="106.041" gradientTransform="matrix(1 0 0 -1 0 106)"><stop offset="0" stop-color="#961B1F"/><stop offset=".568" stop-color="#BA2024"/><stop offset="1" stop-color="#DD2227"/></linearGradient><path fill="url(#as)" d="M197.4 0c-27.5 0-46.7 19.9-46.7 49.8 0 26.6 18.7 50.8 46.7 50.8s46.7-24.2 46.7-50.8c0-29.9-19.2-49.8-46.7-49.8zm0 99.5c-27.4 0-45.6-23.7-45.6-49.7 0-29.2 18.8-48.7 45.6-48.7S243 20.6 243 49.8c0 26-18.2 49.7-45.6 49.7z"/><linearGradient id="at" gradientUnits="userSpaceOnUse" x1="197.35" y1="3.332" x2="197.35" y2="107.004" gradientTransform="matrix(1 0 0 -1 0 106)"><stop offset="0" stop-color="#D92328"/><stop offset="1" stop-color="#BC2327"/></linearGradient><path fill="url(#at)" d="M197.4 7.4c-15.5 0-18.7 21.7-18.7 41.3 0 18.2 2 43.2 18.7 43.2s18.6-24.8 18.6-43c0-19.6-3.1-41.5-18.6-41.5zm.2 83.4c-16.3 0-18.4-24-18.4-41.8 0-19.2 3.1-40.1 18.2-40.1s18.2 21.1 18.2 40.3c0 17.8-1.7 41.6-18 41.6z"/><linearGradient id="au" gradientUnits="userSpaceOnUse" x1="197.4" y1="4.342" x2="197.4" y2="106.041" gradientTransform="matrix(1 0 0 -1 0 106)"><stop offset="0" stop-color="#8B191B"/><stop offset=".48" stop-color="#AC1E22"/><stop offset="1" stop-color="#D92328"/></linearGradient><path fill="url(#au)" d="M197.4 1.2c-26.8 0-45.6 19.5-45.6 48.7 0 26 18.2 49.7 45.6 49.7S243 75.9 243 49.9c0-29.3-18.8-48.7-45.6-48.7zm0 90.7c-16.7 0-18.7-25-18.7-43.2 0-19.6 3.2-41.3 18.7-41.3S216 29.3 216 49c0 18.2-1.9 42.9-18.6 42.9z"/><linearGradient id="av" gradientUnits="userSpaceOnUse" x1="197.4" y1="3.332" x2="197.4" y2="107.005" gradientTransform="matrix(1 0 0 -1 0 106)"><stop offset="0" stop-color="#A81F23"/><stop offset=".377" stop-color="#CE2028"/><stop offset=".395" stop-color="#D02028"/><stop offset=".659" stop-color="#D42028"/><stop offset=".928" stop-color="#DF2128"/><stop offset="1" stop-color="#E32228"/></linearGradient><path fill="url(#av)" d="M197.4 1.2c-26.8 0-45.6 19.5-45.6 48.7 0 26 18.2 49.7 45.6 49.7S243 75.9 243 49.9c0-29.3-18.8-48.7-45.6-48.7zm0 90.7c-16.7 0-18.7-25-18.7-43.2 0-19.6 3.2-41.3 18.7-41.3S216 29.3 216 49c0 18.2-1.9 42.9-18.6 42.9z"/><path fill="#26BBED" d="M323.2 53c0-8.2-2.1-15.8-5.8-22.5C333.2-5.2 300.5.1 298.7.4c-6.9 1.4-13.3 3.5-19.2 6.3-.9 0-1.7-.1-2.6-.1-22 0-40.5 15.4-45.2 35.9 11.6-13 19.7-18.3 24.6-20.4-.8.7-1.5 1.4-2.3 2.1l-.7.7c-.5.5-1 .9-1.5 1.4-.3.3-.6.6-.8.9l-1.3 1.3-.9.9c-.4.4-.8.8-1.2 1.3-.3.3-.6.6-.9 1-.4.4-.7.8-1.1 1.2-.3.3-.6.7-.9 1-.3.4-.7.8-1 1.2-.3.3-.6.7-.9 1-.3.4-.6.8-.9 1.1-.3.4-.6.7-.9 1.1-.3.3-.5.7-.8 1l-.9 1.2c-.2.3-.4.6-.6.8-1.8 2.5-3.5 4.9-5 7.3l-1.2 1.8s0 .1-.1.1c-.4.6-.7 1.2-1.1 1.8v.1c-1 1.6-1.8 3.1-2.6 4.6-4.2 7.6-6.2 12.8-6.3 13.2-13.2 47.1 28 27.2 33.7 24.3 6.2 3.1 13.1 4.8 20.5 4.8 20.2 0 37.3-12.9 43.7-30.8H296c-3.6 6.1-10.5 10.2-18.5 10.2-11.7 0-21.1-8.8-21.1-19.8h66.3c.4-1.9.5-3.9.5-5.9zM229 92.8c-3.3-3.3-3.8-11.5 3.3-26.2 3.6 10.4 10.8 19.1 20.2 24.7-4.6 2.5-16.9 8.2-23.5 1.5zm26.7-48.2c.4-10.6 9.6-19.1 20.9-19.1 11.3 0 20.6 8.5 20.9 19.1h-41.8zm59.8-17.7c-5.3-8.5-13.2-15.1-22.6-18.8 4.3-2.1 14.9-6.5 20.9-2.4 4 2.7 7.2 6.9 1.7 21.2z"/><path fill="#EAEAEA" d="M315.9 0h59.2c11.3 0 20.5 9.2 20.5 20.5v59c0 11.3-9.2 20.5-20.5 20.5h-59.2c-11.3 0-20.5-9.2-20.5-20.5v-59c0-11.3 9.2-20.5 20.5-20.5z"/><linearGradient id="aw" gradientUnits="userSpaceOnUse" x1="-208.406" y1="-156.438" x2="-208.406" y2="-156.274" gradientTransform="matrix(535.5 0 0 535.5 111946.828 83778.906)"><stop offset="0" stop-color="#4EC8EE"/><stop offset="1" stop-color="#4267B0"/></linearGradient><circle fill="url(#aw)" cx="345.4" cy="50" r="43.8"/><path fill="#ED2224" d="M375.3 19.9l-33.6 26.4 7.8 7.8 25.8-34.2z"/><path fill="#fff" d="M315.4 79.9l26.4-33.6 7.8 7.8-34.2 25.8z"/><path fill="#010101" stroke="#fff" stroke-width="1.137" d="M345.4 10.5V17m0 65.8v6.4m6.9-78l-1.1 6.3m-11.5 64.8l-1.1 6.3m20.3-75.7l-2.2 6.1m-22.5 61.8l-2.2 6.1m6.6-75.7l1.1 6.3m11.5 64.8l1.1 6.3M332 12.9l2.2 6.1m22.5 61.8l2.2 6.1m-33.2-71.1l3.2 5.6m33 57l3.2 5.6m-45-64.3l4.1 4.9m42.4 50.5l4.1 4.9m-55.4-55.4l4.9 4.1m50.4 42.4l4.9 4.1m-64.2-45l5.6 3.2m57 33l5.6 3.2m-71-33.2l6.1 2.2m61.7 22.6l6.1 2.2m-75.7-20.3l6.3 1.1m64.8 11.4l6.3 1.1m-78-6.8h6.4m65.8 0h6.4m-78 6.8l6.3-1.1m64.8-11.4l6.3-1.1m-75.6 20.3l6.1-2.2m61.7-22.5l6.1-2.2m-71.1 33.1l5.6-3.2m57-32.9l5.6-3.2m-64.2 44.9l4.9-4.1m50.4-42.4l4.9-4.1m-55.4 55.5l4.1-4.9m42.4-50.5l4.1-4.9m-45 64.2l3.2-5.6m33-57l3.2-5.6M342 10.7l.3 3.5m6.3 71.4l.3 3.5m-13.7-77.2l.9 3.4m18.6 69.2l.9 3.4m-26.8-73.7l1.5 3.2m30.3 65l1.5 3.2m-39.2-67.9l2 2.9M366 79.3l2 2.9m-50.4-60.1l2.5 2.5m50.7 50.7l2.5 2.5m-60.1-50.5l2.9 2m58.7 41.2l2.9 2m-67.9-39.2l3.2 1.5M377.9 65l3.2 1.5m-73.7-26.8l3.4.9M380 59.2l3.4.9m-77.2-13.6l3.5.3m71.4 6.2l3.5.3m-78.4 0l3.5-.3m71.4-6.2l3.5-.3m-77.2 13.6l3.4-.9M380 40.6l3.4-.9m-73.6 26.8L313 65m64.9-30.3l3.2-1.5m-67.9 39.3l2.9-2m58.7-41.2l2.9-2m-54.8 54.8l2-2.9M366 20.5l2-2.9m-39.2 68l1.5-3.2m30.3-65l1.5-3.2m-26.9 73.7l.9-3.4m18.6-69.2l.9-3.4M342 89.1l.3-3.5m6.3-71.4l.3-3.5"/></svg>