<svg xmlns="http://www.w3.org/2000/svg" width="100" height="100" viewBox="0 0 100 100"><path fill="#3DB39E" d="M50 0C22.386 0 0 22.386 0 50c0 27.613 22.386 50 50 50s50-22.387 50-50c0-27.614-22.386-50-50-50z"/><path fill="#EFC75E" d="M19.232 61.603l2.68-26.548c-.002-.22-.06-1.474-1.228-1.518-.5-.02-.888-.44-.87-.94s.442-.893.94-.875c1.607.06 2.454 1.136 2.79 2.22l19.918-5.92c.428-.117.878.096 1.062.503.11.246 12.165 24.628 34.55 24.628 3.933 0 7.418 3.7 7.88 6.946l.007.02.01.01.02.1c.17 1.4-.26 3.3-1.16 4.53-22.1-.05-49.02.35-66.81.19l.24-3.35v-.01z"/><path fill="#EBEDEE" d="M34.002 37.008c-3.866 0-7 3.13-7 6.99 0 3.858 3.134 6.987 7 6.987 3.865 0 7-3.128 7-6.988 0-3.86-3.135-6.99-7-6.99z"/><path fill="#C6584E" d="M30.043 42.977c.07-.206.246-.357.46-.39l2.075-.32.902-1.944c.095-.204.298-.334.52-.334.224 0 .427.13.522.33l.902 1.94 2.075.32c.21.03.39.18.45.39.07.21.01.43-.14.59l-1.51 1.58.35 2.18c.03.22-.06.44-.24.57-.1.07-.22.1-.33.1-.1 0-.2-.02-.28-.07l-1.8-1-1.81 1.01c-.09.04-.19.07-.28.07-.12 0-.23-.04-.33-.11-.18-.13-.27-.35-.23-.57l.36-2.19-1.52-1.58c-.15-.157-.2-.385-.13-.59z"/><path fill="#DCB757" d="M21.16 64.978l3.008-31.22-.625.186c-.336-1.084-1.183-2.16-2.79-2.22-.497-.02-.92.372-.94.873s.372.922.87.94c1.167.045 1.226 1.298 1.228 1.52l-2.68 26.547.01.01-.23 3.35 2.17.014z"/><path fill="#F1CD6E" d="M86.24 57.957c-1.297-2.54-4.092-4.804-7.166-4.804-22.386 0-34.44-24.382-34.55-24.628-.185-.407-.635-.62-1.063-.502l-2.67.794c7.41 16.646 24.89 28.496 45.45 29.14z"/><path fill="#FEFEFC" d="M52.62 37.38c-.503-.497-1.315-.497-1.817 0l-2.422 2.406c-.5.498-.5 1.306 0 1.803.51.49 1.32.49 1.82 0l2.42-2.41c.5-.5.5-1.31 0-1.81zm4 4c-.503-.498-1.315-.498-1.817 0l-2.422 2.406c-.5.498-.5 1.306 0 1.803.51.49 1.32.49 1.82 0l2.42-2.41c.5-.5.5-1.31 0-1.81zm4 4c-.503-.497-1.315-.497-1.817 0l-2.422 2.406c-.5.498-.5 1.305 0 1.803.51.49 1.32.49 1.82 0l2.42-2.41c.5-.5.5-1.31 0-1.81z"/><path fill="#EBEDEE" d="M86.98 60.24l-.02-.098v-.015l-.007-.028c-.462-3.25-3.947-6.95-7.88-6.95-2.76 0-5.36-.38-7.802-1.03-1.66 2.42-2.66 5.55-2.66 8.98 0 1.28.15 2.51.42 3.69 5.75-.03 11.42-.04 16.8-.03.9-1.23 1.33-3.13 1.17-4.54z"/><path fill="#3E4E5C" d="M69.354 61.112c0-3.385 1.032-6.464 2.71-8.795-.52-.124-1.034-.26-1.54-.407-1.667 2.517-2.67 5.717-2.67 9.202 0 1.28.148 2.514.4 3.696l1.526-.006c-.272-1.172-.426-2.407-.426-3.69z"/><path fill="#D7B354" d="M86.27 64.006c.307-.618.527-1.315.644-2.008H19.207l-.14 2.008H86.27z"/><path fill="#CFAC51" d="M21.447 61.998h-2.24l-.073 1.03-.068.978h2.187z"/><path fill="#D3D5D6" d="M68.655 61.998c.037.685.113 1.354.228 2.008H86.27v-.002c.153-.308.284-.634.392-.97l.004-.014c.105-.333.188-.675.246-1.016l.002-.007h-18.26z"/><path fill="#384653" d="M68.125 64.006h1.493c-.118-.652-.2-1.322-.237-2.008h-1.47c.04.684.11 1.353.22 2.008z"/><path fill="#fff" d="M86.353 62.986H19.647c-.91 0-1.647.717-1.647 1.6v.8c0 .885.737 1.6 1.647 1.6h66.706c.91 0 1.647-.715 1.647-1.6v-.8c0-.883-.738-1.6-1.647-1.6z"/><path d="M42.018 62.986h1.97v4h-1.97zm-5 0h1.97v4h-1.97zm-5 0h1.97v4h-1.97zm-5 0h1.97v4h-1.97zm-5 0h1.968v4h-1.97zm30 0h1.97v4h-1.97zm-5 0h1.97v4h-1.97zm10 0h1.97v4h-1.97zm20 0h1.97v4h-1.97zm5 0h1.97v4h-1.97zm-10 0h1.97v4h-1.97zm-5 0h1.97v4h-1.97zm-5 0h1.97v4h-1.97z" fill="#E5E5E5"/></svg>