<svg xmlns="http://www.w3.org/2000/svg" xmlns:xlink="http://www.w3.org/1999/xlink" width="100" height="100" viewBox="0 0 100 100"><defs><path id="a" d="M50 0c27.6 0 50 22.4 50 50s-22.4 50-50 50S0 77.6 0 50 22.4 0 50 0z"/></defs><clipPath id="b"><use xlink:href="#a" overflow="visible"/></clipPath><path clip-path="url(#b)" fill="#E2574C" d="M50 0c27.6 0 50 22.4 50 50s-22.4 50-50 50S0 77.6 0 50 22.4 0 50 0z"/><path clip-path="url(#b)" fill="#324D5B" d="M.6 42c-.4 2.6-.6 5.3-.6 8 0 8.7 2.2 16.9 6.1 24h87.7c3.9-7.1 6.1-15.3 6.1-24 0-2.7-.2-5.4-.6-8H.6z"/><path clip-path="url(#b)" fill="#475F6C" d="M8.6 78c5.4 7.9 12.9 14.2 21.8 18h39.2c8.9-3.8 16.5-10.1 21.8-18H8.6z"/><path clip-path="url(#b)" fill="#3E5765" d="M65 42L45 74h18l20-32H65zm-16 0L29 74h8l20-32h-8z"/><path clip-path="url(#b)" d="M53.5 48c-.5 0-1.1.4-1.4 1-.3.6-.1 1 .4 1s1.1-.4 1.4-1c.2-.6.1-1-.4-1zm-32 0c-.5 0-1.1.4-1.4 1-.3.6-.1 1 .4 1s1.1-.4 1.4-1c.2-.6.1-1-.4-1z" fill="none"/><g class="products" clip-path="url(#b)"><path fill="#FAFAFA" d="M72.2 37v10l-10 16-1-10 9-16h2z"/><path fill="#EDEDED" d="M56.2 37h16l-10 16h-16l10-16z"/><path fill="#BEBEBE" d="M62.2 53h-16v10h16V53z"/><path fill="#7D8D95" d="M65.8 39h-6.7c-.5 0-1 .3-1.2.7l-6.5 9.2c-.6.9.1 2.2 1.2 2.2h6.7c.5 0 1-.3 1.2-.7l6.5-9.2c.6-1-.1-2.2-1.2-2.2zM57 49c-.3.6-.9 1-1.4 1-.5 0-.6-.4-.4-1 .3-.6.9-1 1.4-1s.7.4.4 1zm-.8 7.8c-.4-.5-1-.8-1.8-.8-1.2 0-2.2.9-2.2 2s1 2 2.2 2c.7 0 1.3-.3 1.8-.8-.6-.2-1-.7-1-1.2s.4-1.1 1-1.2z"/><path fill="#FAFAFA" d="M102 37v10L92 63l-1-10 9-16h2z"/><path fill="#EDEDED" d="M86 37h16L92 53H76l10-16z"/><path fill="#BEBEBE" d="M92 53H76v10h16V53z"/><path fill="#7D8D95" d="M95.6 39h-6.7c-.5 0-1 .3-1.2.7l-6.5 9.2c-.6.9.1 2.2 1.2 2.2h6.7c.5 0 1-.3 1.2-.7l6.5-9.2c.7-1 0-2.2-1.2-2.2zm-8.7 10c-.3.6-.9 1-1.4 1-.5 0-.6-.4-.4-1 .3-.6.9-1 1.4-1s.6.4.4 1zm-.9 7.8c-.4-.5-1-.8-1.8-.8-1.2 0-2.2.9-2.2 2s1 2 2.2 2c.7 0 1.3-.3 1.8-.8-.6-.2-1-.7-1-1.2s.4-1.1 1-1.2z"/><path fill="#FAFAFA" d="M42.3 37v10l-10 16-1-10 9-16h2z"/><path fill="#EDEDED" d="M26.3 37h16l-10 16h-16l10-16z"/><path fill="#BEBEBE" d="M32.3 53h-16v10h16V53z"/><path fill="#7D8D95" d="M35.9 39h-6.7c-.5 0-1 .3-1.2.7l-6.5 9.2c-.6.9.1 2.2 1.2 2.2h6.7c.5 0 1-.3 1.2-.7l6.5-9.2c.7-1 0-2.2-1.2-2.2zm-8.7 10c-.3.6-.9 1-1.4 1-.5 0-.6-.4-.4-1 .3-.6.9-1 1.4-1s.6.4.4 1zm-.9 7.8c-.4-.5-1-.8-1.8-.8-1.2 0-2.2.9-2.2 2s1 2 2.2 2c.7 0 1.3-.3 1.8-.8-.6-.2-1-.7-1-1.2s.4-1.1 1-1.2z"/><path fill="#FAFAFA" d="M12.5 37v10l-10 16-1-10 9-16h2z"/><path fill="#EDEDED" d="M-3.5 37h16l-10 16h-16l10-16z"/><path fill="#BEBEBE" d="M2.5 53h-16v10h16V53z"/><path fill="#7D8D95" d="M6.1 39H-.6c-.5 0-1 .3-1.2.7l-6.5 9.2c-.7.9 0 2.1 1.1 2.1h6.7c.5 0 1-.3 1.2-.7l6.5-9.2c.7-.9 0-2.1-1.1-2.1zm-8.8 10c-.3.6-.9 1-1.4 1-.5 0-.6-.4-.4-1 .3-.6.9-1 1.4-1s.7.4.4 1zm-.8 7.8c-.4-.5-1-.8-1.8-.8-1.2 0-2.2.9-2.2 2s1 2 2.2 2c.7 0 1.3-.3 1.8-.8-.6-.2-1-.7-1-1.2s.4-1.1 1-1.2z"/></g><path clip-path="url(#b)" fill="#EFC75E" d="M75 54h24.8c.1-1.3.2-2.7.2-4 0-9.2-2.5-17.8-6.8-25.1L75 54z"/><path clip-path="url(#b)" fill="#283E49" d="M6.1 74c.8 1.4 1.6 2.7 2.4 4h82.9c.9-1.3 1.7-2.6 2.4-4H6.1zm24.3 22c6 2.6 12.7 4 19.6 4s13.6-1.4 19.6-4H30.4z"/><g clip-path="url(#b)" fill="#394C56"><path d="M21 90.7c.6-.7 1-1.6 1-2.7 0-2.2-1.8-4-4-4-1.3 0-2.4.6-3.1 1.6 1.8 1.8 3.9 3.5 6.1 5.1z"/><circle cx="50" cy="88" r="4"/><circle cx="34" cy="88" r="4"/><path d="M82 84c-2.2 0-4 1.8-4 4 0 1 .4 2 1.1 2.7 2.2-1.6 4.2-3.3 6.1-5.1-.8-1-1.9-1.6-3.2-1.6z"/><circle cx="66" cy="88" r="4"/></g><g clip-path="url(#b)" fill="#70838D"><path d="M20.3 90.2c1-.7 1.7-1.9 1.7-3.2 0-2.2-1.8-4-4-4-1.5 0-2.9.9-3.5 2.2 1.8 1.8 3.7 3.5 5.8 5z"/><circle cx="34" cy="87" r="4"/><path d="M85.5 85.2c-.7-1.3-2-2.2-3.5-2.2-2.2 0-4 1.8-4 4 0 1.3.7 2.5 1.7 3.2 2.1-1.5 4-3.2 5.8-5z"/><circle cx="66" cy="87" r="4"/><circle cx="50" cy="87" r="4"/></g><path clip-path="url(#b)" fill="#405561" d="M90 80c.5-.7 1-1.3 1.4-2H8.6c.5.7.9 1.3 1.4 2h80z"/><path clip-path="url(#b)" fill="#CBA950" d="M75 93.3c13.9-8 23.5-22.5 24.8-39.3H75v39.3z"/></svg>