<svg xmlns="http://www.w3.org/2000/svg" xmlns:xlink="http://www.w3.org/1999/xlink" width="220.6" height="32" viewBox="0 0 220.6 32"><path d="M31.1 10h-3.4V8.2h3.4V7c0-3.5.1-7 4.4-7 .7 0 1.5.1 1.9.3l-.1 1.8c-.4-.2-1-.4-1.6-.4-2.8 0-2.5 3-2.5 5v1.4H37V10h-3.8v14.9h-2.1V10zm11.3-6.2h-2.1V1h2.1v2.8zm-2.1 4.4h2.1v16.7h-2.1V8.2zM46.6.4h2.1v24.5h-2.1V.4zm15.6 21.8c-1 2-3.3 3.1-5.4 3.1-4.7 0-5.5-3.2-5.5-4.7 0-5.6 6-5.9 10.3-5.9h.4v-.9c0-2.8-1-4.3-3.8-4.3-1.7 0-3.4.4-4.9 1.4V9c1.3-.6 3.4-1.1 4.9-1.1 4.1 0 5.9 1.9 5.9 6.2v7.4c0 1.3 0 2.4.2 3.5h-2l-.1-2.8zm-.1-5.7h-.6c-3.6 0-7.8.4-7.8 4 0 2.2 1.6 3 3.5 3 4.8 0 4.9-4.2 4.9-6v-1zm26.4 8.4V13.8c0-2.4-.9-4.2-3.5-4.2-2.3 0-4.5 1.9-4.5 6.1v9.2h-2.1V13.8c0-2.4-.9-4.2-3.5-4.2-2.3 0-4.5 1.9-4.5 6.1v9.2h-2.1V12.2c0-1.3 0-2.6-.1-3.9h2v2.8h.1c.7-1.1 1.6-3.2 5.2-3.2 1.5 0 3.9.6 4.4 3.5h.1c.8-2 2.7-3.5 5.3-3.5 3.4 0 5.3 2.4 5.3 5.6V25l-2.1-.1zm17-.5c-1.4.6-3.3.9-4.8.9-5.5 0-7.6-3.7-7.6-8.7 0-5.1 2.8-8.7 7-8.7 4.7 0 6.6 3.8 6.6 8.3v1H95.3c0 3.5 1.9 6.4 5.5 6.4 1.5 0 3.7-.6 4.7-1.2v2zm-1-9c0-2.9-1.2-5.8-4.3-5.8-3 0-4.9 3-4.9 5.8h9.2zm5.5-3.2c0-1.3 0-2.6-.1-3.9h2v3h.1c.7-1.5 1.9-3.4 5.4-3.4 4.1 0 5.7 2.7 5.7 6.4V25H121V14.8c0-3.1-1.1-5.2-4-5.2-3.8 0-4.9 3.3-4.9 6.1v9.2H110V12.2zm24.2-2.2h-3.8v10.8c0 1.5.6 2.7 2.2 2.7.8 0 1.3-.2 1.9-.4l.1 1.7c-.5.2-1.5.5-2.5.5-3.7 0-3.8-2.5-3.8-5.6V10H125V8.2h3.3v-4l2.1-.7v4.7h3.8V10zm24 13.5c0 4.6-2.1 8.4-7.8 8.4-2.2 0-4.2-.6-5-.9l.2-2.1c1.3.7 3.1 1.2 4.9 1.2 5.3 0 5.8-3.9 5.8-8.6h-.1c-1.1 2.4-2.9 3.3-5.1 3.3-5.3 0-7-4.6-7-8.3 0-5.1 2-8.7 6.9-8.7 2.2 0 3.7.3 5.2 2.3h.1V8.2h2.1l-.2 15.3zm-7.1-.3c3.7 0 5.1-3.5 5.1-6.6 0-4-1.2-7-4.9-7-3.9 0-4.9 3.7-4.9 7-.1 3.2 1.2 6.6 4.7 6.6zM162.5 12c0-1.8 0-2.5-.1-3.7h2.1v3.2h.1c.8-1.9 2.2-3.6 4.3-3.6.5 0 1.1.1 1.4.2v2.2c-.4-.1-1-.2-1.5-.2-3.3 0-4.2 3.7-4.2 6.7V25h-2.1V12zm16.2-4.2c5.4 0 7.8 4.2 7.8 8.7 0 4.5-2.4 8.7-7.8 8.7s-7.8-4.2-7.8-8.7c0-4.5 2.4-8.7 7.8-8.7zm0 15.7c3.6 0 5.5-3.1 5.5-7s-1.9-7-5.5-7-5.5 3.1-5.5 7 1.9 7 5.5 7zm24-2.5c0 1.3 0 2.6.1 3.9h-2v-3h-.1c-.7 1.5-1.9 3.4-5.4 3.4-4.1 0-5.7-2.7-5.7-6.4V8.2h2.1v10.1c0 3.1 1.1 5.2 4 5.2 3.8 0 4.9-3.3 4.9-6.1V8.2h2.1V21zm3.7-12.8h2.1l-.1 3h.1c.5-.9 1.8-3.4 5.3-3.4 4.9 0 6.9 3.7 6.9 8.7 0 4.9-2.3 8.7-6.9 8.7-2.6 0-4.2-1.1-5.2-3.2h-.1v9.7h-2.1V8.2zm7 1.4c-3.7 0-4.9 3.9-4.9 7 0 3 1.3 7 4.9 7 3.9 0 4.9-3.7 4.9-7s-1-7-4.9-7z" fill="#fff"/><defs><path id="a" d="M1.1 6.8H19v18.1H1.1z"/></defs><clipPath id="b"><use xlink:href="#a" overflow="visible"/></clipPath><g clip-path="url(#b)"><linearGradient id="c" gradientUnits="userSpaceOnUse" x1="14.226" y1="9.116" x2="8.707" y2="30.741" gradientTransform="matrix(1 0 0 -1 0 32.38)"><stop offset="0" stop-color="#117E3F"/><stop offset="1" stop-color="#0FAA4B"/></linearGradient><path fill="url(#c)" d="M27.1.1L17.6 29l-20.8-.6L-.8.6"/><linearGradient id="d" gradientUnits="userSpaceOnUse" x1="-3.328" y1="18.961" x2="14.02" y2="18.961" gradientTransform="matrix(1 0 0 -1 0 32.38)"><stop offset="0" stop-color="#0FAA4B"/><stop offset=".428" stop-color="#0EA94B"/><stop offset=".651" stop-color="#12A149"/><stop offset=".827" stop-color="#0B9447"/><stop offset=".977" stop-color="#128240"/><stop offset="1" stop-color="#117E3F"/></linearGradient><path opacity=".9" fill="url(#d)" enable-background="new" d="M13.6 27.6S3.4 13 3.5.7C3.5-11.6-3.3-4-3.3-4s5 26.7 12.2 34.3c7.3 7.7 4.7-2.7 4.7-2.7z"/><path opacity=".91" fill="#0FAA4B" enable-background="new" d="M19.1 27.4S11.1 31 12.6 3l10.2-.7-3.7 25.1z"/></g><path stroke="#fff" stroke-width="1.742" stroke-miterlimit="10" d="M19.5 22c0 1.6-1.3 3-3 3H3.9c-1.6 0-3-1.3-3-3V9.3c0-1.6 1.3-3 3-3h12.7c1.6 0 3 1.3 3 3L19.5 22zm0 0c0 1.6-1.3 3-3 3H3.9c-1.6 0-3-1.3-3-3V9.3c0-1.6 1.3-3 3-3h12.7c1.6 0 3 1.3 3 3L19.5 22z" fill="none"/></svg>