<svg xmlns="http://www.w3.org/2000/svg" xmlns:xlink="http://www.w3.org/1999/xlink" width="200.8" height="29.1" viewBox="0 0 200.8 29.1"><path d="M28.3 9.1h-3.1V7.5h3.1V6.4c0-3.2.1-6.4 4-6.4.6 0 1.4.1 1.8.3L34 1.9c-.4-.2-1-.3-1.5-.3-2.6 0-2.3 2.8-2.3 4.6v1.3h3.4v1.6h-3.4v13.6h-1.9V9.1zm10.3-5.6h-1.9V1h1.9v2.5zm-1.9 4h1.9v15.2h-1.9V7.5zM42.4.4h1.9v22.3h-1.9V.4zm14.3 19.8c-.9 1.8-3 2.8-4.9 2.8-4.3 0-5-2.9-5-4.3 0-5.1 5.4-5.3 9.3-5.3h.4v-.8c0-2.6-.9-3.9-3.5-3.9-1.6 0-3.1.4-4.5 1.3V8.2c1.2-.6 3.1-1 4.5-1 3.8 0 5.3 1.7 5.3 5.7v6.7c0 1.2 0 2.1.1 3.2h-1.8l.1-2.6zm-.2-5.2H56c-3.2 0-7.1.3-7.1 3.7 0 2 1.4 2.7 3.2 2.7 4.4 0 4.5-3.8 4.5-5.5V15zm24.1 7.7V12.6c0-2.1-.8-3.8-3.2-3.8-2.1 0-4.1 1.8-4.1 5.5v8.4h-1.9V12.6c0-2.1-.8-3.8-3.2-3.8-2.1 0-4.1 1.8-4.1 5.5v8.4h-1.9V11.1c0-1.2 0-2.4-.1-3.6h1.8v2.6h.1c.6-1 1.5-2.9 4.7-2.9 1.3 0 3.5.6 4 3.2h.1c.7-1.8 2.5-3.2 4.9-3.2 3.1 0 4.8 2.1 4.8 5.1v10.4h-1.9zm15.4-.5c-1.3.5-3 .8-4.4.8-5 0-6.9-3.4-6.9-7.9 0-4.6 2.6-7.9 6.4-7.9 4.3 0 6 3.5 6 7.5v1H86.8c0 3.2 1.7 5.8 5 5.8 1.4 0 3.4-.6 4.3-1.1v1.8zm-.9-8.2c0-2.6-1.1-5.3-3.9-5.3s-4.5 2.8-4.5 5.3h8.4zm5-2.9c0-1.2 0-2.4-.1-3.6h1.8v2.7h.1c.6-1.4 1.8-3.1 4.9-3.1 3.7 0 5.2 2.5 5.2 5.8v9.7h-1.9v-9.2c0-2.9-1-4.7-3.6-4.7-3.4 0-4.5 3-4.5 5.5v8.4h-1.9V11.1zm22-2h-3.5v9.8c0 1.4.5 2.5 2 2.5.7 0 1.2-.1 1.7-.4l.1 1.5c-.4.2-1.4.4-2.3.4-3.3 0-3.5-2.3-3.5-5.1V9.1h-3V7.5h3V3.8l1.9-.7v4.3h3.5l.1 1.7zM144 21.4c0 4.2-1.9 7.7-7.1 7.7-2 0-3.8-.6-4.6-.8l.1-1.9c1.2.6 2.8 1.1 4.5 1.1 4.8 0 5.2-3.5 5.2-7.8h-.1c-1 2.2-2.7 3-4.6 3-4.9 0-6.4-4.2-6.4-7.6 0-4.6 1.8-7.9 6.3-7.9 2 0 3.3.3 4.7 2.1h.1V7.5h1.9v13.9zm-6.5-.3c3.4 0 4.6-3.2 4.6-6 0-3.7-1.1-6.3-4.5-6.3-3.6 0-4.5 3.4-4.5 6.3.1 3 1.3 6 4.4 6zM148 10.9c0-1.7 0-2.3-.1-3.4h1.9v2.9h.1c.7-1.7 2-3.3 3.9-3.3.4 0 1 .1 1.3.2v2c-.4-.1-.9-.2-1.4-.2-3 0-3.8 3.3-3.8 6.1v7.5H148V10.9zm14.7-3.8c4.9 0 7.1 3.8 7.1 7.9 0 4.1-2.2 7.9-7.1 7.9-4.9 0-7.1-3.8-7.1-7.9 0-4 2.1-7.9 7.1-7.9zm0 14.3c3.3 0 5-2.8 5-6.3s-1.8-6.3-5-6.3c-3.3 0-5 2.8-5 6.3-.1 3.5 1.7 6.3 5 6.3zm21.8-2.3c0 1.2 0 2.4.1 3.6h-1.8V20h-.1c-.6 1.4-1.8 3.1-4.9 3.1-3.7 0-5.2-2.5-5.2-5.8V7.5h1.9v9.2c0 2.9 1 4.7 3.6 4.7 3.4 0 4.5-3 4.5-5.5V7.5h1.9v11.6zm3.4-11.6h1.9l-.1 2.8h.1c.5-.8 1.6-3.1 4.9-3.1 4.5 0 6.3 3.3 6.3 7.9 0 4.5-2.1 7.9-6.3 7.9-2.4 0-3.8-1-4.7-2.9h-.1v8.8H188l-.1-21.4zm6.3 1.3c-3.3 0-4.5 3.6-4.5 6.3 0 2.8 1.2 6.3 4.5 6.3 3.6 0 4.5-3.4 4.5-6.3 0-3-.9-6.3-4.5-6.3z" fill="#fff"/><defs><path id="a" d="M1 6.2h16.3v16.5H1z"/></defs><clipPath id="b"><use xlink:href="#a" overflow="visible"/></clipPath><g clip-path="url(#b)"><linearGradient id="c" gradientUnits="userSpaceOnUse" x1="12.95" y1="11.203" x2="7.926" y2="30.888" gradientTransform="matrix(1 0 0 -1 0 32.38)"><stop offset="0" stop-color="#117E3F"/><stop offset="1" stop-color="#0FAA4B"/></linearGradient><path fill="url(#c)" d="M24.7.1L16 26.4l-18.9-.5L-.8.5"/><linearGradient id="d" gradientUnits="userSpaceOnUse" x1="-3.029" y1="20.165" x2="12.762" y2="20.165" gradientTransform="matrix(1 0 0 -1 0 32.38)"><stop offset="0" stop-color="#0FAA4B"/><stop offset=".428" stop-color="#0EA94B"/><stop offset=".651" stop-color="#12A149"/><stop offset=".827" stop-color="#0B9447"/><stop offset=".977" stop-color="#128240"/><stop offset="1" stop-color="#117E3F"/></linearGradient><path opacity=".9" fill="url(#d)" enable-background="new" d="M12.3 25.2S3 11.9 3.1.7C3.2-10.5-3-3.7-3-3.7S1.6 20.6 8.1 27.6c6.6 7 4.2-2.4 4.2-2.4z"/><path opacity=".91" fill="#0FAA4B" enable-background="new" d="M17.4 24.9s-7.3 3.3-5.9-22.2l9.3-.6-3.4 22.8z"/></g><path stroke="#fff" stroke-width="1.586" stroke-miterlimit="10" d="M17.8 20c0 1.5-1.2 2.7-2.7 2.7H3.5C2 22.7.8 21.5.8 20V8.5C.8 7 2 5.8 3.5 5.8H15c1.5 0 2.7 1.2 2.7 2.7l.1 11.5zm0 0c0 1.5-1.2 2.7-2.7 2.7H3.5C2 22.7.8 21.5.8 20V8.5C.8 7 2 5.8 3.5 5.8H15c1.5 0 2.7 1.2 2.7 2.7l.1 11.5z" fill="none"/></svg>