<svg xmlns="http://www.w3.org/2000/svg" width="100" height="100" viewBox="0 0 100 100"><path class="disc" fill="#324D5B" d="M50 0c27.6 0 50 22.4 50 50s-22.4 50-50 50S0 77.6 0 50 22.4 0 50 0z"/><path fill="#EDEDED" d="M52 .1c-.7-.1-1.3-.1-2-.1s-1.3 0-2 .1v30h4V.1z"/><path fill="#CACACA" d="M48 30h2V0c-.7 0-1.3 0-2 .1V30z"/><path class="beam" fill="#EAE9DC" d="M89.8 80.2L77.6 54H22.4L10.2 80.3C19.3 92.3 33.8 100 50 100c16.2 0 30.7-7.8 39.8-19.8z"/><path class="lampshade" fill="#3DB39E" d="M50 66c-14 0-29-3.8-29-12.1C21 38.5 34 26 50 26s29 12.5 29 27.9C79 62.2 64 66 50 66z"/><path opacity=".24" fill="#282828" d="M31 51.9C31 60.2 46 64 60 64c2.8 0 5.6-.2 8.3-.5C63 65.2 56.4 66 50 66c-14 0-29-3.8-29-12.1C21 38.8 33.6 26.4 49.2 26 38.5 30.1 31 40.2 31 51.9z"/><path fill="#939393" d="M78.6 56.2C76 51.3 62.6 49 50 49c-12.6 0-26 2.3-28.6 7.3C24 62.9 37.4 66 50 66c12.6 0 26-3.1 28.6-9.8z"/><path class="shade-inner" fill="#F4F0D3" d="M78.6 56.2C76 51.3 62.6 49 50 49c-12.6 0-26 2.3-28.6 7.3C24 62.9 37.4 66 50 66c12.6 0 26-3.1 28.6-9.8z"/><path opacity=".49" fill="#C6C6C6" d="M50 49c-12.6 0-26 2.3-28.6 7.3l.1.1c5.3-3 15.6-4.4 25.5-4.4 12.6 0 26 2.3 28.6 7.2-.2.4-.4.9-.6 1.3 1.7-1.2 3-2.6 3.6-4.3C76 51.3 62.6 49 50 49z"/><path fill="#E5E5E5" d="M50 59c-5 0-9-4-9-9v-.6c2.9-.3 6-.4 9-.4s6 .1 9 .4v.6c0 5-4 9-9 9z"/><path fill="#ccc" d="M53 57c-4.6 0-8.3-3.4-8.9-7.8-1 .1-2 .1-3 .2v.6c0 5 4 9 9 9 2.5 0 4.8-1 6.4-2.7-1.2.5-2.3.7-3.5.7z"/><path class="bulb-on" fill="#EFC75E" d="M50 59c-5 0-9-4-9-9v-.6c2.9-.3 6-.4 9-.4s6 .1 9 .4v.6c0 5-4 9-9 9z"/><path fill="#E3BD59" class="bulb-on" d="M53 57c-4.6 0-8.3-3.4-8.9-7.8-1 .1-2 .1-3 .2v.6c0 5 4 9 9 9 2.5 0 4.8-1 6.4-2.7-1.2.5-2.3.7-3.5.7z"/></svg>