<svg xmlns="http://www.w3.org/2000/svg" width="245.3" height="186.2" viewBox="0 0 245.3 186.2"><g fill="#fff"><path d="M44.9 151.6c0 2.2-.1 4.4-.4 6.8-.3 2.3-.7 4.6-1.2 6.9-.6 2.2-1.3 4.4-2.2 6.4-.9 2-2.1 3.8-3.4 5.3-1.3 1.5-2.9 2.7-4.7 3.6-1.8.9-3.9 1.3-6.2 1.3-.4 0-.9 0-1.5-.1s-1.2-.2-1.9-.3c-.6-.2-1.3-.3-2-.5s-1.2-.4-1.8-.7c-.5-.3-.9-.7-1.2-1.1-.3-.4-.5-.9-.5-1.4 0-.3.1-.7.2-1.1.1-.5.3-.9.6-1.3s.6-.8 1-1.1c.4-.3.9-.5 1.4-.5.6-.1 1.3-.1 1.9.2.6.2 1.3.5 2 .7.7.2 1.4.5 2.1.8.7.3 1.5.4 2.2.4.8 0 1.7-.4 2.5-1.3s1.6-2 2.3-3.4c.7-1.4 1.4-2.9 2-4.7.6-1.7 1.1-3.5 1.5-5.2-.9.7-1.9 1.5-2.9 2.1-1 .7-2.1 1.3-3.4 1.8-1.3.5-2.8.9-4.4 1.2-1.7.3-3.6.4-5.7.4-2.5 0-5-.5-7.4-1.5-2.4-1-4.3-2.4-5.8-4.1-1.4-1.7-2.6-3.8-3.3-6.1-.8-2.3-1.2-4.7-1.2-7.3 0-3.3.4-6.5 1.2-9.5.8-3 1.9-5.8 3.3-8.4 1.4-2.6 3.1-5 5-7.1 1.9-2.1 4-3.9 6.2-5.4 2.2-1.5 4.5-2.6 7-3.5 2.4-.8 4.9-1.2 7.3-1.2 1.5 0 2.9.2 4.2.7 1.3.5 2.4 1.2 3.4 2.1 1 1 1.7 2.2 2.2 3.6.5 1.5.8 3.2.8 5.2 0 .8-.1 1.6-.3 2.4-.2.8-.5 1.6-.9 2.4-.6.9-1.2 1.5-1.7 1.9-.6.4-1.1.5-1.6.5-.4 0-.8-.1-1.1-.3-.3-.2-.6-.5-.9-.8-.2-.3-.4-.7-.6-1.1-.1-.4-.2-.9-.2-1.3s.1-.7.2-1c.1-.3.2-.7.3-1 .1-.3.2-.7.3-1 .1-.4.2-.7.2-1.1 0-1.9-.4-3.3-1.2-4.2-.8-.9-1.9-1.4-3.1-1.4-1.5 0-3.1.3-4.8.9-1.7.6-3.3 1.5-4.9 2.7-1.6 1.2-3.1 2.6-4.6 4.4-1.5 1.7-2.7 3.7-3.8 5.9-1.1 2.2-2 4.7-2.6 7.4-.6 2.7-1 5.6-1 8.7 0 2 .2 3.8.7 5.4.5 1.5 1.3 2.8 2.6 3.8 1.2 1 2.5 1.8 3.8 2.3 1.3.5 2.7.7 4.3.7 3 0 5.7-.4 8.2-1.3 2.5-.9 4.8-2 7-3.6.1-.6.3-1.2.4-1.7.1-.6.2-1.1.2-1.5 0-.6-.1-1.1-.2-1.4-.2-.4-.4-.6-.6-.8-.3-.2-.6-.3-.9-.3-.3 0-.7-.1-1.1-.1-.7 0-1.3-.1-1.9-.3-.5-.2-1-.4-1.4-.7-.4-.3-.7-.6-.8-1-.2-.4-.3-.8-.3-1.2 0-.4.1-.8.3-1.1.2-.4.5-.7.8-1 .4-.3.8-.5 1.4-.7.6-.2 1.2-.3 2-.3 1.8 0 3.3.2 4.5.6 1.2.4 2.1.9 2.8 1.7.7.7 1.1 1.7 1.4 2.7-.2.5-.1 1.8-.1 3.1zm4.8 3.6c0-.8 0-1.8.1-2.9.1-1.1.2-2.3.4-3.5.2-1.2.3-2.5.6-3.7.2-1.3.5-2.6.8-4.1.3-1.4.6-2.6.9-3.6.2-1 .5-1.7.7-2.4.1-.4.3-.7.5-1 .1-.2.3-.4.5-.6.2-.1.4-.2.7-.3.3 0 .7-.1 1.1-.1.5 0 .9 0 1.1.1.3 0 .5.2.6.3.1.2.2.4.2.8v1.4c0 .7 0 1.7-.1 3s-.1 2.4-.1 3.4h.3c.4-.8.8-1.7 1.4-3 .6-1.2 1.2-2.2 1.8-3 .6-.8 1.3-1.5 2.1-2 .8-.6 1.7-.8 2.7-.8.4 0 .7.1 1 .2.3.1.6.3.9.5.3.2.5.5.6.8.1.3.2.7.2 1.1 0 .3 0 .8-.1 1.3-.1.6-.2 1.3-.5 2.2-.2.9-.4 1.7-.5 2.3-.1.6-.1 1.1-.1 1.5 0 .7.1 1.2.2 1.7s.3.8.5 1.1c.2.3.5.5.7.6.3.1.6.2.9.2.8 0 1.7-.2 2.6-.6.9-.4 1.7-.8 2.5-1.3.9-.5 1.7-1.2 2.6-1.9l-.4 6.6c-.5.3-1 .7-1.7 1.1-.6.4-1.3.8-2 1.1-.7.3-1.4.6-2.2.9-.8.2-1.5.4-2.3.4-1.4 0-2.5-.3-3.4-.9-.9-.6-1.5-1.3-2.1-2.3-.5-.9-.9-2-1.1-3.1-.2-1.2-.4-2.3-.6-3.5h-.5l-5 14.1c-.3.7-.5 1.3-.7 1.8-.2.5-.5.9-.7 1.2-.2.3-.5.5-.8.6-.3.1-.6.2-.9.2-.8 0-1.4-.2-1.9-.5s-.8-.8-1.1-1.3c-.3-.6-.4-1.2-.5-1.9.2-.7.1-1.5.1-2.2zm45.5-20.4c0 .5 0 1.2-.1 2.1 0 .9-.1 1.8-.3 2.9-.2 1-.4 2.3-.7 3.7-.3 1.5-.5 2.7-.7 3.6-.2 1-.3 1.8-.5 2.5-.1.7-.2 1.2-.2 1.6v1.5c0 .4.1.8.1 1.2.1.3.2.6.4.8.2.2.4.3.7.3.4 0 .9-.1 1.5-.3.6-.2 1.2-.5 1.9-.8.7-.3 1.3-.7 2-1.2.7-.4 1.4-.9 2-1.4.6-.5 1.2-1 1.7-1.5l1.3-1.3v6.2c-.4.4-.9.8-1.5 1.3s-1.3.9-2 1.4c-.7.5-1.5.9-2.4 1.3-.8.4-1.7.8-2.5 1.1-.8.3-1.7.6-2.5.8-.8.2-1.6.3-2.2.3-.7 0-1.3-.1-1.8-.4s-.9-.7-1.3-1.2-.7-1.1-.9-1.8-.5-1.5-.7-2.3c-.7.9-1.4 1.7-2.1 2.4-.8.7-1.5 1.4-2.3 1.9-.8.5-1.6 1-2.4 1.3-.8.3-1.6.5-2.3.5-.6 0-1.2-.1-1.7-.3-.5-.2-1-.6-1.4-1-.4-.5-.8-1.1-1-1.9-.2-.8-.4-1.8-.4-3 0-2.5.2-4.3.6-5.7.6-1.9 1.1-4.8 1.6-8.6.1-.3.1-.7.2-1.1.1-.5.2-1 .4-1.6.2-.6.4-1.1.7-1.7.3-.6.6-1.1.9-1.6.4-.5.8-.9 1.3-1.2.5-.3 1-.5 1.6-.5 1 0 1.7.2 2.1.5.4.3.6.6.6 1-.2 1.3-.4 2.5-.6 3.7-.2 1.2-.4 2.3-.6 3.5s-.5 2.5-.7 4c-.3 1.5-.5 2.6-.6 3.5-.2.9-.3 1.6-.4 2.1-.1.5-.1.8-.1.8 0 .3 0 .7.1 1l.3.9c.1.3.3.5.5.6.2.2.5.2.7.2.4 0 .8-.1 1.3-.3.4-.2.8-.5 1.2-1 .4-.4.7-.9 1-1.5.3-.6.5-1.3.7-2.1l3.1-15.3c.1-.5.5-.8 1.1-1.1.6-.3 1.4-.5 2.2-.5.9 0 1.7.2 2.2.5.6.3.9.7.9 1.2zm6.1 20.4c0-1.2.1-2.7.2-4.3.1-1.6.3-3.4.6-5.3.2-1.9.5-3.7.8-5.3.3-1.6.6-2.9.8-4 .2-.9.6-1.6 1.2-2.2.6-.6 1.4-.9 2.4-.9s1.7.3 2.1.9c.4.6.6 1.4.6 2.5 0 .3 0 .7-.1 1.1-.1.5-.1 1-.2 1.6l-.3 1.8c-.1.6-.2 1.3-.3 2.1-.1.8-.2 1.4-.2 1.7-.1.4-.1.6-.1.8h.6c.1-.2.3-.5.5-1s.5-1.1.8-2c.3-.9.7-1.6 1-2.3.4-.7.7-1.3 1-1.9.3-.6.6-1.1.9-1.6.3-.5.5-.8.6-1 .6-1 1.3-1.7 2.1-2.1.8-.4 1.6-.6 2.6-.6.9 0 1.7.4 2.2 1.2.6.8.8 1.9.8 3.3 0 .2 0 .6-.1 1-.1.5-.2 1.1-.3 1.7-.1.7-.3 1.5-.4 2.6-.2 1.1-.3 2-.4 2.9-.1.8-.2 1.7-.3 2.5-.1.8-.1 1.6-.1 2.3 0 1.2.1 2.1.4 2.9.3.8.7 1.1 1.4 1.1.2 0 .5-.1 1-.3.6-.2 1-.4 1.2-.6.8-.6 1.3-.9 1.3-.9.1 0 .7-.4 1.9-1.1 1.5-1 3.3-2.1 5.4-3.5v6.3l-1.4 1.1c-.1.1-1 .6-2.6 1.5-2.4 1.3-3.9 2-4.5 2.3-1.5.7-2.4 1-2.7 1.1-.9.3-1.9.5-3 .5-1 0-1.9-.7-2.6-2.2-.7-1.5-1.1-3.7-1.1-6.5 0-1.1.1-2.3.2-3.6.1-1.3.3-2.7.6-4.2h-.5l-7.4 14.6c-.4.8-.8 1.3-1.3 1.6-.5.3-1 .4-1.6.4-.8 0-1.4-.2-1.9-.5s-.8-.8-1.1-1.3c-.3-.6-.4-1.2-.5-1.9s-.2-1.6-.2-2.3zm50.7-.4c-1.8 1.1-3.4 2-4.8 2.8-1.4.8-2.7 1.4-3.8 2-1.1.5-2.1.9-2.9 1.2-.9.3-1.6.4-2.3.4-1.4 0-2.7-.4-3.8-1.3-1.1-.9-2-2.1-2.7-3.7-.7-1.6-1.3-3.6-1.6-5.9-.4-2.3-.5-4.9-.5-7.8 0-1.1 0-2.3.1-3.6.1-1.3.2-2.5.4-3.8-.6-.1-1-.2-1.3-.2-.3-.1-.6-.1-1-.2-.3-.1-.8-.2-1.3-.2-.5-.1-1.3-.2-2.3-.3-.5-.1-.8-.2-1-.4-.2-.2-.4-.4-.5-.6-.1-.2-.2-.5-.2-.8v-.7c0-.3.2-.5.6-.7.4-.2.8-.3 1.4-.4.6-.1 1.2-.1 1.9-.1h4.7c.5-2.5 1.1-5 1.9-7.3.8-2.4 1.6-4.5 2.6-6.3 1-1.8 2-3.3 3.2-4.4 1.1-1.1 2.3-1.7 3.6-1.7.8 0 1.5.2 2.2.7.7.5 1.2 1.1 1.7 1.8.5.8.8 1.6 1.1 2.6.3 1 .4 2 .4 3.1 0 .9-.1 1.9-.4 2.9s-.6 2-1.1 3.1c-.5 1-1 2.1-1.6 3.2-.6 1.1-1.3 2.1-1.9 3.2.2-.1.5-.1.8 0 .4 0 .8.1 1.4.1h1.7c.6 0 1.2 0 1.7.1.6 0 1.1 0 1.6.1.5 0 .9 0 1.2.1.4 0 .6.2.8.6.2.4.3.9.3 1.5 0 .7-.2 1.3-.6 1.7-.4.4-.8.7-1.2.7h-10.8c-.5.8-1.1 1.5-1.7 2.2-.6.7-1.1 1.4-1.5 2-.1 1.2-.1 2.3-.2 3.4 0 .5 0 1-.1 1.5 0 .5 0 1-.1 1.5v2.8c0 1 .1 1.9.3 2.6.2.7.5 1.3.8 1.7.4.4.8.8 1.3 1 .5.2 1.1.3 1.7.3.4 0 .9-.1 1.5-.3.6-.2 1.2-.4 1.9-.8.7-.3 1.4-.7 2.2-1.2.8-.5 1.5-.9 2.3-1.5.8-.5 1.5-1.1 2.2-1.7.7-.6 1.3-1.2 1.9-1.8v6.8zm-9-35.7v-.7c0-.3-.1-.5-.2-.7s-.2-.4-.4-.6c-.2-.1-.5-.2-.8-.2-.5 0-1 .4-1.5 1.3s-1 2-1.4 3.3c-.5 1.3-.9 2.8-1.3 4.4-.4 1.6-.8 3.2-1.1 4.7.3 0 .6.1.8.1.3 0 .6 0 .9.1.6-.9 1.2-2 1.8-3.1.6-1.1 1.2-2.2 1.7-3.3.5-1.1.9-2.1 1.2-3 .2-.9.3-1.7.3-2.3zm24 36c-.7.6-1.5 1.3-2.5 2s-2.1 1.4-3.3 1.9c-1.2.6-2.4 1.1-3.6 1.5-1.2.4-2.4.6-3.4.6s-1.8-.1-2.5-.4c-.7-.3-1.2-.7-1.6-1.1-.4-.5-.7-1.1-.9-1.8-.2-.7-.3-1.5-.3-2.3 0-1.2.1-2.6.4-4.1.5-3.3.9-5.1 1-5.5.3-.8.8-2.6 1.5-5.3.7-2.2 1.2-3.7 1.3-4.4.1-.5.4-.9.8-1.3.4-.3.8-.6 1.3-.8.5-.2 1-.4 1.5-.5.5-.1 1-.2 1.4-.2.8 0 1.3.1 1.6.4.3.3.4.7.4 1.2 0 .4-.1 1-.3 1.8-.2.8-.4 1.6-.7 2.6-.2 1-.6 2.2-1.1 3.7-.5 1.5-.8 2.8-1 3.9-.2 1.1-.4 2.1-.7 3.2-.3 1.1-.4 2-.4 2.9 0 .8.1 1.5.3 2 .2.5.6.7 1.2.7.7 0 1.4-.2 2.3-.7.8-.5 1.7-1 2.5-1.7s1.7-1.4 2.5-2.1c.8-.7 1.5-1.3 2.1-1.8v5.6zm-12.6-29.6c0-.4.1-.9.3-1.5.2-.5.5-1.1.9-1.5.4-.5 1-.9 1.7-1.2.7-.3 1.6-.5 2.6-.5.7 0 1.3.1 1.9.2.6.2 1.1.4 1.5.7.4.3.8.7 1 1.2.3.5.4 1.1.4 1.8 0 .6-.1 1.3-.3 1.9-.2.6-.5 1.1-1 1.6s-1 .9-1.7 1.2c-.7.3-1.5.4-2.5.4-1.7 0-2.9-.4-3.7-1.2-.7-.7-1.1-1.8-1.1-3.1zm19.4 35.6c-1.7 0-3.3-.3-4.6-1-1.3-.6-2.4-1.5-3.3-2.6-.9-1.1-1.6-2.3-2-3.7-.5-1.4-.7-2.9-.7-4.4 0-1.1.2-2.4.6-3.9.4-1.5.8-2.8 1.2-4 .4-1.1 1-2.2 1.6-3.3.7-1 1.4-1.9 2.3-2.7.9-.8 1.8-1.4 2.9-1.9 1.1-.5 2.2-.7 3.5-.7 1.1 0 2.2.2 3.2.5s1.8.8 2.5 1.4c.7.6 1.2 1.3 1.6 2.1.4.8.6 1.7.6 2.6 0 .6-.1 1.3-.3 1.9-.2.6-.5 1.3-1.1 2.2-.5.8-1 1.4-1.5 1.7-.5.3-1.1.5-1.7.5-.9 0-1.6-.2-1.8-.7-.5-.7-.6-1.4-.4-1.9.1-.3.2-1 .5-2.1v-1c0-.5 0-.8-.1-1.1-.1-.3-.3-.5-.6-.5-.8 0-1.4.2-2 .5-.5.4-1 .8-1.4 1.4-.4.6-.8 1.4-1.1 2.5-.4 1.1-.6 2-.8 2.7-.2.7-.3 1.4-.3 2.1 0 .7-.1 1.2-.1 1.7 0 .7.1 1.4.2 2.1.1.7.4 1.4.7 2 .4.6.8 1.1 1.4 1.5.6.4 1.3.6 2.2.6.9 0 1.9-.3 3-.8 1.1-.6 2.2-1.3 3.3-2.1 1.1-.8 2.1-1.8 3.1-2.8 1-1 1.8-2 2.6-2.9l1.9 3.3c-1.4 2-2.9 3.8-4.6 5.4-.7.7-1.4 1.3-2.3 2-.8.6-1.7 1.2-2.6 1.7-.9.5-1.8.9-2.8 1.2-.9.3-1.8.5-2.8.5zm29.7-21.7c.5 1.1 1 2.2 1.2 3.4.3 1.2.4 2.6.4 4.1 0 1.1-.1 2.2-.4 3.4-.2 1.1-.6 2.2-1.1 3.3-.5 1.1-1 2-1.7 3-.7.9-1.4 1.7-2.3 2.4-.9.7-1.8 1.2-2.8 1.6-1 .4-2.1.6-3.2.6-1.7 0-3.1-.4-4.2-1.1-1.2-.7-2.1-1.7-2.9-2.8s-1.3-2.5-1.6-3.9c-.3-1.5-.5-2.9-.5-4.4 0-2.5.3-4.6.9-6.4.6-1.8 1.5-3.4 2.7-4.7 1.2-1.3 2.6-2.4 4.2-3.1 1.7-.8 3.5-1.1 5.6-1.1 1.8 0 3.5.3 5 .8 1.6.6 3 1.3 4.4 2.2 1.4.9 2.6 2.1 3.8 3.5 1.2 1.4 2.3 2.8 3.3 4l-.5 4c-.5-.7-1.2-1.4-2.1-2.2-.9-.8-1.8-1.7-2.7-2.6-1-1-1.9-1.8-2.9-2.4-.9-.7-1.7-1.2-2.4-1.7l-.2.1zm-8.7 16.3c.6 0 1.3-.3 1.9-1 .6-.6 1.1-1.5 1.6-2.4.5-1 .8-2.2 1.1-3.6.3-1.4.4-2.6.4-3.7 0-.9-.1-1.7-.2-2.4s-.3-1.4-.6-1.9-.6-1-1-1.3c-.4-.3-.9-.5-1.5-.5-.8 0-1.5.3-2.2 1-.7.7-1.3 1.5-1.8 2.5s-.9 2.2-1.2 3.4c-.3 1.2-.5 2.6-.5 4.2 0 .8.1 1.5.2 2.2.2.7.4 1.3.7 1.8.3.5.7.9 1.3 1.2.5.3 1.1.5 1.8.5zm15.7-.5c0-1.2.1-2.7.2-4.3.2-1.6.3-3.4.6-5.3.2-1.9.5-3.7.8-5.3.3-1.6.6-2.9.8-4 .2-.9.6-1.6 1.2-2.2.6-.6 1.4-.9 2.4-.9s1.7.3 2.1.9c.4.6.6 1.4.6 2.5 0 .3 0 .7-.1 1.1-.1.5-.1 1-.2 1.6l-.3 1.8c-.1.6-.2 1.3-.3 2.1-.1.8-.2 1.4-.2 1.7s-.1.6-.1.8h.6c.1-.2.3-.5.5-1s.5-1.1.8-2c.3-.9.7-1.6 1-2.3.4-.7.7-1.3 1-1.9.3-.6.6-1.1.9-1.6.3-.5.5-.8.6-1 .6-1 1.3-1.7 2.1-2.1.8-.4 1.6-.6 2.6-.6.9 0 1.7.4 2.2 1.2.6.8.8 1.9.8 3.3 0 .2 0 .6-.1 1-.1.5-.2 1.1-.3 1.7-.1.7-.3 1.5-.4 2.6-.2 1.1-.3 2-.4 2.9-.1.8-.2 1.7-.3 2.5-.1.8-.1 1.6-.1 2.3 0 1.2.1 2.1.4 2.9.3.8.7 1.1 1.4 1.1.2 0 .5-.1 1-.3.6-.2 1-.4 1.2-.6.8-.6 1.3-.9 1.3-.9.1 0 .7-.4 1.9-1.1 1.5-1 3.3-2.1 5.4-3.5v6.3l-1.4 1.1c-.1.1-1 .6-2.6 1.5-2.4 1.3-3.9 2-4.5 2.3-1.5.7-2.4 1-2.7 1.1-.9.3-1.9.5-3 .5-1 0-1.9-.7-2.6-2.2-.7-1.5-1.1-3.7-1.1-6.5 0-1.1.1-2.3.2-3.6.1-1.3.3-2.7.6-4.2h-.5l-7.4 14.6c-.4.8-.8 1.3-1.3 1.6-.5.3-1 .4-1.6.4-.8 0-1.4-.2-1.9-.5s-.8-.8-1.1-1.3c-.3-.6-.4-1.2-.5-1.9-.1-.8-.2-1.6-.2-2.3z" opacity=".5" stroke="#083554" stroke-width="6.658"/><path d="M44.9 151.6c0 2.2-.1 4.4-.4 6.8-.3 2.3-.7 4.6-1.2 6.9-.6 2.2-1.3 4.4-2.2 6.4-.9 2-2.1 3.8-3.4 5.3-1.3 1.5-2.9 2.7-4.7 3.6-1.8.9-3.9 1.3-6.2 1.3-.4 0-.9 0-1.5-.1s-1.2-.2-1.9-.3c-.6-.2-1.3-.3-2-.5s-1.2-.4-1.8-.7c-.5-.3-.9-.7-1.2-1.1-.3-.4-.5-.9-.5-1.4 0-.3.1-.7.2-1.1.1-.5.3-.9.6-1.3s.6-.8 1-1.1c.4-.3.9-.5 1.4-.5.6-.1 1.3-.1 1.9.2.6.2 1.3.5 2 .7.7.2 1.4.5 2.1.8.7.3 1.5.4 2.2.4.8 0 1.7-.4 2.5-1.3s1.6-2 2.3-3.4c.7-1.4 1.4-2.9 2-4.7.6-1.7 1.1-3.5 1.5-5.2-.9.7-1.9 1.5-2.9 2.1-1 .7-2.1 1.3-3.4 1.8-1.3.5-2.8.9-4.4 1.2-1.7.3-3.6.4-5.7.4-2.5 0-5-.5-7.4-1.5-2.4-1-4.3-2.4-5.8-4.1-1.4-1.7-2.6-3.8-3.3-6.1-.8-2.3-1.2-4.7-1.2-7.3 0-3.3.4-6.5 1.2-9.5.8-3 1.9-5.8 3.3-8.4 1.4-2.6 3.1-5 5-7.1 1.9-2.1 4-3.9 6.2-5.4 2.2-1.5 4.5-2.6 7-3.5 2.4-.8 4.9-1.2 7.3-1.2 1.5 0 2.9.2 4.2.7 1.3.5 2.4 1.2 3.4 2.1 1 1 1.7 2.2 2.2 3.6.5 1.5.8 3.2.8 5.2 0 .8-.1 1.6-.3 2.4-.2.8-.5 1.6-.9 2.4-.6.9-1.2 1.5-1.7 1.9-.6.4-1.1.5-1.6.5-.4 0-.8-.1-1.1-.3-.3-.2-.6-.5-.9-.8-.2-.3-.4-.7-.6-1.1-.1-.4-.2-.9-.2-1.3s.1-.7.2-1c.1-.3.2-.7.3-1 .1-.3.2-.7.3-1 .1-.4.2-.7.2-1.1 0-1.9-.4-3.3-1.2-4.2-.8-.9-1.9-1.4-3.1-1.4-1.5 0-3.1.3-4.8.9-1.7.6-3.3 1.5-4.9 2.7-1.6 1.2-3.1 2.6-4.6 4.4-1.5 1.7-2.7 3.7-3.8 5.9-1.1 2.2-2 4.7-2.6 7.4-.6 2.7-1 5.6-1 8.7 0 2 .2 3.8.7 5.4.5 1.5 1.3 2.8 2.6 3.8 1.2 1 2.5 1.8 3.8 2.3 1.3.5 2.7.7 4.3.7 3 0 5.7-.4 8.2-1.3 2.5-.9 4.8-2 7-3.6.1-.6.3-1.2.4-1.7.1-.6.2-1.1.2-1.5 0-.6-.1-1.1-.2-1.4-.2-.4-.4-.6-.6-.8-.3-.2-.6-.3-.9-.3-.3 0-.7-.1-1.1-.1-.7 0-1.3-.1-1.9-.3-.5-.2-1-.4-1.4-.7-.4-.3-.7-.6-.8-1-.2-.4-.3-.8-.3-1.2 0-.4.1-.8.3-1.1.2-.4.5-.7.8-1 .4-.3.8-.5 1.4-.7.6-.2 1.2-.3 2-.3 1.8 0 3.3.2 4.5.6 1.2.4 2.1.9 2.8 1.7.7.7 1.1 1.7 1.4 2.7-.2.5-.1 1.8-.1 3.1zm4.8 3.6c0-.8 0-1.8.1-2.9.1-1.1.2-2.3.4-3.5.2-1.2.3-2.5.6-3.7.2-1.3.5-2.6.8-4.1.3-1.4.6-2.6.9-3.6.2-1 .5-1.7.7-2.4.1-.4.3-.7.5-1 .1-.2.3-.4.5-.6.2-.1.4-.2.7-.3.3 0 .7-.1 1.1-.1.5 0 .9 0 1.1.1.3 0 .5.2.6.3.1.2.2.4.2.8v1.4c0 .7 0 1.7-.1 3s-.1 2.4-.1 3.4h.3c.4-.8.8-1.7 1.4-3 .6-1.2 1.2-2.2 1.8-3 .6-.8 1.3-1.5 2.1-2 .8-.6 1.7-.8 2.7-.8.4 0 .7.1 1 .2.3.1.6.3.9.5.3.2.5.5.6.8.1.3.2.7.2 1.1 0 .3 0 .8-.1 1.3-.1.6-.2 1.3-.5 2.2-.2.9-.4 1.7-.5 2.3-.1.6-.1 1.1-.1 1.5 0 .7.1 1.2.2 1.7s.3.8.5 1.1c.2.3.5.5.7.6.3.1.6.2.9.2.8 0 1.7-.2 2.6-.6.9-.4 1.7-.8 2.5-1.3.9-.5 1.7-1.2 2.6-1.9l-.4 6.6c-.5.3-1 .7-1.7 1.1-.6.4-1.3.8-2 1.1-.7.3-1.4.6-2.2.9-.8.2-1.5.4-2.3.4-1.4 0-2.5-.3-3.4-.9-.9-.6-1.5-1.3-2.1-2.3-.5-.9-.9-2-1.1-3.1-.2-1.2-.4-2.3-.6-3.5h-.5l-5 14.1c-.3.7-.5 1.3-.7 1.8-.2.5-.5.9-.7 1.2-.2.3-.5.5-.8.6-.3.1-.6.2-.9.2-.8 0-1.4-.2-1.9-.5s-.8-.8-1.1-1.3c-.3-.6-.4-1.2-.5-1.9.2-.7.1-1.5.1-2.2zm45.5-20.4c0 .5 0 1.2-.1 2.1 0 .9-.1 1.8-.3 2.9-.2 1-.4 2.3-.7 3.7-.3 1.5-.5 2.7-.7 3.6-.2 1-.3 1.8-.5 2.5-.1.7-.2 1.2-.2 1.6v1.5c0 .4.1.8.1 1.2.1.3.2.6.4.8.2.2.4.3.7.3.4 0 .9-.1 1.5-.3.6-.2 1.2-.5 1.9-.8.7-.3 1.3-.7 2-1.2.7-.4 1.4-.9 2-1.4.6-.5 1.2-1 1.7-1.5l1.3-1.3v6.2c-.4.4-.9.8-1.5 1.3s-1.3.9-2 1.4c-.7.5-1.5.9-2.4 1.3-.8.4-1.7.8-2.5 1.1-.8.3-1.7.6-2.5.8-.8.2-1.6.3-2.2.3-.7 0-1.3-.1-1.8-.4s-.9-.7-1.3-1.2-.7-1.1-.9-1.8-.5-1.5-.7-2.3c-.7.9-1.4 1.7-2.1 2.4-.8.7-1.5 1.4-2.3 1.9-.8.5-1.6 1-2.4 1.3-.8.3-1.6.5-2.3.5-.6 0-1.2-.1-1.7-.3-.5-.2-1-.6-1.4-1-.4-.5-.8-1.1-1-1.9-.2-.8-.4-1.8-.4-3 0-2.5.2-4.3.6-5.7.6-1.9 1.1-4.8 1.6-8.6.1-.3.1-.7.2-1.1.1-.5.2-1 .4-1.6.2-.6.4-1.1.7-1.7.3-.6.6-1.1.9-1.6.4-.5.8-.9 1.3-1.2.5-.3 1-.5 1.6-.5 1 0 1.7.2 2.1.5.4.3.6.6.6 1-.2 1.3-.4 2.5-.6 3.7-.2 1.2-.4 2.3-.6 3.5s-.5 2.5-.7 4c-.3 1.5-.5 2.6-.6 3.5-.2.9-.3 1.6-.4 2.1-.1.5-.1.8-.1.8 0 .3 0 .7.1 1l.3.9c.1.3.3.5.5.6.2.2.5.2.7.2.4 0 .8-.1 1.3-.3.4-.2.8-.5 1.2-1 .4-.4.7-.9 1-1.5.3-.6.5-1.3.7-2.1l3.1-15.3c.1-.5.5-.8 1.1-1.1.6-.3 1.4-.5 2.2-.5.9 0 1.7.2 2.2.5.6.3.9.7.9 1.2zm6.1 20.4c0-1.2.1-2.7.2-4.3.1-1.6.3-3.4.6-5.3.2-1.9.5-3.7.8-5.3.3-1.6.6-2.9.8-4 .2-.9.6-1.6 1.2-2.2.6-.6 1.4-.9 2.4-.9s1.7.3 2.1.9c.4.6.6 1.4.6 2.5 0 .3 0 .7-.1 1.1-.1.5-.1 1-.2 1.6l-.3 1.8c-.1.6-.2 1.3-.3 2.1-.1.8-.2 1.4-.2 1.7-.1.4-.1.6-.1.8h.6c.1-.2.3-.5.5-1s.5-1.1.8-2c.3-.9.7-1.6 1-2.3.4-.7.7-1.3 1-1.9.3-.6.6-1.1.9-1.6.3-.5.5-.8.6-1 .6-1 1.3-1.7 2.1-2.1.8-.4 1.6-.6 2.6-.6.9 0 1.7.4 2.2 1.2.6.8.8 1.9.8 3.3 0 .2 0 .6-.1 1-.1.5-.2 1.1-.3 1.7-.1.7-.3 1.5-.4 2.6-.2 1.1-.3 2-.4 2.9-.1.8-.2 1.7-.3 2.5-.1.8-.1 1.6-.1 2.3 0 1.2.1 2.1.4 2.9.3.8.7 1.1 1.4 1.1.2 0 .5-.1 1-.3.6-.2 1-.4 1.2-.6.8-.6 1.3-.9 1.3-.9.1 0 .7-.4 1.9-1.1 1.5-1 3.3-2.1 5.4-3.5v6.3l-1.4 1.1c-.1.1-1 .6-2.6 1.5-2.4 1.3-3.9 2-4.5 2.3-1.5.7-2.4 1-2.7 1.1-.9.3-1.9.5-3 .5-1 0-1.9-.7-2.6-2.2-.7-1.5-1.1-3.7-1.1-6.5 0-1.1.1-2.3.2-3.6.1-1.3.3-2.7.6-4.2h-.5l-7.4 14.6c-.4.8-.8 1.3-1.3 1.6-.5.3-1 .4-1.6.4-.8 0-1.4-.2-1.9-.5s-.8-.8-1.1-1.3c-.3-.6-.4-1.2-.5-1.9s-.2-1.6-.2-2.3zm50.7-.4c-1.8 1.1-3.4 2-4.8 2.8-1.4.8-2.7 1.4-3.8 2-1.1.5-2.1.9-2.9 1.2-.9.3-1.6.4-2.3.4-1.4 0-2.7-.4-3.8-1.3-1.1-.9-2-2.1-2.7-3.7-.7-1.6-1.3-3.6-1.6-5.9-.4-2.3-.5-4.9-.5-7.8 0-1.1 0-2.3.1-3.6.1-1.3.2-2.5.4-3.8-.6-.1-1-.2-1.3-.2-.3-.1-.6-.1-1-.2-.3-.1-.8-.2-1.3-.2-.5-.1-1.3-.2-2.3-.3-.5-.1-.8-.2-1-.4-.2-.2-.4-.4-.5-.6-.1-.2-.2-.5-.2-.8v-.7c0-.3.2-.5.6-.7.4-.2.8-.3 1.4-.4.6-.1 1.2-.1 1.9-.1h4.7c.5-2.5 1.1-5 1.9-7.3.8-2.4 1.6-4.5 2.6-6.3 1-1.8 2-3.3 3.2-4.4 1.1-1.1 2.3-1.7 3.6-1.7.8 0 1.5.2 2.2.7.7.5 1.2 1.1 1.7 1.8.5.8.8 1.6 1.1 2.6.3 1 .4 2 .4 3.1 0 .9-.1 1.9-.4 2.9s-.6 2-1.1 3.1c-.5 1-1 2.1-1.6 3.2-.6 1.1-1.3 2.1-1.9 3.2.2-.1.5-.1.8 0 .4 0 .8.1 1.4.1h1.7c.6 0 1.2 0 1.7.1.6 0 1.1 0 1.6.1.5 0 .9 0 1.2.1.4 0 .6.2.8.6.2.4.3.9.3 1.5 0 .7-.2 1.3-.6 1.7-.4.4-.8.7-1.2.7h-10.8c-.5.8-1.1 1.5-1.7 2.2-.6.7-1.1 1.4-1.5 2-.1 1.2-.1 2.3-.2 3.4 0 .5 0 1-.1 1.5 0 .5 0 1-.1 1.5v2.8c0 1 .1 1.9.3 2.6.2.7.5 1.3.8 1.7.4.4.8.8 1.3 1 .5.2 1.1.3 1.7.3.4 0 .9-.1 1.5-.3.6-.2 1.2-.4 1.9-.8.7-.3 1.4-.7 2.2-1.2.8-.5 1.5-.9 2.3-1.5.8-.5 1.5-1.1 2.2-1.7.7-.6 1.3-1.2 1.9-1.8v6.8zm-9-35.7v-.7c0-.3-.1-.5-.2-.7s-.2-.4-.4-.6c-.2-.1-.5-.2-.8-.2-.5 0-1 .4-1.5 1.3s-1 2-1.4 3.3c-.5 1.3-.9 2.8-1.3 4.4-.4 1.6-.8 3.2-1.1 4.7.3 0 .6.1.8.1.3 0 .6 0 .9.1.6-.9 1.2-2 1.8-3.1.6-1.1 1.2-2.2 1.7-3.3.5-1.1.9-2.1 1.2-3 .2-.9.3-1.7.3-2.3zm24 36c-.7.6-1.5 1.3-2.5 2s-2.1 1.4-3.3 1.9c-1.2.6-2.4 1.1-3.6 1.5-1.2.4-2.4.6-3.4.6s-1.8-.1-2.5-.4c-.7-.3-1.2-.7-1.6-1.1-.4-.5-.7-1.1-.9-1.8-.2-.7-.3-1.5-.3-2.3 0-1.2.1-2.6.4-4.1.5-3.3.9-5.1 1-5.5.3-.8.8-2.6 1.5-5.3.7-2.2 1.2-3.7 1.3-4.4.1-.5.4-.9.8-1.3.4-.3.8-.6 1.3-.8.5-.2 1-.4 1.5-.5.5-.1 1-.2 1.4-.2.8 0 1.3.1 1.6.4.3.3.4.7.4 1.2 0 .4-.1 1-.3 1.8-.2.8-.4 1.6-.7 2.6-.2 1-.6 2.2-1.1 3.7-.5 1.5-.8 2.8-1 3.9-.2 1.1-.4 2.1-.7 3.2-.3 1.1-.4 2-.4 2.9 0 .8.1 1.5.3 2 .2.5.6.7 1.2.7.7 0 1.4-.2 2.3-.7.8-.5 1.7-1 2.5-1.7s1.7-1.4 2.5-2.1c.8-.7 1.5-1.3 2.1-1.8v5.6zm-12.6-29.6c0-.4.1-.9.3-1.5.2-.5.5-1.1.9-1.5.4-.5 1-.9 1.7-1.2.7-.3 1.6-.5 2.6-.5.7 0 1.3.1 1.9.2.6.2 1.1.4 1.5.7.4.3.8.7 1 1.2.3.5.4 1.1.4 1.8 0 .6-.1 1.3-.3 1.9-.2.6-.5 1.1-1 1.6s-1 .9-1.7 1.2c-.7.3-1.5.4-2.5.4-1.7 0-2.9-.4-3.7-1.2-.7-.7-1.1-1.8-1.1-3.1zm19.4 35.6c-1.7 0-3.3-.3-4.6-1-1.3-.6-2.4-1.5-3.3-2.6-.9-1.1-1.6-2.3-2-3.7-.5-1.4-.7-2.9-.7-4.4 0-1.1.2-2.4.6-3.9.4-1.5.8-2.8 1.2-4 .4-1.1 1-2.2 1.6-3.3.7-1 1.4-1.9 2.3-2.7.9-.8 1.8-1.4 2.9-1.9 1.1-.5 2.2-.7 3.5-.7 1.1 0 2.2.2 3.2.5s1.8.8 2.5 1.4c.7.6 1.2 1.3 1.6 2.1.4.8.6 1.7.6 2.6 0 .6-.1 1.3-.3 1.9-.2.6-.5 1.3-1.1 2.2-.5.8-1 1.4-1.5 1.7-.5.3-1.1.5-1.7.5-.9 0-1.6-.2-1.8-.7-.5-.7-.6-1.4-.4-1.9.1-.3.2-1 .5-2.1v-1c0-.5 0-.8-.1-1.1-.1-.3-.3-.5-.6-.5-.8 0-1.4.2-2 .5-.5.4-1 .8-1.4 1.4-.4.6-.8 1.4-1.1 2.5-.4 1.1-.6 2-.8 2.7-.2.7-.3 1.4-.3 2.1 0 .7-.1 1.2-.1 1.7 0 .7.1 1.4.2 2.1.1.7.4 1.4.7 2 .4.6.8 1.1 1.4 1.5.6.4 1.3.6 2.2.6.9 0 1.9-.3 3-.8 1.1-.6 2.2-1.3 3.3-2.1 1.1-.8 2.1-1.8 3.1-2.8 1-1 1.8-2 2.6-2.9l1.9 3.3c-1.4 2-2.9 3.8-4.6 5.4-.7.7-1.4 1.3-2.3 2-.8.6-1.7 1.2-2.6 1.7-.9.5-1.8.9-2.8 1.2-.9.3-1.8.5-2.8.5zm29.7-21.7c.5 1.1 1 2.2 1.2 3.4.3 1.2.4 2.6.4 4.1 0 1.1-.1 2.2-.4 3.4-.2 1.1-.6 2.2-1.1 3.3-.5 1.1-1 2-1.7 3-.7.9-1.4 1.7-2.3 2.4-.9.7-1.8 1.2-2.8 1.6-1 .4-2.1.6-3.2.6-1.7 0-3.1-.4-4.2-1.1-1.2-.7-2.1-1.7-2.9-2.8s-1.3-2.5-1.6-3.9c-.3-1.5-.5-2.9-.5-4.4 0-2.5.3-4.6.9-6.4.6-1.8 1.5-3.4 2.7-4.7 1.2-1.3 2.6-2.4 4.2-3.1 1.7-.8 3.5-1.1 5.6-1.1 1.8 0 3.5.3 5 .8 1.6.6 3 1.3 4.4 2.2 1.4.9 2.6 2.1 3.8 3.5 1.2 1.4 2.3 2.8 3.3 4l-.5 4c-.5-.7-1.2-1.4-2.1-2.2-.9-.8-1.8-1.7-2.7-2.6-1-1-1.9-1.8-2.9-2.4-.9-.7-1.7-1.2-2.4-1.7l-.2.1zm-8.7 16.3c.6 0 1.3-.3 1.9-1 .6-.6 1.1-1.5 1.6-2.4.5-1 .8-2.2 1.1-3.6.3-1.4.4-2.6.4-3.7 0-.9-.1-1.7-.2-2.4s-.3-1.4-.6-1.9-.6-1-1-1.3c-.4-.3-.9-.5-1.5-.5-.8 0-1.5.3-2.2 1-.7.7-1.3 1.5-1.8 2.5s-.9 2.2-1.2 3.4c-.3 1.2-.5 2.6-.5 4.2 0 .8.1 1.5.2 2.2.2.7.4 1.3.7 1.8.3.5.7.9 1.3 1.2.5.3 1.1.5 1.8.5zm15.7-.5c0-1.2.1-2.7.2-4.3.2-1.6.3-3.4.6-5.3.2-1.9.5-3.7.8-5.3.3-1.6.6-2.9.8-4 .2-.9.6-1.6 1.2-2.2.6-.6 1.4-.9 2.4-.9s1.7.3 2.1.9c.4.6.6 1.4.6 2.5 0 .3 0 .7-.1 1.1-.1.5-.1 1-.2 1.6l-.3 1.8c-.1.6-.2 1.3-.3 2.1-.1.8-.2 1.4-.2 1.7s-.1.6-.1.8h.6c.1-.2.3-.5.5-1s.5-1.1.8-2c.3-.9.7-1.6 1-2.3.4-.7.7-1.3 1-1.9.3-.6.6-1.1.9-1.6.3-.5.5-.8.6-1 .6-1 1.3-1.7 2.1-2.1.8-.4 1.6-.6 2.6-.6.9 0 1.7.4 2.2 1.2.6.8.8 1.9.8 3.3 0 .2 0 .6-.1 1-.1.5-.2 1.1-.3 1.7-.1.7-.3 1.5-.4 2.6-.2 1.1-.3 2-.4 2.9-.1.8-.2 1.7-.3 2.5-.1.8-.1 1.6-.1 2.3 0 1.2.1 2.1.4 2.9.3.8.7 1.1 1.4 1.1.2 0 .5-.1 1-.3.6-.2 1-.4 1.2-.6.8-.6 1.3-.9 1.3-.9.1 0 .7-.4 1.9-1.1 1.5-1 3.3-2.1 5.4-3.5v6.3l-1.4 1.1c-.1.1-1 .6-2.6 1.5-2.4 1.3-3.9 2-4.5 2.3-1.5.7-2.4 1-2.7 1.1-.9.3-1.9.5-3 .5-1 0-1.9-.7-2.6-2.2-.7-1.5-1.1-3.7-1.1-6.5 0-1.1.1-2.3.2-3.6.1-1.3.3-2.7.6-4.2h-.5l-7.4 14.6c-.4.8-.8 1.3-1.3 1.6-.5.3-1 .4-1.6.4-.8 0-1.4-.2-1.9-.5s-.8-.8-1.1-1.3c-.3-.6-.4-1.2-.5-1.9-.1-.8-.2-1.6-.2-2.3zM56.7 184.6h1l-.9-2.6h-4.4l-.9 2.6h1.2v1.3H49v-1.3h1l3.6-10.2h2.2l3.6 10.2h1.2v1.3h-3.7v-1.3zm-3.9-3.9h3.6l-1.8-5.2-1.8 5.2zm12.3-6.3h8.3v3.3h-1.6v-2h-4.1v3.7h4v1.3h-4v3.9h1.2v1.3h-3.7v-1.3h1.1v-8.9h-1.1v-1.3zm9-.3h2.6v10.5h1.2v1.3h-3.7v-1.3h1.1v-9.2h-1.1v-1.3zm6.5 8.1v.6c0 .2.1.4.1.5.2.5.5.9.9 1.1.4.3.9.4 1.4.4.4 0 .8-.1 1.2-.2.4-.1.8-.3 1.2-.5l.6 1c-.5.4-1 .6-1.6.8-.5.2-1.1.3-1.6.3s-1-.1-1.5-.3c-.5-.2-.8-.4-1.2-.8-.3-.4-.6-.8-.8-1.3-.2-.5-.3-1.1-.3-1.8 0-.6.1-1.1.2-1.6.2-.5.4-.9.7-1.3.3-.4.7-.7 1.2-.9.5-.2 1-.3 1.6-.3.6 0 1.1.1 1.5.3.4.2.7.4 1 .7.3.3.4.6.6 1l.3 1.2v1.2h-5.5zm2.2-3.2c-.3 0-.6 0-.9.1-.2.1-.5.2-.6.4-.2.2-.3.4-.4.6-.1.3-.2.5-.2.9h4.1c0-.3-.1-.6-.1-.8-.1-.2-.2-.5-.3-.6s-.3-.3-.6-.4c-.3-.1-.6-.2-1-.2zm10 5.6h.4l-1.6-2-1.5 2h.4v1.3h-2.6v-1.3h.6l2.4-2.8-2.3-2.5h-.8V178h2.6v1.3h-.3l1.5 1.9 1.5-1.9h-.4V178h2.6v1.3h-.7l-2.2 2.6 2.4 2.7h.6v1.3h-2.6v-1.3zm3.7-6.6h2.6v6.6h1.2v1.3h-3.7v-1.3h1.1v-5.3h-1.1V178zm.9-2.8c0-.1 0-.3.1-.4.1-.1.1-.2.2-.3.1-.1.2-.2.3-.2.1-.1.3-.1.4-.1.1 0 .3 0 .4.1.1.1.2.1.3.2.1.1.2.2.2.3s.1.2.1.4c0 .1 0 .3-.1.4s-.1.2-.2.3c-.1.1-.2.2-.3.2-.1.1-.2.1-.4.1-.1 0-.3 0-.4-.1-.1-.1-.2-.1-.3-.2-.1-.1-.2-.2-.2-.3-.1-.1-.1-.2-.1-.4zm3.8-1.1h2.6v4.6c.3-.3.7-.5 1.1-.6s.8-.2 1.2-.2c.5 0 1 .1 1.4.3.4.2.8.5 1.1.8.3.4.6.8.7 1.3.2.5.3 1 .3 1.6 0 .6-.1 1.2-.3 1.7-.2.5-.5 1-.8 1.3-.3.4-.8.7-1.2.9s-1 .3-1.6.3c-.4 0-.8-.1-1.1-.2-.3-.1-.6-.3-.9-.4v.5h-1.4v-10.5h-1.1v-1.4zm4.5 5c-.4 0-.7.1-1.1.2l-.9.6v4.2c.2.2.4.3.7.4.3.1.7.2 1.2.2.3 0 .6-.1.9-.2.3-.1.6-.3.8-.6.2-.2.4-.6.5-.9.1-.4.2-.8.2-1.3 0-.4-.1-.8-.2-1.2-.1-.3-.3-.6-.5-.9s-.5-.4-.8-.5h-.8zm5.3-5h2.6v10.5h1.2v1.3H111v-1.3h1.1v-9.2H111v-1.3zm6.5 8.1v.6c0 .2.1.4.1.5.2.5.5.9.9 1.1.4.3.9.4 1.4.4.4 0 .8-.1 1.2-.2.4-.1.8-.3 1.2-.5l.6 1c-.5.4-1 .6-1.6.8-.5.2-1.1.3-1.6.3s-1-.1-1.5-.3c-.5-.2-.8-.4-1.2-.8-.3-.4-.6-.8-.8-1.3-.2-.5-.3-1.1-.3-1.8 0-.6.1-1.1.2-1.6.2-.5.4-.9.7-1.3.3-.4.7-.7 1.2-.9.5-.2 1-.3 1.6-.3.6 0 1.1.1 1.5.3.4.2.7.4 1 .7.3.3.4.6.6 1s.2.8.3 1.2v1.2h-5.5zm2.2-3.2c-.3 0-.6 0-.9.1-.2.1-.5.2-.6.4-.2.2-.3.4-.4.6-.1.3-.2.5-.2.9h4.1c0-.3-.1-.6-.1-.8-.1-.2-.2-.5-.3-.6-.2-.2-.3-.3-.6-.4-.3-.1-.6-.2-1-.2zm14.8-2.5c-.2-.2-.3-.4-.5-.5l-.6-.3c-.2-.1-.5-.1-.7-.1-.4 0-.7 0-1 .1-.3.1-.5.2-.7.4-.2.2-.3.3-.4.5-.1.2-.1.4-.1.6 0 .3.1.6.2.8.1.2.3.4.5.5l.6.3c.2.1.4.1.6.2l1.5.5c.5.1.9.3 1.2.5.4.2.6.4.9.7.2.3.4.6.5.9.1.3.2.7.2 1.2s-.1.9-.3 1.3c-.2.4-.5.8-.8 1.1-.4.3-.8.5-1.3.7-.5.2-1 .3-1.6.3-.6 0-1.1-.1-1.5-.2-.4-.1-.8-.3-1.1-.5-.3-.2-.5-.5-.7-.8-.2-.3-.3-.6-.4-.9h-.6v-1.3h1.9c0 .6.1 1 .2 1.2.1.2.3.4.5.6.2.2.5.3.8.4.3.1.6.1 1 .1.3 0 .7 0 .9-.1.3-.1.5-.2.7-.4.2-.2.3-.3.4-.6s.2-.5.2-.8c0-.3-.1-.6-.2-.8-.1-.2-.3-.4-.5-.6-.2-.2-.4-.3-.7-.4-.2-.1-.5-.2-.7-.3l-1.7-.5c-.4-.1-.7-.3-1-.4-.3-.2-.6-.4-.8-.6-.2-.2-.4-.5-.5-.9-.1-.3-.2-.7-.2-1.2 0-.4.1-.9.3-1.2.2-.4.4-.7.8-1 .3-.3.7-.5 1.2-.7.5-.2 1-.2 1.7-.2.4 0 .8 0 1.1.1.3.1.7.2.9.4.3.2.5.4.7.6.2.2.4.5.5.8h.6v1.3h-1.9c.2-.2.1-.6-.1-.8zm10.2-2.1h3.7v1.3h-1l-3.7 10.2h-2.1l-3.7-10.2h-1v-1.3h3.7v1.3h-1l3 8.9 3.2-8.9h-1.1v-1.3zm13.6 11.6v-2.3c-.2.4-.4.8-.7 1-.3.3-.6.5-1 .7-.4.2-.7.3-1.1.4-.4.1-.8.1-1.2.1-.8 0-1.4-.1-2.1-.4-.6-.3-1.2-.7-1.7-1.2s-.9-1.2-1.2-2c-.3-.8-.4-1.5-.4-2.4 0-.8.1-1.6.4-2.3.3-.7.7-1.4 1.1-1.9.5-.5 1.1-1 1.8-1.3.7-.3 1.4-.5 2.2-.5.7 0 1.4.1 1.9.3.5.2 1 .5 1.3.8.4.3.7.6.9.8h.7v1.4h-1.6c-.3-.6-.8-1-1.4-1.4-.6-.3-1.2-.5-1.9-.5-.6 0-1.1.1-1.6.4-.5.2-.9.6-1.3 1s-.6.9-.8 1.5c-.2.5-.3 1.1-.3 1.7 0 .7.1 1.3.3 1.9.2.6.5 1 .8 1.4.3.4.7.7 1.2.9.5.2 1 .4 1.6.4 1 0 1.8-.2 2.4-.7.6-.5 1.1-1.2 1.3-2.2h-3.2v-1.3h4.9v5.5h-1.3zm21.9-11.6h3.7v1.3h-1l-3.3 10.2h-2.3l-3.1-10.1-2.9 10.1H169l-3.4-10.2h-1v-1.3h3.7v1.3h-1l2.8 8.9 2.9-10.2h2.3l3.1 10.2 2.8-8.9H180v-1.3zm4.5 7.6c0-.6.1-1.2.3-1.7.2-.5.5-1 .8-1.3.4-.4.8-.7 1.2-.8s1-.3 1.6-.3c.6 0 1.1.1 1.6.3.5.2.9.5 1.2.8.3.4.6.8.8 1.3.2.5.3 1.1.3 1.7 0 .6-.1 1.2-.3 1.7-.2.5-.5 1-.8 1.3-.3.4-.8.7-1.2.9-.5.2-1 .3-1.6.3-.6 0-1.1-.1-1.6-.3s-.9-.5-1.2-.9c-.3-.4-.6-.8-.8-1.3-.2-.5-.3-1.1-.3-1.7zm1.5 0c0 .5.1.9.2 1.2s.3.7.5.9c.2.3.5.5.8.6.3.1.6.2.9.2.4 0 .7-.1 1-.2.3-.1.6-.3.8-.6.2-.3.4-.6.5-.9.1-.4.2-.8.2-1.2 0-.5-.1-.9-.2-1.3s-.3-.7-.5-.9c-.2-.2-.5-.4-.8-.6-.3-.1-.6-.2-1-.2-.3 0-.7.1-.9.2-.3.1-.6.3-.8.6-.2.2-.4.6-.5.9-.1.4-.2.8-.2 1.3zm13.6-2.3h-1.4v-.5c-.2 0-.3 0-.5.1s-.3.2-.5.3c-.2.1-.3.3-.4.5-.1.2-.2.4-.2.7v3.8h1.3v1.3h-3.9v-1.3h1.1v-5.3h-1.1V178h2.5v1.1c.1-.2.2-.3.3-.5.1-.1.2-.3.4-.4.1-.1.3-.2.5-.2.2-.1.4-.1.6-.1h1.4v1.8zm1.6-5.6h2.8v7.2h1.4l1.9-1.9h-.5V178h3v1.3h-1l-2.4 2.5 2.6 2.8h1v1.3h-1.7l-3.2-3.5h-1v2.2h.7v1.3h-3.4v-1.3h1.3v-9.2h-1.3v-1.3zm12.5 3.9h1.8v1.2h-1.8v5.4h1.2v1.3h-3.8v-1.3h1.2v-5.4h-1.3V178h1.3v-1.2c0-.5.1-.9.2-1.2.1-.3.3-.6.5-.9s.5-.4.8-.5c.3-.1.7-.2 1.1-.2h.7c.2 0 .4.1.6.1.2 0 .3.1.4.1s.2.1.3.2l-.4 1c-.2-.1-.4-.2-.6-.2-.3-.1-.5-.1-.8-.1-.4 0-.8.1-1 .4-.2.3-.4.6-.4 1.2v1.3zm3-3.9h2.6v10.5h1.2v1.3H217v-1.3h1.1v-9.2H217v-1.3zm5 7.9c0-.6.1-1.2.3-1.7.2-.5.5-1 .8-1.3.4-.4.8-.7 1.2-.8.5-.2 1-.3 1.6-.3.6 0 1.1.1 1.6.3.5.2.9.5 1.2.8.3.4.6.8.8 1.3.2.5.3 1.1.3 1.7 0 .6-.1 1.2-.3 1.7-.2.5-.5 1-.8 1.3-.3.4-.8.7-1.2.9-.5.2-1 .3-1.6.3-.6 0-1.1-.1-1.6-.3-.5-.2-.9-.5-1.2-.9-.3-.4-.6-.8-.8-1.3-.2-.5-.3-1.1-.3-1.7zm1.5 0c0 .5.1.9.2 1.2s.3.7.5.9c.2.3.5.5.8.6.3.1.6.2.9.2.4 0 .7-.1 1-.2.3-.1.6-.3.8-.6.2-.3.4-.6.5-.9.1-.4.2-.8.2-1.2 0-.5-.1-.9-.2-1.3s-.3-.7-.5-.9c-.2-.2-.5-.4-.8-.6-.3-.1-.6-.2-1-.2-.3 0-.7.1-.9.2-.3.1-.6.3-.8.6-.2.2-.4.6-.5.9-.1.4-.2.8-.2 1.3zm7.4-4h2.5v1.3h-.4l1.4 5 1.9-6.3h1.2l1.8 6.3 1.4-5h-.5V178h2.5v1.3h-.6l-2.2 6.7h-1.3l-1.8-6.3-1.8 6.3h-1.3l-2.1-6.7h-.7V178z"/><path d="M113 .4h1l-4.2 8.9h-1L113 .4zm5.5 0v2.9h-.9V.4h.9zm-12 13h1l-4.2 8.9h-1l4.2-8.9zm6.5 0h1l-4.2 8.9h-1l4.2-8.9zM78.2 32.7h1.3v1.6h-1.3v-1.6zm21.7-6.3h1l-4.2 8.9h-1l4.2-8.9zm6.6 0h1l-4.2 8.9h-1l4.2-8.9zM79.3 39.1v10.8h-.9V39.1h.9zm4.4.3l4.2 8.9h-1l-4.2-8.9h1zm9.7 0h1l-4.2 8.9h-1l4.2-8.9zm6.5 0h1l-4.2 8.9h-1l4.2-8.9zm2.6 0h5v.5l-2.8 7.4h-1.1l2.8-7h-3.8v-.9zm-28.7 13h1l-4.2 8.9h-1l4.2-8.9zm5.5 0v2.9h-.9v-2.9h.9zm12.1 0v2.9h-.9v-2.9h.9zm2 0v2.9h-.9v-2.9h.9zm9.9 0l4.2 8.9h-1l-4.2-8.9h1zM65.2 71.7h1.3v1.6h-1.3v-1.6zm26.1 0h1.3v1.6h-1.3v-1.6zm13 0h1.3v1.6h-1.3v-1.6zm-38 6.4V89h-.9V78.1h.9zm14 0c-.5.8-.8 1.6-1.1 2.4-.2.8-.3 1.6-.3 2.4 0 .8.1 1.6.3 2.4.2.8.6 1.6 1.1 2.4h-.8c-.5-.8-.9-1.7-1.2-2.5-.3-.8-.4-1.6-.4-2.4 0-.8.1-1.6.4-2.4.3-.8.7-1.6 1.2-2.4h.8zm29.5.3l4.2 8.9h-1l-4.2-8.9h1zM66.3 91.1V102h-.9V91.1h.9zm19.6.4v2.9H85v-2.9h.9zm5.4 6.2h1.3v1.6h-1.3v-1.6zm10.5 3.8v.4h-6.5v-.4h6.5zm16.7-10v2.9h-.9v-2.9h.9zm-51.2 13h1l-4.2 8.9h-1l4.2-8.9zm29.5 0l4.2 8.9h-1l-4.2-8.9h1zm8.6 0v2.9h-.9v-2.9h.9zm4.8 4.5h2.8v.9h-2.8v-.9zm8.3-4.5v2.9h-.9v-2.9h.9z" stroke="#fff" stroke-width=".731" stroke-miterlimit="10"/></g></svg>