<svg xmlns="http://www.w3.org/2000/svg" width="235" height="178.3" viewBox="0 0 235 178.3"><g fill="#fff"><path d="M43 145.2c0 2.1-.1 4.2-.4 6.5-.2 2.2-.6 4.4-1.2 6.6-.5 2.1-1.3 4.2-2.1 6.1-.9 1.9-2 3.6-3.3 5-1.3 1.4-2.8 2.6-4.5 3.4-1.7.8-3.7 1.3-5.9 1.3-.4 0-.9 0-1.5-.1l-1.8-.3c-.6-.2-1.2-.3-1.9-.5-.6-.2-1.2-.4-1.7-.7-.5-.3-.9-.7-1.2-1.1-.3-.4-.5-.9-.5-1.4 0-.3.1-.6.2-1.1.1-.4.3-.9.5-1.3s.6-.8.9-1.1c.4-.3.8-.5 1.4-.5.6-.1 1.2 0 1.8.2.6.2 1.2.4 1.9.7.7.2 1.3.5 2 .7.7.2 1.4.4 2.1.4.8 0 1.6-.4 2.4-1.2.8-.8 1.5-1.9 2.2-3.2.7-1.3 1.3-2.8 1.9-4.5.6-1.7 1-3.3 1.4-5-.9.7-1.8 1.4-2.7 2-1 .6-2.1 1.2-3.3 1.7-1.2.5-2.6.9-4.2 1.1-1.6.3-3.4.4-5.5.4-2.4 0-4.8-.5-7.1-1.5s-4.1-2.3-5.5-4c-1.4-1.7-2.5-3.6-3.2-5.8-.7-2.2-1.1-4.5-1.1-6.9 0-3.2.4-6.2 1.1-9.1.8-2.9 1.8-5.6 3.2-8.1 1.3-2.5 2.9-4.7 4.8-6.8 1.8-2 3.8-3.8 5.9-5.2 2.1-1.4 4.3-2.5 6.7-3.3 2.3-.8 4.7-1.2 7-1.2 1.4 0 2.8.2 4 .6 1.2.4 2.3 1.1 3.2 2 .9.9 1.6 2.1 2.1 3.5s.8 3.1.8 5c0 .8-.1 1.5-.3 2.3-.2.7-.5 1.5-.9 2.3-.6.8-1.1 1.4-1.7 1.8s-1.1.5-1.5.5c-.4 0-.7-.1-1.1-.3-.3-.2-.6-.5-.8-.8-.2-.3-.4-.7-.6-1.1-.1-.4-.2-.8-.2-1.2 0-.3.1-.7.2-1 .1-.3.2-.6.3-1 .1-.3.2-.7.3-1 .1-.3.2-.7.2-1.1 0-1.8-.4-3.1-1.2-4-.8-.9-1.8-1.3-3-1.3-1.5 0-3 .3-4.6.9-1.6.6-3.2 1.5-4.7 2.6s-3 2.5-4.4 4.2c-1.4 1.7-2.6 3.6-3.7 5.7s-1.9 4.5-2.5 7.1c-.6 2.6-.9 5.3-.9 8.3 0 2 .2 3.7.7 5.1.5 1.5 1.3 2.7 2.5 3.6 1.2 1 2.4 1.7 3.6 2.2 1.2.5 2.6.7 4.1.7 2.8 0 5.5-.4 7.9-1.2 2.4-.8 4.6-2 6.7-3.4.1-.6.3-1.1.4-1.7.1-.5.2-1 .2-1.5 0-.6-.1-1-.2-1.4-.1-.3-.3-.6-.6-.7-.2-.2-.5-.3-.9-.3-.3 0-.7-.1-1.1-.1-.7 0-1.3-.1-1.8-.3-.5-.2-1-.4-1.3-.7-.4-.3-.6-.6-.8-1-.2-.4-.3-.8-.3-1.1 0-.4.1-.7.3-1.1.2-.4.4-.7.8-.9.4-.3.8-.5 1.4-.7.5-.2 1.2-.3 1.9-.3 1.7 0 3.2.2 4.3.5 1.1.4 2 .9 2.6 1.6.6.7 1.1 1.6 1.3 2.6.4 1.4.5 2.6.5 3.9zm4.7 3.4c0-.8 0-1.7.1-2.8.1-1.1.2-2.2.4-3.3.2-1.2.3-2.4.5-3.6.2-1.2.5-2.5.8-3.9.3-1.4.6-2.5.8-3.4.2-.9.5-1.7.7-2.3.1-.4.3-.7.4-.9.1-.2.3-.4.5-.6.2-.1.4-.2.7-.3.3 0 .6-.1 1-.1.5 0 .8 0 1.1.1.3 0 .5.2.6.3.1.2.2.4.2.7v1.3c0 .7 0 1.6-.1 2.8-.1 1.2-.1 2.3-.1 3.2h.3c.4-.7.8-1.7 1.3-2.8.5-1.2 1.1-2.1 1.7-2.9.6-.8 1.3-1.4 2-2 .8-.5 1.6-.8 2.6-.8.3 0 .7.1 1 .2.3.1.6.3.8.5.2.2.4.5.6.8.1.3.2.7.2 1.1 0 .3 0 .7-.1 1.3-.1.5-.2 1.3-.4 2.1-.2.9-.3 1.6-.4 2.2-.1.6-.1 1-.1 1.4 0 .6.1 1.2.2 1.6.1.4.3.8.5 1 .2.3.4.4.7.6.3.1.5.2.8.2.8 0 1.6-.2 2.5-.5.9-.4 1.7-.8 2.4-1.2.8-.5 1.7-1.1 2.5-1.8l-.4 6.3c-.5.3-1 .6-1.6 1-.6.4-1.2.7-1.9 1.1-.7.3-1.4.6-2.1.8-.7.2-1.5.3-2.2.3-1.3 0-2.4-.3-3.3-.8-.8-.5-1.5-1.3-2-2.2-.5-.9-.8-1.9-1.1-3-.2-1.1-.4-2.2-.6-3.4H59l-4.8 13.5c-.3.7-.5 1.3-.7 1.7-.2.5-.5.8-.7 1.1-.2.3-.5.5-.8.6-.3.1-.6.2-.9.2-.7 0-1.3-.2-1.8-.5-.4-.3-.8-.7-1-1.3-.2-.5-.4-1.1-.5-1.8s-.1-1.1-.1-1.8zm43.5-19.5v2c0 .8-.1 1.7-.3 2.7-.2 1-.4 2.2-.7 3.6-.3 1.4-.5 2.6-.6 3.5-.2.9-.3 1.7-.4 2.4-.1.7-.2 1.2-.2 1.5v1.4c0 .4.1.8.1 1.1.1.3.2.6.4.7s.4.3.7.3c.4 0 .9-.1 1.4-.3.6-.2 1.2-.5 1.8-.8.6-.3 1.3-.7 2-1.1.7-.4 1.3-.9 1.9-1.3.6-.5 1.2-.9 1.6-1.4.5-.5.9-.9 1.2-1.3v6c-.4.4-.9.8-1.5 1.3-.6.4-1.2.9-1.9 1.3s-1.5.9-2.3 1.3c-.8.4-1.6.8-2.4 1.1-.8.3-1.6.6-2.4.7-.8.2-1.5.3-2.1.3-.7 0-1.2-.1-1.7-.4-.5-.3-.9-.6-1.2-1.1-.3-.5-.6-1.1-.9-1.7-.2-.7-.4-1.4-.6-2.2-.6.8-1.3 1.6-2.1 2.3-.7.7-1.5 1.3-2.2 1.8-.7.5-1.5.9-2.3 1.2-.8.3-1.5.4-2.2.4-.6 0-1.1-.1-1.7-.3-.5-.2-1-.5-1.4-1-.4-.5-.7-1.1-1-1.8-.2-.8-.3-1.7-.3-2.8 0-2.4.2-4.2.5-5.4.5-1.8 1-4.6 1.5-8.2 0-.3.1-.6.2-1.1.1-.5.2-1 .4-1.5s.4-1.1.6-1.6c.3-.6.5-1.1.9-1.5.3-.4.7-.8 1.2-1.1.5-.3 1-.4 1.6-.5 1 0 1.6.2 2.1.5.4.3.6.6.6 1-.2 1.2-.3 2.4-.5 3.5s-.4 2.2-.6 3.4c-.2 1.1-.4 2.4-.7 3.8-.2 1.4-.5 2.5-.6 3.3-.2.8-.3 1.5-.4 2-.1.5-.1.8-.1.8 0 .3 0 .7.1 1 .1.3.2.6.3.8.1.2.3.4.5.6.2.1.4.2.7.2.4 0 .8-.1 1.2-.3.4-.2.8-.5 1.2-.9.4-.4.7-.8 1-1.4.3-.6.5-1.2.7-2l3-14.7c.1-.4.4-.8 1.1-1.1.6-.3 1.3-.4 2.1-.4.9 0 1.6.2 2.1.5.3 0 .6.4.6.9zm5.9 19.5c0-1.2.1-2.6.2-4.1.1-1.6.3-3.3.5-5.1.2-1.9.5-3.5.7-5 .3-1.5.5-2.8.8-3.8.2-.8.6-1.5 1.1-2.1.6-.6 1.3-.8 2.3-.8 1 0 1.6.3 2 .9.4.6.6 1.4.6 2.4 0 .3 0 .6-.1 1.1-.1.5-.1 1-.2 1.5s-.2 1.1-.3 1.7c-.1.6-.2 1.3-.3 2-.1.7-.1 1.3-.2 1.7-.1.4-.1.6-.1.7h.5c.1-.2.3-.5.5-1 .2-.4.5-1.1.8-1.9.3-.8.6-1.6 1-2.2.4-.6.7-1.2 1-1.8.3-.6.6-1.1.8-1.6.3-.4.4-.8.6-1 .6-1 1.2-1.6 2-2 .7-.4 1.6-.5 2.5-.5.9 0 1.6.4 2.1 1.1.5.8.8 1.8.8 3.1 0 .2 0 .5-.1 1s-.2 1-.3 1.7c-.1.6-.3 1.5-.4 2.5-.2 1-.3 1.9-.4 2.8l-.3 2.4c-.1.8-.1 1.5-.1 2.2 0 1.1.1 2 .4 2.8.3.7.7 1.1 1.3 1.1.2 0 .5-.1.9-.2.6-.2 1-.4 1.1-.6l1.2-.9c.1 0 .7-.3 1.8-1.1 1.4-.9 3.2-2 5.2-3.4v6l-1.3 1c-.1.1-1 .6-2.5 1.4-2.3 1.2-3.7 2-4.3 2.2-1.4.6-2.3 1-2.6 1.1-.9.3-1.8.4-2.8.4-1 0-1.8-.7-2.5-2.1-.7-1.4-1-3.5-1-6.3 0-1.1.1-2.2.2-3.5.1-1.2.3-2.6.5-4h-.4l-7.1 14c-.4.8-.8 1.3-1.2 1.5-.4.3-1 .4-1.6.4-.7 0-1.3-.2-1.8-.5-.4-.3-.8-.7-1-1.3-.2-.5-.4-1.1-.5-1.8v-2.1zm48.6-.4c-1.7 1-3.3 1.9-4.6 2.6-1.4.8-2.6 1.4-3.6 1.9-1.1.5-2 .9-2.8 1.1-.8.3-1.6.4-2.2.4-1.4 0-2.6-.4-3.6-1.2-1-.8-1.9-2-2.6-3.6-.7-1.6-1.2-3.4-1.6-5.7-.3-2.2-.5-4.7-.5-7.5 0-1.1 0-2.2.1-3.5.1-1.2.2-2.4.4-3.6-.5-.1-1-.2-1.3-.2-.3-.1-.6-.1-1-.2-.3-.1-.8-.1-1.3-.2s-1.3-.2-2.2-.3c-.4-.1-.8-.2-1-.3-.2-.2-.4-.4-.5-.6-.1-.2-.2-.5-.2-.7v-.6c0-.3.2-.5.5-.6.4-.1.8-.3 1.4-.3.6-.1 1.2-.1 1.8-.1h4.5c.5-2.4 1.1-4.8 1.8-7 .7-2.3 1.6-4.3 2.5-6.1.9-1.8 1.9-3.2 3-4.3 1.1-1.1 2.2-1.6 3.4-1.6.8 0 1.5.2 2.1.6.6.4 1.2 1 1.6 1.7.4.7.8 1.6 1 2.5.2 1 .4 2 .4 3 0 .9-.1 1.8-.4 2.7-.3 1-.6 1.9-1 2.9s-.9 2-1.5 3l-1.8 3c.2-.1.4-.1.8 0 .4 0 .8.1 1.3.1h3.3c.5 0 1 0 1.5.1.5 0 .9 0 1.2.1.4 0 .6.2.8.6.2.4.2.9.2 1.4 0 .7-.2 1.2-.5 1.6-.4.4-.8.6-1.2.6h-10.4c-.5.7-1.1 1.4-1.6 2.1-.5.7-1 1.3-1.5 1.9-.1 1.1-.1 2.2-.2 3.3 0 .5 0 .9-.1 1.4 0 .5 0 1-.1 1.5v2.6c0 1 .1 1.8.3 2.5.2.7.4 1.2.8 1.6.3.4.8.7 1.3.9.5.2 1.1.3 1.7.3.4 0 .9-.1 1.4-.3.6-.2 1.2-.4 1.9-.7.7-.3 1.4-.7 2.1-1.1.7-.4 1.5-.9 2.2-1.4.7-.5 1.4-1.1 2.1-1.6.7-.6 1.3-1.1 1.8-1.7v7zM137 114v-.7c0-.2-.1-.5-.2-.7-.1-.2-.2-.4-.4-.5-.2-.1-.5-.2-.8-.2-.5 0-.9.4-1.4 1.2-.5.8-.9 1.9-1.4 3.1-.4 1.3-.9 2.7-1.2 4.2-.4 1.5-.7 3-1.1 4.5.3 0 .5.1.8.1.3 0 .6 0 .8.1.5-.9 1.1-1.9 1.7-2.9.6-1.1 1.1-2.1 1.6-3.1s.9-2 1.2-2.9c.3-.9.4-1.6.4-2.2zm23 34.5c-.6.6-1.5 1.2-2.4 1.9-1 .7-2 1.3-3.1 1.9-1.1.6-2.3 1-3.4 1.4-1.2.4-2.3.6-3.3.6-.9 0-1.7-.1-2.4-.4-.6-.3-1.2-.6-1.6-1.1-.4-.5-.7-1-.8-1.7-.2-.7-.3-1.4-.3-2.2 0-1.1.1-2.5.4-4 .5-3.1.9-4.9 1-5.3.2-.8.7-2.5 1.5-5.1.7-2.1 1.1-3.5 1.3-4.2.1-.5.3-.9.7-1.2.4-.3.8-.6 1.3-.8.5-.2 1-.4 1.5-.5.5-.1 1-.1 1.4-.1.7 0 1.2.1 1.5.4.3.3.4.7.4 1.1 0 .4-.1 1-.3 1.7-.2.7-.4 1.5-.6 2.5-.2.9-.6 2.1-1.1 3.6-.5 1.5-.8 2.7-1 3.7-.2 1-.4 2-.6 3.1-.3 1-.4 1.9-.4 2.8 0 .8.1 1.5.3 1.9.2.5.5.7 1.1.7.6 0 1.4-.2 2.2-.7.8-.4 1.6-1 2.4-1.6.8-.6 1.6-1.3 2.4-2 .8-.7 1.5-1.3 2.1-1.8v5.4zm-12.1-28.3c0-.4.1-.9.3-1.4.2-.5.5-1 .9-1.5s.9-.9 1.6-1.2c.7-.3 1.5-.5 2.5-.5.6 0 1.2.1 1.8.2.6.1 1 .4 1.5.7.4.3.7.7 1 1.2.2.5.4 1.1.4 1.7 0 .6-.1 1.2-.3 1.8-.2.6-.5 1.1-.9 1.6s-1 .8-1.6 1.1c-.7.3-1.4.4-2.4.4-1.6 0-2.8-.4-3.5-1.1-.9-.8-1.3-1.8-1.3-3zm18.6 34c-1.7 0-3.1-.3-4.4-.9-1.3-.6-2.3-1.4-3.2-2.5-.9-1-1.5-2.2-1.9-3.6-.4-1.3-.7-2.8-.7-4.2 0-1 .2-2.3.5-3.8.4-1.5.8-2.7 1.2-3.8.4-1.1.9-2.1 1.6-3.1.6-1 1.3-1.9 2.2-2.6.8-.7 1.7-1.3 2.8-1.8 1-.4 2.1-.7 3.3-.7 1.1 0 2.1.2 3 .5.9.3 1.7.8 2.4 1.3.7.6 1.2 1.2 1.5 2 .4.8.6 1.6.6 2.5 0 .6-.1 1.2-.3 1.8-.2.6-.5 1.3-1 2.1s-1 1.3-1.5 1.6c-.5.3-1 .4-1.6.4-.9 0-1.5-.2-1.8-.7-.4-.7-.6-1.3-.4-1.9.1-.3.2-1 .5-2v-1c0-.4 0-.8-.1-1.1-.1-.3-.3-.4-.6-.4-.7 0-1.4.2-1.9.5-.5.4-1 .8-1.3 1.4-.4.6-.7 1.4-1.1 2.4-.4 1-.6 1.9-.8 2.6-.2.7-.2 1.4-.3 2 0 .6-.1 1.2-.1 1.6 0 .6.1 1.3.2 2s.3 1.3.7 1.9c.3.6.8 1.1 1.4 1.5.6.4 1.3.6 2.1.6.9 0 1.8-.3 2.9-.8 1-.5 2.1-1.2 3.1-2 1.1-.8 2.1-1.7 3-2.7 1-1 1.8-1.9 2.5-2.8l1.9 3.1c-1.3 1.9-2.8 3.6-4.4 5.2-.7.6-1.4 1.3-2.2 1.9-.8.6-1.6 1.2-2.5 1.6-.9.5-1.7.9-2.7 1.2-.7.6-1.6.7-2.6.7zm28.5-20.8c.5 1 .9 2.1 1.2 3.3.3 1.2.4 2.5.4 3.9 0 1.1-.1 2.1-.4 3.2-.2 1.1-.6 2.1-1 3.1s-1 2-1.6 2.8c-.6.9-1.4 1.6-2.2 2.3-.8.6-1.7 1.2-2.7 1.5-1 .4-2 .6-3.1.6-1.6 0-2.9-.3-4.1-1-1.1-.7-2-1.6-2.8-2.7-.7-1.1-1.2-2.4-1.6-3.8-.3-1.4-.5-2.8-.5-4.3 0-2.4.3-4.4.9-6.1.6-1.7 1.4-3.2 2.5-4.5 1.1-1.3 2.5-2.3 4.1-3 1.6-.7 3.4-1.1 5.4-1.1 1.7 0 3.3.3 4.8.8s2.9 1.2 4.2 2.1c1.3.9 2.5 2 3.6 3.4 1.1 1.3 2.2 2.6 3.1 3.9l-.5 3.8c-.5-.6-1.1-1.3-2-2.1-.8-.8-1.7-1.6-2.6-2.5-.9-.9-1.8-1.7-2.7-2.3-.9-.6-1.7-1.2-2.3-1.6l-.1.3zm-8.3 15.6c.6 0 1.2-.3 1.8-.9.6-.6 1.1-1.4 1.5-2.3.4-.9.8-2.1 1-3.4.3-1.3.4-2.5.4-3.6 0-.8-.1-1.6-.2-2.3-.1-.7-.3-1.3-.6-1.8s-.6-.9-1-1.2c-.4-.3-.9-.5-1.4-.5-.7 0-1.4.3-2.1.9-.7.6-1.2 1.4-1.8 2.4-.5 1-.9 2.1-1.2 3.3-.3 1.2-.4 2.5-.4 4 0 .8.1 1.5.2 2.1.1.7.4 1.2.7 1.7.3.5.7.9 1.2 1.2.6.3 1.2.4 1.9.4zm15-.4c0-1.2.1-2.6.2-4.1.1-1.6.3-3.3.5-5.1.2-1.9.5-3.5.7-5 .3-1.5.5-2.8.8-3.8.2-.8.6-1.5 1.1-2.1.6-.6 1.3-.8 2.3-.8 1 0 1.6.3 2 .9.4.6.6 1.4.6 2.4 0 .3 0 .6-.1 1.1-.1.5-.1 1-.2 1.5s-.2 1.1-.3 1.7c-.1.6-.2 1.3-.3 2-.1.7-.1 1.3-.2 1.7-.1.4-.1.6-.1.7h.5c.1-.2.3-.5.5-1 .2-.4.5-1.1.8-1.9.3-.8.6-1.6 1-2.2.4-.6.7-1.2 1-1.8.3-.6.6-1.1.8-1.6.3-.4.4-.8.6-1 .6-1 1.2-1.6 2-2 .7-.4 1.6-.5 2.5-.5.9 0 1.6.4 2.1 1.1.5.8.8 1.8.8 3.1 0 .2 0 .5-.1 1s-.2 1-.3 1.7c-.1.6-.3 1.5-.4 2.5-.2 1-.3 1.9-.4 2.8l-.3 2.4c-.1.8-.1 1.5-.1 2.2 0 1.1.1 2 .4 2.8.3.7.7 1.1 1.3 1.1.2 0 .5-.1.9-.2.6-.2 1-.4 1.1-.6l1.2-.9c.1 0 .7-.3 1.8-1.1 1.4-.9 3.2-2 5.2-3.4v6l-1.3 1c-.1.1-1 .6-2.5 1.4-2.3 1.2-3.7 2-4.3 2.2-1.4.6-2.3 1-2.6 1.1-.9.3-1.8.4-2.8.4-1 0-1.8-.7-2.5-2.1-.7-1.4-1-3.5-1-6.3 0-1.1.1-2.2.2-3.5.1-1.2.3-2.6.5-4h-.3l-7.1 14c-.4.8-.8 1.3-1.2 1.5-.4.3-1 .4-1.6.4-.7 0-1.3-.2-1.8-.5-.4-.3-.8-.7-1-1.3-.2-.5-.4-1.1-.5-1.8 0-.7-.1-1.4-.1-2.1z" opacity=".5" stroke="#0B4977" stroke-width="6.38"/><path d="M43 145.2c0 2.1-.1 4.2-.4 6.5-.2 2.2-.6 4.4-1.2 6.6-.5 2.1-1.3 4.2-2.1 6.1-.9 1.9-2 3.6-3.3 5-1.3 1.4-2.8 2.6-4.5 3.4-1.7.8-3.7 1.3-5.9 1.3-.4 0-.9 0-1.5-.1l-1.8-.3c-.6-.2-1.2-.3-1.9-.5-.6-.2-1.2-.4-1.7-.7-.5-.3-.9-.7-1.2-1.1-.3-.4-.5-.9-.5-1.4 0-.3.1-.6.2-1.1.1-.4.3-.9.5-1.3s.6-.8.9-1.1c.4-.3.8-.5 1.4-.5.6-.1 1.2 0 1.8.2.6.2 1.2.4 1.9.7.7.2 1.3.5 2 .7.7.2 1.4.4 2.1.4.8 0 1.6-.4 2.4-1.2.8-.8 1.5-1.9 2.2-3.2.7-1.3 1.3-2.8 1.9-4.5.6-1.7 1-3.3 1.4-5-.9.7-1.8 1.4-2.7 2-1 .6-2.1 1.2-3.3 1.7-1.2.5-2.6.9-4.2 1.1-1.6.3-3.4.4-5.5.4-2.4 0-4.8-.5-7.1-1.5s-4.1-2.3-5.5-4c-1.4-1.7-2.5-3.6-3.2-5.8-.7-2.2-1.1-4.5-1.1-6.9 0-3.2.4-6.2 1.1-9.1.8-2.9 1.8-5.6 3.2-8.1 1.3-2.5 2.9-4.7 4.8-6.8 1.8-2 3.8-3.8 5.9-5.2 2.1-1.4 4.3-2.5 6.7-3.3 2.3-.8 4.7-1.2 7-1.2 1.4 0 2.8.2 4 .6 1.2.4 2.3 1.1 3.2 2 .9.9 1.6 2.1 2.1 3.5s.8 3.1.8 5c0 .8-.1 1.5-.3 2.3-.2.7-.5 1.5-.9 2.3-.6.8-1.1 1.4-1.7 1.8s-1.1.5-1.5.5c-.4 0-.7-.1-1.1-.3-.3-.2-.6-.5-.8-.8-.2-.3-.4-.7-.6-1.1-.1-.4-.2-.8-.2-1.2 0-.3.1-.7.2-1 .1-.3.2-.6.3-1 .1-.3.2-.7.3-1 .1-.3.2-.7.2-1.1 0-1.8-.4-3.1-1.2-4-.8-.9-1.8-1.3-3-1.3-1.5 0-3 .3-4.6.9-1.6.6-3.2 1.5-4.7 2.6s-3 2.5-4.4 4.2c-1.4 1.7-2.6 3.6-3.7 5.7s-1.9 4.5-2.5 7.1c-.6 2.6-.9 5.3-.9 8.3 0 2 .2 3.7.7 5.1.5 1.5 1.3 2.7 2.5 3.6 1.2 1 2.4 1.7 3.6 2.2 1.2.5 2.6.7 4.1.7 2.8 0 5.5-.4 7.9-1.2 2.4-.8 4.6-2 6.7-3.4.1-.6.3-1.1.4-1.7.1-.5.2-1 .2-1.5 0-.6-.1-1-.2-1.4-.1-.3-.3-.6-.6-.7-.2-.2-.5-.3-.9-.3-.3 0-.7-.1-1.1-.1-.7 0-1.3-.1-1.8-.3-.5-.2-1-.4-1.3-.7-.4-.3-.6-.6-.8-1-.2-.4-.3-.8-.3-1.1 0-.4.1-.7.3-1.1.2-.4.4-.7.8-.9.4-.3.8-.5 1.4-.7.5-.2 1.2-.3 1.9-.3 1.7 0 3.2.2 4.3.5 1.1.4 2 .9 2.6 1.6.6.7 1.1 1.6 1.3 2.6.4 1.4.5 2.6.5 3.9zm4.7 3.4c0-.8 0-1.7.1-2.8.1-1.1.2-2.2.4-3.3.2-1.2.3-2.4.5-3.6.2-1.2.5-2.5.8-3.9.3-1.4.6-2.5.8-3.4.2-.9.5-1.7.7-2.3.1-.4.3-.7.4-.9.1-.2.3-.4.5-.6.2-.1.4-.2.7-.3.3 0 .6-.1 1-.1.5 0 .8 0 1.1.1.3 0 .5.2.6.3.1.2.2.4.2.7v1.3c0 .7 0 1.6-.1 2.8-.1 1.2-.1 2.3-.1 3.2h.3c.4-.7.8-1.7 1.3-2.8.5-1.2 1.1-2.1 1.7-2.9.6-.8 1.3-1.4 2-2 .8-.5 1.6-.8 2.6-.8.3 0 .7.1 1 .2.3.1.6.3.8.5.2.2.4.5.6.8.1.3.2.7.2 1.1 0 .3 0 .7-.1 1.3-.1.5-.2 1.3-.4 2.1-.2.9-.3 1.6-.4 2.2-.1.6-.1 1-.1 1.4 0 .6.1 1.2.2 1.6.1.4.3.8.5 1 .2.3.4.4.7.6.3.1.5.2.8.2.8 0 1.6-.2 2.5-.5.9-.4 1.7-.8 2.4-1.2.8-.5 1.7-1.1 2.5-1.8l-.4 6.3c-.5.3-1 .6-1.6 1-.6.4-1.2.7-1.9 1.1-.7.3-1.4.6-2.1.8-.7.2-1.5.3-2.2.3-1.3 0-2.4-.3-3.3-.8-.8-.5-1.5-1.3-2-2.2-.5-.9-.8-1.9-1.1-3-.2-1.1-.4-2.2-.6-3.4H59l-4.8 13.5c-.3.7-.5 1.3-.7 1.7-.2.5-.5.8-.7 1.1-.2.3-.5.5-.8.6-.3.1-.6.2-.9.2-.7 0-1.3-.2-1.8-.5-.4-.3-.8-.7-1-1.3-.2-.5-.4-1.1-.5-1.8s-.1-1.1-.1-1.8zm43.5-19.5v2c0 .8-.1 1.7-.3 2.7-.2 1-.4 2.2-.7 3.6-.3 1.4-.5 2.6-.6 3.5-.2.9-.3 1.7-.4 2.4-.1.7-.2 1.2-.2 1.5v1.4c0 .4.1.8.1 1.1.1.3.2.6.4.7s.4.3.7.3c.4 0 .9-.1 1.4-.3.6-.2 1.2-.5 1.8-.8.6-.3 1.3-.7 2-1.1.7-.4 1.3-.9 1.9-1.3.6-.5 1.2-.9 1.6-1.4.5-.5.9-.9 1.2-1.3v6c-.4.4-.9.8-1.5 1.3-.6.4-1.2.9-1.9 1.3s-1.5.9-2.3 1.3c-.8.4-1.6.8-2.4 1.1-.8.3-1.6.6-2.4.7-.8.2-1.5.3-2.1.3-.7 0-1.2-.1-1.7-.4-.5-.3-.9-.6-1.2-1.1-.3-.5-.6-1.1-.9-1.7-.2-.7-.4-1.4-.6-2.2-.6.8-1.3 1.6-2.1 2.3-.7.7-1.5 1.3-2.2 1.8-.7.5-1.5.9-2.3 1.2-.8.3-1.5.4-2.2.4-.6 0-1.1-.1-1.7-.3-.5-.2-1-.5-1.4-1-.4-.5-.7-1.1-1-1.8-.2-.8-.3-1.7-.3-2.8 0-2.4.2-4.2.5-5.4.5-1.8 1-4.6 1.5-8.2 0-.3.1-.6.2-1.1.1-.5.2-1 .4-1.5s.4-1.1.6-1.6c.3-.6.5-1.1.9-1.5.3-.4.7-.8 1.2-1.1.5-.3 1-.4 1.6-.5 1 0 1.6.2 2.1.5.4.3.6.6.6 1-.2 1.2-.3 2.4-.5 3.5s-.4 2.2-.6 3.4c-.2 1.1-.4 2.4-.7 3.8-.2 1.4-.5 2.5-.6 3.3-.2.8-.3 1.5-.4 2-.1.5-.1.8-.1.8 0 .3 0 .7.1 1 .1.3.2.6.3.8.1.2.3.4.5.6.2.1.4.2.7.2.4 0 .8-.1 1.2-.3.4-.2.8-.5 1.2-.9.4-.4.7-.8 1-1.4.3-.6.5-1.2.7-2l3-14.7c.1-.4.4-.8 1.1-1.1.6-.3 1.3-.4 2.1-.4.9 0 1.6.2 2.1.5.3 0 .6.4.6.9zm5.9 19.5c0-1.2.1-2.6.2-4.1.1-1.6.3-3.3.5-5.1.2-1.9.5-3.5.7-5 .3-1.5.5-2.8.8-3.8.2-.8.6-1.5 1.1-2.1.6-.6 1.3-.8 2.3-.8 1 0 1.6.3 2 .9.4.6.6 1.4.6 2.4 0 .3 0 .6-.1 1.1-.1.5-.1 1-.2 1.5s-.2 1.1-.3 1.7c-.1.6-.2 1.3-.3 2-.1.7-.1 1.3-.2 1.7-.1.4-.1.6-.1.7h.5c.1-.2.3-.5.5-1 .2-.4.5-1.1.8-1.9.3-.8.6-1.6 1-2.2.4-.6.7-1.2 1-1.8.3-.6.6-1.1.8-1.6.3-.4.4-.8.6-1 .6-1 1.2-1.6 2-2 .7-.4 1.6-.5 2.5-.5.9 0 1.6.4 2.1 1.1.5.8.8 1.8.8 3.1 0 .2 0 .5-.1 1s-.2 1-.3 1.7c-.1.6-.3 1.5-.4 2.5-.2 1-.3 1.9-.4 2.8l-.3 2.4c-.1.8-.1 1.5-.1 2.2 0 1.1.1 2 .4 2.8.3.7.7 1.1 1.3 1.1.2 0 .5-.1.9-.2.6-.2 1-.4 1.1-.6l1.2-.9c.1 0 .7-.3 1.8-1.1 1.4-.9 3.2-2 5.2-3.4v6l-1.3 1c-.1.1-1 .6-2.5 1.4-2.3 1.2-3.7 2-4.3 2.2-1.4.6-2.3 1-2.6 1.1-.9.3-1.8.4-2.8.4-1 0-1.8-.7-2.5-2.1-.7-1.4-1-3.5-1-6.3 0-1.1.1-2.2.2-3.5.1-1.2.3-2.6.5-4h-.4l-7.1 14c-.4.8-.8 1.3-1.2 1.5-.4.3-1 .4-1.6.4-.7 0-1.3-.2-1.8-.5-.4-.3-.8-.7-1-1.3-.2-.5-.4-1.1-.5-1.8v-2.1zm48.6-.4c-1.7 1-3.3 1.9-4.6 2.6-1.4.8-2.6 1.4-3.6 1.9-1.1.5-2 .9-2.8 1.1-.8.3-1.6.4-2.2.4-1.4 0-2.6-.4-3.6-1.2-1-.8-1.9-2-2.6-3.6-.7-1.6-1.2-3.4-1.6-5.7-.3-2.2-.5-4.7-.5-7.5 0-1.1 0-2.2.1-3.5.1-1.2.2-2.4.4-3.6-.5-.1-1-.2-1.3-.2-.3-.1-.6-.1-1-.2-.3-.1-.8-.1-1.3-.2s-1.3-.2-2.2-.3c-.4-.1-.8-.2-1-.3-.2-.2-.4-.4-.5-.6-.1-.2-.2-.5-.2-.7v-.6c0-.3.2-.5.5-.6.4-.1.8-.3 1.4-.3.6-.1 1.2-.1 1.8-.1h4.5c.5-2.4 1.1-4.8 1.8-7 .7-2.3 1.6-4.3 2.5-6.1.9-1.8 1.9-3.2 3-4.3 1.1-1.1 2.2-1.6 3.4-1.6.8 0 1.5.2 2.1.6.6.4 1.2 1 1.6 1.7.4.7.8 1.6 1 2.5.2 1 .4 2 .4 3 0 .9-.1 1.8-.4 2.7-.3 1-.6 1.9-1 2.9s-.9 2-1.5 3l-1.8 3c.2-.1.4-.1.8 0 .4 0 .8.1 1.3.1h3.3c.5 0 1 0 1.5.1.5 0 .9 0 1.2.1.4 0 .6.2.8.6.2.4.2.9.2 1.4 0 .7-.2 1.2-.5 1.6-.4.4-.8.6-1.2.6h-10.4c-.5.7-1.1 1.4-1.6 2.1-.5.7-1 1.3-1.5 1.9-.1 1.1-.1 2.2-.2 3.3 0 .5 0 .9-.1 1.4 0 .5 0 1-.1 1.5v2.6c0 1 .1 1.8.3 2.5.2.7.4 1.2.8 1.6.3.4.8.7 1.3.9.5.2 1.1.3 1.7.3.4 0 .9-.1 1.4-.3.6-.2 1.2-.4 1.9-.7.7-.3 1.4-.7 2.1-1.1.7-.4 1.5-.9 2.2-1.4.7-.5 1.4-1.1 2.1-1.6.7-.6 1.3-1.1 1.8-1.7v7zM137 114v-.7c0-.2-.1-.5-.2-.7-.1-.2-.2-.4-.4-.5-.2-.1-.5-.2-.8-.2-.5 0-.9.4-1.4 1.2-.5.8-.9 1.9-1.4 3.1-.4 1.3-.9 2.7-1.2 4.2-.4 1.5-.7 3-1.1 4.5.3 0 .5.1.8.1.3 0 .6 0 .8.1.5-.9 1.1-1.9 1.7-2.9.6-1.1 1.1-2.1 1.6-3.1s.9-2 1.2-2.9c.3-.9.4-1.6.4-2.2zm23 34.5c-.6.6-1.5 1.2-2.4 1.9-1 .7-2 1.3-3.1 1.9-1.1.6-2.3 1-3.4 1.4-1.2.4-2.3.6-3.3.6-.9 0-1.7-.1-2.4-.4-.6-.3-1.2-.6-1.6-1.1-.4-.5-.7-1-.8-1.7-.2-.7-.3-1.4-.3-2.2 0-1.1.1-2.5.4-4 .5-3.1.9-4.9 1-5.3.2-.8.7-2.5 1.5-5.1.7-2.1 1.1-3.5 1.3-4.2.1-.5.3-.9.7-1.2.4-.3.8-.6 1.3-.8.5-.2 1-.4 1.5-.5.5-.1 1-.1 1.4-.1.7 0 1.2.1 1.5.4.3.3.4.7.4 1.1 0 .4-.1 1-.3 1.7-.2.7-.4 1.5-.6 2.5-.2.9-.6 2.1-1.1 3.6-.5 1.5-.8 2.7-1 3.7-.2 1-.4 2-.6 3.1-.3 1-.4 1.9-.4 2.8 0 .8.1 1.5.3 1.9.2.5.5.7 1.1.7.6 0 1.4-.2 2.2-.7.8-.4 1.6-1 2.4-1.6.8-.6 1.6-1.3 2.4-2 .8-.7 1.5-1.3 2.1-1.8v5.4zm-12.1-28.3c0-.4.1-.9.3-1.4.2-.5.5-1 .9-1.5s.9-.9 1.6-1.2c.7-.3 1.5-.5 2.5-.5.6 0 1.2.1 1.8.2.6.1 1 .4 1.5.7.4.3.7.7 1 1.2.2.5.4 1.1.4 1.7 0 .6-.1 1.2-.3 1.8-.2.6-.5 1.1-.9 1.6s-1 .8-1.6 1.1c-.7.3-1.4.4-2.4.4-1.6 0-2.8-.4-3.5-1.1-.9-.8-1.3-1.8-1.3-3zm18.6 34c-1.7 0-3.1-.3-4.4-.9-1.3-.6-2.3-1.4-3.2-2.5-.9-1-1.5-2.2-1.9-3.6-.4-1.3-.7-2.8-.7-4.2 0-1 .2-2.3.5-3.8.4-1.5.8-2.7 1.2-3.8.4-1.1.9-2.1 1.6-3.1.6-1 1.3-1.9 2.2-2.6.8-.7 1.7-1.3 2.8-1.8 1-.4 2.1-.7 3.3-.7 1.1 0 2.1.2 3 .5.9.3 1.7.8 2.4 1.3.7.6 1.2 1.2 1.5 2 .4.8.6 1.6.6 2.5 0 .6-.1 1.2-.3 1.8-.2.6-.5 1.3-1 2.1s-1 1.3-1.5 1.6c-.5.3-1 .4-1.6.4-.9 0-1.5-.2-1.8-.7-.4-.7-.6-1.3-.4-1.9.1-.3.2-1 .5-2v-1c0-.4 0-.8-.1-1.1-.1-.3-.3-.4-.6-.4-.7 0-1.4.2-1.9.5-.5.4-1 .8-1.3 1.4-.4.6-.7 1.4-1.1 2.4-.4 1-.6 1.9-.8 2.6-.2.7-.2 1.4-.3 2 0 .6-.1 1.2-.1 1.6 0 .6.1 1.3.2 2s.3 1.3.7 1.9c.3.6.8 1.1 1.4 1.5.6.4 1.3.6 2.1.6.9 0 1.8-.3 2.9-.8 1-.5 2.1-1.2 3.1-2 1.1-.8 2.1-1.7 3-2.7 1-1 1.8-1.9 2.5-2.8l1.9 3.1c-1.3 1.9-2.8 3.6-4.4 5.2-.7.6-1.4 1.3-2.2 1.9-.8.6-1.6 1.2-2.5 1.6-.9.5-1.7.9-2.7 1.2-.7.6-1.6.7-2.6.7zm28.5-20.8c.5 1 .9 2.1 1.2 3.3.3 1.2.4 2.5.4 3.9 0 1.1-.1 2.1-.4 3.2-.2 1.1-.6 2.1-1 3.1s-1 2-1.6 2.8c-.6.9-1.4 1.6-2.2 2.3-.8.6-1.7 1.2-2.7 1.5-1 .4-2 .6-3.1.6-1.6 0-2.9-.3-4.1-1-1.1-.7-2-1.6-2.8-2.7-.7-1.1-1.2-2.4-1.6-3.8-.3-1.4-.5-2.8-.5-4.3 0-2.4.3-4.4.9-6.1.6-1.7 1.4-3.2 2.5-4.5 1.1-1.3 2.5-2.3 4.1-3 1.6-.7 3.4-1.1 5.4-1.1 1.7 0 3.3.3 4.8.8s2.9 1.2 4.2 2.1c1.3.9 2.5 2 3.6 3.4 1.1 1.3 2.2 2.6 3.1 3.9l-.5 3.8c-.5-.6-1.1-1.3-2-2.1-.8-.8-1.7-1.6-2.6-2.5-.9-.9-1.8-1.7-2.7-2.3-.9-.6-1.7-1.2-2.3-1.6l-.1.3zm-8.3 15.6c.6 0 1.2-.3 1.8-.9.6-.6 1.1-1.4 1.5-2.3.4-.9.8-2.1 1-3.4.3-1.3.4-2.5.4-3.6 0-.8-.1-1.6-.2-2.3-.1-.7-.3-1.3-.6-1.8s-.6-.9-1-1.2c-.4-.3-.9-.5-1.4-.5-.7 0-1.4.3-2.1.9-.7.6-1.2 1.4-1.8 2.4-.5 1-.9 2.1-1.2 3.3-.3 1.2-.4 2.5-.4 4 0 .8.1 1.5.2 2.1.1.7.4 1.2.7 1.7.3.5.7.9 1.2 1.2.6.3 1.2.4 1.9.4zm15-.4c0-1.2.1-2.6.2-4.1.1-1.6.3-3.3.5-5.1.2-1.9.5-3.5.7-5 .3-1.5.5-2.8.8-3.8.2-.8.6-1.5 1.1-2.1.6-.6 1.3-.8 2.3-.8 1 0 1.6.3 2 .9.4.6.6 1.4.6 2.4 0 .3 0 .6-.1 1.1-.1.5-.1 1-.2 1.5s-.2 1.1-.3 1.7c-.1.6-.2 1.3-.3 2-.1.7-.1 1.3-.2 1.7-.1.4-.1.6-.1.7h.5c.1-.2.3-.5.5-1 .2-.4.5-1.1.8-1.9.3-.8.6-1.6 1-2.2.4-.6.7-1.2 1-1.8.3-.6.6-1.1.8-1.6.3-.4.4-.8.6-1 .6-1 1.2-1.6 2-2 .7-.4 1.6-.5 2.5-.5.9 0 1.6.4 2.1 1.1.5.8.8 1.8.8 3.1 0 .2 0 .5-.1 1s-.2 1-.3 1.7c-.1.6-.3 1.5-.4 2.5-.2 1-.3 1.9-.4 2.8l-.3 2.4c-.1.8-.1 1.5-.1 2.2 0 1.1.1 2 .4 2.8.3.7.7 1.1 1.3 1.1.2 0 .5-.1.9-.2.6-.2 1-.4 1.1-.6l1.2-.9c.1 0 .7-.3 1.8-1.1 1.4-.9 3.2-2 5.2-3.4v6l-1.3 1c-.1.1-1 .6-2.5 1.4-2.3 1.2-3.7 2-4.3 2.2-1.4.6-2.3 1-2.6 1.1-.9.3-1.8.4-2.8.4-1 0-1.8-.7-2.5-2.1-.7-1.4-1-3.5-1-6.3 0-1.1.1-2.2.2-3.5.1-1.2.3-2.6.5-4h-.3l-7.1 14c-.4.8-.8 1.3-1.2 1.5-.4.3-1 .4-1.6.4-.7 0-1.3-.2-1.8-.5-.4-.3-.8-.7-1-1.3-.2-.5-.4-1.1-.5-1.8 0-.7-.1-1.4-.1-2.1zM54.4 176.8h.9l-.9-2.5h-4.3l-.9 2.5h1.1v1.3h-3.6v-1.3h1l3.4-9.8h2.2l3.4 9.8H58v1.3h-3.6v-1.3zm-3.8-3.7H54l-1.7-5-1.7 5zm11.7-6.1h7.9v3.1h-1.5v-1.9h-4v3.6h3.8v1.2h-3.8v3.8h1.1v1.3h-3.6v-1.3h1.1v-8.6h-1.1V167zm8.8-.3h2.5v10.1h1.1v1.3h-3.6v-1.3h1.1v-8.9h-1.1v-1.2zm6.2 7.7v.6c0 .2.1.3.1.5.2.5.5.9.9 1.1.4.2.8.4 1.3.4.4 0 .8-.1 1.2-.2.4-.1.8-.3 1.2-.5l.5.9c-.5.3-1 .6-1.5.8-.5.2-1 .2-1.6.2-.5 0-1-.1-1.4-.3-.4-.2-.8-.4-1.1-.8s-.6-.8-.7-1.3c-.2-.5-.3-1.1-.3-1.8 0-.5.1-1.1.2-1.5.2-.5.4-.9.7-1.3.3-.4.7-.6 1.1-.9.4-.2 1-.3 1.5-.3.6 0 1 .1 1.4.3.4.2.7.4.9.7.2.3.4.6.5 1 .1.4.2.7.3 1.1v1.2h-5.2zm2.1-3c-.3 0-.6 0-.8.1-.2.1-.4.2-.6.4-.2.2-.3.4-.4.6-.1.2-.2.5-.2.8h3.9c0-.3-.1-.5-.1-.8l-.3-.6c-.1-.2-.3-.3-.6-.4-.3 0-.6-.1-.9-.1zm9.5 5.4h.4l-1.5-1.9-1.5 1.9h.4v1.3h-2.5v-1.3h.6l2.3-2.7-2.2-2.4h-.8v-1.3h2.5v1.3h-.3l1.4 1.8 1.4-1.8h-.4v-1.3h2.5v1.3h-.6l-2.1 2.5 2.3 2.6h.6v1.3h-2.5v-1.3zm3.6-6.3H95v6.3h1.1v1.3h-3.6v-1.3h1.1v-5.1h-1.1v-1.2zm.8-2.7c0-.1 0-.2.1-.4.1-.1.1-.2.2-.3.1-.1.2-.2.3-.2.1-.1.2-.1.4-.1.1 0 .2 0 .4.1.1.1.2.1.3.2.1.1.2.2.2.3.1.1.1.2.1.4 0 .1 0 .3-.1.4-.1.1-.1.2-.2.3-.1.1-.2.2-.3.2-.1.1-.2.1-.4.1-.1 0-.3 0-.4-.1-.1-.1-.2-.1-.3-.2-.1-.1-.2-.2-.2-.3-.1-.2-.1-.3-.1-.4zm3.7-1.1h2.5v4.4c.3-.2.7-.4 1.1-.6.4-.1.8-.2 1.2-.2.5 0 1 .1 1.4.3.4.2.8.4 1.1.8.3.3.5.7.7 1.2.2.5.2 1 .2 1.6 0 .6-.1 1.2-.3 1.7-.2.5-.4.9-.8 1.3-.3.4-.7.6-1.2.8-.5.2-.9.3-1.5.3-.4 0-.7-.1-1.1-.2-.3-.1-.6-.3-.8-.4v.5h-1.4v-10.1H97v-1.4zm4.3 4.8c-.4 0-.7.1-1 .2-.3.1-.6.3-.8.6v4.1c.2.2.4.3.7.4.3.1.7.2 1.1.2.3 0 .6-.1.9-.2.3-.1.5-.3.8-.5.2-.2.4-.5.5-.9.1-.4.2-.8.2-1.2 0-.4-.1-.8-.2-1.1-.1-.3-.3-.6-.5-.8-.2-.2-.5-.4-.7-.5-.4-.3-.7-.3-1-.3zm5.1-4.8h2.5v10.1h1.1v1.3h-3.6v-1.3h1.1v-8.9h-1.1v-1.2zm6.2 7.7v.6c0 .2.1.3.1.5.2.5.5.9.9 1.1.4.2.8.4 1.3.4.4 0 .8-.1 1.2-.2.4-.1.8-.3 1.2-.5l.5.9c-.5.3-1 .6-1.5.8-.5.2-1 .2-1.6.2-.5 0-1-.1-1.4-.3-.4-.2-.8-.4-1.1-.8s-.6-.8-.7-1.3c-.2-.5-.3-1.1-.3-1.8 0-.5.1-1.1.2-1.5.2-.5.4-.9.7-1.3.3-.4.7-.6 1.1-.9.4-.2 1-.3 1.5-.3.6 0 1 .1 1.4.3.4.2.7.4.9.7.2.3.4.6.5 1 .1.4.2.7.3 1.1v1.2h-5.2zm2.1-3c-.3 0-.6 0-.8.1-.2.1-.4.2-.6.4-.2.2-.3.4-.4.6-.1.2-.2.5-.2.8h3.9c0-.3-.1-.5-.1-.8l-.3-.6c-.1-.2-.3-.3-.6-.4-.3 0-.5-.1-.9-.1zm14.2-2.4c-.2-.2-.3-.4-.5-.5l-.6-.3c-.2-.1-.4-.1-.7-.1-.4 0-.7 0-1 .1-.3.1-.5.2-.7.3-.2.1-.3.3-.4.5-.1.2-.1.4-.1.6 0 .3.1.6.2.8.1.2.3.4.4.5l.6.3c.2.1.4.1.6.2l1.5.5c.4.1.8.3 1.2.5l.9.6c.2.2.4.5.5.9.1.3.2.7.2 1.1 0 .5-.1.9-.3 1.3-.2.4-.4.7-.8 1-.3.3-.7.5-1.2.7-.5.2-1 .2-1.5.2-.6 0-1.1-.1-1.5-.2-.4-.1-.7-.3-1-.5s-.5-.5-.7-.7c-.2-.3-.3-.6-.4-.9h-.6v-1.3h1.8c0 .5.1.9.2 1.1.1.2.3.4.5.6.2.1.4.3.7.3.3.1.6.1.9.1.3 0 .6 0 .9-.1.3-.1.5-.2.7-.3.2-.1.3-.3.4-.5.1-.2.1-.5.1-.7 0-.3-.1-.5-.2-.8-.1-.2-.3-.4-.5-.5-.2-.1-.4-.3-.6-.4-.2-.1-.5-.2-.7-.2l-1.6-.5c-.4-.1-.7-.2-1-.4-.3-.2-.5-.4-.7-.6-.2-.2-.4-.5-.5-.8-.1-.3-.2-.7-.2-1.1 0-.4.1-.8.2-1.2.2-.4.4-.7.7-1 .3-.3.7-.5 1.2-.7.5-.2 1-.2 1.6-.2.4 0 .8 0 1.1.1.3.1.6.2.9.4.3.2.5.4.7.6s.4.5.5.8h.5v1.3h-1.8c.4-.4.3-.7.1-.9zm9.8-2h3.6v1.3h-1l-3.6 9.8h-2l-3.5-9.8h-1V167h3.6v1.3h-1l2.8 8.5 3-8.5h-1V167zm13 11.1v-2.2c-.2.4-.4.7-.7 1-.3.3-.6.5-.9.7-.3.2-.7.3-1.1.4-.4.1-.8.1-1.2.1-.7 0-1.4-.1-2-.4-.6-.2-1.2-.6-1.7-1.2-.5-.5-.9-1.1-1.1-1.9s-.4-1.5-.4-2.3c0-.8.1-1.5.4-2.2.3-.7.6-1.3 1.1-1.8.5-.5 1-.9 1.7-1.2.6-.3 1.4-.4 2.1-.4.7 0 1.3.1 1.8.3.5.2.9.4 1.3.7.4.3.6.6.9.8h.7v1.3H151c-.3-.6-.8-1-1.3-1.3-.5-.3-1.1-.5-1.8-.5-.6 0-1.1.1-1.5.4s-.9.6-1.2 1-.6.9-.8 1.4c-.2.5-.3 1.1-.3 1.7 0 .6.1 1.2.3 1.8.2.6.5 1 .8 1.4.3.3.7.6 1.2.9.5.2 1 .3 1.5.3.9 0 1.7-.2 2.3-.7.6-.5 1-1.2 1.3-2.1h-3.1v-1.3h4.7v5.3h-1.4zm21-11.1h3.6v1.3h-1l-3.2 9.8h-2.2l-3-9.6-2.8 9.6H162l-3.2-9.8h-1V167h3.6v1.3h-1l2.7 8.5 2.8-9.8h2.2l3 9.8 2.7-8.5h-1.1V167zm4.3 7.2c0-.6.1-1.1.3-1.6.2-.5.4-.9.8-1.3.3-.4.7-.6 1.2-.8.5-.2 1-.3 1.5-.3.6 0 1.1.1 1.5.3.5.2.9.5 1.2.8.3.3.6.8.8 1.3.2.5.3 1 .3 1.6 0 .6-.1 1.1-.3 1.6-.2.5-.4.9-.8 1.3-.3.4-.7.6-1.2.8-.5.2-1 .3-1.5.3-.6 0-1.1-.1-1.5-.3-.5-.2-.9-.5-1.2-.8-.3-.4-.6-.8-.8-1.3-.2-.4-.3-1-.3-1.6zm1.4 0c0 .4.1.8.2 1.2.1.4.3.6.5.9.2.2.5.4.8.6.3.1.6.2.9.2.3 0 .6-.1.9-.2.3-.1.5-.3.8-.6.2-.2.4-.5.5-.9.1-.4.2-.7.2-1.2s-.1-.9-.2-1.2c-.1-.4-.3-.7-.5-.9-.2-.2-.5-.4-.8-.5-.3-.1-.6-.2-.9-.2-.3 0-.6.1-.9.2-.3.1-.5.3-.8.5-.2.2-.4.5-.5.9-.1.4-.2.8-.2 1.2zm13.1-2.1h-1.4v-.5c-.2 0-.3 0-.5.1s-.3.2-.5.3c-.1.1-.3.3-.4.5-.1.2-.2.4-.2.7v3.7h1.3v1.3H186v-1.3h1v-5.1h-1v-1.3h2.4v1c.1-.2.2-.3.3-.4.1-.1.2-.3.4-.4.1-.1.3-.2.4-.2.2-.1.3-.1.5-.1h1.4v1.7zm1.5-5.4h2.7v7h1.3l1.8-1.9h-.5v-1.3h2.9v1.3h-1l-2.3 2.4 2.5 2.7h.9v1.3h-1.6l-3.1-3.4h-1v2.1h.6v1.3H193v-1.3h1.2V168H193v-1.3zm11.9 3.8h1.8v1.1h-1.8v5.2h1.2v1.3h-3.7v-1.3h1.1v-5.2h-1.2v-1.1h1.2v-1.2c0-.4.1-.8.2-1.1.1-.3.3-.6.5-.8.2-.2.5-.4.8-.5s.6-.2 1-.2h.7c.2 0 .4.1.5.1.2 0 .3.1.4.1.1 0 .2.1.3.1l-.4 1c-.2-.1-.4-.2-.6-.2-.3-.1-.5-.1-.8-.1-.4 0-.7.1-1 .4-.2.3-.3.6-.3 1.1v1.3zm2.9-3.8h2.5v10.1h1.1v1.3h-3.6v-1.3h1.1v-8.9h-1.1v-1.2zm4.9 7.5c0-.6.1-1.1.3-1.6.2-.5.4-.9.8-1.3.3-.4.7-.6 1.2-.8.5-.2 1-.3 1.5-.3.6 0 1.1.1 1.5.3.5.2.9.5 1.2.8.3.3.6.8.8 1.3.2.5.3 1 .3 1.6 0 .6-.1 1.1-.3 1.6-.2.5-.4.9-.8 1.3-.3.4-.7.6-1.2.8-.5.2-1 .3-1.5.3-.6 0-1.1-.1-1.5-.3-.5-.2-.9-.5-1.2-.8-.3-.4-.6-.8-.8-1.3-.2-.4-.3-1-.3-1.6zm1.4 0c0 .4.1.8.2 1.2.1.4.3.6.5.9.2.2.5.4.8.6.3.1.6.2.9.2.3 0 .6-.1.9-.2.3-.1.5-.3.8-.6.2-.2.4-.5.5-.9.1-.4.2-.7.2-1.2s-.1-.9-.2-1.2c-.1-.4-.3-.7-.5-.9-.2-.2-.5-.4-.8-.5-.3-.1-.6-.2-.9-.2-.3 0-.6.1-.9.2-.3.1-.5.3-.8.5-.2.2-.4.5-.5.9-.1.4-.2.8-.2 1.2zm7-3.7h2.4v1.3h-.4l1.3 4.8 1.8-6.1h1.1l1.7 6.1 1.4-4.8h-.4v-1.3h2.4v1.3h-.6l-2.1 6.4h-1.3l-1.7-6-1.7 6h-1.3l-2.1-6.4h-.6v-1.3z"/><path d="M108.3.2h1l-4 8.5h-1l4-8.5zm5.3 0V3h-.9V.2h.9zM102 12.7h1l-4 8.5h-1l4-8.5zm6.3 0h1l-4 8.5h-1l4-8.5zM75 31.2h1.3v1.5H75v-1.5zm20.8-6h1l-4 8.5h-1l4-8.5zm6.2 0h1l-4 8.5h-1l4-8.5zM76 37.3v10.4h-.9V37.3h.9zm4.2.3l4 8.5h-1l-4-8.5h1zm9.3 0h1l-4 8.5h-1l4-8.5zm6.3 0h1l-4 8.5h-1l4-8.5zm2.4 0h4.8v.4l-2.7 7.1h-1.1l2.6-6.7h-3.6v-.8zM70.7 50.1h1l-4 8.5h-1l4-8.5zm5.3 0v2.8h-.9v-2.8h.9zm11.6 0v2.8h-.9v-2.8h.9zm1.9 0v2.8h-.9v-2.8h.9zm9.5 0l4 8.5h-1l-4-8.5h1zM62.4 68.6h1.3v1.5h-1.3v-1.5zm25.1 0h1.3v1.5h-1.3v-1.5zm12.5 0h1.3v1.5H100v-1.5zm-36.5 6.1v10.4h-.9V74.7h.9zm13.5 0c-.4.8-.8 1.5-1 2.3-.2.8-.3 1.5-.3 2.3 0 .8.1 1.5.3 2.3.2.8.6 1.5 1 2.3h-.8c-.5-.8-.9-1.6-1.1-2.4-.3-.8-.4-1.5-.4-2.3 0-.8.1-1.5.4-2.3.3-.8.6-1.5 1.1-2.3h.8zm28.2.3l4 8.5h-1l-4-8.5h1zM63.5 87.2v10.4h-.9V87.2h.9zm18.8.3v2.8h-.9v-2.8h.9zm5.2 6h1.3V95h-1.3v-1.5zm10 3.6v.4h-6.3v-.4h6.3zm16.1-9.6v2.8h-.9v-2.8h.9zM64.5 100h1l-4 8.5h-1l4-8.5zm28.2 0l4 8.5h-1l-4-8.5h1zm8.3 0v2.8h-.9V100h.9zm4.6 4.3h2.6v.8h-2.6v-.8zm8-4.3v2.8h-.9V100h.9z" stroke="#fff" stroke-width=".456" stroke-miterlimit="10"/></g></svg>