<svg xmlns="http://www.w3.org/2000/svg" width="308.2" height="231.2" viewBox="0 0 308.2 231.2"><path d="M58 187.4c0 2.7-.2 5.5-.5 8.4-.3 2.9-.8 5.7-1.5 8.5s-1.6 5.4-2.8 7.9c-1.1 2.5-2.6 4.6-4.2 6.5-1.7 1.9-3.6 3.4-5.9 4.5-2.2 1.1-4.8 1.6-7.7 1.6-.5 0-1.2 0-1.9-.1s-1.5-.2-2.3-.4l-2.4-.6c-.8-.2-1.5-.5-2.2-.9-.6-.4-1.1-.9-1.5-1.4-.4-.5-.6-1.1-.6-1.8 0-.3.1-.8.2-1.4.2-.6.4-1.1.7-1.7.3-.5.7-1 1.2-1.4.5-.4 1.1-.6 1.7-.6.8-.1 1.5-.1 2.3.2l2.4.9c.9.3 1.7.6 2.6.9.9.3 1.8.5 2.7.5 1 0 2-.5 3-1.6s1.9-2.5 2.8-4.2c.9-1.7 1.7-3.6 2.4-5.8.7-2.1 1.4-4.3 1.9-6.4-1.1.9-2.3 1.8-3.5 2.6-1.2.8-2.7 1.6-4.2 2.2-1.6.6-3.4 1.1-5.5 1.5-2 .4-4.4.6-7.1.6-3.1 0-6.2-.6-9.1-1.9-3-1.3-5.3-3-7.1-5.1-1.8-2.1-3.2-4.6-4.1-7.5-1-2.8-1.4-5.8-1.4-9 0-4.1.5-8 1.5-11.8 1-3.7 2.4-7.2 4.1-10.5 1.7-3.2 3.8-6.1 6.2-8.7 2.4-2.6 4.9-4.8 7.7-6.7 2.7-1.8 5.6-3.3 8.6-4.3s6-1.5 9-1.5c1.9 0 3.6.3 5.2.8 1.6.6 3 1.4 4.2 2.6 1.2 1.2 2.1 2.7 2.8 4.5.7 1.8 1 4 1 6.5 0 1-.1 1.9-.3 2.9-.2 1-.6 1.9-1.1 2.9-.7 1.1-1.5 1.9-2.2 2.3s-1.4.7-2 .7c-.5 0-.9-.1-1.4-.4-.4-.3-.8-.6-1.1-1-.3-.4-.5-.9-.7-1.4-.2-.5-.3-1.1-.3-1.6 0-.4.1-.9.2-1.3s.3-.8.4-1.2c.1-.4.3-.8.4-1.3.1-.5.2-.9.2-1.4 0-2.3-.5-4-1.5-5.2-1-1.2-2.3-1.7-3.8-1.7-1.9 0-3.9.4-5.9 1.2-2.1.8-4.1 1.9-6.1 3.4s-3.9 3.3-5.7 5.4c-1.8 2.1-3.4 4.6-4.8 7.3-1.4 2.8-2.5 5.8-3.3 9.1-.8 3.3-1.2 6.9-1.2 10.7 0 2.5.3 4.7.9 6.6.6 1.9 1.7 3.4 3.2 4.7 1.5 1.3 3.1 2.2 4.7 2.8 1.6.6 3.4.9 5.3.9 3.7 0 7-.5 10.1-1.6 3.1-1.1 6-2.5 8.7-4.4.2-.7.3-1.5.5-2.1.1-.7.2-1.3.2-1.9 0-.7-.1-1.3-.3-1.8-.2-.4-.4-.8-.8-1s-.7-.3-1.1-.4c-.4 0-.9-.1-1.4-.1-.9 0-1.7-.1-2.3-.3-.7-.2-1.2-.5-1.7-.9s-.8-.8-1-1.3c-.2-.5-.3-1-.3-1.5s.1-1 .3-1.4c.2-.5.6-.9 1-1.2.5-.3 1.1-.6 1.8-.9.7-.2 1.5-.3 2.5-.3 2.3 0 4.1.2 5.6.7 1.5.5 2.6 1.2 3.4 2.1.8.9 1.4 2.1 1.7 3.4.3 1.4.5 2.9.5 4.6zm5.9 4.4c0-1 .1-2.2.2-3.6s.3-2.8.5-4.3.4-3 .7-4.6c.3-1.6.6-3.2 1-5 .4-1.8.8-3.3 1.1-4.4.3-1.2.6-2.2.9-2.9.2-.5.4-.9.6-1.2.2-.3.4-.5.6-.7.2-.2.5-.3.9-.3.4-.1.8-.1 1.3-.1.6 0 1.1 0 1.4.1.3.1.6.2.7.4.2.2.3.5.3 1 0 .4.1 1 .1 1.7 0 .9-.1 2.1-.2 3.7s-.2 3-.1 4.1h.4c.5-.9 1-2.1 1.7-3.7.7-1.5 1.4-2.8 2.2-3.8.8-1 1.6-1.8 2.6-2.5s2.1-1 3.4-1c.4 0 .9.1 1.3.2.4.2.8.4 1.1.6.3.3.6.6.7 1 .2.4.3.9.3 1.4 0 .4-.1.9-.2 1.7-.1.7-.3 1.6-.6 2.8-.3 1.1-.4 2.1-.6 2.8-.1.7-.2 1.3-.2 1.8 0 .8.1 1.5.2 2.1.2.6.4 1 .6 1.3.3.3.6.6.9.7.3.1.7.2 1.1.2 1 0 2.1-.2 3.2-.7 1.1-.5 2.1-1 3.1-1.6 1.1-.7 2.2-1.4 3.2-2.3l-.5 8.2c-.6.4-1.3.8-2.1 1.3s-1.6.9-2.5 1.4c-.9.4-1.8.8-2.7 1.1-.9.3-1.9.4-2.9.4-1.7 0-3.1-.4-4.2-1.1-1.1-.7-1.9-1.6-2.5-2.8-.6-1.1-1.1-2.4-1.4-3.9-.3-1.4-.5-2.9-.7-4.3h-.6L72 194.4c-.3.9-.6 1.7-.9 2.2-.3.6-.6 1.1-.9 1.4-.3.4-.6.6-1 .8-.3.2-.7.2-1.1.2-1 0-1.7-.2-2.3-.6-.6-.4-1-1-1.3-1.6-.3-.7-.5-1.5-.6-2.3.1-.9 0-1.8 0-2.7zm56.2-25.2c0 .6 0 1.5-.1 2.6 0 1.1-.2 2.3-.4 3.5-.2 1.3-.5 2.8-.9 4.6-.3 1.8-.6 3.3-.8 4.5-.2 1.2-.4 2.2-.6 3.1-.2.9-.2 1.5-.2 1.9v1.8c0 .5.1 1 .2 1.4.1.4.3.7.5.9s.5.3.9.3c.5 0 1.1-.1 1.9-.4.7-.3 1.5-.6 2.3-1 .8-.4 1.7-.9 2.5-1.5.9-.5 1.7-1.1 2.5-1.7.8-.6 1.5-1.2 2.1-1.8.6-.6 1.2-1.1 1.6-1.7v7.7c-.5.5-1.1 1-1.9 1.6-.8.6-1.6 1.1-2.5 1.7-.9.6-1.9 1.1-2.9 1.6s-2.1 1-3.1 1.4c-1 .4-2.1.7-3.1 1-1 .2-1.9.4-2.8.4-.9 0-1.6-.2-2.2-.5-.6-.3-1.1-.8-1.6-1.4-.4-.6-.8-1.4-1.1-2.2-.3-.9-.6-1.8-.8-2.9-.8 1.1-1.7 2.1-2.7 3-.9.9-1.9 1.7-2.8 2.4-1 .7-1.9 1.2-2.9 1.6-1 .4-1.9.6-2.9.6-.8 0-1.5-.1-2.2-.4-.7-.3-1.3-.7-1.8-1.3-.5-.6-.9-1.4-1.2-2.4-.3-1-.5-2.2-.5-3.7 0-3 .3-5.4.7-7 .7-2.4 1.3-5.9 1.9-10.6.1-.3.1-.8.3-1.4.1-.6.3-1.2.5-1.9s.5-1.4.8-2.1c.3-.7.7-1.4 1.1-2 .4-.6 1-1.1 1.6-1.4.6-.4 1.3-.6 2-.6 1.2.1 2.1.3 2.6.6s.8.8.8 1.3c-.2 1.6-.4 3.1-.7 4.5-.3 1.4-.5 2.9-.8 4.4-.3 1.5-.6 3.1-.9 4.9-.3 1.8-.6 3.2-.8 4.3s-.4 2-.5 2.6c-.1.7-.2 1-.2 1 0 .4 0 .8.1 1.2.1.4.2.7.4 1.1.2.3.4.6.6.8.3.2.6.3.9.3.5 0 1-.1 1.6-.4.5-.3 1-.7 1.5-1.2s.9-1.1 1.3-1.8.7-1.6.8-2.6l3.8-19c.1-.6.6-1 1.4-1.4.8-.4 1.7-.6 2.7-.6 1.1 0 2.1.2 2.7.6 1 .5 1.3 1.1 1.3 1.7zm7.6 25.2c0-1.5.1-3.3.3-5.3.2-2 .4-4.2.7-6.6.3-2.4.6-4.6.9-6.5.3-1.9.7-3.6 1-4.9.3-1.1.7-2 1.5-2.7.7-.7 1.7-1.1 3-1.1s2.1.4 2.6 1.1c.5.8.7 1.8.7 3.1 0 .3 0 .8-.1 1.4-.1.6-.2 1.2-.3 2-.1.7-.2 1.4-.3 2.2-.1.8-.2 1.6-.3 2.6-.1 1-.2 1.7-.3 2.2-.1.5-.1.8-.1 1h.7c.1-.3.4-.7.7-1.2.3-.6.6-1.4 1-2.5s.8-2 1.3-2.8c.5-.8.9-1.6 1.3-2.4.4-.8.8-1.4 1.1-2 .3-.6.6-1 .7-1.3.7-1.3 1.6-2.1 2.5-2.6 1-.5 2-.7 3.2-.7 1.2 0 2.1.5 2.8 1.5.7 1 1 2.3 1 4 0 .3-.1.7-.2 1.3-.1.6-.2 1.3-.4 2.2-.2.8-.3 1.9-.5 3.2-.2 1.3-.4 2.5-.5 3.6-.2 1-.3 2.1-.4 3.1-.1 1-.2 2-.2 2.8 0 1.4.2 2.6.5 3.6.4.9.9 1.4 1.7 1.4.3 0 .7-.1 1.2-.3.8-.3 1.3-.5 1.5-.7 1-.8 1.6-1.2 1.6-1.1.1 0 .8-.4 2.3-1.4 1.9-1.2 4.1-2.6 6.7-4.4v7.8l-1.7 1.3c-.1.1-1.2.7-3.3 1.8-3 1.6-4.8 2.5-5.5 2.9-1.8.8-2.9 1.3-3.4 1.4-1.2.4-2.4.6-3.7.6-1.3 0-2.4-.9-3.2-2.8-.9-1.8-1.3-4.5-1.3-8.1 0-1.4.1-2.9.3-4.5.2-1.6.4-3.3.7-5.2h-.6l-9.1 18.1c-.5 1-1 1.6-1.6 2-.6.3-1.3.5-2 .5-1 0-1.7-.2-2.3-.6-.6-.4-1-1-1.3-1.6-.3-.7-.5-1.5-.6-2.3-.2-1.3-.3-2.2-.3-3.1zm62.8-.5c-2.2 1.3-4.2 2.4-6 3.4-1.7 1-3.3 1.8-4.7 2.4-1.4.7-2.6 1.1-3.6 1.5s-2 .5-2.9.5c-1.8 0-3.3-.5-4.6-1.6-1.3-1.1-2.5-2.6-3.4-4.6-.9-2-1.6-4.4-2-7.3-.5-2.9-.7-6.1-.7-9.6 0-1.4.1-2.9.2-4.5s.3-3.1.5-4.7c-.7-.1-1.2-.2-1.6-.3l-1.2-.3c-.4-.1-1-.2-1.6-.3-.7-.1-1.6-.2-2.9-.4-.6-.1-1-.2-1.3-.4-.3-.2-.5-.5-.7-.8-.1-.3-.2-.6-.2-.9v-.8c0-.4.2-.6.7-.8.5-.2 1-.3 1.8-.4.7-.1 1.5-.2 2.3-.2h2.5c.8 0 1.5 0 2.1.1.6 0 1 0 1.3-.1.6-3.1 1.4-6.2 2.4-9.1 1-2.9 2-5.5 3.2-7.8 1.2-2.3 2.5-4.1 3.9-5.5 1.4-1.4 2.9-2.1 4.5-2.1 1 0 1.9.3 2.7.8.8.6 1.5 1.3 2.1 2.2.6.9 1 2 1.3 3.3.3 1.2.5 2.5.5 3.9 0 1.1-.2 2.3-.5 3.5s-.8 2.5-1.3 3.8c-.6 1.3-1.2 2.6-2 3.9l-2.4 3.9c.2-.1.6-.1 1 0 .5 0 1.1.1 1.7.1.6 0 1.3 0 2.1.1.7 0 1.5 0 2.2.1.7 0 1.3 0 2 .1.6 0 1.1 0 1.5.1.5 0 .8.3 1 .8.2.5.3 1.1.3 1.9 0 .9-.2 1.6-.7 2.1-.5.5-1 .8-1.5.8h-13.4c-.7.9-1.4 1.8-2 2.7-.7.9-1.3 1.7-1.9 2.4-.1 1.4-.2 2.9-.2 4.2 0 .6 0 1.2-.1 1.9 0 .6 0 1.3-.1 1.9 0 .6 0 1.2-.1 1.8v1.6c0 1.3.1 2.3.3 3.2.2.9.6 1.6 1 2.1s1 .9 1.6 1.2c.6.2 1.4.4 2.2.4.5 0 1.1-.1 1.8-.3.7-.2 1.5-.6 2.4-1 .9-.4 1.8-.9 2.8-1.4 1-.6 1.9-1.2 2.9-1.8l2.7-2.1c.9-.7 1.6-1.5 2.3-2.2v8.6zm-11.2-44.1c0-.3 0-.5-.1-.8 0-.3-.1-.6-.2-.9s-.3-.5-.5-.7c-.2-.2-.6-.3-1-.3-.6 0-1.2.5-1.8 1.6-.6 1.1-1.2 2.4-1.8 4.1-.6 1.6-1.1 3.5-1.6 5.4-.5 2-1 3.9-1.4 5.8.3 0 .7.1 1 .1.3 0 .7.1 1.1.1.7-1.2 1.4-2.4 2.2-3.8.8-1.4 1.4-2.7 2-4 .6-1.3 1.1-2.6 1.5-3.7.4-1.3.6-2.2.6-2.9zm29.7 44.5c-.8.8-1.9 1.6-3.1 2.5-1.2.9-2.6 1.7-4 2.4s-2.9 1.3-4.4 1.8c-1.5.5-2.9.7-4.3.7-1.2 0-2.2-.2-3-.5-.8-.3-1.5-.8-2-1.4-.5-.6-.9-1.3-1.1-2.2-.2-.9-.3-1.8-.3-2.9 0-1.5.2-3.2.5-5.1.7-4 1.1-6.3 1.3-6.8.3-1 .9-3.2 1.9-6.6.9-2.8 1.4-4.6 1.6-5.4.1-.6.4-1.1 1-1.6.5-.4 1-.8 1.6-1 .6-.3 1.2-.5 1.9-.6.6-.1 1.2-.2 1.8-.2 1 0 1.6.2 2 .5.3.4.5.8.5 1.4 0 .5-.1 1.2-.4 2.2-.2.9-.5 2-.8 3.2-.3 1.2-.8 2.7-1.4 4.6-.6 1.9-1 3.5-1.2 4.8-.2 1.3-.5 2.6-.8 3.9-.3 1.3-.5 2.5-.5 3.6 0 1 .1 1.9.3 2.5.2.6.7.9 1.4.9.8 0 1.8-.3 2.8-.9 1-.6 2.1-1.3 3.1-2.1s2.1-1.7 3.1-2.6c1-.9 1.9-1.6 2.6-2.3v7.2zm-15.6-36.6c0-.5.1-1.1.3-1.8.2-.7.6-1.3 1.1-1.9.5-.6 1.2-1.1 2.1-1.5.9-.4 2-.6 3.3-.6.8 0 1.6.1 2.3.3.7.2 1.3.5 1.9.9.5.4 1 .9 1.3 1.5.3.6.5 1.4.5 2.2 0 .8-.1 1.6-.4 2.3-.3.8-.7 1.4-1.2 2-.6.6-1.3 1.1-2.1 1.4-.8.4-1.9.5-3 .5-2 0-3.6-.5-4.5-1.5-1.1-.9-1.6-2.2-1.6-3.8zm24 44c-2.2 0-4-.4-5.7-1.2-1.6-.8-3-1.8-4.1-3.2-1.1-1.3-1.9-2.9-2.5-4.6-.6-1.7-.8-3.6-.8-5.4 0-1.3.2-3 .7-4.8.5-1.9 1-3.5 1.5-4.9.5-1.4 1.2-2.7 2-4 .8-1.3 1.7-2.4 2.8-3.4 1.1-1 2.2-1.7 3.6-2.3 1.3-.6 2.7-.9 4.3-.9 1.4 0 2.7.2 3.9.6 1.2.4 2.2 1 3.1 1.7.9.7 1.5 1.6 2 2.6s.7 2 .7 3.2c0 .8-.1 1.6-.3 2.3-.2.8-.7 1.7-1.3 2.7-.7 1-1.3 1.7-1.9 2.1-.6.4-1.3.6-2.1.6-1.2 0-1.9-.3-2.3-.9-.6-.9-.7-1.7-.5-2.4.1-.4.3-1.2.6-2.6 0-.2.1-.6 0-1.3 0-.6-.1-1-.2-1.4-.1-.4-.4-.6-.8-.6-.9 0-1.8.2-2.4.7-.7.5-1.2 1-1.7 1.8-.5.7-.9 1.8-1.4 3.1-.5 1.3-.8 2.5-1 3.4-.2.9-.3 1.8-.4 2.6 0 .8-.1 1.5-.1 2.1 0 .8.1 1.7.2 2.6s.5 1.7.9 2.5c.5.8 1 1.4 1.8 1.9.7.5 1.6.7 2.8.7 1.1 0 2.3-.3 3.7-1 1.3-.7 2.7-1.6 4.1-2.6 1.4-1 2.7-2.2 3.9-3.4 1.2-1.3 2.3-2.4 3.2-3.6l2.4 4c-1.7 2.5-3.6 4.7-5.6 6.7-.9.8-1.8 1.6-2.8 2.4-1 .8-2.1 1.5-3.2 2.1-1.1.6-2.3 1.1-3.4 1.5-1.3.4-2.5.6-3.7.6zm36.8-26.9c.7 1.3 1.2 2.8 1.5 4.3.3 1.5.5 3.2.5 5.1 0 1.4-.2 2.8-.5 4.1-.3 1.4-.7 2.7-1.3 4-.6 1.3-1.3 2.5-2.1 3.7-.8 1.1-1.8 2.1-2.8 3-1.1.8-2.2 1.5-3.5 2-1.3.5-2.6.7-4 .7-2 0-3.8-.4-5.2-1.3-1.5-.9-2.6-2.1-3.6-3.5-.9-1.4-1.6-3.1-2-4.9-.4-1.8-.6-3.6-.6-5.5 0-3.1.4-5.7 1.1-7.9.8-2.2 1.9-4.1 3.3-5.8 1.4-1.6 3.2-2.9 5.2-3.9 2.1-.9 4.4-1.4 7-1.4 2.2 0 4.3.3 6.2 1 1.9.7 3.7 1.6 5.4 2.8 1.7 1.1 3.3 2.6 4.7 4.3 1.5 1.7 2.8 3.4 4.1 5l-.7 4.9c-.6-.8-1.5-1.7-2.5-2.7-1.1-1-2.2-2.1-3.4-3.2-1.2-1.2-2.4-2.2-3.5-3-1.2-.8-2.2-1.5-3-2.1l-.3.3zm-10.8 20.2c.8 0 1.6-.4 2.3-1.2.7-.8 1.4-1.8 2-3 .6-1.2 1-2.7 1.3-4.4.3-1.7.5-3.3.5-4.6 0-1.1-.1-2.1-.2-3-.2-.9-.4-1.7-.7-2.4-.3-.7-.7-1.2-1.3-1.6-.5-.4-1.1-.6-1.8-.6-1 0-1.9.4-2.7 1.2-.9.8-1.6 1.9-2.3 3.1-.7 1.3-1.2 2.7-1.5 4.2-.4 1.5-.6 3.3-.6 5.2 0 1 .1 1.9.3 2.8.2.9.5 1.6.9 2.2.4.6.9 1.1 1.6 1.5.5.4 1.3.6 2.2.6zm19.4-.6c0-1.5.1-3.3.3-5.3.2-2 .4-4.2.7-6.6.3-2.4.6-4.6.9-6.5.3-1.9.7-3.6 1-4.9.3-1.1.7-2 1.5-2.7.7-.7 1.7-1.1 3-1.1s2.1.4 2.6 1.1c.5.8.7 1.8.7 3.1 0 .3 0 .8-.1 1.4-.1.6-.2 1.2-.3 2-.1.7-.2 1.4-.3 2.2-.1.8-.2 1.6-.3 2.6-.1 1-.2 1.7-.3 2.2-.1.5-.1.8-.1 1h.7c.1-.3.4-.7.7-1.2.3-.6.6-1.4 1-2.5s.8-2 1.3-2.8c.5-.8.9-1.6 1.3-2.4.4-.8.8-1.4 1.1-2 .3-.6.6-1 .7-1.3.7-1.3 1.6-2.1 2.5-2.6 1-.5 2-.7 3.2-.7 1.2 0 2.1.5 2.8 1.5.7 1 1 2.3 1 4 0 .3-.1.7-.2 1.3-.1.6-.2 1.3-.4 2.2-.2.8-.3 1.9-.5 3.2-.2 1.3-.4 2.5-.5 3.6-.2 1-.3 2.1-.4 3.1-.1 1-.2 2-.2 2.8 0 1.4.2 2.6.5 3.6.4.9.9 1.4 1.7 1.4.3 0 .7-.1 1.2-.3.8-.3 1.3-.5 1.5-.7 1-.8 1.6-1.2 1.6-1.1.1 0 .8-.4 2.3-1.4 1.9-1.2 4.1-2.6 6.7-4.4v7.8l-1.7 1.3c-.1.1-1.2.7-3.3 1.8-3 1.6-4.8 2.5-5.5 2.9-1.8.8-2.9 1.3-3.4 1.4-1.2.4-2.4.6-3.7.6-1.3 0-2.4-.9-3.2-2.8-.9-1.8-1.3-4.5-1.3-8.1 0-1.4.1-2.9.3-4.5.2-1.6.4-3.3.7-5.2h-.6l-9.1 18.1c-.5 1-1 1.6-1.6 2-.6.3-1.3.5-2 .5-1 0-1.7-.2-2.3-.6-.6-.4-1-1-1.3-1.6-.3-.7-.5-1.5-.6-2.3-.2-1.3-.3-2.2-.3-3.1z" fill="#231F20" stroke="#fff" stroke-width="13" opacity=".82"/><path d="M58 187.4c0 2.7-.2 5.5-.5 8.4-.3 2.9-.8 5.7-1.5 8.5s-1.6 5.4-2.8 7.9c-1.1 2.5-2.6 4.6-4.2 6.5-1.7 1.9-3.6 3.4-5.9 4.5-2.2 1.1-4.8 1.6-7.7 1.6-.5 0-1.2 0-1.9-.1s-1.5-.2-2.3-.4l-2.4-.6c-.8-.2-1.5-.5-2.2-.9-.6-.4-1.1-.9-1.5-1.4-.4-.5-.6-1.1-.6-1.8 0-.3.1-.8.2-1.4.2-.6.4-1.1.7-1.7.3-.5.7-1 1.2-1.4.5-.4 1.1-.6 1.7-.6.8-.1 1.5-.1 2.3.2l2.4.9c.9.3 1.7.6 2.6.9.9.3 1.8.5 2.7.5 1 0 2-.5 3-1.6s1.9-2.5 2.8-4.2c.9-1.7 1.7-3.6 2.4-5.8.7-2.1 1.4-4.3 1.9-6.4-1.1.9-2.3 1.8-3.5 2.6-1.2.8-2.7 1.6-4.2 2.2-1.6.6-3.4 1.1-5.5 1.5-2 .4-4.4.6-7.1.6-3.1 0-6.2-.6-9.1-1.9-3-1.3-5.3-3-7.1-5.1-1.8-2.1-3.2-4.6-4.1-7.5-1-2.8-1.4-5.8-1.4-9 0-4.1.5-8 1.5-11.8 1-3.7 2.4-7.2 4.1-10.5 1.7-3.2 3.8-6.1 6.2-8.7 2.4-2.6 4.9-4.8 7.7-6.7 2.7-1.8 5.6-3.3 8.6-4.3s6-1.5 9-1.5c1.9 0 3.6.3 5.2.8 1.6.6 3 1.4 4.2 2.6 1.2 1.2 2.1 2.7 2.8 4.5.7 1.8 1 4 1 6.5 0 1-.1 1.9-.3 2.9-.2 1-.6 1.9-1.1 2.9-.7 1.1-1.5 1.9-2.2 2.3s-1.4.7-2 .7c-.5 0-.9-.1-1.4-.4-.4-.3-.8-.6-1.1-1-.3-.4-.5-.9-.7-1.4-.2-.5-.3-1.1-.3-1.6 0-.4.1-.9.2-1.3s.3-.8.4-1.2c.1-.4.3-.8.4-1.3.1-.5.2-.9.2-1.4 0-2.3-.5-4-1.5-5.2-1-1.2-2.3-1.7-3.8-1.7-1.9 0-3.9.4-5.9 1.2-2.1.8-4.1 1.9-6.1 3.4s-3.9 3.3-5.7 5.4c-1.8 2.1-3.4 4.6-4.8 7.3-1.4 2.8-2.5 5.8-3.3 9.1-.8 3.3-1.2 6.9-1.2 10.7 0 2.5.3 4.7.9 6.6.6 1.9 1.7 3.4 3.2 4.7 1.5 1.3 3.1 2.2 4.7 2.8 1.6.6 3.4.9 5.3.9 3.7 0 7-.5 10.1-1.6 3.1-1.1 6-2.5 8.7-4.4.2-.7.3-1.5.5-2.1.1-.7.2-1.3.2-1.9 0-.7-.1-1.3-.3-1.8-.2-.4-.4-.8-.8-1s-.7-.3-1.1-.4c-.4 0-.9-.1-1.4-.1-.9 0-1.7-.1-2.3-.3-.7-.2-1.2-.5-1.7-.9s-.8-.8-1-1.3c-.2-.5-.3-1-.3-1.5s.1-1 .3-1.4c.2-.5.6-.9 1-1.2.5-.3 1.1-.6 1.8-.9.7-.2 1.5-.3 2.5-.3 2.3 0 4.1.2 5.6.7 1.5.5 2.6 1.2 3.4 2.1.8.9 1.4 2.1 1.7 3.4.3 1.4.5 2.9.5 4.6zm5.9 4.4c0-1 .1-2.2.2-3.6s.3-2.8.5-4.3.4-3 .7-4.6c.3-1.6.6-3.2 1-5 .4-1.8.8-3.3 1.1-4.4.3-1.2.6-2.2.9-2.9.2-.5.4-.9.6-1.2.2-.3.4-.5.6-.7.2-.2.5-.3.9-.3.4-.1.8-.1 1.3-.1.6 0 1.1 0 1.4.1.3.1.6.2.7.4.2.2.3.5.3 1 0 .4.1 1 .1 1.7 0 .9-.1 2.1-.2 3.7s-.2 3-.1 4.1h.4c.5-.9 1-2.1 1.7-3.7.7-1.5 1.4-2.8 2.2-3.8.8-1 1.6-1.8 2.6-2.5s2.1-1 3.4-1c.4 0 .9.1 1.3.2.4.2.8.4 1.1.6.3.3.6.6.7 1 .2.4.3.9.3 1.4 0 .4-.1.9-.2 1.7-.1.7-.3 1.6-.6 2.8-.3 1.1-.4 2.1-.6 2.8-.1.7-.2 1.3-.2 1.8 0 .8.1 1.5.2 2.1.2.6.4 1 .6 1.3.3.3.6.6.9.7.3.1.7.2 1.1.2 1 0 2.1-.2 3.2-.7 1.1-.5 2.1-1 3.1-1.6 1.1-.7 2.2-1.4 3.2-2.3l-.5 8.2c-.6.4-1.3.8-2.1 1.3s-1.6.9-2.5 1.4c-.9.4-1.8.8-2.7 1.1-.9.3-1.9.4-2.9.4-1.7 0-3.1-.4-4.2-1.1-1.1-.7-1.9-1.6-2.5-2.8-.6-1.1-1.1-2.4-1.4-3.9-.3-1.4-.5-2.9-.7-4.3h-.6L72 194.4c-.3.9-.6 1.7-.9 2.2-.3.6-.6 1.1-.9 1.4-.3.4-.6.6-1 .8-.3.2-.7.2-1.1.2-1 0-1.7-.2-2.3-.6-.6-.4-1-1-1.3-1.6-.3-.7-.5-1.5-.6-2.3.1-.9 0-1.8 0-2.7zm56.2-25.2c0 .6 0 1.5-.1 2.6 0 1.1-.2 2.3-.4 3.5-.2 1.3-.5 2.8-.9 4.6-.3 1.8-.6 3.3-.8 4.5-.2 1.2-.4 2.2-.6 3.1-.2.9-.2 1.5-.2 1.9v1.8c0 .5.1 1 .2 1.4.1.4.3.7.5.9s.5.3.9.3c.5 0 1.1-.1 1.9-.4.7-.3 1.5-.6 2.3-1 .8-.4 1.7-.9 2.5-1.5.9-.5 1.7-1.1 2.5-1.7.8-.6 1.5-1.2 2.1-1.8.6-.6 1.2-1.1 1.6-1.7v7.7c-.5.5-1.1 1-1.9 1.6-.8.6-1.6 1.1-2.5 1.7-.9.6-1.9 1.1-2.9 1.6s-2.1 1-3.1 1.4c-1 .4-2.1.7-3.1 1-1 .2-1.9.4-2.8.4-.9 0-1.6-.2-2.2-.5-.6-.3-1.1-.8-1.6-1.4-.4-.6-.8-1.4-1.1-2.2-.3-.9-.6-1.8-.8-2.9-.8 1.1-1.7 2.1-2.7 3-.9.9-1.9 1.7-2.8 2.4-1 .7-1.9 1.2-2.9 1.6-1 .4-1.9.6-2.9.6-.8 0-1.5-.1-2.2-.4-.7-.3-1.3-.7-1.8-1.3-.5-.6-.9-1.4-1.2-2.4-.3-1-.5-2.2-.5-3.7 0-3 .3-5.4.7-7 .7-2.4 1.3-5.9 1.9-10.6.1-.3.1-.8.3-1.4.1-.6.3-1.2.5-1.9s.5-1.4.8-2.1c.3-.7.7-1.4 1.1-2 .4-.6 1-1.1 1.6-1.4.6-.4 1.3-.6 2-.6 1.2.1 2.1.3 2.6.6s.8.8.8 1.3c-.2 1.6-.4 3.1-.7 4.5-.3 1.4-.5 2.9-.8 4.4-.3 1.5-.6 3.1-.9 4.9-.3 1.8-.6 3.2-.8 4.3s-.4 2-.5 2.6c-.1.7-.2 1-.2 1 0 .4 0 .8.1 1.2.1.4.2.7.4 1.1.2.3.4.6.6.8.3.2.6.3.9.3.5 0 1-.1 1.6-.4.5-.3 1-.7 1.5-1.2s.9-1.1 1.3-1.8.7-1.6.8-2.6l3.8-19c.1-.6.6-1 1.4-1.4.8-.4 1.7-.6 2.7-.6 1.1 0 2.1.2 2.7.6 1 .5 1.3 1.1 1.3 1.7zm7.6 25.2c0-1.5.1-3.3.3-5.3.2-2 .4-4.2.7-6.6.3-2.4.6-4.6.9-6.5.3-1.9.7-3.6 1-4.9.3-1.1.7-2 1.5-2.7.7-.7 1.7-1.1 3-1.1s2.1.4 2.6 1.1c.5.8.7 1.8.7 3.1 0 .3 0 .8-.1 1.4-.1.6-.2 1.2-.3 2-.1.7-.2 1.4-.3 2.2-.1.8-.2 1.6-.3 2.6-.1 1-.2 1.7-.3 2.2-.1.5-.1.8-.1 1h.7c.1-.3.4-.7.7-1.2.3-.6.6-1.4 1-2.5s.8-2 1.3-2.8c.5-.8.9-1.6 1.3-2.4.4-.8.8-1.4 1.1-2 .3-.6.6-1 .7-1.3.7-1.3 1.6-2.1 2.5-2.6 1-.5 2-.7 3.2-.7 1.2 0 2.1.5 2.8 1.5.7 1 1 2.3 1 4 0 .3-.1.7-.2 1.3-.1.6-.2 1.3-.4 2.2-.2.8-.3 1.9-.5 3.2-.2 1.3-.4 2.5-.5 3.6-.2 1-.3 2.1-.4 3.1-.1 1-.2 2-.2 2.8 0 1.4.2 2.6.5 3.6.4.9.9 1.4 1.7 1.4.3 0 .7-.1 1.2-.3.8-.3 1.3-.5 1.5-.7 1-.8 1.6-1.2 1.6-1.1.1 0 .8-.4 2.3-1.4 1.9-1.2 4.1-2.6 6.7-4.4v7.8l-1.7 1.3c-.1.1-1.2.7-3.3 1.8-3 1.6-4.8 2.5-5.5 2.9-1.8.8-2.9 1.3-3.4 1.4-1.2.4-2.4.6-3.7.6-1.3 0-2.4-.9-3.2-2.8-.9-1.8-1.3-4.5-1.3-8.1 0-1.4.1-2.9.3-4.5.2-1.6.4-3.3.7-5.2h-.6l-9.1 18.1c-.5 1-1 1.6-1.6 2-.6.3-1.3.5-2 .5-1 0-1.7-.2-2.3-.6-.6-.4-1-1-1.3-1.6-.3-.7-.5-1.5-.6-2.3-.2-1.3-.3-2.2-.3-3.1zm62.8-.5c-2.2 1.3-4.2 2.4-6 3.4-1.7 1-3.3 1.8-4.7 2.4-1.4.7-2.6 1.1-3.6 1.5s-2 .5-2.9.5c-1.8 0-3.3-.5-4.6-1.6-1.3-1.1-2.5-2.6-3.4-4.6-.9-2-1.6-4.4-2-7.3-.5-2.9-.7-6.1-.7-9.6 0-1.4.1-2.9.2-4.5s.3-3.1.5-4.7c-.7-.1-1.2-.2-1.6-.3l-1.2-.3c-.4-.1-1-.2-1.6-.3-.7-.1-1.6-.2-2.9-.4-.6-.1-1-.2-1.3-.4-.3-.2-.5-.5-.7-.8-.1-.3-.2-.6-.2-.9v-.8c0-.4.2-.6.7-.8.5-.2 1-.3 1.8-.4.7-.1 1.5-.2 2.3-.2h2.5c.8 0 1.5 0 2.1.1.6 0 1 0 1.3-.1.6-3.1 1.4-6.2 2.4-9.1 1-2.9 2-5.5 3.2-7.8 1.2-2.3 2.5-4.1 3.9-5.5 1.4-1.4 2.9-2.1 4.5-2.1 1 0 1.9.3 2.7.8.8.6 1.5 1.3 2.1 2.2.6.9 1 2 1.3 3.3.3 1.2.5 2.5.5 3.9 0 1.1-.2 2.3-.5 3.5s-.8 2.5-1.3 3.8c-.6 1.3-1.2 2.6-2 3.9l-2.4 3.9c.2-.1.6-.1 1 0 .5 0 1.1.1 1.7.1.6 0 1.3 0 2.1.1.7 0 1.5 0 2.2.1.7 0 1.3 0 2 .1.6 0 1.1 0 1.5.1.5 0 .8.3 1 .8.2.5.3 1.1.3 1.9 0 .9-.2 1.6-.7 2.1-.5.5-1 .8-1.5.8h-13.4c-.7.9-1.4 1.8-2 2.7-.7.9-1.3 1.7-1.9 2.4-.1 1.4-.2 2.9-.2 4.2 0 .6 0 1.2-.1 1.9 0 .6 0 1.3-.1 1.9 0 .6 0 1.2-.1 1.8v1.6c0 1.3.1 2.3.3 3.2.2.9.6 1.6 1 2.1s1 .9 1.6 1.2c.6.2 1.4.4 2.2.4.5 0 1.1-.1 1.8-.3.7-.2 1.5-.6 2.4-1 .9-.4 1.8-.9 2.8-1.4 1-.6 1.9-1.2 2.9-1.8l2.7-2.1c.9-.7 1.6-1.5 2.3-2.2v8.6zm-11.2-44.1c0-.3 0-.5-.1-.8 0-.3-.1-.6-.2-.9s-.3-.5-.5-.7c-.2-.2-.6-.3-1-.3-.6 0-1.2.5-1.8 1.6-.6 1.1-1.2 2.4-1.8 4.1-.6 1.6-1.1 3.5-1.6 5.4-.5 2-1 3.9-1.4 5.8.3 0 .7.1 1 .1.3 0 .7.1 1.1.1.7-1.2 1.4-2.4 2.2-3.8.8-1.4 1.4-2.7 2-4 .6-1.3 1.1-2.6 1.5-3.7.4-1.3.6-2.2.6-2.9zm29.7 44.5c-.8.8-1.9 1.6-3.1 2.5-1.2.9-2.6 1.7-4 2.4s-2.9 1.3-4.4 1.8c-1.5.5-2.9.7-4.3.7-1.2 0-2.2-.2-3-.5-.8-.3-1.5-.8-2-1.4-.5-.6-.9-1.3-1.1-2.2-.2-.9-.3-1.8-.3-2.9 0-1.5.2-3.2.5-5.1.7-4 1.1-6.3 1.3-6.8.3-1 .9-3.2 1.9-6.6.9-2.8 1.4-4.6 1.6-5.4.1-.6.4-1.1 1-1.6.5-.4 1-.8 1.6-1 .6-.3 1.2-.5 1.9-.6.6-.1 1.2-.2 1.8-.2 1 0 1.6.2 2 .5.3.4.5.8.5 1.4 0 .5-.1 1.2-.4 2.2-.2.9-.5 2-.8 3.2-.3 1.2-.8 2.7-1.4 4.6-.6 1.9-1 3.5-1.2 4.8-.2 1.3-.5 2.6-.8 3.9-.3 1.3-.5 2.5-.5 3.6 0 1 .1 1.9.3 2.5.2.6.7.9 1.4.9.8 0 1.8-.3 2.8-.9 1-.6 2.1-1.3 3.1-2.1s2.1-1.7 3.1-2.6c1-.9 1.9-1.6 2.6-2.3v7.2zm-15.6-36.6c0-.5.1-1.1.3-1.8.2-.7.6-1.3 1.1-1.9.5-.6 1.2-1.1 2.1-1.5.9-.4 2-.6 3.3-.6.8 0 1.6.1 2.3.3.7.2 1.3.5 1.9.9.5.4 1 .9 1.3 1.5.3.6.5 1.4.5 2.2 0 .8-.1 1.6-.4 2.3-.3.8-.7 1.4-1.2 2-.6.6-1.3 1.1-2.1 1.4-.8.4-1.9.5-3 .5-2 0-3.6-.5-4.5-1.5-1.1-.9-1.6-2.2-1.6-3.8zm24 44c-2.2 0-4-.4-5.7-1.2-1.6-.8-3-1.8-4.1-3.2-1.1-1.3-1.9-2.9-2.5-4.6-.6-1.7-.8-3.6-.8-5.4 0-1.3.2-3 .7-4.8.5-1.9 1-3.5 1.5-4.9.5-1.4 1.2-2.7 2-4 .8-1.3 1.7-2.4 2.8-3.4 1.1-1 2.2-1.7 3.6-2.3 1.3-.6 2.7-.9 4.3-.9 1.4 0 2.7.2 3.9.6 1.2.4 2.2 1 3.1 1.7.9.7 1.5 1.6 2 2.6s.7 2 .7 3.2c0 .8-.1 1.6-.3 2.3-.2.8-.7 1.7-1.3 2.7-.7 1-1.3 1.7-1.9 2.1-.6.4-1.3.6-2.1.6-1.2 0-1.9-.3-2.3-.9-.6-.9-.7-1.7-.5-2.4.1-.4.3-1.2.6-2.6 0-.2.1-.6 0-1.3 0-.6-.1-1-.2-1.4-.1-.4-.4-.6-.8-.6-.9 0-1.8.2-2.4.7-.7.5-1.2 1-1.7 1.8-.5.7-.9 1.8-1.4 3.1-.5 1.3-.8 2.5-1 3.4-.2.9-.3 1.8-.4 2.6 0 .8-.1 1.5-.1 2.1 0 .8.1 1.7.2 2.6s.5 1.7.9 2.5c.5.8 1 1.4 1.8 1.9.7.5 1.6.7 2.8.7 1.1 0 2.3-.3 3.7-1 1.3-.7 2.7-1.6 4.1-2.6 1.4-1 2.7-2.2 3.9-3.4 1.2-1.3 2.3-2.4 3.2-3.6l2.4 4c-1.7 2.5-3.6 4.7-5.6 6.7-.9.8-1.8 1.6-2.8 2.4-1 .8-2.1 1.5-3.2 2.1-1.1.6-2.3 1.1-3.4 1.5-1.3.4-2.5.6-3.7.6zm36.8-26.9c.7 1.3 1.2 2.8 1.5 4.3.3 1.5.5 3.2.5 5.1 0 1.4-.2 2.8-.5 4.1-.3 1.4-.7 2.7-1.3 4-.6 1.3-1.3 2.5-2.1 3.7-.8 1.1-1.8 2.1-2.8 3-1.1.8-2.2 1.5-3.5 2-1.3.5-2.6.7-4 .7-2 0-3.8-.4-5.2-1.3-1.5-.9-2.6-2.1-3.6-3.5-.9-1.4-1.6-3.1-2-4.9-.4-1.8-.6-3.6-.6-5.5 0-3.1.4-5.7 1.1-7.9.8-2.2 1.9-4.1 3.3-5.8 1.4-1.6 3.2-2.9 5.2-3.9 2.1-.9 4.4-1.4 7-1.4 2.2 0 4.3.3 6.2 1 1.9.7 3.7 1.6 5.4 2.8 1.7 1.1 3.3 2.6 4.7 4.3 1.5 1.7 2.8 3.4 4.1 5l-.7 4.9c-.6-.8-1.5-1.7-2.5-2.7-1.1-1-2.2-2.1-3.4-3.2-1.2-1.2-2.4-2.2-3.5-3-1.2-.8-2.2-1.5-3-2.1l-.3.3zm-10.8 20.2c.8 0 1.6-.4 2.3-1.2.7-.8 1.4-1.8 2-3 .6-1.2 1-2.7 1.3-4.4.3-1.7.5-3.3.5-4.6 0-1.1-.1-2.1-.2-3-.2-.9-.4-1.7-.7-2.4-.3-.7-.7-1.2-1.3-1.6-.5-.4-1.1-.6-1.8-.6-1 0-1.9.4-2.7 1.2-.9.8-1.6 1.9-2.3 3.1-.7 1.3-1.2 2.7-1.5 4.2-.4 1.5-.6 3.3-.6 5.2 0 1 .1 1.9.3 2.8.2.9.5 1.6.9 2.2.4.6.9 1.1 1.6 1.5.5.4 1.3.6 2.2.6zm19.4-.6c0-1.5.1-3.3.3-5.3.2-2 .4-4.2.7-6.6.3-2.4.6-4.6.9-6.5.3-1.9.7-3.6 1-4.9.3-1.1.7-2 1.5-2.7.7-.7 1.7-1.1 3-1.1s2.1.4 2.6 1.1c.5.8.7 1.8.7 3.1 0 .3 0 .8-.1 1.4-.1.6-.2 1.2-.3 2-.1.7-.2 1.4-.3 2.2-.1.8-.2 1.6-.3 2.6-.1 1-.2 1.7-.3 2.2-.1.5-.1.8-.1 1h.7c.1-.3.4-.7.7-1.2.3-.6.6-1.4 1-2.5s.8-2 1.3-2.8c.5-.8.9-1.6 1.3-2.4.4-.8.8-1.4 1.1-2 .3-.6.6-1 .7-1.3.7-1.3 1.6-2.1 2.5-2.6 1-.5 2-.7 3.2-.7 1.2 0 2.1.5 2.8 1.5.7 1 1 2.3 1 4 0 .3-.1.7-.2 1.3-.1.6-.2 1.3-.4 2.2-.2.8-.3 1.9-.5 3.2-.2 1.3-.4 2.5-.5 3.6-.2 1-.3 2.1-.4 3.1-.1 1-.2 2-.2 2.8 0 1.4.2 2.6.5 3.6.4.9.9 1.4 1.7 1.4.3 0 .7-.1 1.2-.3.8-.3 1.3-.5 1.5-.7 1-.8 1.6-1.2 1.6-1.1.1 0 .8-.4 2.3-1.4 1.9-1.2 4.1-2.6 6.7-4.4v7.8l-1.7 1.3c-.1.1-1.2.7-3.3 1.8-3 1.6-4.8 2.5-5.5 2.9-1.8.8-2.9 1.3-3.4 1.4-1.2.4-2.4.6-3.7.6-1.3 0-2.4-.9-3.2-2.8-.9-1.8-1.3-4.5-1.3-8.1 0-1.4.1-2.9.3-4.5.2-1.6.4-3.3.7-5.2h-.6l-9.1 18.1c-.5 1-1 1.6-1.6 2-.6.3-1.3.5-2 .5-1 0-1.7-.2-2.3-.6-.6-.4-1-1-1.3-1.6-.3-.7-.5-1.5-.6-2.3-.2-1.3-.3-2.2-.3-3.1z" fill="#231F20"/><path d="M72.6 228.2h1.2l-1.1-3.2h-5.5l-1.1 3.2h1.5v1.6H63v-1.6h1.2l4.4-12.7h2.8l4.4 12.7h1.4v1.6h-4.6v-1.6zm-4.9-4.8h4.4l-2.2-6.4-2.2 6.4zm15.2-7.9h10.2v4h-1.9v-2.4h-5.1v4.6H91v1.6h-4.9v4.9h1.4v1.6h-4.6v-1.6h1.4v-11h-1.4v-1.7zm11.2-.4h3.2v13h1.5v1.6h-4.6v-1.6h1.4v-11.4h-1.4v-1.6zm8 10.1c0 .3 0 .5.1.8 0 .2.1.4.2.7.2.6.6 1.1 1.1 1.4.5.3 1.1.5 1.7.5.5 0 1-.1 1.5-.2s1-.4 1.5-.7l.7 1.2c-.6.4-1.3.8-1.9 1-.6.2-1.3.3-2 .3s-1.3-.1-1.8-.3c-.6-.2-1-.5-1.5-1-.4-.4-.7-1-1-1.6-.2-.6-.3-1.4-.3-2.3 0-.7.1-1.4.3-2 .2-.6.5-1.2.9-1.6.4-.5.9-.8 1.4-1.1.6-.3 1.2-.4 2-.4.7 0 1.3.1 1.8.3.5.2.9.5 1.2.9.3.4.5.8.7 1.3.2.5.3 1 .3 1.4 0 .2.1.5.1.7v.7h-7zm2.8-3.9c-.4 0-.8.1-1.1.2-.3.1-.6.3-.8.5-.2.2-.4.5-.5.8-.1.3-.2.7-.3 1.1h5.1c0-.4-.1-.7-.2-1-.1-.3-.2-.6-.4-.8-.2-.2-.4-.4-.7-.5-.3-.3-.7-.3-1.1-.3zm12.2 6.9h.6l-1.9-2.4-1.9 2.4h.5v1.6h-3.2v-1.6h.8l3-3.5-2.8-3.1h-1V220h3.2v1.6h-.4l1.8 2.3 1.8-2.3h-.5V220h3.2v1.6h-.8l-2.8 3.2 2.9 3.3h.7v1.6h-3.2v-1.5zm4.6-8.2h3.2v8.1h1.5v1.6h-4.6v-1.6h1.4v-6.5h-1.4V220zm1.1-3.4c0-.2 0-.3.1-.5.1-.1.2-.3.3-.4.1-.1.2-.2.4-.3.2-.1.3-.1.5-.1s.3 0 .5.1c.1.1.3.2.4.3.1.1.2.2.3.4.1.1.1.3.1.5s0 .3-.1.5-.2.3-.3.4c-.1.1-.2.2-.4.3-.1.1-.3.1-.5.1s-.3 0-.5-.1-.3-.2-.4-.3c-.1-.1-.2-.2-.3-.4 0-.2-.1-.3-.1-.5zm4.8-1.5h3.2v5.7c.4-.3.9-.6 1.4-.8.5-.2 1-.3 1.5-.3.6 0 1.2.1 1.8.4.5.2 1 .6 1.4 1 .4.4.7 1 .9 1.6.2.6.3 1.3.3 2 0 .8-.1 1.5-.4 2.1-.2.6-.6 1.2-1 1.6-.4.5-.9.8-1.5 1.1s-1.2.4-1.9.4c-.5 0-.9-.1-1.4-.2-.4-.1-.8-.3-1.1-.6v.6H129v-13h-1.4v-1.6zm5.6 6.3c-.5 0-.9.1-1.3.3-.4.2-.8.4-1.1.8v5.3c.2.2.5.4.9.6.4.2.9.2 1.5.2.4 0 .8-.1 1.2-.2.4-.2.7-.4 1-.7.3-.3.5-.7.7-1.1.2-.5.3-1 .3-1.6 0-.6-.1-1-.2-1.5-.2-.4-.4-.8-.7-1.1-.3-.3-.6-.5-1-.7-.5-.3-.9-.3-1.3-.3zm6.6-6.3h3.2v13h1.5v1.6h-4.6v-1.6h1.4v-11.4h-1.4v-1.6zm8 10.1c0 .3 0 .5.1.8 0 .2.1.4.2.7.2.6.6 1.1 1.1 1.4.5.3 1.1.5 1.7.5.5 0 1-.1 1.5-.2s1-.4 1.5-.7l.7 1.2c-.6.4-1.3.8-1.9 1-.6.2-1.3.3-2 .3s-1.3-.1-1.8-.3c-.6-.2-1-.5-1.5-1s-.7-1-1-1.6c-.2-.6-.3-1.4-.3-2.3 0-.7.1-1.4.3-2 .2-.6.5-1.2.9-1.6.4-.5.9-.8 1.4-1.1.6-.3 1.2-.4 2-.4.7 0 1.3.1 1.8.3.5.2.9.5 1.2.9.3.4.5.8.7 1.3.2.5.3 1 .3 1.4 0 .2.1.5.1.7v.7h-7zm2.7-3.9c-.4 0-.8.1-1.1.2-.3.1-.6.3-.8.5-.2.2-.4.5-.5.8-.1.3-.2.7-.3 1.1h5.1c0-.4-.1-.7-.2-1-.1-.3-.2-.6-.4-.8s-.4-.4-.7-.5c-.3-.3-.7-.3-1.1-.3zm18.3-3.1c-.2-.3-.4-.5-.7-.6-.2-.1-.5-.3-.8-.3-.3-.1-.6-.1-.9-.1-.5 0-.9.1-1.3.2s-.7.3-.9.4c-.2.2-.4.4-.5.7-.1.3-.2.5-.2.8 0 .4.1.7.2 1 .1.3.3.5.6.6.2.2.5.3.8.4.3.1.5.2.8.3l1.9.6c.6.2 1.1.4 1.5.6.4.2.8.5 1.1.8.3.3.5.7.7 1.1.2.4.2.9.2 1.4 0 .6-.1 1.1-.4 1.6-.2.5-.6.9-1 1.3s-1 .7-1.6.9c-.6.2-1.3.3-2 .3s-1.4-.1-1.9-.2-1-.4-1.3-.7-.6-.6-.9-1c-.2-.4-.4-.7-.5-1.1h-.7v-1.6h2.4c0 .7.1 1.2.2 1.5.1.3.4.5.6.7.3.2.6.3.9.4.4.1.8.1 1.2.1.4 0 .8-.1 1.2-.2.3-.1.6-.2.9-.4.2-.2.4-.4.6-.7.1-.3.2-.6.2-.9 0-.4-.1-.7-.2-1-.2-.3-.4-.5-.6-.7-.3-.2-.5-.3-.8-.5l-.9-.3-2.1-.6c-.5-.1-.9-.3-1.2-.5-.4-.2-.7-.5-1-.8-.3-.3-.5-.7-.6-1.1-.1-.4-.2-.9-.2-1.4 0-.5.1-1.1.3-1.5.2-.5.5-.9.9-1.3s.9-.6 1.5-.8c.6-.2 1.3-.3 2.1-.3.5 0 1 .1 1.4.2.4.1.8.3 1.2.5.3.2.7.5.9.8.3.3.5.6.7 1h.7v1.6H169c.1-.5 0-1-.2-1.2zm12.6-2.7h4.6v1.6h-1.2l-4.6 12.7h-2.6l-4.6-12.7h-1.3v-1.6h4.6v1.6h-1.2l3.7 11 3.9-11h-1.3v-1.6zm16.9 14.4V227c-.2.5-.5.9-.9 1.3s-.8.7-1.2.9c-.4.2-.9.4-1.4.5-.5.1-1 .2-1.5.2-.9 0-1.8-.2-2.6-.5s-1.5-.8-2.1-1.5c-.6-.7-1.1-1.5-1.5-2.4-.3-.9-.5-1.9-.5-2.9s.2-2 .5-2.9c.3-.9.8-1.7 1.4-2.4.6-.7 1.3-1.2 2.2-1.6.8-.4 1.7-.6 2.7-.6.9 0 1.7.1 2.3.4.7.3 1.2.6 1.7.9.5.4.8.7 1.1 1.1h.9v1.7h-2c-.4-.7-1-1.3-1.7-1.7-.7-.4-1.5-.6-2.3-.6-.7 0-1.4.2-2 .5s-1.1.7-1.6 1.2c-.4.5-.8 1.1-1 1.8-.2.7-.4 1.4-.4 2.1 0 .8.1 1.6.4 2.3.3.7.6 1.3 1 1.7.4.4.9.8 1.5 1.1.6.3 1.3.4 2 .4 1.2 0 2.2-.3 3-.9.8-.6 1.3-1.5 1.6-2.7h-4V223h6v6.9h-1.6zm27.1-14.4h4.6v1.6h-1.2l-4.1 12.7h-2.9l-3.9-12.5-3.6 12.5h-2.9l-4.2-12.7h-1.3v-1.6h4.6v1.6h-1.2l3.5 11 3.6-12.6h2.8l3.9 12.6 3.5-11h-1.4v-1.6zm5.5 9.4c0-.8.1-1.5.4-2.1.2-.6.6-1.2 1-1.6.4-.5.9-.8 1.5-1.1.6-.2 1.3-.4 2-.4s1.4.1 2 .4c.6.2 1.1.6 1.5 1 .4.4.8 1 1 1.6.2.6.4 1.3.4 2.1s-.1 1.5-.4 2.1c-.2.6-.6 1.2-1 1.6-.4.5-.9.8-1.5 1.1-.6.3-1.3.4-2 .4s-1.4-.1-2-.4c-.6-.3-1.1-.6-1.5-1.1-.4-.5-.8-1-1-1.6-.3-.5-.4-1.2-.4-2zm1.9 0c0 .6.1 1.1.2 1.5s.4.8.7 1.2c.3.3.6.6 1 .7.4.2.8.3 1.2.3.4 0 .8-.1 1.2-.3.4-.2.7-.4 1-.7.3-.3.5-.7.7-1.2.2-.5.2-1 .2-1.5 0-.6-.1-1.1-.2-1.6-.2-.5-.4-.8-.6-1.1-.3-.3-.6-.5-1-.7-.4-.2-.8-.2-1.2-.2-.4 0-.8.1-1.2.2-.4.2-.7.4-1 .7-.3.3-.5.7-.7 1.1-.3.5-.3 1-.3 1.6zm16.8-2.8h-1.8v-.6c-.2 0-.4 0-.6.1-.2.1-.4.2-.6.4-.2.2-.4.4-.5.6-.1.2-.2.5-.3.9v4.7h1.7v1.6h-4.8v-1.6h1.3v-6.5h-1.4V220h3.1v1.3c.1-.2.2-.4.4-.6.1-.2.3-.3.5-.5l.6-.3c.2-.1.4-.1.7-.1h1.8v2.3zm2-7h3.4v8.9h1.7l2.3-2.4h-.6V220h3.7v1.6h-1.2l-3 3.1 3.2 3.5h1.2v1.6h-2.1l-4-4.4H255v2.7h.8v1.6h-4.2v-1.6h1.6v-11.4h-1.7v-1.6zM267 220h2.3v1.4H267v6.7h1.5v1.6h-4.8v-1.6h1.5v-6.7h-1.6V220h1.6v-1.5c0-.6.1-1.1.2-1.5.2-.4.4-.8.6-1.1.3-.3.6-.5 1-.6.4-.1.8-.2 1.3-.2h.9c.3 0 .5.1.7.1.2.1.4.1.6.2.2.1.3.1.4.2l-.5 1.3c-.2-.1-.5-.2-.8-.3-.3-.1-.7-.1-1-.1-.5 0-.9.2-1.2.5-.3.3-.4.8-.4 1.4v1.6zm3.7-4.9h3.2v13h1.5v1.6h-4.6v-1.6h1.4v-11.4h-1.4v-1.6zm6.2 9.8c0-.8.1-1.5.4-2.1.2-.6.6-1.2 1-1.6.4-.5.9-.8 1.5-1.1.6-.2 1.3-.4 2-.4s1.4.1 2 .4c.6.2 1.1.6 1.5 1 .4.4.8 1 1 1.6.2.6.4 1.3.4 2.1s-.1 1.5-.4 2.1c-.2.6-.6 1.2-1 1.6-.4.5-.9.8-1.5 1.1-.6.3-1.3.4-2 .4s-1.4-.1-2-.4c-.6-.3-1.1-.6-1.5-1.1-.4-.5-.8-1-1-1.6-.2-.5-.4-1.2-.4-2zm1.9 0c0 .6.1 1.1.2 1.5.2.5.4.8.7 1.2.3.3.6.6 1 .7.4.2.8.3 1.2.3.4 0 .8-.1 1.2-.3.4-.2.7-.4 1-.7.3-.3.5-.7.7-1.2.2-.5.2-1 .2-1.5 0-.6-.1-1.1-.2-1.6-.2-.5-.4-.8-.6-1.1-.3-.3-.6-.5-1-.7-.4-.2-.8-.2-1.2-.2-.4 0-.8.1-1.2.2-.4.2-.7.4-1 .7-.3.3-.5.7-.7 1.1-.2.5-.3 1-.3 1.6zm9.1-4.9h3.1v1.6h-.5l1.7 6.2 2.3-7.9h1.5l2.2 7.8 1.8-6.2h-.6V220h3.1v1.6h-.8L299 230h-1.6l-2.2-7.8-2.2 7.8h-1.6l-2.7-8.3h-.8V220z" fill="#43B649"/><path d="M142.2.2h1.2l-5.1 11H137l5.2-11zm6.8 0v3.6h-1.1V.2h1.1zm-14.9 16.1h1.2l-5.1 11h-1.3l5.2-11zm8.1 0h1.2l-5.1 11H137l5.2-11zm-43 23.9h1.7v2h-1.7v-2zm26.8-7.8h1.2l-5.1 11h-1.3l5.2-11zm8.1 0h1.2l-5.1 11h-1.3l5.2-11zm-33.6 15.7v13.4h-1.1V48.1h1.1zm5.5.4l5.1 11h-1.2l-5.2-11h1.3zm11.9 0h1.2l-5.1 11h-1.3l5.2-11zm8.1 0h1.2l-5.1 11h-1.3l5.2-11zm3.2 0h6.2v.6l-3.5 9.2h-1.4l3.4-8.7h-4.7v-1.1zM93.7 64.6h1.2l-5.1 11h-1.3l5.2-11zm6.8 0v3.6h-1.1v-3.6h1.1zm15 0v3.6h-1.1v-3.6h1.1zm2.4 0v3.6h-1.1v-3.6h1.1zm12.3 0l5.1 11h-1.2l-5.2-11h1.3zM83 88.5h1.7v2H83v-2zm32.3 0h1.7v2h-1.7v-2zm16.2 0h1.7v2h-1.7v-2zm-47.1 7.9v13.4h-1.1V96.4h1.1zm17.4 0c-.6 1-1 2-1.3 3-.3 1-.4 2-.4 3s.1 2 .4 3 .7 2 1.3 3h-1c-.7-1-1.2-2.1-1.5-3-.3-1-.5-2-.5-2.9 0-1 .2-2 .5-2.9.3-1 .8-2 1.5-3h1zm36.5.4l5.1 11h-1.2l-5.2-11h1.3zm-53.9 15.7v13.4h-1.1v-13.4h1.1zm24.2.4v3.6h-1.1v-3.6h1.1zm6.7 7.8h1.7v2h-1.7v-2zm13 4.7v.5h-8.1v-.5h8.1zm20.7-12.5v3.6h-1.1v-3.6h1.1zM85.6 129h1.2l-5.1 11h-1.3l5.2-11zm36.5 0l5.1 11H126l-5.2-11h1.3zm10.7 0v3.6h-1.1V129h1.1zm5.9 5.6h3.4v1.1h-3.4v-1.1zM149 129v3.6h-1.1V129h1.1z" fill="#231F20" stroke="#231F20" stroke-width=".5" stroke-miterlimit="10"/></svg>