<svg xmlns="http://www.w3.org/2000/svg" width="86.6" height="85.4" viewBox="0 0 86.6 85.4"><path d="M83.9 0l-1.3 3.2h-.4L83.5 0h.4zM86 0l-.1 1.2h-.3L85.5 0h.5zm-4.7 5.4L80 8.7h-.4l1.3-3.2.4-.1zm2.7 0l-1.3 3.2h-.4l1.3-3.2h.4zm-14.2 8.1c.2 0 .3.1.3.4 0 .2-.1.4-.3.4-.2 0-.3-.1-.3-.4 0-.3.1-.4.3-.4zm8.9-2.7L77.4 14H77l1.3-3.2h.4zm2.7 0L80.1 14h-.4l1.3-3.2h.4zm-11.7 5.3h.3l.1 4.5h-.3l-.1-4.5zm2.4.2l1.4 3.2h-.4l-1.4-3.2h.4zm4 0l-1.3 3.2h-.4l1.3-3.2h.4zm2.7-.1l-1.3 3.2h-.4l1.3-3.2h.4zm1.2 3.2l1.2-2.8h-1.6v-.4h2.1v.3l-1.2 2.9H80zm-11.9 2.3L66.8 25h-.4l1.3-3.2.4-.1zm2.1 0l-.1 1.2h-.3l-.1-1.2h.5zm4.9-.1l-.1 1.2h-.3l-.1-1.2h.5zm.9 0v1.2h-.3l-.1-1.2h.4zm4.2 0l1.4 3.2h-.4l-1.4-3.2h.4zm-15.5 8.1c.2 0 .3.1.3.4 0 .2-.1.4-.3.4-.2 0-.3-.1-.3-.4 0-.3.1-.4.3-.4zm10.7-.2c.2 0 .3.1.3.4 0 .2-.1.4-.3.4-.2 0-.3-.1-.3-.4 0-.2.1-.4.3-.4zm5.4-.1c.2 0 .3.1.3.4 0 .2-.1.4-.3.4-.2 0-.3-.1-.3-.4 0-.2.1-.3.3-.4zm-16.2 2.9h.3l.1 4.5h-.3l-.1-4.5zm5.8.1h.4c-.6.6-1 1.2-1 2s.3 1.4 1 1.9h-.4c-.7-.5-1-1.1-1-1.9 0-.8.3-1.4 1-2zm12.6-.2l1.4 3.2H84l-1.4-3.2h.4zM31.4 42.3h-2.7V42h2.7v.3zm5.3-.1H34v-.3h2.7v.3zm3.3-1.8V40h1.4v.4H40zm5.4 0V40h1.4v.4h-1.4zm4.8 1.6h-2.7v-.3h2.7v.3zm14.5-4.3h.3l.1 4.5h-.3l-.1-4.5zm8.4.1L73 39h-.3l-.1-1.2h.5zm2.5 2.5c.2 0 .3.1.3.4 0 .2-.1.4-.3.4-.2 0-.3-.1-.3-.4 0-.3.1-.4.3-.4zm4.1 1.3H77v-.3h2.7v.3zm6.8-4l-.1 1.2h-.3l-.1-1.2h.5zM7.3 48H4.6v-.3h2.7v.3zm5.4-.1H10v-.3h2.7v.3zm2.7 0h-2.7v-.3h2.7v.3zm10.7-.2h-2.7v-.3h2.7v.3zm.6-1.7v-.4h1.4v.4h-1.4zm27-2.6l1.4 3.2h-.4l-1.4-3.2h.4zm4.6 3.9h-2.7V47h2.7v.3zm5.4-.1H61v-.3h2.7v.3zm2.1-4l-1.3 3.2h-.4l1.3-3.2h.4zm12-.1l1.4 3.2h-.4l-1.4-3.2h.4zm3.5-.1l-.1 1.2h-.3l-.2-1.2h.6zm1.7 2.2v-.4h1.4v.4H83zm3.6-2.3l-.1 1.2h-.3l-.1-1.2h.5zM4.1 49.5l-1.3 3.2h-.4l1.3-3.2h.4zm2.7 0l-1.3 3.2h-.4l1.3-3.2h.4zm6.7-.1l1.4 3.2h-.4l-1.4-3.2h.4zm2.7 0l1.4 3.2h-.4l-1.4-3.2h.4zm4.6 3.8h-2.7v-.3h2.7v.3zm2.1-3.9l-1.3 3.2h-.4l1.3-3.2h.4zm-20 5.6l1.4 3.2h-.4l-1.4-3.2h.4zm2.6 0L7 58.1h-.4l-1.4-3.2h.3zm11.1-.4h.3L17 59h-.3l-.1-4.5zm61.7-.9h.3l.1 4.5h-.3l-.1-4.5zm-75 6.5h.3l.1 4.5h-.3l-.1-4.5zm2.6-.1h.3l.1 4.5H6L5.9 60zm10.8-.1h.3l.1 4.5h-.3l-.1-4.5zm62.7-.8l-1.3 3.2h-.4l1.3-3.2h.4zM1.7 65.7L.4 68.9H0l1.3-3.2h.4zm4.3-.3h.3l.1 4.5h-.3L6 65.4zm13.1 0l1.4 3.2h-.4l-1.4-3.2h.4zm57.7-.9l-1.3 3.2h-.4l1.3-3.2h.4zM.7 70.9H1l.1 4.5H.8l-.1-4.5zm3.7.1h.4l-1 3.2h-.4L2.3 71h.4l.7 2c.1.2.1.4.2.7 0-.2.1-.5.2-.7l.6-2zm2.7 0h.4l-1 3.2h-.4L5 71h.4l.7 2c.1.2.1.4.2.7 0-.2.1-.5.2-.7l.6-2zm12.4-.4h.3l.1 4.5h-.3l-.1-4.5zm2.7-.1h.3l.1 4.5h-.3l-.1-4.5zm2.2 2.4v-.4h1.4v.4h-1.4zm2.7-.1v-.4h1.4v.4h-1.4zm2.8-2.2l1.4 3.2h-.4l-1.4-3.2h.4zm4.6 3.8h-2.7v-.3h2.7v.3zm2.7 0h-2.7v-.3h2.7v.3zm2.7 0h-2.7v-.3h2.7v.3zm2.7-.1h-2.7V74h2.7v.3zm2.7 0h-2.7V74h2.7v.3zm2.7-.1h-2.7v-.3H48v.3zm2.6 0h-2.7v-.3h2.7v.3zm2.7 0h-2.7v-.3h2.7v.3zm2.7-.1h-2.7v-.3H56v.3zm2.7 0H56v-.3h2.7v.3zm2.1-4l-1.3 3.2h-.4l1.3-3.2h.4zm1.1 2.2v-.4h1.4v.4h-1.4zm3.2-2.4h.3l.1 4.5h-.3l-.1-4.5zm2.7-.1h.3l.1 4.5h-.3l-.1-4.5zm2.2 2.4v-.4h1.4v.4H70zm4.2-2.3l-1.3 3.2h-.4l1.3-3.2h.4zm1.7-.2h.3l.1 4.5H76l-.1-4.5zm-56.3 6.2h.3l.1 4.5h-.3l-.1-4.5zm2.7 0h.3l.1 4.5h-.3l-.1-4.5zm8-.1h.3l.1 4.5h-.3l-.1-4.5zm2.7-.1h.3l.1 4.5h-.3l-.1-4.5zm32.2-.5h.3l.1 4.5h-.3l-.1-4.5zm2.7 0h.3l.1 4.5H68l-.1-4.5zm5.4-.1h.3l.1 4.5h-.3l-.1-4.5zm2.7 0h.3l.1 4.5h-.3l-.1-4.5zm-55.8 9.6c0 .1 0 .2.1.3.1.1.2.1.4.1v.3c-.6 0-1-.2-1-.6v-.7c0-.3-.3-.4-.7-.4v-.3c.5 0 .7-.1.7-.4v-.7c0-.4.3-.6.9-.7v.3c-.2 0-.4 0-.4.1-.1.1-.1.1-.1.3v.7c0 .3-.2.5-.5.5.3.1.5.2.5.5l.1.7zm4.8-.8c0-.3.2-.5.5-.5-.3-.1-.5-.2-.5-.5v-.7c0-.1 0-.2-.1-.3-.1-.1-.2-.1-.4-.1v-.3c.6 0 1 .2 1 .6v.7c0 .3.3.4.7.4v.3c-.5 0-.7.1-.7.4v.7c0 .4-.3.6-.9.7V85c.2 0 .4 0 .4-.1.1-.1.1-.1.1-.3l-.1-.7zm5.9.7c0 .1 0 .2.1.3.1.1.2.1.4.1v.3c-.6 0-1-.2-1-.6V84c0-.3-.3-.4-.7-.4v-.3c.5 0 .7-.1.7-.4v-.7c0-.4.3-.6.9-.7v.3c-.2 0-.4 0-.4.1-.1.1-.1.1-.1.3v.7c0 .3-.2.5-.5.5.3.1.5.2.5.5l.1.7zm4.8-.8c0-.3.2-.5.5-.5-.3-.1-.5-.2-.5-.5v-.7c0-.1 0-.2-.1-.3-.1-.1-.2-.1-.4-.1v-.3c.6 0 1 .2 1 .6v.7c0 .3.3.4.7.4v.3c-.5 0-.7.1-.7.4v.7c0 .4-.3.6-.9.7v-.3c.2 0 .4 0 .4-.1.1-.1.1-.1.1-.3l-.1-.7zm30.1.2c0 .1 0 .2.1.3.1.1.2.1.4.1v.3c-.6 0-1-.2-1-.6v-.7c0-.3-.3-.4-.7-.4v-.3c.5 0 .7-.1.7-.4v-.7c0-.4.3-.6.9-.7v.3c-.2 0-.4 0-.4.1-.1.1-.1.1-.1.3v.7c0 .3-.2.5-.5.5.3.1.5.2.5.5l.1.7zm4.8-.8c0-.3.2-.5.5-.5-.3-.1-.5-.2-.5-.5v-.7c0-.1 0-.2-.1-.3-.1-.1-.2-.1-.4-.1v-.3c.6 0 1 .2 1 .6v.7c0 .3.3.4.7.4v.3c-.5 0-.7.1-.7.4v.7c0 .4-.3.6-.9.7v-.3c.2 0 .4 0 .4-.1.1-.1.1-.1.1-.3l-.1-.7zm3.3.7c0 .1 0 .2.1.3.1.1.2.1.4.1v.3c-.6 0-1-.2-1-.6v-.7c0-.3-.3-.4-.7-.4v-.3c.5 0 .7-.1.7-.4v-.7c0-.4.3-.6.9-.7v.3c-.2 0-.4 0-.4.1-.1.1-.1.1-.1.3v.7c0 .3-.2.5-.5.5.3.1.5.2.5.5l.1.7zm4.7-.8c0-.3.2-.5.5-.5-.3-.1-.5-.2-.5-.5v-.7c0-.1 0-.2-.1-.3-.1-.1-.2-.1-.4-.1v-.3c.6 0 1 .2 1 .6v.7c0 .3.3.4.7.4v.3c-.5 0-.7.1-.7.4v.7c0 .4-.3.6-.9.7v-.3c.2 0 .4 0 .4-.1.1-.1.1-.1.1-.3l-.1-.7z" fill="#fff"/></svg>