<svg xmlns="http://www.w3.org/2000/svg" width="18.9" height="25.2" viewBox="0 0 18.9 25.2"><path fill="#fff" d="M9.2 12.3L6 1.1c-.1-.2 0-.5.3-.5L8.2 0c.2 0 .5.1.6.3L14.1 11m-4.7 2.2L11 24.8c0 .2.2.4.5.3l2-.3c.2 0 .4-.2.4-.5l.5-11.9M1.9 14L.3 8.6c0-.3.1-.5.3-.6l1-.3c.2-.1.5 0 .6.2L5.1 13M2 14.5l.6 5.7c0 .2.2.4.4.3l1-.2c.2 0 .4-.3.5-.5l.8-6"/><path fill="#fff" d="M2.7 16.4c-.2 0-.6.1-.8 0L.2 15c-.2-.1-.2-.5-.2-.7l1-1.9c.2-.1.5-.2.8-.3L16 8.3c.2-.1.6 0 .8.1l1.9 2c.1.2.2.5.2.8l-.9 2.5c-.2.2-.5.3-.7.4L2.7 16.4z"/></svg>