<svg xmlns="http://www.w3.org/2000/svg" width="100" height="100" viewBox="0 0 100 100"><path fill="#3DB39E" d="M50 0c27.614 0 50 22.386 50 50s-22.386 50-50 50S0 77.614 0 50 22.386 0 50 0z"/><path fill="#324D5B" d="M31.357 26.277L.513 57.12C3.64 79.033 20.966 96.36 42.88 99.486L73.723 68.64c11.31-11.308 10.993-29.96-.706-41.658s-30.35-12.014-41.66-.705z"/><path fill="#283E49" d="M1.013 60.06C5.08 79.978 20.995 95.568 41.07 99.19L73 66.85 33.654 27 1.014 60.06z"/><path d="M29.117 43.025l-2.152-2.158c-1.188-1.19-3.115-1.19-4.304 0l-5.74 5.753c-1.18 1.19-1.18 3.123 0 4.313l2.16 2.158c1.19 1.2 3.12 1.2 4.31 0l5.74-5.75c1.19-1.19 1.19-3.12 0-4.31zm30.016 30.01l-2.157-2.152c-1.19-1.19-3.123-1.19-4.314 0l-.588.587L28.59 47.986 25 51.578l4.984 10.984c.98 1.768 2.205 3.39 3.635 4.818s3.05 2.653 4.81 3.636l9.68 4.395-1.22 1.22c-1.19 1.19-1.19 3.12 0 4.31l2.16 2.15c1.19 1.19 3.12 1.19 4.31 0l5.75-5.74c1.19-1.19 1.19-3.11 0-4.3z" fill="#1C2C33"/><path fill-rule="evenodd" clip-rule="evenodd" fill="#CDCDCD" d="M50.922 59.514l-9.936-9.935c-.784-.79-2.055-.79-2.838 0L26.083 61.64c-.784.784-.784 2.055 0 2.84l9.935 9.935c.784.784 2.055.784 2.84 0l12.062-12.06c.783-.787.783-2.057 0-2.84z"/><path fill="#949494" d="M28.48 59.246l1.504 3.316c.98 1.768 2.205 3.39 3.635 4.818s3.05 2.653 4.81 3.636l2.63 1.192 5.87-5.873-12.77-12.773-5.69 5.684z"/><path fill="#AEAEAE" d="M54.014 71.41L29.59 46.986 26 50.578l4.984 10.984c.98 1.768 2.205 3.39 3.635 4.818 1.43 1.43 3.05 2.653 4.81 3.636L50.42 75l3.594-3.59z"/><path d="M31.493 48.89l-1.903-1.904L26 50.578l1.65 3.64zM46.83 73.37L50.423 75l3.592-3.59-1.9-1.9z" fill="#949494"/><circle fill="#A6A6A6" cx="47.519" cy="60.484" r="1.5"/><circle fill="#A6A6A6" cx="40.516" cy="53.487" r="1.5"/><circle fill="#9C9C9C" cx="36.489" cy="63.488" r="1.511"/><path fill="#DFDFDF" d="M54.014 71.41l-2 2L27.59 48.986l2-2z"/><path d="M31.492 48.89l-1.902-1.904-2 2 2.223 2.224zm22.522 22.52l-1.903-1.902-2.32 1.68 2.23 2.222z" fill="#C3C3C3"/><path fill="#3A96B4" d="M60.133 72.035l-2.157-2.152c-1.19-1.19-3.123-1.19-4.314 0l-5.753 5.74c-1.2 1.187-1.2 3.115 0 4.304l2.15 2.152c1.19 1.18 3.12 1.18 4.31 0l5.75-5.74c1.19-1.19 1.19-3.12 0-4.31zM27.965 39.867c-1.188-1.19-3.115-1.19-4.304 0l-5.74 5.753c-1.18 1.19-1.18 3.123 0 4.314l2.16 2.158c1.19 1.19 3.12 1.19 4.31 0l5.74-5.753c1.19-1.2 1.19-3.13 0-4.32l-2.15-2.16z"/><path d="M47.964 79.982l2.055 2.05 10.05-10.055-2.06-2.05zM20.018 52.036L30.073 41.98l-2.05-2.054L17.968 49.98z" fill="#3589A4"/><path fill="#DBD8BD" d="M51.54 17.998c-7.37 0-14.653 2.75-20.183 8.28L.514 57.128c.145 1.014.312 2.022.518 3.017l32.093-32.1c4.867-4.868 11.407-7.548 18.414-7.548 7.38 0 14.38 2.93 19.71 8.253 5.19 5.2 8.12 12.036 8.25 19.25.12 7.186-2.56 13.888-7.55 18.874L39.86 98.972c.997.204 2.005.37 3.02.516l30.84-30.846c11.31-11.31 10.994-29.96-.705-41.66C67.035 21.002 59.242 18 51.54 18z"/></svg>