<svg xmlns="http://www.w3.org/2000/svg" width="1610" height="375" viewBox="0 0 1610 375"><path fill="#fff" d="M0 288l838-72.4 645 65.9h126.9l.1 93.5L0 376z"/><g opacity=".38"><path fill="#fff" d="M1330.7 34.7c-.8 1.3-1.1 2.5-.9 3.8-2.1 1.1-3.8 2.3-4.9 3.8-4.6 6 3.2 12.7 17.4 15 7.2 1.1 14.8.9 21-.4 1.5.4 3 .8 4.6 1.1 3.3 4.8 15 9.6 31 12.1 8.3 1.3 16.6 1.8 23.9 1.6 1.9.5 4 1 6.3 1.3 14.9 2.3 30.8-.6 35.4-6.7 1.1-1.4 1.4-2.9 1.2-4.3 11.6-.4 20.6-2.6 23.4-6.3.2-.2.3-.5.5-.7 7.7-1 13.5-2.9 15.6-5.7 1.3-1.8 1.1-3.6-.4-5.5 2.8-1 5-2.4 6.2-3.9 4.6-6-7-13.3-25.9-16.3-6.1-1-12.3-1.3-17.9-1.2-3.3-2.7-8.8-4.9-15.9-6-9.2-1.4-18.8-.7-25.8 1.6-4.5-1.4-9.9-2.7-15.8-3.6-20.4-3.2-40.5-1.5-46.7 3.7-17.5-2.2-34.4.4-38.8 6.1-2.7 3.3 0 7.2 6.5 10.5z"/><path fill="#E7E6E6" d="M1331.5 34.5l-.7 1.4c-.1.1-.1.3-.1.4l-.1.4c0 .1 0 .3-.1.4v.4c0 .3.1.6.1.9v.5l-.4.2-1.4.8-1.3.9c-.8.7-1.6 1.4-2.1 2.3-.5.8-.8 1.8-.8 2.7 0 .9.4 1.8 1 2.6 1.2 1.6 3 2.9 4.9 3.8 1.9 1 4 1.7 6.2 2.3 1.1.3 2.1.5 3.2.7 1.1.2 2.2.4 3.2.5l3.4.3c.6 0 1.1.1 1.7.1h4.9l3.3-.3 1.6-.1c.5-.1 1.1-.2 1.6-.3l3.2-.6.4-.1.5.1 4.6 1 .7.2.5.7c.5.7 1.3 1.4 2.2 2 .4.3.9.6 1.4.9.5.3 1 .6 1.5.8 1 .5 2 1 3.1 1.4l3.3 1.2c4.4 1.5 9 2.6 13.7 3.4 1.2.2 2.3.4 3.5.6l.9.1.4.1.4.1 1.8.2 3.6.4c1.2.1 2.3.2 3.5.2 1.2.1 2.3.2 3.5.2l3.5.1h3.5l3.5-.1h.4l.6.1 2.8.6 2.8.5.4.1h-.1.3l.7.1 1.5.2 2.8.2 2.9.1h2.9c.9-.1 1.9-.1 2.8-.2.9-.1 1.9-.2 2.8-.3l1.4-.2 1.4-.3c.9-.1 1.8-.4 2.7-.6.9-.2 1.8-.5 2.6-.8.8-.3 1.7-.6 2.5-1l.6-.3.5-.3c.3-.2.8-.4 1-.6.3-.2.7-.4.9-.6l.8-.7.3-.3.1-.2.1-.1c.2-.3-.2.4-.2.3l.4-.6.2-.3c.1-.1 0 0 0-.1v-.1c.1-.1-.1-.2 0-.3l3-4.7.8-.1c1-.1 2.1-.1 3.1-.2l3-.3c1-.1 2-.3 3-.4l1.5-.3c.5-.1 1-.2 1.4-.3 1-.2 1.9-.5 2.8-.7.5-.1.9-.3 1.3-.4.4-.1.8-.3 1.2-.5.4-.2.8-.4 1.1-.5.3-.2.7-.4.9-.6.3-.2.4-.4.6-.5 0 0 0-.1.1-.1-.1.1.2-.3-.2.3l.4-.7 1.1-1.7 2.1-.3c1.8-.2 3.5-.6 5.2-1 .8-.2 1.7-.4 2.4-.7.8-.2 1.5-.5 2.2-.8.3-.2.7-.3 1-.5.3-.2.6-.3.8-.5.1-.1.2-.2.3-.2.1-.1.2-.1.2-.2l.2-.2.1-.1c.2-.3-.3.4-.2.3v-.1l.1-.2.2-.3c.1-.2 0-.1 0 0-.1.1-.1.4-.2.4v.5c0-.1-.2-.2-.3-.4l-3.6-5.2 5.7-2.2c1-.4 1.9-.8 2.6-1.3.4-.2.7-.5.9-.7l.3-.3.1-.1v-.1c.2-.2-.2.3-.2.2l.1-.1.3-.4s.1-.1 0-.1c0 0 0 .1-.1.1-.1.2-.1.1-.1.2s-.1.3 0 .4c0 .1 0 0-.1-.1-.1-.2-.3-.4-.5-.6-.5-.5-1.2-1-2.1-1.5-.8-.5-1.8-1-2.8-1.4-2-.9-4.1-1.6-6.3-2.3-2.2-.6-4.5-1.1-6.8-1.6-1.2-.2-2.3-.4-3.5-.6l-.4-.1h-.3.1-.1l-.9-.1-1.9-.2c-.6-.1-1.3-.2-1.8-.2l-1.7-.1c-1.1-.1-2.3-.2-3.5-.2-1.2 0-2.4-.1-3.5-.1l-3.5.1h-1.8l-2.1-1.4c-.5-.3-.9-.7-1.5-1-.5-.3-1.2-.6-1.8-.9-.7-.2-1.3-.6-2.1-.8-.7-.2-1.4-.5-2.2-.7-.7-.2-1.5-.4-2.3-.6-.8-.2-1.6-.3-2.3-.4l-.6-.1h-.2.2-.3l-1.3-.2c-.9-.1-1.8-.2-2.5-.3l-2.3-.2h-2.4c-.8 0-1.6 0-2.4.1-.8 0-1.6.1-2.4.2-.8.1-1.6.1-2.4.3-.8.1-1.6.2-2.4.4l-2.3.5-2.2.6-2 .5-1.8-.5-3.6-1c-1.2-.3-2.4-.7-3.6-1l-7.4-1.6h-.2.1-.2l-.5-.1-1-.2-2-.3-3.7-.5-3.8-.4c-1.3-.1-2.5-.2-3.8-.3-1.3-.1-2.5-.2-3.8-.2-1.3 0-2.5-.1-3.8-.1h-3.8c-1.3 0-2.5.1-3.8.2-1.2.1-2.5.2-3.7.4l-1.8.3-1.8.3c-1.1.3-2.2.5-3.2.9-.6.2-.9.4-1.4.6l-.6.3c-.2.1-.3.2-.5.3l-2.1 1.1-1.1-.2-3.3-.5-3.3-.4-3.3-.3c-1.1 0-2.2-.2-3.3-.2-1.1 0-2.2-.1-3.3-.1h-1.6l-1.6.1c-1.1 0-2.2.1-3.3.2-1.1.1-2.2.2-3.2.4-1.1.2-2.1.3-3.2.6-.5.1-1 .2-1.5.4-.5.1-1 .3-1.5.5-1 .3-1.9.7-2.7 1.2-.4.3-.8.5-1.1.8l-.5.4.1-.1-.1.1-.1.2-.3.3c-.1.1-.1.2-.2.4 0 .2-.2.3-.2.5l-.1.3v.9c.1.8.6 1.6 1.2 2.4.6.8 1.4 1.5 2.3 2.2.8.7 1.8 1.3 2.7 1.9l.1.3zm-1.7.5c-.9-.4-1.8-.8-2.6-1.2-1-.6-2.1-1.2-3-2.1-.9-.9-1.8-1.9-2.3-3.3-.2-.7-.4-1.5-.3-2.3 0-.4.1-.8.2-1.2.1-.4.3-.8.5-1.2l.2-.4.1-.2.1-.1.1-.1v-.1l.7-.8c.4-.6 1-1 1.5-1.4 1-.8 2.1-1.5 3.3-2.1.6-.3 1.1-.5 1.7-.8.6-.3 1.1-.5 1.7-.7 1.1-.4 2.3-.8 3.5-1.1 1.2-.3 2.3-.6 3.5-.8 1.2-.2 2.4-.5 3.5-.6l1.8-.3 1.8-.2c1.2-.2 2.4-.2 3.6-.3 1.2-.1 2.4-.1 3.6-.2h3.6l3.6.1 3.6.2-3.2 1 1.1-.9c.4-.3.8-.6 1.1-.8.7-.4 1.5-.9 2.2-1.2 1.5-.7 2.9-1.2 4.3-1.7l2.1-.6c.7-.2 1.4-.3 2.1-.5 1.4-.3 2.8-.5 4.2-.8 1.4-.2 2.8-.4 4.2-.5 1.4-.1 2.8-.3 4.2-.3 1.4-.1 2.8-.1 4.2-.2 1.4-.1 2.8 0 4.2 0 1.4 0 2.8.1 4.2.1l4.2.2 4.2.4 2 .2 1 .1.5.1h.2l.3.1 8.3 1.4c1.4.3 2.7.7 4.1 1l4.1 1.1h-3.8l3-.9c1-.2 2-.5 3-.7 1-.2 2-.3 3-.5s2-.2 3-.3c1-.1 2-.2 3-.2s2-.1 3-.1h3c1 .1 2.1.1 3.1.2 1.1.1 1.9.2 2.8.3l1.3.2h.9l.7.1c1 .2 2 .4 2.9.6 1 .2 2 .5 3 .8 1 .3 2 .6 3 1 1 .3 2 .8 2.9 1.2 1 .5 2 1 3 1.6 1 .6 2 1.3 2.9 2.1l-3.9-1.4 4 .1c1.3 0 2.6.2 4 .2 1.3.1 2.7.2 4 .4l2 .2c.7.1 1.2.2 1.9.3l1.9.3.9.1.4.1h.2l.5.1c1.3.2 2.6.5 3.9.8 2.6.6 5.2 1.3 7.7 2.1 2.6.8 5.1 1.8 7.7 3.1 1.3.6 2.5 1.4 3.8 2.2 1.3.9 2.5 1.8 3.8 3.1.6.6 1.2 1.4 1.8 2.3.5.9 1.1 2 1.3 3.3.3 1.3.3 2.8-.1 4.1-.2.7-.4 1.2-.8 2l-.3.5-.1.2-.1.1-.3.4-.1.1-.2.3-.1.1-.3.3c-.2.2-.4.4-.5.6-.4.3-.7.7-1.1 1-.7.6-1.5 1.1-2.2 1.5-1.4.8-2.8 1.4-4.2 1.9l2.1-7.5c.5.6.9 1.2 1.3 2.1.2.4.4.8.5 1.3.2.4.3 1 .4 1.5.2 1 .1 2.2-.2 3.3-.1.5-.4 1.2-.7 1.7-.1.3-.3.6-.4.7l-.2.3-.1.1v.1l-.2.3-.1.1-.4.5-.9.9c-.3.3-.6.5-.9.7l-.9.6c-.6.4-1.1.7-1.7 1-.6.3-1.1.5-1.6.7-.5.2-1.1.4-1.6.6-.5.2-1.1.4-1.6.5-1 .3-2.1.5-3.1.8-2.1.4-4.1.7-6.1 1l3.2-2-.4.7-.3.4-.1.1-.1.1-.2.3-.5.5c-.6.6-1.3 1.1-1.9 1.5-.6.5-1.2.8-1.9 1.1-.6.3-1.2.6-1.8.8-.6.2-1.2.5-1.8.6-.6.2-1.2.4-1.7.5-1.2.3-2.3.6-3.4.8-.6.1-1.1.2-1.7.3-.6.1-1.1.2-1.7.3-1.1.2-2.3.3-3.4.4-1.1.1-2.2.2-3.4.2-1.1.1-2.2.1-3.3.1l3.8-4.8c.1.9.2 1.8 0 2.7-.1.5-.1.9-.3 1.4-.2.5-.4 1-.6 1.4-.1.2-.2.5-.3.6l-.2.3-.4.6-.3.4-.1.1-.2.2-.4.4-.7.8c-.5.4-1 .8-1.5 1.3-.5.4-1.1.7-1.6 1-.5.4-1.1.6-1.6.8l-.8.4-.8.6c-1.1.5-2.1.8-3.2 1.1-1.1.3-2.1.6-3.2.8-1.1.2-2.1.4-3.2.6l-1.6.2-1.6.2c-1.1.1-2.1.2-3.2.2-1.1.1-2.1.1-3.2.1s-2.1 0-3.2-.1l-3.2-.2-3.2-.4-1.5-.2-.7-.1-.4-.1-.4-.1-3.1-.6-3.1-.8 1 .1h-3.7c-1.2 0-2.5 0-3.7-.1l-3.7-.2c-1.2-.1-2.5-.2-3.7-.4-1.2-.1-2.5-.3-3.7-.4l-3.6-.6-1.8-.3-.4-.1-.5-.1-.9-.2c-1.2-.2-2.4-.5-3.6-.7-4.8-1-9.6-2.4-14.3-4.2-1.2-.4-2.3-.9-3.5-1.5-1.1-.5-2.3-1.1-3.4-1.8-.6-.3-1.1-.7-1.7-1-.5-.4-1.1-.8-1.6-1.2-1-.8-2.1-1.8-2.9-3.1l1.2.8-4.7-1.2h.9l-3.5.5c-.6.1-1.2.2-1.8.2l-1.8.1-3.5.2-3.6-.1-1.8-.1c-.6 0-1.1-.1-1.7-.2l-3.4-.4c-1.3-.2-2.3-.4-3.5-.7-1.1-.3-2.3-.6-3.4-.9-2.2-.7-4.4-1.6-6.5-2.7-2.1-1.2-4.1-2.6-5.5-4.8-.7-1.1-1.2-2.4-1.2-3.7 0-1.4.5-2.7 1.2-3.7l.3-.3.1-.1v-.1l.2-.2.6-.7c.4-.4.9-.8 1.4-1.2.5-.3 1-.7 1.5-1l1.6-.8-.4.7v-1.1l.1-.6c0-.2 0-.4.1-.6l.2-.5c.1-.2.1-.4.2-.5l.2-.1z"/></g><g opacity=".38"><path fill="#fff" d="M381.5 111.8c1.1-1.2 1.4-2.5 1.2-3.8 2.9-1 5.2-2.2 6.6-3.6 6.2-5.9-4.2-12.8-23.2-15.5-9.7-1.3-19.7-1.3-28.1-.2-2-.4-4-.9-6.2-1.2-4.3-4.9-20-10-41.4-13-11.1-1.5-22.2-2.3-32-2.2-2.6-.6-5.4-1.1-8.4-1.5-19.9-2.8-41.1-.2-47.3 5.7-1.5 1.4-1.9 2.8-1.6 4.3-15.5.1-27.6 2.1-31.4 5.7-.2.2-.4.5-.6.7-10.3.7-18 2.5-20.9 5.3-1.8 1.7-1.5 3.6.5 5.5-3.8 1-6.7 2.2-8.3 3.7-6.2 5.9 9.3 13.5 34.5 17 8.2 1.1 16.4 1.7 24 1.7 4.3 2.8 11.7 5.1 21.2 6.4 12.3 1.7 25.2 1.2 34.5-.8 6.1 1.6 13.2 3 21.1 4 27.3 3.8 54.1 2.7 62.4-2.4 23.4 2.6 46 .5 51.9-5 3.8-3.4.1-7.4-8.5-10.8z"/><path fill="#E7E6E6" d="M380.6 112l.8-1c.1-.1.2-.2.2-.4.1-.2.3-.5.4-.8.1-.3.1-.6.2-.8 0-.3 0-.6-.1-.8l-.1-.5.5-.2 1.9-.8c.6-.3 1.2-.6 1.9-1 1.2-.7 2.3-1.5 3.1-2.5.8-1 1.1-2.1.7-3.2-.4-1.1-1.3-2.1-2.3-2.9-2.1-1.6-4.7-2.7-7.4-3.6-2.7-.9-5.4-1.6-8.2-2.1-1.4-.3-2.8-.5-4.2-.7l-2.1-.3-2.1-.2-4.3-.4c-1.4-.1-2.8-.1-4.2-.1-1.4 0-2.8-.1-4.2 0l-4.2.2-2.1.1-2.1.2-4.2.5h-.3l-.3-.1-6.1-1.1-.6-.1-.5-.5c-.8-.9-2.1-1.7-3.3-2.4-1.3-.7-2.7-1.3-4.1-1.9-1.4-.6-2.9-1.1-4.3-1.6-1.5-.5-3-.9-4.4-1.3-3-.8-6-1.5-9.1-2.1-1.5-.3-3.1-.6-4.6-.8-1.5-.3-3.1-.5-4.6-.7-1.5-.2-3.1-.4-4.6-.6l-1.1-.1-1.2-.1-2.4-.2-4.7-.5-4.7-.3c-1.6-.1-3.1-.3-4.7-.3l-4.7-.2c-1.6-.1-3.1-.1-4.7-.1h-5l-.4-.1-3.7-.7-3.7-.6c-.3 0-.7-.1-.9-.1l-1-.1-1.9-.2c-1.3-.1-2.5-.2-3.7-.3-1.2-.1-2.5-.1-3.7-.2-1.3 0-2.5 0-3.8-.1l-3.8.1-3.7.2c-1.2.1-2.5.2-3.7.3-1.2.1-2.5.3-3.7.5l-1.8.3-1.8.4c-1.2.2-2.4.6-3.5.8-1.1.3-2.3.7-3.3 1.1l-.8.3-.7.3c-.5.2-1 .4-1.4.7-.4.3-.9.5-1.1.8-.2.1-.3.3-.5.4l-.4.4s0 .1-.1.1v.1-.1l-1.1 4.8-2.7.1-8.1.3c-1.3.1-2.7.2-4 .3-1.3.1-2.7.3-4 .5-.7.1-1.3.2-2 .3-.6.1-1.3.2-1.9.4-1.3.3-2.5.5-3.7.9-.6.2-1.2.4-1.7.6-.5.2-1.1.4-1.5.6l-.7.3c-.2.1-.3.2-.5.3l-.3.3.3-.3-.1.1-.2.2-.3.4-1.1 1.3-1.9.2c-2.3.2-4.5.4-6.7.8-2.2.3-4.4.8-6.4 1.3-.5.1-1 .3-1.5.4-.5.2-.9.3-1.3.5l-1.2.6c-.3.2-.6.4-.8.5l-.1.1.3-.3-.1.2-.3.3-.1.1c.1 0 .1-.1.1-.1.1-.1.2-.2.2-.3 0-.1.1-.2.1-.3 0-.2.1-.4.1-.6 0-.2 0-.3-.1-.5v-.1c.1 0 0 .1.1.1l.3.3 5.2 6-7.3 2c-1.4.4-2.7.8-3.8 1.3-1.1.5-2.1 1.1-2.3 1.4l-.2.2.1-.1c.1-.1.1-.2.2-.2.1-.1 0-.1.1-.2s.1-.2.1-.3v-.9l.6.6c.4.3.8.6 1.3.9 1 .6 2.3 1.2 3.6 1.8 1.3.6 2.7 1 4.1 1.5 2.8.9 5.7 1.7 8.7 2.3 3 .7 6 1.2 9.1 1.6l2.3.3 2.1.3 4.8.4 4.8.4 2.4.2c.8 0 1.5 0 2.3.1l9.1.2h1.5l1.6.9 1.2.6c.4.2.9.4 1.3.6.4.2.9.4 1.4.6.5.2.9.4 1.4.5 1 .3 2 .7 3 .9l1.6.4 1.6.4c1.1.3 2.1.4 3.2.6 1.1.2 2.2.3 3.3.5l.8.1.7.1 1.8.2 1.8.2c.6.1 1.1.1 1.6.1 1.1.1 2.2.2 3.3.2l3.4.1h3.4c1.1 0 2.2 0 3.4-.1 1.1-.1 2.2-.1 3.3-.2l3.3-.3 3.3-.4 3.2-.6 1.5-.3 1.4.3 5 1.2c1.7.4 3.3.8 5 1.1 3.4.6 6.7 1.2 10.1 1.9l5.2.8 5.1.6 5.1.5c1.7.1 3.4.3 5.1.4l5.1.3c1.7.1 3.4.2 5.1.2 1.7.1 3.4.1 5.1.1 1.7 0 3.4 0 5.1-.1 1.7-.1 3.4-.1 5.1-.3l2.5-.2 2.5-.3c1.6-.2 3.2-.5 4.7-.9 1.5-.3 2.9-.8 3.9-1.3l1.6-.7 1 .1 4.2.6 4.2.5 4.2.4 4.3.3c1.4.1 2.8.2 4.3.2 1.4 0 2.8.1 4.3.1 1.4 0 2.8 0 4.3-.1l2.1-.1 2.1-.1c1.4-.1 2.8-.2 4.2-.4 1.4-.2 2.8-.4 4.1-.6.7-.1 1.4-.3 2-.4.6-.2 1.3-.3 1.9-.6.6-.2 1.3-.4 1.8-.7l.9-.4c.3-.1.5-.3.7-.5l.4-.2.1-.1-.1.1.2-.2.4-.4c0-.1.1-.1.1-.2.2-.3.4-.7.4-1 0-.8-.8-1.9-1.7-2.8-1-.9-2.1-1.7-3.3-2.5-1.2-.8-2.5-1.4-3.8-2.1h-1.1zm1.9-.5c1.1.4 2.3.8 3.4 1.3 1.4.6 2.7 1.3 4 2.2.6.5 1.3 1 1.8 1.7.6.6 1.1 1.5 1.3 2.6 0 .3.1.5.1.8 0 .3 0 .5-.1.8 0 .3-.1.5-.2.8-.1.3-.2.5-.3.7-.1.2-.3.5-.4.7l-.3.4-.2.2v.1l-.1.1-.1.1-.5.4c-.3.3-.7.6-1 .8l-1 .7c-.7.5-1.4.7-2.1 1.1-.7.4-1.4.6-2.2.9-.7.3-1.5.5-2.2.7-1.5.5-2.9.8-4.4 1.2-1.5.3-2.9.6-4.4.9l-2.2.4-2.2.3c-1.5.2-3 .3-4.4.5-1.5.2-3 .2-4.4.3-1.5.1-3 .1-4.4.2l-4.5.1-4.5-.1-4.5-.2-4.4-.3 2.6-.6c-2 1.2-4 2-5.8 2.6-1.9.6-3.7 1.1-5.6 1.5l-2.8.5-2.7.4c-1.8.3-3.6.4-5.5.6-1.8.1-3.6.3-5.4.4-1.8.1-3.6.2-5.4.2-1.8.1-3.6.1-5.4.1-1.8 0-3.6 0-5.4-.1-1.8-.1-3.6-.2-5.4-.2l-5.4-.4-5.4-.5-5.3-.6c-3.6-.5-7.2-1-10.8-1.6-1.8-.3-3.6-.7-5.4-1.1l-5.4-1.1h2.9l-3.8.8-3.8.6c-1.3.2-2.5.3-3.8.4-1.3.1-2.5.2-3.8.2-1.3.1-2.5.1-3.8.1h-3.8l-3.8-.1c-1.3-.1-2.6-.2-3.8-.3-.6-.1-1.3-.1-1.9-.2l-1.8-.2-1.8-.2-1-.1-.9-.2c-1.2-.2-2.5-.4-3.7-.6-1.2-.3-2.5-.5-3.7-.8l-1.9-.5-1.9-.5c-1.2-.3-2.5-.8-3.7-1.2-.6-.2-1.3-.5-1.9-.7-.6-.3-1.3-.5-1.9-.8-.6-.3-1.3-.6-1.9-1l-1.9-1.1 3.2.9-10-.6c-.8-.1-1.7-.1-2.5-.2l-2.4-.3-4.7-.6-4.7-.6h-.8l-.6-.1-1.2-.2-2.4-.4c-3.2-.6-6.5-1.3-9.7-2.1-3.2-.8-6.4-1.7-9.7-2.9-1.6-.6-3.2-1.2-4.8-2-1.6-.7-3.2-1.6-4.9-2.7-1.6-1.1-3.4-2.3-5-4.9-.2-.4-.4-.7-.6-1.1-.2-.4-.3-.9-.4-1.3-.2-.9-.3-2-.2-3l.3-1.5c.2-.5.4-.9.6-1.3.2-.4.5-.9.8-1.2l.2-.3.1-.1.1-.1.2-.2.2-.2.1-.1.3-.3.2-.2.7-.6c.5-.3 1-.7 1.5-1 .9-.6 1.9-1 2.8-1.4 1.8-.7 3.5-1.2 5.2-1.7l-2.1 8c-.3-.3-.6-.7-.9-1-.3-.4-.6-.8-.9-1.3-.3-.5-.6-1.1-.8-1.7-.2-.7-.4-1.4-.4-2.2 0-.8 0-1.6.3-2.4.1-.4.2-.7.4-1.1.2-.4.4-.7.6-1.1.1-.2.2-.3.4-.5l.2-.2.3-.3.1-.2.3-.3.1-.1.1-.1.6-.5c.4-.3.7-.5 1.1-.8.4-.2.7-.4 1.1-.6.7-.4 1.4-.7 2.1-.9.7-.3 1.3-.5 2-.7.6-.2 1.3-.4 1.9-.5 2.5-.6 5-1.1 7.5-1.4 2.5-.3 4.9-.5 7.3-.7l-3 1.5.3-.4.2-.2.1-.1.3-.3.1-.1c.4-.3.9-.7 1.3-1l1.3-.8 1.2-.6c.8-.4 1.6-.7 2.3-.9.8-.2 1.5-.5 2.3-.7 1.5-.4 3-.7 4.4-1 .7-.1 1.5-.2 2.2-.3.7-.1 1.4-.2 2.2-.3 1.4-.2 2.9-.3 4.3-.4 1.4-.1 2.9-.2 4.3-.3 2.8-.1 5.7-.2 8.5-.1l-3.8 4.9c-.3-1.2-.3-2.7.1-3.9.2-.6.4-1.2.7-1.7l.5-.7c.2-.2.4-.5.6-.7.5-.6.4-.4.9-1l1-.8c.7-.6 1.4-1 2.1-1.4.7-.4 1.4-.7 2.1-1l1-.5 1-.4c1.4-.5 2.7-.9 4.1-1.2 1.3-.3 2.7-.6 4-.8l2-.3 2-.3c1.3-.2 2.7-.3 4-.4 1.3-.1 2.7-.2 4-.2l4-.1h4c1.3.1 2.7.1 4 .2 1.3.1 2.6.2 4 .3 1.3.1 2.7.3 4 .4l1.9.3 1 .1c.4.1.7.1 1 .2l3.9.7 3.9.9-.7-.1 4.8.1c1.6 0 3.2.1 4.8.2l4.8.3c1.6.1 3.2.3 4.8.4l4.8.5 4.7.6 2.4.3 1.2.2.7.2c1.6.3 3.2.5 4.7.8 1.6.3 3.1.6 4.7.9 1.6.3 3.1.7 4.7 1 3.1.7 6.2 1.6 9.3 2.5 1.5.5 3.1 1 4.6 1.5 1.5.6 3 1.1 4.6 1.8 1.5.6 3 1.4 4.5 2.2 1.5.9 2.9 1.8 4.2 3.3l-1.1-.6 6.2 1.4h-.7l4.4-.4 2.2-.2h2.2l4.4-.1c1.5 0 2.9.1 4.4.2 1.5.1 3 .1 4.4.3l4.3.5 2.1.3 2.2.4c1.4.3 2.9.5 4.3.9 2.8.6 5.7 1.4 8.4 2.5s5.5 2.3 7.9 4.3c1.2 1 2.3 2.2 2.8 3.9.3.8.3 1.8 0 2.6-.2.9-.7 1.6-1.2 2.2-1 1.2-2.4 2-3.6 2.8-.7.3-1.3.6-2 .9l-2.1.8.4-.8c.1.4.1.8.1 1.2 0 .4-.1.8-.3 1.2-.1.4-.3.7-.5 1 .1 0 0 .1 0 .2z"/></g><path fill="#376F3A" d="M1348 190.3c-155 0-396.3 29.4-396.3 29.4l395.4 122.7 262.9-10.6-10.1-81.8c-38.8-8.7-174.3-59.7-251.9-59.7z"/><path d="M1096.6 214.1s-.8-7.1 7.1-8.9c7.8-1.8-12.9-1.9-10.6 8.1m3.3-1.1s2.6-7.7-9.6-11c5.8 3.6 10.3 11 5.5 12.2m3.9-.2s.2-5.4 7-1.8c-3.7-.6-7.4 1.4-5.2 4.3m-3.8-2.2s-6-.1-2.7-6.4c-.3 3.3 2.4 6.7 5.2 4.7" fill="#6FBF66"/><path d="M1412.2 352.4s4.2-13.2-8.4-20.1 22.6 2.2 14.7 20.1m-5.1-3.5s-1.3-15.8 20.7-16.5c-11.3 4.1-22 16.2-14.3 20.7m-6.5-2.3s1.8-10.3-11.2-6.5c6.5.4 12 6.1 7.2 10.4m7.2-2.5s10.2 2.4 7.2-10.8c-.8 6.5-6.7 11.7-10.8 6.5" fill="#178843"/><path fill="#C4AD87" d="M1586.3 269c-29.1 3.7-183-27-475.3-52-292-25-535 4.1-535 4.1s-214.9 25.7-362 45.2C126.5 278 39.5 263.9 0 255.7v18.9c23 112.4 133.8 50.3 389 14.5 355.6-49.9 705.9-49.1 673 7.4-56 96.2 464.3 54.5 548 50v-79.2c-6.4.1-14.3.5-23.7 1.7z"/><path d="M1073 288.2c32.9-52.1-317.4-52.8-673-6.8-286.7 37.1-373.8 1.1-400-21V376l1610-1v-24.5c-110.3 5.2-590.9 23.1-537-62.3z" fill="none"/><path fill="#6FBF66" d="M1609.9 249c-30.7 1-195.6-11-487.9-34-292-23-535 3.8-535 3.8s-160.5 12.1-307 34.1C139.2 274 118 248 0 248.4v102c192-7.7 120-20.4 400-69 353.3-61.3 705.9-45.2 673 6.8-53.9 85.4 415 71.1 537 62.2l-.1-97.9m-902.3-40.2s4.2-13.2-8.4-20.1 22.6 2.2 14.7 20.1m-5.1-3.5s-1.3-15.8 20.7-16.5c-11.3 4.1-22 16.2-14.3 20.7m-6.5-2.2s1.8-10.3-11.2-6.5c6.5.4 12 6.1 7.2 10.4m7.2-2.5s10.2 2.4 7.2-10.8c-.8 6.5-6.7 11.7-10.8 6.5"/></svg>