<svg xmlns="http://www.w3.org/2000/svg" width="100" height="100" viewBox="0 0 100 100"><path fill="#324D5B" d="M50 0c27.6 0 50 22.4 50 50s-22.4 50-50 50S0 77.6 0 50 22.4 0 50 0z"/><path fill="#475F6C" d="M95.2 71.5c-12-5.3-27.6-8.5-44.7-8.5C33 63 17.1 66.3 5 71.8 13.1 88.5 30.2 100 50 100c19.9 0 37.1-11.7 45.2-28.5z"/><path fill="#ccc" d="M70.9 66.8l-17.4-10L63 51l-13-8-13 8 9.8 6-17 9.7c-1 .6-1 1.9 0 2.5L50.4 81l20.5-11.8c1-.5 1-1.9 0-2.4zM41.1 51l8.9-5.3 8.9 5.3-8.9 5.3-8.9-5.3zm9.3 26.8L33.1 68l16.5-9.3.4.3.8-.5L67.7 68l-17.3 9.8z"/><path fill="#F2F1EF" d="M75.7 76l-23-49c-.2-.4-.5-.7-.9-.8-.3-.7-1-1.2-1.8-1.2-.7 0-1.3.3-1.6.9-.4.1-.8.4-1.1.9l-23 48.5c-.6 1-.2 2.2.7 2.7s2.2.2 2.7-.7L48 34.5V83c0 1.1.9 2 2 2s2-.9 2-2V34.8L72.3 78c.6 1 1.8 1.3 2.7.7s1.3-1.8.7-2.7z"/><path fill="#EFC75E" d="M50 18c2.8 0 5 2.2 5 5s-2.2 5-5 5-5-2.2-5-5 2.2-5 5-5z"/><path class="ring3" fill="#315F73" d="M24 23c0-8.2 3.8-15.5 9.7-20.3-1.7.6-3.3 1.2-4.9 2C24.6 9.6 22 16 22 23c0 9.6 4.9 18.1 12.3 23.2l.9-1.8C28.4 39.6 24 31.8 24 23z"/><path fill="#315F73" d="M50 12c-6.1 0-11 4.9-11 11 0 2.8 1 5.3 2.7 7.3l.9-2C41.6 26.8 41 25 41 23c0-5 4-9 9-9s9 4 9 9c0 2-.6 3.8-1.7 5.2l.9 2C60 28.3 61 25.8 61 23c0-6.1-4.9-11-11-11z"/><path class="ring4" fill="#315F73" d="M15 23.5c0-3.8.6-7.4 1.7-10.8-1 .9-1.9 1.8-2.8 2.7-.6 2.6-.9 5.3-.9 8 0 13.2 6.8 24.8 17.1 31.5l.9-1.8c-9.6-6.3-16-17.2-16-29.6z"/><path class="ring3" fill="#315F73" d="M78 23c0-7-2.6-13.4-6.8-18.3-1.6-.7-3.2-1.4-4.9-2C72.2 7.5 76 14.8 76 23c0 8.8-4.4 16.6-11.1 21.3l.9 1.8C73.1 41.1 78 32.6 78 23z"/><path class="ring4" fill="#315F73" d="M87.4 16.8c-.9-1-1.8-1.9-2.7-2.8.8 3 1.3 6.2 1.3 9.5 0 12.7-6.7 23.9-16.8 30.1l.9 1.8C80.8 48.9 88 37 88 23.5c0-2.3-.2-4.5-.6-6.7z"/><path class="ring2" fill="#315F73" d="M50 4c-10.5 0-19 8.5-19 19 0 6 2.8 11.4 7.2 14.9L39 36c-3.7-3.1-6-7.8-6-13 0-9.4 7.6-17 17-17s17 7.6 17 17c0 5.2-2.4 9.9-6 13l.9 1.9C66.2 34.4 69 29 69 23c0-10.5-8.5-19-19-19z"/><path fill="#D7B354" d="M51 26c-2.8 0-5-2.2-5-5 0-.4.1-.8.1-1.1-.7.8-1.1 1.9-1.1 3.1 0 2.8 2.2 5 5 5 2.4 0 4.3-1.6 4.9-3.9-1 1.2-2.3 1.9-3.9 1.9z"/></svg>