<svg xmlns="http://www.w3.org/2000/svg" width="100" height="100" viewBox="0 0 100 100"><path fill="#3DB39E" d="M50 1c27.6 0 50 22.4 50 50s-22.4 50-50 50S0 78.6 0 51 22.4 1 50 1z"/><path fill="#324D5B" d="M71 52c-5 0-9 4-9 9s4 9 9 9 9-4 9-9-4-9-9-9zm-46 0c-5 0-9 4-9 9s4 9 9 9 9-4 9-9-4-9-9-9z"/><path fill="#B5BCC0" d="M71 56c-2.8 0-5 2.2-5 5s2.2 5 5 5 5-2.2 5-5-2.2-5-5-5zm-46 0c-2.8 0-5 2.2-5 5s2.2 5 5 5 5-2.2 5-5-2.2-5-5-5z"/><path fill="#E2574C" d="M87 61.6c0-8.9-7-17.2-15.7-17.6H55.7s-1.2-.5-1.7 2.3v3.5c.1.6.6 1 1.3 1.3 1.7.6 2.7 1.7 2.7 3.5 0 1.1-.4 2.2-1.1 3-.8.8-1.8 1.3-3 1.3l-.1.1h-5.5C42.6 59 38 54.7 38 49.4l3.5-14.8c.1-.4 0-.8-.3-1.1-.2-.3-.6-.5-1-.5H33s-1.1-.5-3.2 5.7L28 44.1c-1.5 0-6.2.3-10.4 4.5-.5.5-.8 1-.4 1.7L24.5 63l9.4.1h51.9c.7 0 1.3-.6 1.3-1.3l-.1-.2z"/><path fill="#EE7269" d="M66.5 53h9c.8 0 1.5-.7 1.5-1.5s-.7-1.5-1.5-1.5h-9c-.8 0-1.5.7-1.5 1.5s.7 1.5 1.5 1.5zm9 1h-9c-.8 0-1.5.7-1.5 1.5s.7 1.5 1.5 1.5h9c.8 0 1.5-.7 1.5-1.5s-.7-1.5-1.5-1.5z"/><path fill="#324D5B" d="M38 33v-2.8c0-1.3.8-2.2 2.2-2.2h4.5c.7 0 1.3-.8 1.3-1.5s-.6-1.5-1.3-1.5H40c-2.8 0-5 2.3-5 5.1V33h3zm-11-1c2.8 0 5 2 5 4.5S29.8 41 27 41v-9z"/><path fill="#EFC75E" d="M31 47c1.7 0 3 1.3 3 3s-1.3 3-3 3-3-1.3-3-3 1.3-3 3-3z"/><path fill="#324D5B" d="M95.8 70H4.2c7.7 17.7 25.3 30 45.8 30s38.1-12.3 45.8-30z"/><path fill="#CB4E44" d="M55.3 51c1.7.6 2.7 1.7 2.7 3.5 0 .7-.1 1.4-.4 2 .5-.2.9-.5 1.3-.9.8-.8 1.2-1.9 1.1-3-.1-1.8-1.1-3-2.7-3.5-.8-.3-1.2-.7-1.3-1.3v-3.5l.1-.3h-.3s-1.2-.5-1.7 2.3v3.5c0 .5.4 1 1.2 1.2zM87 61.5V61H35.8l-9.4-.1-7.3-12.7c-.2-.4-.2-.7-.1-1-.5.4-1 .8-1.5 1.3s-.8 1-.4 1.7l7.3 12.7 9.4.1h51.9c.7 0 1.3-.6 1.3-1.3v-.2z"/><path fill="#324D5B" d="M54.5 36h14c2.5 0 4.5 2 4.5 4.5S71 45 68.5 45h-14C52 45 50 43 50 40.5s2-4.5 4.5-4.5z"/><path fill="#D1645C" d="M75.5 56h-9c-.7 0-1.2-.4-1.4-1-.1.2-.1.3-.1.5 0 .8.7 1.5 1.5 1.5h9c.8 0 1.5-.7 1.5-1.5 0-.2 0-.3-.1-.5-.2.6-.7 1-1.4 1zm0-4h-9c-.7 0-1.2-.4-1.4-1-.1.2-.1.3-.1.5 0 .8.7 1.5 1.5 1.5h9c.8 0 1.5-.7 1.5-1.5 0-.2 0-.3-.1-.5-.2.6-.7 1-1.4 1z"/><path fill="#2D4552" d="M29 32.4c-.6-.2-1.3-.4-2-.4v9c.7 0 1.4-.1 2-.4v-8.2z"/><path fill="#CB4E44" d="M31 47c1.7 0 3 1.3 3 3s-1.3 3-3 3-3-1.3-3-3 1.3-3 3-3m0-1c-2.2 0-4 1.8-4 4s1.8 4 4 4 4-1.8 4-4-1.8-4-4-4z"/><path fill="#2B424D" d="M68.5 42h-14c-2 0-3.6-1.3-4.2-3-.2.5-.3 1-.3 1.5 0 2.5 2 4.5 4.5 4.5h14c2.5 0 4.5-2 4.5-4.5 0-.5-.1-1-.3-1.5-.6 1.7-2.2 3-4.2 3z"/></svg>