<svg xmlns="http://www.w3.org/2000/svg" width="100" height="100" viewBox="0 0 100 100"><path fill="#EDEDED" d="M50 0c27.614 0 50 22.386 50 50s-22.386 50-50 50S0 77.614 0 50 22.386 0 50 0z"/><path fill="#324D5B" d="M71 52c-4.97 0-9 4.03-9 9s4.03 9 9 9 9-4.03 9-9-4.03-9-9-9zm-46 0c-4.97 0-9 4.03-9 9s4.03 9 9 9 9-4.03 9-9-4.03-9-9-9z"/><path fill="#B5BCC0" d="M71 56c-2.762 0-5 2.238-5 5s2.238 5 5 5 5-2.238 5-5-2.238-5-5-5zm-46 0c-2.762 0-5 2.238-5 5s2.238 5 5 5 5-2.238 5-5-2.238-5-5-5z"/><path fill="#E2574C" d="M86.97 61.564l.037-.088c0-8.844-7.017-17.154-15.748-17.496H55.733s-1.156-.515-1.74 2.276v2.96c-.036.176-.038.357-.007.524.112.6.554 1.036 1.31 1.295 1.66.556 2.684 1.74 2.735 3.508.036 1.13-.372 2.214-1.145 3.038-.775.827-1.82 1.3-2.95 1.335l-.127.057h-5.53l-.05-.02c-5.61 0-10.18-4.212-10.212-9.547l3.464-14.796c.09-.395-.002-.81-.253-1.126-.25-.315-.634-.5-1.037-.5h-7.2s-1.15-.51-3.25 5.73l-1.704 5.353c-1.54 0-6.24.276-10.434 4.467-.5.5-.774 1.047-.415 1.658l7.263 12.743 9.38.07H85.69c.73 0 1.322-.596 1.322-1.327l-.044-.11z"/><path fill="#EE7269" d="M66.5 53h9c.828 0 1.5-.672 1.5-1.5s-.672-1.5-1.5-1.5h-9c-.828 0-1.5.672-1.5 1.5s.672 1.5 1.5 1.5zm9 1h-9c-.828 0-1.5.672-1.5 1.5s.672 1.5 1.5 1.5h9c.828 0 1.5-.672 1.5-1.5s-.672-1.5-1.5-1.5z"/><path fill="#324D5B" d="M37.984 32.982v-2.826c0-1.34.838-2.18 2.173-2.18H44.7c.73 0 1.323-.782 1.323-1.516s-.592-1.452-1.323-1.452h-4.662l-.026.01c-2.77.03-5.017 2.29-5.017 5.075v2.89h2.99zM27 32c2.762 0 5 2.015 5 4.5S29.762 41 27 41v-9z"/><path fill="#EFC75E" d="M31 47c1.657 0 3 1.344 3 3 0 1.657-1.343 3-3 3s-3-1.343-3-3c0-1.656 1.343-3 3-3z"/><path fill="#D5D5D5" d="M95.828 70H4.172C11.89 87.656 29.5 100 50 100s38.11-12.344 45.828-30z"/><path d="M55.3 51.036c1.66.556 2.684 1.74 2.735 3.508.022.693-.14 1.36-.435 1.97.478-.225.917-.534 1.29-.932.772-.824 1.18-1.908 1.145-3.038-.052-1.768-1.076-2.952-2.734-3.508-.755-.26-1.196-.694-1.31-1.295-.03-.164-.03-.346.01-.52v-2.96l.065-.278h-.327s-1.156-.513-1.74 2.278v2.96c-.036.176-.038.357-.007.524.113.602.554 1.037 1.31 1.296zm31.707 10.44L86.984 61h-51.15l-9.38-.066-7.262-12.744c-.208-.354-.2-.686-.062-1-.51.396-1.02.84-1.523 1.342-.5.5-.774 1.047-.415 1.658l7.262 12.743 9.38.067H85.69c.73 0 1.322-.596 1.322-1.327l-.044-.108.037-.088z" fill="#CB4E44"/><path fill="#324D5B" d="M54.5 36h14c2.485 0 4.5 2.015 4.5 4.5S70.985 45 68.5 45h-14c-2.485 0-4.5-2.015-4.5-4.5s2.015-4.5 4.5-4.5z"/><path d="M75.5 56h-9c-.652 0-1.2-.42-1.408-1-.056.157-.092.324-.092.5 0 .828.672 1.5 1.5 1.5h9c.828 0 1.5-.672 1.5-1.5 0-.176-.036-.343-.092-.5-.207.58-.756 1-1.408 1zm0-4h-9c-.652 0-1.2-.42-1.408-1-.056.157-.092.324-.092.5 0 .828.672 1.5 1.5 1.5h9c.828 0 1.5-.672 1.5-1.5 0-.176-.036-.343-.092-.5-.207.58-.756 1-1.408 1z" fill="#D1645C"/><path fill="#2D4552" d="M29 32.38c-.613-.242-1.288-.38-2-.38v9c.712 0 1.387-.138 2-.38v-8.24z"/><path fill="#CB4E44" d="M31 47c1.657 0 3 1.344 3 3 0 1.657-1.343 3-3 3s-3-1.343-3-3c0-1.656 1.343-3 3-3m0-1c-2.206 0-4 1.794-4 4s1.794 4 4 4 4-1.794 4-4-1.794-4-4-4z"/><path fill="#2B424D" d="M68.5 42h-14c-1.957 0-3.604-1.256-4.225-3-.167.47-.275.97-.275 1.5 0 2.485 2.015 4.5 4.5 4.5h14c2.485 0 4.5-2.015 4.5-4.5 0-.53-.108-1.03-.275-1.5-.62 1.744-2.268 3-4.225 3z"/></svg>