<?xml version="1.0" encoding="UTF-8"?>
<svg xmlns="http://www.w3.org/2000/svg" xmlns:xlink="http://www.w3.org/1999/xlink" contentScriptType="text/ecmascript" zoomAndPan="magnify" baseProfile="tiny" contentStyleType="text/css" version="1.1" width="44px" preserveAspectRatio="xMidYMid meet" viewBox="0 0 44 44" height="44px" x="0px" y="0px">
    <g>
        <g>
            <rect width="44" fill="none" height="44"/>
            <path d="M 37.008 23.756 C 37.076 22.909 37.069 22.096 37.012 21.25 C 38.516003 20.516 39.921 19.637 41.283 18.666 C 40.971 17.28 40.551003 15.953 40.032 14.6310005 C 38.311 14.519 36.606003 14.524 34.891003 14.739 C 34.460003 14.057 34.002003 13.372001 33.451004 12.725 C 34.248005 11.25 34.848003 9.699 35.393005 8.117001 C 34.311005 7.1940007 33.201004 6.3530006 31.987005 5.6110005 C 30.545006 6.5260005 29.167006 7.5120006 27.922005 8.687 C 27.196005 8.371 26.390005 8.110001 25.532005 7.9160004 C 25.293005 6.26 24.895006 4.6500006 24.410006 3.0510006 C 22.995007 2.9460006 21.604006 2.9150007 20.188005 3.0300007 C 19.550005 4.6170006 19.030006 6.2290006 18.707005 7.9120007 C 17.839005 8.106001 17.040005 8.361001 16.320004 8.674001 C 15.166003 7.474001 13.889004 6.4260006 12.558003 5.4310007 C 11.325004 6.1360006 10.207004 6.9770007 9.082004 7.838001 C 9.534003 9.505001 10.043004 11.148001 10.7870035 12.713001 C 10.245004 13.363001 9.785004 14.046001 9.348003 14.722001 C 7.680003 14.423001 5.9990034 14.318001 4.3070035 14.275002 C 3.8050036 15.603002 3.3260036 16.918001 3.0100036 18.305002 C 4.3150034 19.402002 5.6810036 20.387003 7.1750035 21.215002 C 7.0850034 22.027002 7.0850034 22.895002 7.1740036 23.733002 C 5.6720037 24.461002 4.2740035 25.338001 2.9210038 26.313002 C 3.2330039 27.694002 3.6530037 29.016003 4.1800036 30.332 C 5.901004 30.444 7.6080036 30.442001 9.323004 30.233 C 9.758004 30.903 10.217004 31.58 10.759004 32.235 C 9.963003 33.716 9.361004 35.278 8.806004 36.862 C 9.896004 37.776 11.004004 38.623 12.223003 39.357998 C 13.6620035 38.438 15.039003 37.452 16.286003 36.278 C 17.008003 36.593 17.806004 36.852 18.670004 37.05 C 18.904003 38.71 19.310003 40.321 19.799004 41.922 C 21.211004 42.022 22.603004 42.055 24.015003 41.940002 C 24.646004 40.354004 25.172003 38.745003 25.498003 37.065002 C 26.364002 36.871002 27.164003 36.615 27.886003 36.298004 C 29.037003 37.496002 30.310003 38.539005 31.644003 39.527004 C 32.878002 38.834003 33.992004 37.995003 35.115 37.135006 C 34.669003 35.465008 34.164 33.822006 33.418003 32.256004 C 33.962 31.609005 34.422005 30.929005 34.857002 30.254004 C 36.525 30.548004 38.205 30.651003 39.894 30.691004 C 40.396 29.364004 40.877003 28.051004 41.174 26.661003 C 39.866 25.564 38.499 24.583 37.008 23.756 " fill-opacity="0.2"/>
            <path d="M 36.072 22.474 C 36.021 21.872002 36.046997 21.253 35.937 20.651001 C 37.375 19.994001 38.837 19.179 40.16 18.237001 C 39.957 17.333002 39.669 16.45 39.331 15.587002 C 37.654 15.478002 35.957 15.579001 34.387 15.818002 C 33.735 14.768002 33.102 13.753002 32.223 12.866002 C 33.045 11.454002 33.682 10.012002 34.225 8.435001 C 33.524 7.8370013 32.786 7.2700014 31.995998 6.7880015 C 30.567999 7.6940017 29.274998 8.7230015 28.118998 9.888001 C 27.052998 9.329001 25.815998 8.963001 24.634998 8.753001 C 24.446 7.189001 24.123 5.549001 23.652998 3.9960012 C 22.720999 3.9270012 21.801998 3.9010012 20.884998 3.9750013 C 20.263998 5.5210013 19.828 7.1790013 19.571999 8.756001 C 18.387999 8.968001 17.155998 9.328001 16.088999 9.891002 C 15.006999 8.696002 13.797998 7.6050014 12.483999 6.623002 C 11.681 7.082002 10.952 7.665002 10.221999 8.223002 C 10.673999 9.889003 11.224999 11.403003 11.978999 12.869002 C 11.123999 13.781002 10.490999 14.785003 9.822999 15.830002 C 8.277999 15.510002 6.6539993 15.332002 4.989999 15.290002 C 4.6619987 16.156002 4.324999 17.021002 4.118999 17.929 C 5.404999 19.01 6.8259993 19.915 8.264999 20.664001 C 8.047999 21.811 8.059999 23.174002 8.264999 24.322002 C 6.8289995 24.968002 5.3589993 25.785002 4.0399995 26.734003 C 4.2429996 27.633003 4.5309997 28.519003 4.8719997 29.371002 C 6.549 29.480001 8.247999 29.387003 9.818 29.152002 C 10.486 30.195002 11.125 31.187002 11.973 32.103 C 11.16 33.513 10.530999 34.957 9.976999 36.537003 C 10.679999 37.126003 11.414999 37.7 12.206999 38.178 C 13.633999 37.268 14.923999 36.24 16.086998 35.074 C 17.161999 35.634003 18.381998 35.994 19.569998 36.213 C 19.748999 37.776 20.076998 39.418 20.552998 40.97 C 21.484997 41.034 22.399998 41.065002 23.313997 40.991 C 23.925997 39.451 24.374998 37.797 24.631998 36.216 C 25.817999 36.003998 27.046997 35.642998 28.111998 35.077 C 29.193998 36.271 30.400997 37.364998 31.715998 38.336998 C 32.523 37.885998 33.245 37.299 33.974 36.745 C 33.529 35.077 32.978 33.558 32.217 32.096 C 33.077 31.192001 33.709 30.19 34.378 29.147001 C 35.919 29.460001 37.545998 29.639002 39.205997 29.674002 C 39.527996 28.819002 39.874996 27.945002 40.066998 27.04 C 38.782997 25.966002 37.359997 25.061 35.922997 24.311 C 36.05 23.697 36.031 23.082 36.072 22.474 " fill-opacity="0.4"/>
            <linearGradient x1="60.04" gradientTransform="matrix(1 0 0 -1 -56 -102)" y1="-123.4824" x2="96.1602" gradientUnits="userSpaceOnUse" y2="-123.4824" xlink:type="simple" xlink:actuate="onLoad" id="SVGID_1_" xlink:show="other">
                <stop stop-color="#e8e8e8" offset="0"/>
                <stop stop-color="#a4a4a4" offset="1"/>
            </linearGradient>
            <path fill="url(#SVGID_1_)" d="M 36.072 21.474 C 36.021 20.872002 36.046997 20.253 35.937 19.651001 C 37.375 18.994001 38.837 18.179 40.16 17.237001 C 39.957 16.333002 39.669 15.450002 39.331 14.587002 C 37.654 14.478002 35.957 14.579001 34.387 14.818002 C 33.735 13.768002 33.102 12.753002 32.223 11.866002 C 33.045 10.454002 33.682 9.012002 34.225 7.435002 C 33.524 6.837002 32.786 6.270002 31.995998 5.788002 C 30.567999 6.694002 29.274998 7.723002 28.118998 8.888002 C 27.052998 8.329002 25.815998 7.963002 24.634998 7.753002 C 24.446 6.189002 24.123 4.549002 23.652998 2.9960022 C 22.720999 2.9270022 21.801998 2.9010022 20.884998 2.9750023 C 20.263998 4.5210023 19.828 6.1790023 19.571999 7.7560024 C 18.387999 7.9680023 17.155998 8.328003 16.088999 8.891003 C 15.006999 7.6960025 13.797998 6.6050024 12.483999 5.623003 C 11.681 6.082003 10.952 6.665003 10.221999 7.223003 C 10.673999 8.889003 11.224999 10.403003 11.978999 11.869003 C 11.123999 12.781003 10.490999 13.785004 9.822999 14.830004 C 8.277999 14.510004 6.6539993 14.332004 4.989999 14.290004 C 4.6619987 15.156004 4.324999 16.021004 4.118999 16.929005 C 5.404999 18.010004 6.8259993 18.915005 8.264999 19.664005 C 8.047999 20.811005 8.059999 22.174006 8.264999 23.322006 C 6.8289995 23.968006 5.3589993 24.785006 4.0399995 25.734007 C 4.2429996 26.633007 4.5309997 27.519007 4.8719997 28.371006 C 6.549 28.480005 8.247999 28.387007 9.818 28.152006 C 10.486 29.195005 11.125 30.187006 11.973 31.103006 C 11.16 32.51301 10.530999 33.95701 9.976999 35.537006 C 10.679999 36.126007 11.414999 36.700005 12.206999 37.178005 C 13.633999 36.268005 14.923999 35.240005 16.086998 34.074005 C 17.161999 34.634007 18.381998 34.994003 19.569998 35.213005 C 19.748999 36.776005 20.076998 38.418007 20.552998 39.971004 C 21.484997 40.034004 22.399998 40.065006 23.313997 39.992004 C 23.925997 38.452003 24.374998 36.798004 24.631998 35.217003 C 25.817999 35.005 27.046997 34.644 28.111998 34.078003 C 29.193998 35.272003 30.400997 36.366005 31.715998 37.338 C 32.523 36.887 33.245 36.300003 33.974 35.746002 C 33.529 34.078003 32.978 32.559002 32.217 31.097002 C 33.077 30.193003 33.709 29.191002 34.378 28.148003 C 35.919 28.461002 37.545998 28.640003 39.205997 28.675003 C 39.527996 27.820004 39.874996 26.946003 40.066998 26.041002 C 38.782997 24.967003 37.359997 24.062002 35.922997 23.312002 C 36.05 22.697 36.031 22.082 36.072 21.474 "/>
            <path fill="#ffffff" d="M 14.56 26.949 C 12.204 23.769 12.192 19.175999 14.56 15.999 C 18.11 10.931999 26.07 10.955999 29.643002 15.981999 L 29.643002 15.981999 C 29.643002 15.987999 29.643002 15.987999 29.643002 15.99 L 32.794003 13.694 C 32.369003 13.064 31.840002 12.5130005 31.318003 11.963 C 32.129 10.584001 32.814003 9.152 33.365 7.65 C 32.922 7.293 32.462 6.9490004 31.997002 6.634 C 30.633001 7.546 29.404001 8.601 28.245 9.757999 C 26.904001 9.042 25.474 8.612999 23.980001 8.355999 C 23.804 6.774999 23.533 5.206999 23.088001 3.677999 C 22.517002 3.642999 21.94 3.618999 21.368002 3.6599991 C 20.801003 5.188999 20.455002 6.762999 20.180002 8.365999 C 18.685001 8.617999 17.249002 9.049999 15.918002 9.782999 C 14.85 8.584 13.702 7.47 12.43 6.485 C 11.96 6.79 11.501 7.125 11.036 7.4900002 C 11.487 9.053 12.095 10.54 12.846001 11.981001 C 11.777 13.111001 10.993001 14.314001 10.152 15.613001 C 8.601001 15.307001 7.0520005 15.080001 5.4690003 15.017001 C 5.2630005 15.578001 5.071 16.11 4.9210005 16.656002 C 6.2070007 17.672003 7.602 18.510002 9.062 19.248001 C 8.783 20.732 8.792 22.248001 9.064 23.732002 C 7.601 24.392002 6.176 25.125002 4.8450003 26.027002 C 4.9900002 26.582003 5.1660004 27.130003 5.3650002 27.673002 C 6.965 27.766003 8.581 27.616003 10.16 27.360003 C 10.573 27.990002 10.912 28.673002 11.38 29.262003 C 12.44 28.492 13.522 27.746 14.56 26.949 " fill-opacity="0.3"/>
            <path d="M 10.066 21.48 C 10.066 14.813 15.469 9.41 22.140999 9.408 L 22.140999 9.408 C 28.811998 9.409 34.216 14.813 34.217 21.48 L 34.217 21.48 C 34.211998 28.147999 28.808998 33.557 22.140999 33.557 L 22.140999 33.557 C 15.468 33.557 10.066 28.148 10.066 21.48 L 10.066 21.48 z " fill-opacity="0.2"/>
        </g>
    </g>
    <g>
        <g>
            <linearGradient x1="904.2051" gradientTransform="matrix(1 0 0 -1 -882.0107 -2438.0244)" y1="-2470.4521" x2="904.2051" gradientUnits="userSpaceOnUse" y2="-2448.0605" xlink:type="simple" xlink:actuate="onLoad" id="SVGID_2_" xlink:show="other">
                <stop stop-color="#84d8fd" offset="0"/>
                <stop stop-color="#7dd1fb" offset="0.1127"/>
                <stop stop-color="#6bbef7" offset="0.2752"/>
                <stop stop-color="#4d9ff0" offset="0.4679"/>
                <stop stop-color="#2676e7" offset="0.6703"/>
                <stop stop-color="#2676e7" offset="1"/>
            </linearGradient>
            <path fill="url(#SVGID_2_)" d="M 22.193 10.036 C 28.305 10.036 33.491 15.305 33.389 21.417 C 33.286 27.526001 27.936 32.628998 21.825 32.422 C 15.857 32.221 10.898001 27.021 10.999001 21.048 C 11.099 15.077 16.219 10.036 22.193 10.036 "/>
            <linearGradient x1="77.6865" gradientTransform="matrix(1 0 0 -1 -56 -102)" y1="-133.0444" x2="77.6865" gradientUnits="userSpaceOnUse" y2="-113.1747" xlink:type="simple" xlink:actuate="onLoad" id="SVGID_3_" xlink:show="other">
                <stop stop-color="#c5eaff" offset="0"/>
                <stop stop-color="#7ac6f7" offset="1"/>
            </linearGradient>
            <path fill="url(#SVGID_3_)" d="M 30.845 21.969 C 30.82 21.769 30.553999 21.769 30.404 21.771 C 30.108 21.775 30.022 21.746 29.821 21.529 C 29.523998 21.206 28.71 21.446999 28.317 21.427 C 27.993 21.41 28.055 21.304 27.864 21.111 C 27.623001 20.871 27.623001 20.992 27.385 21.088 C 26.976 21.254 26.274 21.033998 25.826 21.015999 C 25.293 20.994 25.459 21.306 25.073 21.551998 C 24.912 21.655998 24.633 22.304998 24.407 22.181997 C 23.963999 21.936996 23.459 22.373997 23.029 22.000998 C 22.712 21.721998 22.338 21.212997 21.862999 21.344997 C 21.405998 21.471998 21.415998 20.672997 20.903 20.942997 C 20.765 21.015997 20.848999 21.179996 20.778 21.288998 C 20.661 21.465998 20.411 21.584997 20.221 21.660997 C 19.802 21.826998 19.386002 21.390997 19.199001 21.053997 C 18.967001 20.636997 19.486002 20.852997 19.237001 20.509996 C 19.191002 20.445997 19.016 20.301996 19.125002 20.226997 C 19.357002 20.066998 19.208002 19.948997 19.332003 19.726997 C 19.315002 19.756998 19.871002 19.739998 19.927002 19.739998 C 20.023003 19.739998 20.316002 19.811998 20.296001 19.622997 C 20.293001 19.587997 20.214 19.280998 20.269001 19.280998 C 20.361 19.280998 21.060001 19.217999 21.045002 19.199999 C 21.119001 19.290998 21.264002 19.282 21.363003 19.262 C 21.498003 19.231998 21.793003 19.633 21.871002 19.713 C 22.183002 19.424 21.637003 19.085999 21.533003 18.835999 C 21.436003 18.602999 21.704002 18.399998 21.603003 18.168 C 21.493002 17.911 21.749002 17.776 21.936003 17.661 C 22.274002 17.456 22.426003 17.074 22.518003 16.703999 C 22.567003 16.508999 22.600004 16.301998 22.588003 16.098999 C 22.568003 15.728999 22.171003 15.872999 21.877003 15.872999 C 21.880003 15.645999 22.092003 15.555999 22.290003 15.565 C 22.619003 15.580999 22.760002 15.323 22.965002 15.120999 C 23.217003 15.632999 23.654001 14.964 23.731003 14.7369995 C 23.808002 14.502 23.976004 14.271 24.196003 14.150999 C 24.441004 14.015999 24.488003 13.726999 24.676003 13.539 C 24.384003 13.408999 24.058002 13.389999 23.764002 13.266 C 23.419003 13.12 23.194002 12.742 23.018002 12.429999 C 22.866001 12.155999 22.863 11.799999 22.642002 11.561999 C 22.459002 11.367 22.116001 11.2699995 21.867002 11.205999 C 21.488003 11.108999 20.642002 11.44 20.799002 11.954999 C 20.895002 12.269999 21.416002 13.321999 20.921001 13.596999 C 20.770002 13.680999 20.421001 13.676999 20.344002 13.8619995 C 20.266003 14.046 20.636002 14.266 20.454002 14.499 C 20.064003 14.999 19.970003 14.073999 19.775002 14.039 C 19.508001 13.990999 19.365002 14.183 19.071001 13.971 C 18.891 13.84 19.069 13.632 18.709002 13.684 C 18.421001 13.726 18.265001 13.732 18.035002 13.526 C 17.875002 13.382 17.612001 13.031 17.927002 12.893 C 18.256002 12.75 19.143002 11.677 18.439001 11.533999 C 18.357 11.518 18.271002 11.5199995 18.183 11.530999 C 15.673 12.608999 13.621 14.648999 12.524 17.151999 C 12.617001 17.228998 12.704 17.314 12.785 17.453 C 12.974 17.779999 13.139 17.782999 13.462 17.924 C 13.833 18.087 13.916 17.963 13.916 18.402 C 13.916 18.923 14.188001 20.032 14.819 20.032 C 15.182 20.032 15.354 20.278 15.588 20.511 C 15.862 20.785 16.142 20.986 16.509 21.119999 C 16.387001 21.067 16.279001 20.994 16.185001 20.898998 C 16.649002 20.436998 17.342001 21.432999 17.661001 21.774998 C 18.155 22.305998 19.073002 22.359997 19.77 22.274998 C 19.965 22.251997 20.121 22.118998 20.251001 21.981998 C 20.444002 21.777998 20.457 21.779999 20.657001 21.784998 C 20.873001 21.788998 21.028002 21.431997 21.340002 21.479998 C 21.457003 21.497997 22.312002 21.694998 22.319002 21.763998 C 22.361002 22.128998 23.955002 22.438997 23.788002 22.815998 C 23.666002 23.084997 23.374002 23.192999 23.377003 23.524998 C 23.377003 23.690998 23.336002 24.171997 23.482002 24.295998 C 23.661003 24.443998 23.866003 24.571997 24.088003 24.621998 C 24.350002 24.679998 24.432003 25.158998 24.593002 25.348997 C 24.783003 25.576998 24.972002 25.680998 25.258003 25.684998 C 25.302004 25.684998 25.836002 25.711998 25.836002 25.711998 C 25.723001 25.842999 25.994003 25.991999 26.106003 26.099998 C 26.211002 26.203999 26.150003 26.480999 26.140003 26.609 C 26.101004 27.005999 26.099003 27.501999 26.328003 27.847 C 26.627003 28.301 26.600002 28.546 26.570004 29.076 C 26.565004 29.184 26.476004 29.874 26.610004 29.904 C 26.673004 29.918 26.839005 29.671 26.881004 29.630999 C 26.933004 29.918 27.298004 30.005 27.077003 30.325998 C 27.035004 30.385998 27.030003 30.456999 27.042004 30.527998 C 27.407003 30.331999 27.760004 30.112997 28.099003 29.875998 C 28.036003 29.800997 27.937002 29.668997 27.942003 29.620998 C 27.942003 29.565998 28.429003 29.604998 28.327003 29.394 C 28.277004 29.287998 27.889004 29.08 28.202003 28.967 C 28.280003 28.938 28.499004 28.918999 28.481003 28.785 C 28.449003 28.557 28.656002 28.544 28.811003 28.41 C 29.190002 28.084 29.130003 27.966 28.787003 27.655 C 28.536003 27.432001 28.933002 27.481 29.071003 27.479 C 29.473003 27.473 29.222002 27.065 29.397003 26.83 C 29.586002 26.571 30.131002 26.177 29.825003 25.812 C 29.620003 25.568 29.951002 25.122 29.750002 24.919 C 30.062002 25.232 30.424002 24.639 30.585001 24.436 C 30.94 23.982 30.751001 23.656 30.608002 23.166 C 30.48 22.733 30.904 22.392 30.845 21.969 z "/>
            <linearGradient x1="904.1523" gradientTransform="matrix(1 0 0 -1 -882.0107 -2438.0244)" y1="-2459.2417" x2="904.1523" gradientUnits="userSpaceOnUse" y2="-2448.5122" xlink:type="simple" xlink:actuate="onLoad" id="SVGID_4_" xlink:show="other">
                <stop stop-color="#26bfff" offset="0"/>
                <stop stop-color="#43c8ff" offset="0.0464"/>
                <stop stop-color="#6fd5ff" offset="0.1258"/>
                <stop stop-color="#96e0ff" offset="0.2112"/>
                <stop stop-color="#b6eaff" offset="0.3018"/>
                <stop stop-color="#d1f1ff" offset="0.3987"/>
                <stop stop-color="#e5f7ff" offset="0.5044"/>
                <stop stop-color="#f4fcff" offset="0.6233"/>
                <stop stop-color="#fcfeff" offset="0.7666"/>
                <stop stop-color="#ffffff" offset="1"/>
            </linearGradient>
            <path fill="url(#SVGID_4_)" d="M 11.411 21.233 C 11.411 15.443 16.349 10.504 22.14 10.504 C 27.931 10.504 32.871 15.443 32.871 21.233 C 25.717 21.233 18.563 21.233 11.411 21.233 " fill-opacity="0.7"/>
        </g>
    </g>
</svg>
