<?xml version="1.0" encoding="utf-8"?>
<!-- Generator: Adobe Illustrator 15.0.0, SVG Export Plug-In  -->
<!DOCTYPE svg PUBLIC "-//W3C//DTD SVG 1.0//EN" "http://www.w3.org/TR/2001/REC-SVG-20010904/DTD/svg10.dtd" [
	<!ENTITY ns_flows "http://ns.adobe.com/Flows/1.0/">
]>
<svg version="1.0"
	 xmlns="http://www.w3.org/2000/svg" xmlns:xlink="http://www.w3.org/1999/xlink" xmlns:a="http://ns.adobe.com/AdobeSVGViewerExtensions/3.0/"
	 x="0px" y="0px" width="24px" height="34px" viewBox="-4 -3.3 24 34" overflow="visible" enable-background="new -4 -3.3 24 34"
	 xml:space="preserve">
<defs>
</defs>
<path fill="#1A73C4" d="M19,11.5c0.1-0.6,0.2-1.1,0.2-1.7c0-5.2-4.2-9.3-9.3-9.3c-5.2,0-9.3,4.2-9.3,9.3c0,0.7,0.1,1.3,0.2,1.9
	c0.4,1.9,0.6,2.3,2,4.9l7.2,11.9l6.5-11.2C17.6,15.3,18.6,13.6,19,11.5 M9.8,13C8,13,6.5,11.5,6.5,9.6c0-1.9,1.5-3.4,3.4-3.4
	c1.9,0,3.4,1.5,3.4,3.4C13.2,11.5,11.7,13,9.8,13z"/>
<path fill="#FFFFFF" d="M9.9,29.5L2.3,16.9c-1.4-2.6-1.6-3.1-2.1-5.1C0.1,11.2,0,10.5,0,9.8C0,4.4,4.4,0,9.8,0
	c5.4,0,9.8,4.4,9.8,9.8c0,0.6-0.1,1.2-0.2,1.8c-0.4,2.2-1.5,3.9-2.7,5.9 M9.8,1C5,1,1,5,1,9.8c0,0.6,0.1,1.2,0.2,1.8
	c0.4,1.9,0.6,2.2,1.9,4.8l6.7,11.1L15.9,17c1.2-2,2.2-3.6,2.6-5.6c0.1-0.6,0.2-1.1,0.2-1.6C18.7,5,14.7,1,9.8,1z M9.8,13.5
	C7.7,13.5,6,11.8,6,9.6c0-2.1,1.7-3.9,3.9-3.9c2.1,0,3.9,1.7,3.9,3.9C13.7,11.8,12,13.5,9.8,13.5z M9.8,6.8C8.2,6.8,7,8.1,7,9.6
	c0,1.6,1.3,2.9,2.9,2.9c1.6,0,2.9-1.3,2.9-2.9C12.7,8.1,11.4,6.8,9.8,6.8z"/>
</svg>
