<svg xmlns="http://www.w3.org/2000/svg" width="100" height="100" viewBox="0 0 100 100"><path fill="#93D3E8" d="M50 0c27.614 0 50 22.386 50 50s-22.386 50-50 50S0 77.614 0 50 22.386 0 50 0z"/><path fill="#B7844E" d="M83 87.547C74.194 95.293 62.65 100 50 100c-12.65 0-24.193-4.707-33-12.453V12.453C25.807 4.707 37.35 0 50 0c12.65 0 24.194 4.707 33 12.453v75.094z"/><path d="M47.325 84.33c1.66.322 3.093 2.09 4.786 5.912.76 1.71 1.68 4.33 2.84 7.647l.63 1.787c.91-.102 1.816-.228 2.714-.378-.402.066-.804.132-1.208.19-.298-.846-.59-1.683-.87-2.484-1.67-4.797-3.11-8.94-4.51-10.906-2.917-4.104-6.06-6.337-8.402-5.97-1.66.262-2.962 1.833-3.866 4.673-1.04 3.268.28 8.693 2.606 14.552 1.738.28 3.504.475 5.297.568-1.956-4.23-3.236-7.91-2.63-9.385.46-1.114 1.19-1.19 1.58-1.135 2.215.307 5.154 7.294 6.188 10.533.984-.05 1.958-.134 2.927-.238-.374.04-.75.074-1.127.106l-.525-1.493c-1.152-3.29-2.063-5.89-2.8-7.55-1.445-3.26-2.71-4.955-3.867-5.18-1.058-.208-2.317.767-3.885 2.292-1.293 1.26-.224 6.013 2.164 11.906-.474-.044-.944-.1-1.413-.155-2.354-5.997-3.35-11-1.634-12.665 1.906-1.85 3.408-2.935 5.01-2.626zm18.923 12.955c-5.978-7.11-12.104-12.918-17.02-17.545-2.88-2.71-5.367-5.052-7.173-7.047-4.606-5.088-7.628-12.234-11.128-20.51-3.554-8.405-7.518-17.755-13.927-26.4v5.322c3.968 5.317 7.477 11.215 10.18 17.625 4.202 9.97 5.522 20.15 6.8 29.992.88 6.793 1.76 13.384 3.508 19.683 1.345.347 2.71.64 4.095.875l-.994-.178c-2.24-5.853-3.45-11.275-2.363-14.687 1.062-3.338 2.705-5.202 4.88-5.543 2.87-.447 6.384 1.914 9.635 6.488 1.503 2.115 2.902 6.136 4.674 11.227.304.873.62 1.78.947 2.702 1.203-.205 2.392-.447 3.564-.734l-1.04.24c.068-.526.198-.983.413-1.335.452-.736 1.21-1.04 2.135-.853.465.094 1.025.478 1.646 1.06.5-.157.995-.322 1.487-.495l-.318.112zM50.664 68.61c7.37 3.745 15.34 13.245 20.1 18.92.56.668 1.107 1.32 1.595 1.89l-.157-.324c-5.098-10.58-22.71-26.452-27.993-27.59-.58-.124-.77-.012-.812.025-.402.34-.582.816-.55 1.457.158 3.25 5.536 9.306 12.507 14.083C60 80.25 66.47 88.06 71.745 95.02c2.1-1.017 4.12-2.17 6.044-3.46-6.02-12.21-14.24-21.97-21.175-27.203-.983-.742-1.987-1.487-3.007-2.245-9.63-7.155-20.544-15.266-29.647-31.43-2.04-3.622-4.44-6.928-6.96-9.906v2.9c7.107 9.13 11.33 19.096 15.1 28.01 3.452 8.168 6.436 15.224 10.896 20.15 1.77 1.957 4.242 4.282 7.103 6.974 5.03 4.736 11.32 10.693 17.436 18.014 1.02-.383 2.025-.8 3.014-1.247-5.198-6.838-11.49-14.425-15.91-17.455-7.51-5.145-12.88-11.343-13.064-15.073-.05-1.04.296-1.9 1.003-2.496.44-.37 1.08-.47 1.895-.294 6.008 1.294 23.982 18.136 28.87 28.28 1.358 2.82 1.503 3.427.905 3.815-.713.462-1.212-.133-4.46-4.004-4.39-5.232-12.563-14.975-19.7-18.602-.314-.16-.44-.543-.28-.856.16-.312.542-.438.854-.28zm11.72 29.52c-.062.1-.11.218-.153.35.735-.186 1.463-.387 2.183-.604l-.735.215c-.18-.112-.348-.2-.494-.23-.497-.1-.678.07-.8.27zM41.85 1.82c4.052 1.727 8.695 1.063 12.654-1.608.624.056 1.243.127 1.86.205-2.975 2.367-6.408 3.636-9.794 3.636-1.778 0-3.542-.347-5.217-1.06-1.205-.513-2.163-1.06-2.927-1.632.39-.09.784-.176 1.178-.262-2.286.485-4.514 1.125-6.673 1.91 2.114 1.506 3.944 3.35 5.49 5.816.708 1.128 2.073 4.68 3.963 9.595C48.06 33.184 59.86 63.916 68.52 63.03c2.897-.296 4.85-1.726 5.8-4.248 2.234-5.943-1.614-17.438-8.24-24.6-5.48-5.926-12.3-9.568-14.895-7.954-1.627 1.012-1.525 4.207.285 8.997C56.46 48.43 61.796 56.362 66.11 56.99c1.61.233 3.082-.556 4.492-2.415 2.034-2.684 1.018-6.354-.194-8.96-3.22-6.92-10.645-13.216-13.427-13.35-.532-.026-.66.19-.713.285-1.41 2.405.733 10.985 4.608 15.804 1.37 1.706 3.494 3.576 5.827 2.805 1.024-.34 1.603-.926 1.77-1.793.485-2.553-2.595-7.122-5.775-9.788-1.735-1.456-2.69-1.648-2.95-1.547-.612.237-.68 1.55-.16 3.193.924 2.933 3.304 5.86 5.24 5.377.46-.115.75-.283.775-.45.117-.734-1.987-2.63-3.95-3.87-.296-.188-.385-.58-.197-.88.187-.297.58-.386.876-.198 1.14.72 4.834 3.222 4.526 5.15-.08.5-.443 1.163-1.722 1.484-3.066.77-5.8-3.18-6.76-6.23-.777-2.463-.436-4.245.915-4.765 1.2-.465 2.96.7 4.22 1.758 2.974 2.492 6.865 7.554 6.208 11.004-.177.924-.773 2.154-2.618 2.764-2.394.79-4.888-.32-7.215-3.213-4.008-4.984-6.52-14.175-4.714-17.25.263-.445.796-.96 1.87-.912 3.56.17 11.24 7.03 14.52 14.084 1.95 4.193 1.97 7.744.055 10.27-1.69 2.23-3.605 3.21-5.687 2.903C59.378 57.3 53.314 43.7 50.282 35.68c-2.627-6.95-1.323-9.564.234-10.533 3.686-2.292 11.25 2.498 16.497 8.17 6.265 6.77 11.173 18.802 8.496 25.918-1.12 2.97-3.49 4.722-6.86 5.064-.164.017-.328.024-.49.024-8.747 0-18.49-23.408-26.96-45.444-1.794-4.666-3.21-8.352-3.85-9.374-1.63-2.598-3.567-4.437-5.87-5.942-1.09.437-2.167.907-3.22 1.417 8.055 5.487 10.963 14.028 13.067 20.226.304.894.59 1.738.874 2.517 1.05 2.89 3.56 7.668 5.984 12.29C53.604 50.34 55.694 54.68 54.53 56c-.166.19-.436.37-.857.37-.21 0-.457-.045-.748-.155-4.815-1.827-13.23-11.505-21.367-20.865l-1.365-1.57c-3.47-3.987-5.504-7.876-7.47-11.638-1.738-3.325-3.343-6.372-5.723-9.107v5.796c2.923 3.32 5.728 7.07 8.068 11.227 8.97 15.928 19.77 23.952 29.296 31.032 1.022.76 2.028 1.507 3.014 2.25 6.62 4.997 15.143 14.576 21.487 27.464 1.002-.71 1.977-1.455 2.923-2.235-3.188-8.415-5.805-17.06-3.176-33.52 3.75-23.463-10.3-29.33-19.6-33.21-1.98-.827-3.693-1.54-5.032-2.33-4.598-2.71-6.766-5.302-6.63-7.93.156-2.98 3.25-5.8 9.46-8.63 1.292-.59 2.44-1.217 3.48-1.874C56.967.38 53.53 0 50 0c-3.365 0-6.648.343-9.827.978.493.286 1.034.568 1.678.842zM29.475 84.138c.57-.29 1.216-2.827.017-10.498-.9-5.77-2.642-13.136-4.658-19.704-1.52-4.952-4.435-10.29-7.83-15.228v2.275c2.852 4.402 6.01 10.025 6.98 14.598.42 1.973.978 4.363 1.568 6.895 3.132 13.416 3.562 16.45 2.42 17.083-.11.062-.25.108-.412.108-.26 0-.582-.12-.954-.498-2.815-2.85-9.43-19.505-9.188-27.96.036-1.28.132-2.344.947-2.412.622-.057 1.668-.14 4.93 16.333.067.345-.156.68-.5.75-.346.065-.68-.157-.747-.5-1.1-5.554-2.488-11.537-3.36-14.14v.003c-.222 7.812 5.874 23.556 8.618 26.805.052-2.252-1.755-9.992-2.99-15.283-.593-2.537-1.152-4.934-1.573-6.917-.806-3.797-3.265-8.46-5.738-12.46v15.12c2.04 7.826 4.837 16.745 9.41 22.92 2.27 3.064 3.032 2.727 3.062 2.71zM83 76.93V54.38l-.007.084c-.525 6.395-1.198 14.713.007 22.47zm-1.935-66.087l.42.334-.42-.334zM60.82 1.188c.374.084.75.167 1.12.26-.37-.093-.745-.177-1.12-.26zm15.587 9c.404 3.438-.68 6.095-2.974 7.29-2.695 1.404-6.563.5-9.627-2.25-3.145-2.825-2.906-4.968-2.483-5.994.816-1.984 3.512-3.153 6.866-2.974 1.844.098 3.09.69 3.702 1.76.966 1.688-.124 3.847-.17 3.938l-.123.166s-1.234 1.185-2.785 1.094c-.946-.053-1.8-.533-2.535-1.427-.223-.27-.185-.67.086-.895s.67-.186.895.085c.5.605 1.045.93 1.62.964.818.052 1.53-.478 1.76-.67.166-.37.686-1.696.15-2.625-.384-.67-1.28-1.045-2.666-1.12-2.723-.14-5.036.757-5.625 2.19-.51 1.233.257 2.85 2.156 4.556 2.67 2.398 5.963 3.23 8.192 2.07 1.825-.952 2.642-3.086 2.298-6.01-.1-.836-.27-2.297-.542-3.852-2.354-1.334-4.824-2.48-7.394-3.426-1.142.678-2.415 1.393-3.727 2.128-3.635 2.035-7.755 4.342-9.154 6.042-.28.34.227 1.114.457 1.43 2.992 4.097 17.13 11.853 22.597 9.638 2.392-.968 2.15-6.673.758-13.605-.696-.474-1.402-.937-2.124-1.38.134.883.264 1.833.387 2.88zM83 18.8v-6.347c-.313-.276-.64-.54-.96-.807.357 2.294.676 4.68.96 7.154zM18.437 88.757c.41.335.83.66 1.252.98-.423-.32-.843-.645-1.254-.98zM17 86.494v1.053c.322.283.655.554.984.828-.32-.627-.655-1.254-.984-1.88zM51.163 99.97c-.412-1.222-1.087-2.945-1.898-4.66-1.802-3.806-2.894-4.644-3.15-4.644h-.008c.002 0-.098.056-.223.36-.47 1.145.822 4.635 2.88 8.942-.44-.01-.88-.018-1.316-.037.845.046 1.696.07 2.552.07.827 0 1.648-.02 2.466-.06-.432.02-.868.022-1.303.032zM32.388 3.205l-.806.314.806-.315zm49.34 51.153c.283-3.456.507-6.187.344-7.84-.68-6.894-3.193-17.766-3.22-17.875-.08-.343.134-.685.476-.765.34-.08.683.133.763.476.024.097 1.966 8.496 2.91 15.267V32.867c-.16-1.716-.313-3.466-.447-5.276-.463-6.252-1.126-11.908-1.98-17.128-.298-.23-.592-.464-.895-.688 1.195 6.6 1.264 12.458-1.814 13.705-.802.323-1.747.47-2.79.47-6.983 0-18.41-6.57-21.307-10.538-1.12-1.532-.843-2.474-.414-2.995 1.55-1.885 5.6-4.152 9.514-6.344.958-.536 1.893-1.06 2.77-1.567l.742.252c-1.43-.498-2.89-.93-4.375-1.297-1.34.94-2.877 1.833-4.666 2.648-5.657 2.577-8.59 5.113-8.717 7.537-.11 2.106 1.854 4.318 6.004 6.764 1.265.744 2.938 1.443 4.877 2.252 4.805 2.006 10.784 4.502 15.184 9.605 5.208 6.043 6.904 14.216 5.183 24.984-2.532 15.854-.1 24.325 2.953 32.448l.18-.153v-4.813c-2.83-9.326-1.936-20.34-1.275-28.377zM17 72.488v4.13c1.596 2.985 3.38 6.697 5.265 10.627.954 1.99 1.96 4.073 2.996 6.19 1.057.603 2.134 1.17 3.236 1.696C24.386 87.615 20.32 79.68 17 72.488zm6.575 19.942c.438.273.88.538 1.327.8-.447-.26-.89-.527-1.327-.8zm.274-70.88c1.93 3.697 3.93 7.52 7.3 11.393l1.365 1.57c8.035 9.24 16.344 18.797 20.856 20.51l.217.064c.297-1.473-3.798-9.277-6.53-14.483-2.444-4.66-4.973-9.478-6.053-12.448-.287-.792-.576-1.642-.882-2.543-2.09-6.153-4.998-14.692-13.19-19.96-2.258 1.177-4.42 2.513-6.46 4.01.19.228.382.457.552.688 2.11 2.877 3.636 5.75 5.25 8.796 2.26 4.253 4.593 8.65 8.718 13.228 4.47 4.958 6.007 5.883 6.478 6.046.02-.467-.245-2.06-2.747-7.21-1.82-3.75-3.1-7.06-4.228-9.982-2.268-5.875-3.767-9.756-7.468-11.413-2.104-.942-2.524-.676-2.528-.674-.457.765 2.623 5.6 3.783 7.42l7.39 11.595c.188.297.102.69-.194.88-.297.19-.69.103-.878-.193l-7.39-11.596c-3.408-5.35-4.672-7.774-3.67-8.94.627-.732 1.825-.63 4.003.347 4.18 1.872 5.838 6.17 8.135 12.117 1.12 2.898 2.388 6.183 4.186 9.883 3.542 7.292 3.112 8.394 2.37 8.898-.782.53-2.057.48-8.185-6.32-4.23-4.693-6.6-9.162-8.894-13.483-1.593-3-3.097-5.836-5.152-8.637-.165-.224-.352-.447-.538-.67-.606.468-1.2.95-1.785 1.445 2.663 2.967 4.387 6.26 6.17 9.67zm-.596 70.676c-.73-1.507-1.447-2.992-2.136-4.428-1.448-3.017-2.835-5.907-4.12-8.43v4.423c1.158 2.148 2.284 4.298 3.34 6.45.946.7 1.92 1.356 2.915 1.987zm6.397 3.444l.448.202-.448-.202zm6.4 2.343c-1.63-6.145-2.48-12.542-3.332-19.126-1.267-9.758-2.576-19.85-6.712-29.66C23.58 43.47 20.486 38.14 17 33.272v3.23c3.948 5.53 7.373 11.604 9.046 17.058 2.032 6.623 3.79 14.056 4.7 19.882 1.662 10.634-.114 11.536-.698 11.833-1.542.784-3.396-1.39-4.657-3.09C21.55 77 18.954 70.01 17 63.298v6.134C20.69 77.69 25.558 87.194 30.412 96c2.074.887 4.22 1.635 6.427 2.236l-.79-.223z" fill="#CC9357"/><path fill="#F2F1EF" d="M23 24s14.178 3 28 3c13.16 0 26-3 26-3v52l-5.97 1.165L70 66l-5 1-.025 11.06S55.938 79 51 79c-13.75 0-28-3-28-3V24z"/><path fill="#7F8F96" d="M30 48v2.795S39.45 52 49.26 52C59.442 52 70 50.795 70 50.795V48s-10.502 1.205-20.74 1.205C39.51 49.205 30 48 30 48zm0 6v2.795S39.45 58 49.26 58C59.442 58 70 56.795 70 56.795V54s-10.502 1.205-20.74 1.205C39.51 55.205 30 54 30 54zm0-12v2.795S39.45 46 49.26 46C59.442 46 70 44.795 70 44.795V42s-10.502 1.205-20.74 1.205C39.51 43.205 30 42 30 42zm19.26-4.795C39.51 37.205 30 36 30 36v2.795S39.45 40 49.26 40C59.442 40 70 38.795 70 38.795V36s-10.502 1.205-20.74 1.205z"/><path fill="#A07244" d="M27 5.617l-.38.197c-.34.18-.68.364-1.015.552l-.85.49c-.29.17-.583.34-.87.517-.44.27-.87.548-1.3.83l-.385.247c-.572.383-1.134.78-1.688 1.186l-.363.273c-.444.33-.883.664-1.314 1.01l-.396.32c-.42.344-.837.693-1.247 1.05l-.192.17v75.08l.19.164c.414.36.833.713 1.26 1.06l.384.313c.436.348.88.687 1.326 1.02l.35.266c.555.406 1.12.803 1.69 1.188l.392.25c.427.28.856.56 1.292.827l.89.527.823.475c.345.193.694.38 1.044.566l.36.188V5.617z"/><path d="M27 43.173c-2.666-5.792-5.812-11.74-10-17.39v5.322c3.885 5.206 7.322 10.976 10 17.23v-5.162zm-1.932-13.117c.634 1.126 1.28 2.204 1.932 3.253v-3.717c-1.7-2.532-3.005-5.02-4.276-7.452-1.74-3.324-3.344-6.37-5.724-9.106v5.796c2.923 3.318 5.728 7.07 8.068 11.226zM27 40.183V35.67c-1.03-1.58-2.047-3.227-3.038-4.988-2.04-3.622-4.44-6.928-6.962-9.906v2.9c4.16 5.343 7.332 10.97 10 16.507zm-2.502-31.04c-.33.552 1.195 3.238 2.502 5.37v-4.71c-2.08-.926-2.498-.664-2.502-.66zM17 33.273V36.5c3.948 5.53 7.373 11.606 9.046 17.06.327 1.066.644 2.157.954 3.255v-5.07c-.313-.84-.64-1.68-.992-2.52C23.58 43.47 20.485 38.142 17 33.273zm10 48.91V79.48c-.125-.076-.256-.172-.396-.314-2.815-2.85-9.43-19.505-9.188-27.96.036-1.28.132-2.344.947-2.412.622-.057 1.668-.14 4.93 16.333.067.346-.156.682-.5.75-.346.066-.68-.156-.747-.5-1.1-5.553-2.488-11.536-3.36-14.14v.004C18.47 58.78 24.136 73.696 27 77.655V75.27c-.56-3.383-1.777-8.607-2.688-12.507-.593-2.537-1.152-4.934-1.573-6.917-.81-3.797-3.268-8.46-5.74-12.46v15.12c2.04 7.826 4.836 16.745 9.41 22.92.21.282.403.53.59.758zM17 38.71v2.275c2.853 4.402 6.01 10.025 6.98 14.598.42 1.972.98 4.362 1.57 6.894.57 2.447 1.05 4.546 1.45 6.352v-7.1c-.663-2.625-1.395-5.267-2.17-7.79-1.518-4.954-4.434-10.29-7.83-15.23zm10 45.397c-.588-.588-1.14-1.287-1.61-1.92C21.55 77 18.953 70.01 17 63.297v6.135c2.822 6.314 6.332 13.354 10 20.26v-5.59zm-3.434 8.32l.316.202.89.526.147.085c-.457-.264-.908-.536-1.355-.814zM17 72.485v4.133c1.596 2.985 3.38 6.697 5.265 10.627.954 1.99 1.96 4.073 2.996 6.19l.338.193c.345.194.694.382 1.044.567l.36.188v-2.01c-3.592-6.68-7.083-13.568-10-19.887zM21.12 87.8c-1.448-3.017-2.835-5.907-4.12-8.43v4.423c1.157 2.146 2.282 4.293 3.34 6.445l.17.128c.554.406 1.118.803 1.69 1.188l.39.252.665.424c-.73-1.507-1.447-2.993-2.136-4.428zm-.096-77.446c2.11 2.875 3.636 5.75 5.25 8.794l.726 1.36V16.91c-3.244-5.11-4.438-7.464-3.46-8.605.573-.668 1.63-.633 3.46.117V5.7l-.067-.048-.312.162c-.34.18-.68.364-1.014.552l-.85.49c-.29.17-.583.34-.87.517-.44.27-.87.548-1.3.83l-.385.247c-.57.383-1.133.78-1.687 1.186l-.038.028c.19.23.38.457.55.688zm2.825 11.2c.975 1.868 1.97 3.77 3.15 5.692V23.16c-.64-1.148-1.25-2.288-1.848-3.416-1.593-3-3.097-5.836-5.152-8.637-.164-.224-.35-.448-.537-.67l-.626.48-.396.323-.76.642c2.663 2.967 4.387 6.26 6.17 9.67zm-5.416 67.203l.012.01.385.313c.284.226.573.443.86.662-.422-.323-.843-.65-1.256-.985zM17 86.495v1.045l.188.165c.262.23.53.448.797.67-.32-.627-.656-1.254-.985-1.88z" fill="#B7844E"/><path d="M52 78.988c.627-.013 1.3-.037 1.993-.07L53 67h-1v11.988zm6-.315c.674-.05 1.334-.102 1.963-.153L59 66h-1v12.673zM71 65h-1v1l1.03 11.165.892-.174zm-6 0h-1l-.022 13.16.997-.1L65 67l.15-.03L65 65zM47.996 78.953L47 67h-1v11.878c.663.03 1.33.056 1.996.075zM28 76.91c.642.106 1.332.216 2.07.328L29 65h-1v11.91zM34 65v12.792c.545.07 1.105.14 1.676.208H36l-1-13h-1zm6 13.457c.65.06 1.306.116 1.97.168L41 66h-1v12.457z" fill="#C2C1BF"/><path fill="#DFDEDC" d="M27 24.745c-2.496-.428-4-.745-4-.745v52s1.505.316 4 .742V24.745z"/></svg>