<svg xmlns="http://www.w3.org/2000/svg" width="100" height="100" viewBox="0 0 100 100"><path fill="#2EA9D3" d="M50 0c27.614 0 50 22.386 50 50s-22.386 50-50 50S0 77.614 0 50 22.386 0 50 0zm0 0c27.614 0 50 22.386 50 50s-22.386 50-50 50S0 77.614 0 50 22.386 0 50 0z"/><path fill="#2998BD" d="M50 2C37.826 2 26.67 6.355 18 13.587V80l4-3 4 3 4-3 4 3 4-3 4 3 4-3 4 3 4-3 4 3 4-3 4 3 4-3 4 3 4-3 4 3V13.587C73.328 6.355 62.174 2 50 2z"/><path fill="#F2F1EF" d="M50 0C37.826 0 26.67 4.355 18 11.587V78l4-3 4 3 4-3 4 3 4-3 4 3 4-3 4 3 4-3 4 3 4-3 4 3 4-3 4 3 4-3 4 3V11.587C73.328 4.355 62.174 0 50 0z"/><path fill="#E4665C" d="M53.192 61.422v-1.646c.53.062.86.334 1.273.334.484 0 .79-.434.79-.916 0-.892-1.355-1.188-2.063-1.214v-.383c0-.335 0-.582-.318-.582s-.318.247-.318.582v.383c-1.402.16-2.534 1.2-2.534 2.786 0 1.77 1.415 2.093 2.534 2.438v2.068c-.684-.075-1.273-.47-1.78-.47-.483 0-.79.395-.79.878 0 1.064 1.615 1.337 2.57 1.36v.385c0 .285 0 .582.318.582s.318-.297.318-.582v-.396c1.475-.126 2.678-1.19 2.678-2.838 0-1.99-1.533-2.423-2.678-2.77zm-.636-.223c-.377-.15-.624-.336-.624-.657 0-.396.27-.656.624-.755v1.41zm.636 4.022v-1.807c.45.16.768.396.768.805 0 .483-.272.88-.768 1.003zm8.694.062H59.73c1.002-1.324 2.83-3.033 2.83-4.754 0-1.57-1.168-2.574-2.62-2.574-1.448 0-2.77 1.25-2.77 2.81 0 .483.295.904.86.904 1.133 0 .484-2.006 1.84-2.006.483 0 .85.446.85.954 0 .445-.2.83-.413 1.15-.896 1.362-1.958 2.477-2.937 3.702-.117.148-.27.372-.27.632 0 .57.4.816.918.816h3.938c.448 0 .85-.247.85-.816s-.4-.817-.92-.817zm6.666-3.17c.648-.433.967-1.113.967-1.894 0-.965-.815-2.265-2.514-2.265-1.31 0-2.57 1.04-2.57 2.006 0 .46.283.918.768.918.8 0 .648-1.214 1.768-1.214.53 0 .85.36.85.83 0 1.374-1.675.495-1.675 1.795 0 1.46 2.005.185 2.005 1.92 0 .654-.495 1.15-1.108 1.15-1.333 0-1.144-1.45-1.946-1.45-.425 0-.908.348-.908.83 0 .98 1.085 2.328 2.83 2.328 1.674 0 2.97-1.25 2.97-2.736-.002-.976-.59-1.806-1.44-2.214z"/><path fill="#D9D8D7" d="M28 48h44v2H28v-2z"/><path fill="#868686" d="M28 22.974h36v-3.997H28v3.997zm28 4.004H28v3.997h28v-3.997zM28 38.974h34v-3.996H28v3.996zM68 18.98V23h4v-4.02h-4zM68 31h4v-4.02h-4V31zm0 8h4v-4.02h-4V39z"/><path d="M37 1.717c-1.356.364-2.692.78-4 1.252V11h4V1.717zm4-.893c-.67.122-1.338.256-2 .405V11h2V.824zM31 3.747c-1.017.418-2.018.867-3 1.35V11h3V3.747zM46 .174c-1.008.08-2.01.186-3 .324V11h3V.174zM50 0c-.67 0-1.336.024-2 .05V11h2V0zm18 3.353c-.66-.255-1.327-.494-2-.722V11h2V3.353zm2 .82V11h2V5.096c-.658-.323-1.326-.63-2-.924zM56 .37c-1.318-.157-2.65-.267-4-.32V11h4V.37zm4 .632c-.66-.134-1.33-.25-2-.357V11h2V1.002zm4 1c-.66-.194-1.326-.377-2-.543V11h2V2z" fill="#E4665C"/></svg>