<svg xmlns="http://www.w3.org/2000/svg" width="100" height="100" viewBox="0 0 100 100"><path fill="#F4F0D3" d="M50 0c27.614 0 50 22.386 50 50s-22.386 50-50 50S0 77.614 0 50 22.386 0 50 0z"/><path fill="#D58953" d="M50 18c17.673 0 32 14.327 32 32 0 17.674-14.327 32-32 32S18 67.674 18 50c0-17.673 14.327-32 32-32z"/><path fill="#CA824F" d="M50 27c12.702 0 23 10.297 23 23 0 12.702-10.298 23-23 23S27 62.702 27 50c0-12.703 10.298-23 23-23z"/><path fill="#D99565" d="M69.683 30.297c7.02 7.03 9.68 17.874 7.69 27.716 3.463-9.95 1.367-21.272-6.378-29.03s-19.05-9.858-28.98-6.39c9.824-1.99 20.65.674 27.668 7.704z"/><path fill="#A2683F" d="M42 38c-2.21 0-4 1.79-4 4s1.79 4 4 4 4-1.79 4-4-1.79-4-4-4zm16 8c2.21 0 4-1.79 4-4s-1.79-4-4-4-4 1.79-4 4 1.79 4 4 4zm0 8c-2.21 0-4 1.79-4 4s1.79 4 4 4 4-1.79 4-4-1.79-4-4-4zm-16 0c-2.21 0-4 1.79-4 4s1.79 4 4 4 4-1.79 4-4-1.79-4-4-4z"/><path fill="#F4F0D3" d="M58.416 55.45l-13.86-13.862c-.81-.81-2.126-.81-2.937 0-.813.81-.813 2.126 0 2.937l13.86 13.86c.81.81 2.124.81 2.935 0 .81-.81.81-2.125 0-2.936z"/><path fill="#CBC8AF" d="M50.557 53.463l-4.02-4.02 2.936-2.938 4.02 4.02z"/><path fill="#F4F0D3" d="M41.615 55.45l13.86-13.862c.81-.81 2.126-.81 2.937 0 .81.81.81 2.126 0 2.937l-13.86 13.86c-.81.81-2.126.81-2.937 0-.81-.81-.81-2.125 0-2.936z"/><path fill="#BA7849" d="M52 71c-12.702 0-23-10.298-23-23 0-5.842 2.182-11.172 5.77-15.23C30.008 36.986 27 43.14 27 50c0 12.702 10.298 23 23 23 6.86 0 13.015-3.007 17.23-7.77C63.17 68.816 57.84 71 52 71z"/><path fill="#DBD8BD" d="M50 82c-17.673 0-32-14.326-32-32 0-8.328 3.183-15.91 8.396-21.604C20.008 34.246 16 42.656 16 52c0 17.674 14.327 32 32 32 9.346 0 17.753-4.008 23.604-10.396C65.91 78.817 58.328 82 50 82z"/></svg>