<svg xmlns="http://www.w3.org/2000/svg" width="100" height="100" viewBox="0 0 100 100"><path fill="#4681A0" d="M50 0c27.614 0 50 22.386 50 50s-22.386 50-50 50S0 77.614 0 50 22.386 0 50 0z"/><path fill="#fff" d="M64.01 63.75l-.02-1.5c.033 0 3.41-.07 6.716-1.76 4.342-2.217 6.544-6.083 6.544-11.49h1.5c0 14.396-14.593 14.748-14.74 14.75z"/><path fill="#3F7490" d="M65.01 64.75l-.02-1.5c.033 0 3.41-.07 6.716-1.76 4.342-2.217 6.544-6.083 6.544-11.49h1.5c0 14.396-14.593 14.748-14.74 14.75z"/><path fill="#D5D5D5" d="M79 45c1.656 0 3 1.344 3 3 0 1.657-1.344 3-3 3s-3-1.343-3-3c0-1.656 1.344-3 3-3z"/><path fill="#BDBDBD" d="M32 61h36c2.21 0 4 1.79 4 4v10c0 2.21-1.79 4-4 4H32c-2.21 0-4-1.79-4-4V65c0-2.21 1.79-4 4-4z"/><path fill="#3F7490" d="M48 21c12.15 0 22 9.85 22 22s-9.85 22-22 22-22-9.85-22-22 9.85-22 22-22z"/><path fill="#D5D5D5" d="M32 58h36c2.21 0 4 1.79 4 4v10c0 2.21-1.79 4-4 4H32c-2.21 0-4-1.79-4-4V62c0-2.21 1.79-4 4-4z"/><path fill="#BFBFBF" d="M32 58l-.08.008C35.937 62.308 41.653 65 48 65c6.352 0 12.07-2.695 16.087-7H32z"/><path fill="#A4A4A4" d="M32 61c-.552 0-1 .448-1 1 0 .553.448 1 1 1s1-.447 1-1c0-.552-.448-1-1-1zm36 2c.553 0 1-.447 1-1 0-.552-.447-1-1-1s-1 .448-1 1c0 .553.447 1 1 1zm0 8c-.553 0-1 .448-1 1 0 .553.447 1 1 1s1-.447 1-1c0-.552-.447-1-1-1zm-36 0c-.552 0-1 .448-1 1 0 .553.448 1 1 1s1-.447 1-1c0-.552-.448-1-1-1z"/><path fill="#F0C75E" d="M50 19c12.15 0 22 9.85 22 22s-9.85 22-22 22-22-9.85-22-22 9.85-22 22-22z"/><path fill="#D9B455" d="M49 39c1.656 0 3 1.344 3 3s-1.344 3-3 3c-1.657 0-3-1.344-3-3s1.343-3 3-3z"/><path fill="#F5D88F" d="M50 38c1.656 0 3 1.344 3 3s-1.344 3-3 3c-1.657 0-3-1.344-3-3s1.343-3 3-3z"/><path fill="#BABABA" d="M80 50c-1.656 0-3-1.343-3-3 0-.57.168-1.1.445-1.554C76.582 45.973 76 46.916 76 48c0 1.657 1.344 3 3 3 1.085 0 2.027-.582 2.555-1.446C81.1 49.832 80.57 50 80 50z"/><path fill="#F7E4B0" d="M50 38c-1.085 0-2.027.582-2.554 1.446C47.9 39.168 48.43 39 49 39c1.656 0 3 1.344 3 3 0 .57-.168 1.1-.445 1.554C52.418 43.027 53 42.084 53 41c0-1.656-1.344-3-3-3z"/><path fill="#DFB957" d="M53 58c-12.15 0-22-9.85-22-22 0-3.088.64-6.027 1.788-8.694C29.794 31.064 28 35.82 28 41c0 12.15 9.85 22 22 22 9.062 0 16.842-5.48 20.212-13.306C66.182 54.754 59.972 58 53 58z"/></svg>