<svg xmlns="http://www.w3.org/2000/svg" width="100" height="100" viewBox="0 0 100 100"><path fill="#E2574C" d="M50 0c27.614 0 50 22.386 50 50s-22.386 50-50 50S0 77.614 0 50 22.386 0 50 0z"/><path fill="#CB4E44" d="M78.604 9c-1.005-.703-2.034-1.372-3.092-2H63V1.717c-.66-.177-1.328-.337-2-.488V7H39V1.23c-.67.15-1.34.31-2 .487V7H24.488c-1.057.628-2.087 1.297-3.092 2H27v10H10.785c-.518.654-1.02 1.32-1.503 2H13v10H3.747c-.27.66-.534 1.326-.778 2H27v10H.498c-.093.664-.182 1.328-.25 2H13v10H.25c.067.672.156 1.337.25 2H27v10H2.97c.243.675.505 1.34.777 2H13v10H9.282c.484.68.985 1.347 1.503 2H27v10h-5.604c1.005.702 2.035 1.37 3.092 2H37v5.282c.66.178 1.33.338 2 .49V93h22v5.77c.672-.15 1.34-.31 2-.488V93h12.512c1.058-.63 2.087-1.298 3.092-2H77V81h12.215c.518-.653 1.02-1.32 1.503-2H87V69h9.253c.27-.66.534-1.325.778-2H77V57h22.502c.093-.663.182-1.328.248-2H87V45h12.75c-.066-.672-.155-1.336-.248-2H77V33h20.03c-.243-.674-.506-1.34-.777-2H87V21h3.718c-.484-.68-.985-1.346-1.503-2H77V9h1.604zM53 9h22v10H53V9zM39 69h22v10H39V69zm-10-2V57h22v10H29zm24 0V57h22v10H53zm8-12H39V45h22v10zM29 43V33h22v10H29zm24 0V33h22v10H53zm8-12H39V21h22v10zM29 9h22v10H29V9zM15 31V21h22v10H15zm0 24V45h22v10H15zm0 24V69h22v10H15zm36 12H29V81h22v10zm24 0H53V81h22v10zm10-22v10H63V69h22zm0-24v10H63V45h22zm0-24v10H63V21h22z"/><path fill="#C04A41" d="M45 36c11.598 0 21 9.402 21 21s-9.402 21-21 21-21-9.402-21-21 9.402-21 21-21z"/><path fill="#AD423A" d="M26.53 67c.376.693.8 1.356 1.25 2H37v7.413c.65.27 1.318.503 2 .706V69h22v1.583c.938-1.104 1.773-2.3 2.47-3.583H53V57h13c0-.675-.04-1.34-.1-2H63v-8.775c-.69-1.152-1.487-2.23-2.38-3.225H53v-5.413c-.65-.27-1.318-.502-2-.706V43H29.38c-.57.636-1.11 1.298-1.6 2H37v10H24.1c-.06.66-.1 1.325-.1 2h3v10h-.47zM39 45h22v10H39V45zM29 57h22v10H29V57z"/><path fill="#F1CF76" d="M60.69 1.158l-8.128 30.336 3.863 1.035 8.138-30.37c-1.27-.384-2.563-.716-3.873-1z"/><path fill="#F1ABA6" d="M88.264 39.895l-6.42-6.42-11.998 4.962 4.256 4.255-8.49 4.205 19.79.07-4.953-4.954 7.813-2.118zm-28.52 25.28l5.45 7.82-5.796 1.387 8.175 10.235 8.742-2.09-5.86-5.738 6.746-1.615-17.455-10.002zM30.93 29.855L20.556 21.95l-7.892 4.51 7.045 4.075-6.093 3.48L32.86 39.1l-7.163-6.26 5.232-2.987zM11.818 62.986l6.137 3.31-7.174 4 7.954 4.29 10.582-7.73-5.27-2.843 7.31-6.114-19.536 5.09z"/><path d="M54.818 23.074l-.54 2.015 4.145-.013.54-2.015zm-1.297 4.842l-.54 2.015 4.146-.01.54-2.014zm2.597-9.685l-.54 2.017 4.145-.01.54-2.015zm2.578-9.62l-.54 2.016 4.145-.01.538-2.015zm1.298-4.84l-.54 2.014 4.144-.01.54-2.016zm-2.578 9.62l-.54 2.015 4.144-.01.54-2.015z" fill="#DEBF6D"/><path d="M64.685 81h10.07l-2.042-2h-9.626zM29 58.514l-2 .52v2.51l2-1.674zm47.315 24.013L75 81.24v1.602zM29 38.083V35.73l-2-1.75v3.575zm56.402 8.884L85 46.564v.4zM77 35.48l-2 .826V43h-1.52l-4.04 2h13.996l-2-2H77zM13 71.494l2 1.08V69h11.382l2.738-2H29v-.312l-2-1.08V67H16.696L13 69.062zm0-44.836l2 1.155V25.13l-2 1.143zm12.7 6.185L28.925 31H18.903l-3.5 2h10.474zM61 74v2.387l2 2.505v-5.37zm.017-7L63 69.848V69h3.422l-3.49-2z" fill="#E5A7A2"/><path fill="#324D5B" d="M50 29c11.598 0 21 9.402 21 21s-9.402 21-21 21-21-9.402-21-21 9.402-21 21-21z"/><path fill="#3C5663" d="M60 42c1.105 0 2 .896 2 2s-.895 2-2 2c-1.104 0-2-.896-2-2s.896-2 2-2z"/><path fill="#2F4856" d="M53 67c-11.598 0-21-9.402-21-21 0-3.828 1.04-7.406 2.83-10.497C31.228 39.273 29 44.373 29 50c0 11.598 9.402 21 21 21 7.77 0 14.537-4.23 18.17-10.504C64.346 64.496 58.97 67 53 67z"/></svg>