<svg xmlns="http://www.w3.org/2000/svg" width="100" height="100" viewBox="0 0 100 100"><path fill="#EFC75E" d="M50 0c27.614 0 50 22.386 50 50s-22.386 50-50 50S0 77.614 0 50 22.386 0 50 0z"/><path fill="#324D5B" d="M27.717 38.077c-4.845 6.32-2.337 16.27.837 28.868 2.41 9.566 5.034 20.046 4.747 30.188 2.068.732 4.196 1.337 6.38 1.795.585-11.518-2.46-22.997-5.136-33.11-2.653-10.03-5.16-19.505-2.15-23.245 1.47-1.824 4.82-3.005 9.444-2.877l.165-6.688c-6.85-.18-11.53 1.477-14.285 5.07z"/><path fill="#2D4552" d="M35.3 96.133c.288-10.142-2.335-20.62-4.746-30.188-3.174-12.598-5.682-22.55-.837-28.868.84-1.095 1.883-1.99 3.088-2.727-2.115.843-3.816 2.07-5.088 3.727-4.845 6.32-2.337 16.27.837 28.868 2.41 9.566 5.034 20.046 4.747 30.188 2.068.732 4.196 1.337 6.38 1.795.024-.493.034-.986.046-1.48-1.5-.38-2.982-.804-4.424-1.315z"/><path fill="#E2574C" d="M56 48.73V43c0-3.313-2.687-6-6-6s-6 2.687-6 6v5.73C33.092 51.418 25 61.263 25 73v20.294C32.355 97.55 40.89 100 50 100s17.644-2.45 25-6.706V73c0-11.737-8.092-21.582-19-24.27z"/><path fill="#CB4E44" d="M48 48.087v-4.26c-1.92-.34-3.39-1.153-3.846-2.16-.097.43-.154.874-.154 1.333v5.73C33.092 51.418 25 61.263 25 73v20.294c1.924 1.113 3.926 2.105 6 2.96V73c0-12.79 9.61-23.33 22-24.814-.984-.118-1.984-.186-3-.186-.674 0-1.34.034-2 .087z"/><path fill="#4681A0" d="M54.5 33h20c1.933 0 3.5 1.567 3.5 3.5 0 1.934-1.567 3.5-3.5 3.5h-20c-1.933 0-3.5-1.566-3.5-3.5 0-1.933 1.567-3.5 3.5-3.5zm-4.976-.598l20.93-12c1.445-.83 3.293-.337 4.127 1.098s.34 3.27-1.103 4.098l-20.93 12c-1.445.83-3.293.337-4.127-1.098s-.34-3.27 1.104-4.098z"/><path fill="#3F7490" d="M74.573 21.49c-.257.443-.62.834-1.098 1.108l-20.93 12c-1.44.826-3.282.338-4.12-1.087-.517.898-.564 2.03-.007 2.99.834 1.436 2.682 1.928 4.127 1.1l20.93-12c1.444-.83 1.94-2.665 1.105-4.1l-.007-.01zM74.5 37h-20c-1.394 0-2.587-.82-3.15-2-.218.456-.35.96-.35 1.5 0 1.934 1.567 3.5 3.5 3.5h20c1.933 0 3.5-1.566 3.5-3.5 0-.54-.132-1.044-.35-1.5-.563 1.18-1.756 2-3.15 2z"/><path fill="#fff" d="M50 26c5.522 0 10 4.478 10 10 0 5.523-4.478 10-10 10-5.523 0-10-4.477-10-10 0-5.522 4.477-10 10-10z"/><path fill="#EDEDED" d="M53.58 78.444C61.23 66.256 48.227 61 48.227 61c1.72 2.03.976 6.215-4.134 11.2-9.743 11.292 6.62 15.798 6.62 15.798-1.71-5.04 1.56-7.483 2.87-9.554zm3.828-7.44c.673 1.278-.71 6.632-2.73 9.068-3.748 4.534-2.56 6.83-2.27 7.898.036-.103.49-.603 3.985-3.05 7.466-5.212 1.015-13.916 1.015-13.916z"/><path fill="#324D5B" d="M52.478 32.158c.492.318.666 1.013.388 1.552l-2.858 6.484c-.14.603-.7.956-1.247.788-.546-.167-.875-.79-.734-1.395l3.06-7.03c.275-.537.9-.716 1.393-.4z"/><path fill="#CCD0D2" d="M50 38c3.313 0 6 1.344 6 3 0 1.657-2.687 3-6 3s-6-1.343-6-3c0-1.656 2.687-3 6-3z"/><path fill="#EDEDED" d="M50 28.5c4.136 0 7.5 3.364 7.5 7.5s-3.364 7.5-7.5 7.5-7.5-3.364-7.5-7.5 3.364-7.5 7.5-7.5m0-2.5c-5.523 0-10 4.478-10 10 0 5.523 4.477 10 10 10 5.522 0 10-4.477 10-10 0-5.522-4.478-10-10-10z"/></svg>