<svg xmlns="http://www.w3.org/2000/svg" width="100" height="100" viewBox="0 0 100 100"><path fill="#EDEDED" d="M50 0C22.387 0 0 22.386 0 50s22.387 50 50 50c27.614 0 50-22.386 50-50S77.614 0 50 0z"/><path fill="#E8B873" d="M48 54h4c1.104 0 2 .895 2 2v28c0 1.103-.896 2-2 2h-4c-1.104 0-2-.897-2-2V56c0-1.105.896-2 2-2z"/><path fill="#D0A567" d="M46 70h8l-8 8v-8z"/><path fill="#EFC75E" d="M62 70H38c-3.313 0-6-2.687-6-6V28c0-6.628 5.373-12 12-12h12c6.627 0 12 5.372 12 12v36c0 3.313-2.687 6-6 6z"/><path fill="#E2574C" d="M32 61v3c0 3.313 2.687 6 6 6h24c3.313 0 6-2.687 6-6V43H32v18z"/><path fill="#CBA950" d="M43.5 26c-1.934 0-3.5 1.565-3.5 3.5v29c0 1.933 1.566 3.5 3.5 3.5s3.5-1.567 3.5-3.5v-29c0-1.935-1.566-3.5-3.5-3.5zm13 0c-1.934 0-3.5 1.565-3.5 3.5v29c0 1.933 1.566 3.5 3.5 3.5s3.5-1.567 3.5-3.5v-29c0-1.935-1.566-3.5-3.5-3.5z"/><path d="M43.5 62c1.934 0 3.5-1.567 3.5-3.5V43h-7v15.5c0 1.933 1.566 3.5 3.5 3.5zM53 43v15.5c0 1.933 1.566 3.5 3.5 3.5s3.5-1.567 3.5-3.5V43h-7z" fill="#C04A41"/></svg>