<svg xmlns="http://www.w3.org/2000/svg" width="100" height="100" viewBox="0 0 100 100"><path fill="#324D5B" d="M50 0c27.614 0 50 22.386 50 50 0 27.615-22.386 50-50 50S0 77.615 0 50C0 22.387 22.386 0 50 0z"/><path fill="#EDEDED" d="M52 .05C51.336.026 50.67 0 50 0s-1.335.024-2 .05V30h4V.05z"/><path fill="#CACACA" d="M48 30h2V0c-.67 0-1.335.024-2 .05V30z"/><path fill="#5B717C" d="M89.816 80.235L77.626 54h-55.19L10.2 80.257C19.335 92.252 33.76 100 50 100c16.25 0 30.684-7.757 39.816-19.765z"/><path fill="#3DB39E" d="M49.988 66.01c-13.966 0-28.997-3.784-28.997-12.094 0-15.402 13.01-27.932 29-27.932 15.987 0 28.995 12.53 28.995 27.932 0 8.31-15.03 12.094-28.996 12.094z"/><path fill="#37A18E" d="M30.99 51.916c0 8.31 15.032 12.094 28.998 12.094 2.757 0 5.55-.153 8.268-.453-5.292 1.652-11.883 2.453-18.268 2.453-13.966 0-28.997-3.784-28.997-12.094 0-15.142 12.575-27.498 28.19-27.912-10.65 4.137-18.19 14.19-18.19 25.912z"/><path fill="#F4F0D3" d="M78.562 56.23c-2.586-4.947-16-7.222-28.557-7.222-12.588 0-26.034 2.285-28.577 7.253 2.55 6.68 15.984 9.75 28.56 9.75 12.596 0 26.056-3.08 28.574-9.78z"/><path fill="#E6E2C7" d="M50.005 49.007c-12.588 0-26.034 2.285-28.577 7.253l.065.147c5.26-2.997 15.648-4.4 25.512-4.4 12.558 0 25.97 2.274 28.557 7.22-.165.44-.38.86-.634 1.27 1.748-1.213 3.02-2.632 3.634-4.27-2.586-4.945-16-7.22-28.557-7.22z"/><path fill="#EFC75E" d="M50 59c-4.97 0-9-4.03-9-9 0-.2.03-.394.043-.59 2.934-.265 5.97-.402 8.962-.402 2.99 0 6.022.138 8.952.4.014.197.043.39.043.592 0 4.97-4.03 9-9 9z"/><path fill="#E3BD59" d="M53 57c-4.562 0-8.32-3.396-8.91-7.796-1.02.06-2.044.114-3.047.205-.014.195-.043.39-.043.59 0 4.97 4.03 9 9 9 2.5 0 4.76-1.02 6.392-2.667-1.047.426-2.19.666-3.392.666z"/></svg>