<svg xmlns="http://www.w3.org/2000/svg" width="100" height="100" viewBox="0 0 100 100"><path fill="#EFC75E" d="M50 0c27.614 0 50 22.386 50 50s-22.386 50-50 50S0 77.614 0 50 22.386 0 50 0z"/><path fill="#E2574C" d="M72 40H28c-5.522 0-10 4.478-10 10v38.413C26.67 95.645 37.826 100 50 100s23.328-4.355 32-11.587V50c0-5.522-4.478-10-10-10z"/><path fill="#CB4E44" d="M25 51v42.294c.98.567 1.98 1.108 3 1.61V51c0-2.21 1.79-4 4-4h-3c-2.21 0-4 1.79-4 4z"/><path fill="#F19088" d="M71 46H29c-2.757 0-5 2.243-5 5v41.715c.656.4 1.324.784 2 1.154V51c0-1.654 1.346-3 3-3h42c1.654 0 3 1.346 3 3v42.87c.676-.37 1.344-.755 2-1.155V51c0-2.757-2.243-5-5-5z"/><path fill="#CB4E44" d="M18 50v38.413c.968.808 1.972 1.57 3 2.305V50c0-5.522 4.478-10 10-10h-3c-5.522 0-10 4.478-10 10z"/><path fill="#F1ABA6" d="M34.5 55h31c.828 0 1.5.672 1.5 1.5s-.672 1.5-1.5 1.5h-31c-.828 0-1.5-.672-1.5-1.5s.672-1.5 1.5-1.5z"/><path fill="#324D5B" d="M68.5 28H63v12h-3V28H40v12h-3V28h-5.5c-1.38 0-2.5-1.12-2.5-2.5s1.12-2.5 2.5-2.5h37c1.38 0 2.5 1.12 2.5 2.5S69.88 28 68.5 28z"/><path fill="#F2F1EF" d="M58.664 69.334c-.77-.77-2.7-.088-3.625.836l-3.517 3.52c-.343-.32-8.883-3.364-9.19-3.06l-1.113 1.114c-.307.307-.307.805 0 1.112l6.243 4.896-2.46 2.46c-.187.19-.422.478-.67.82l-.1-.1c-.155-.155-2.397-.438-2.554-.282l-.57.566c-.156.157-.156.41 0 .566l.28.28 1.5 1.498c-.297.742-.406 1.386-.12 1.674.29.288.934.178 1.677-.122l1.48 1.478.294.293c.157.157.41.157.568 0l.567-.566c.156-.156-.127-2.394-.284-2.55l-.096-.097c.34-.247.627-.48.813-.667l2.46-2.462 4.897 6.224c.308.307.807.307 1.114 0l1.115-1.112c.308-.307-2.747-8.845-3.062-9.176l3.513-3.515c.926-.923 1.61-2.855.84-3.625z"/><path d="M37 28h3v3h-3zm23 0h3v3h-3z" fill="#233640"/><path fill="#2D4552" d="M70.95 26h-41.9c.232 1.14 1.24 2 2.45 2h37c1.21 0 2.218-.86 2.45-2z"/></svg>