<svg xmlns="http://www.w3.org/2000/svg" width="100" height="100" viewBox="0 0 100 100"><path fill="#2EA9D3" d="M50 0c27.614 0 50 22.386 50 50s-22.386 50-50 50S0 77.614 0 50 22.386 0 50 0z"/><path fill="#2998BD" d="M94.904 72H5.096c8.14 16.582 25.186 28 44.904 28s36.765-11.418 44.904-28z"/><path fill="#324D5B" d="M72 84h-2s-1.03-.287-1.03-1.034c0-2.25-2.165-3.966-4.47-3.966h-29c-2.314 0-4.473 1.734-4.473 3.996C31.027 83.72 30 84 30 84h-2c-.553 0-1-.447-1-1v-9h46v9c0 .553-.447 1-1 1zM43 17h6v3h-6v-3z"/><path fill="#F2F1EF" d="M42 15h8c.553 0 1 .447 1 1s-.447 1-1 1h-8c-.553 0-1-.447-1-1s.447-1 1-1z"/><path fill="#324D5B" d="M45 50h2c1.656 0 3 1.344 3 3s-1.344 3-3 3h-2c-1.656 0-3-1.344-3-3s1.344-3 3-3z"/><path fill="#F2F1EF" d="M63.537 70.014c.493-.434.986-.88 1.438-1.336 4.31-4.387 7.012-10.445 7.012-17.125 0-3.16-.62-6.2-1.715-8.99-4.703-10.59-12.896-13.477-16.26-14.56.04.104-.08 5.778 0 5.833 1.288 1.52 7.715 3.19 10.984 10.865.837 2.097 1.287 4.42 1.287 6.854 0 2.878-.644 5.604-1.802 8.047l-2.164 3.444c-.43.542-.88 1.074-1.372 1.552-3.282 3.345-7.85 5.42-12.89 5.42h-.063H63.54zM26 69h48c1.657 0 3 1.344 3 3s-1.343 3-3 3H26c-1.656 0-3-1.344-3-3s1.344-3 3-3zm13-49h14c1.104 0 2 .896 2 2v29c0 1.104-.896 2-2 2H39c-1.104 0-2-.896-2-2V22c0-1.104.896-2 2-2z"/><path fill="#D9D8D7" d="M39 20c-1.104 0-2 .896-2 2v29c0 1.104.896 2 2 2h7V20h-7z"/><path fill="#fff" d="M54.5 26c3.037 0 5.5 2.463 5.5 5.5S57.537 37 54.5 37 49 34.537 49 31.5s2.463-5.5 5.5-5.5z"/><path fill="#324D5B" d="M54.5 28c1.93 0 3.5 1.57 3.5 3.5S56.43 35 54.5 35 51 33.43 51 31.5s1.57-3.5 3.5-3.5m0-2c-3.037 0-5.5 2.463-5.5 5.5s2.463 5.5 5.5 5.5 5.5-2.463 5.5-5.5-2.463-5.5-5.5-5.5z"/><path fill="#D9D8D7" d="M74 73H26c-1.304 0-2.403-.838-2.816-2-.112.314-.184.647-.184 1 0 1.656 1.344 3 3 3h48c1.657 0 3-1.344 3-3 0-.353-.072-.686-.184-1-.413 1.162-1.51 2-2.816 2zM53 48H39c-1.104 0-2-.896-2-2v5c0 1.104.896 2 2 2h14c1.104 0 2-.896 2-2v-5c0 1.104-.896 2-2 2z"/><path fill="#C3C2C1" d="M39 48c-1.104 0-2-.896-2-2v5c0 1.104.896 2 2 2h7v-5h-7z"/></svg>