<svg xmlns="http://www.w3.org/2000/svg" width="100" height="100" viewBox="0 0 100 100"><path fill="#EFC75E" d="M50 0c27.614 0 50 22.386 50 50s-22.386 50-50 50S0 77.614 0 50 22.386 0 50 0z"/><path fill="#2B414D" d="M76 27H29c-3.866 0-7 3.135-7 7v57.43c7.99 5.41 17.625 8.57 28 8.57 12.65 0 24.193-4.707 33-12.453V34c0-3.865-3.134-7-7-7z"/><path fill="#CCD0D2" d="M74 27H27c-3.866 0-7 3.135-7 7v56c8.357 6.278 18.743 10 30 10 11.714 0 22.478-4.04 31-10.785V34c0-3.865-3.134-7-7-7z"/><path fill="#324D5B" d="M71 25H25c-3.866 0-7 3.134-7 7v56.413C26.67 95.645 37.826 100 50 100c10.375 0 20.01-3.16 28-8.57V32c0-3.866-3.134-7-7-7z"/><path fill="#2D4552" d="M18 32v56.413c.968.808 1.972 1.57 3 2.305v-58.72c0-3.864 3.134-7 7-7h-3c-3.866 0-7 3.136-7 7z"/><path fill="#99A6AD" d="M53.077 65.132h4.135c-1.61-2.124-4.045-3.84-6.89-4.48 1.102 1.275 2.06 2.817 2.755 4.48m1.438 6.702h5.15c-.103-1.948-.666-3.774-1.58-5.375l-4.51.005c.55 1.672.877 3.478.94 5.368m-.94 6.694l4.51.006c.914-1.6 1.477-3.426 1.58-5.374h-5.15c-.063 1.89-.39 3.696-.94 5.367m-.498 1.335c-.696 1.662-1.653 3.203-2.754 4.48 2.844-.643 5.278-2.358 6.89-4.48h-4.136zm-1.433 0H48.16v4.796c1.42-1.268 2.617-2.906 3.484-4.797m1.553-6.702H48.16v5.374h4.02c.598-1.678.95-3.48 1.017-5.374m-1.018-6.7h-4.02v5.375h5.036c-.066-1.894-.42-3.697-1.018-5.374m-.536-1.33c-.866-1.89-2.063-3.53-3.483-4.796v4.797h3.483zm-8.284 0h3.482v-4.796c-1.418 1.268-2.616 2.906-3.482 4.797m-1.553 6.703h5.036V66.46h-4.02c-.596 1.678-.95 3.48-1.015 5.374m1.017 6.7h4.02V73.16h-5.037c.066 1.894.42 3.696 1.017 5.373m.536 1.33c.865 1.89 2.063 3.528 3.482 4.796V79.86h-3.48zm-1.433 0H37.79c1.61 2.122 4.045 3.838 6.89 4.48-1.102-1.277-2.06-2.818-2.755-4.48M40.49 73.16h-5.152c.104 1.947.666 3.774 1.58 5.374l4.51-.006c-.55-1.67-.876-3.478-.94-5.368m.94-6.694l-4.51-.006c-.914 1.6-1.476 3.427-1.58 5.375h5.15c.064-1.89.39-3.697.94-5.37m-3.636-1.333h4.135c.695-1.663 1.653-3.205 2.755-4.48-2.845.64-5.28 2.356-6.89 4.48m-3.79 7.365c0-7.452 6.045-13.494 13.5-13.494S61 65.045 61 72.497c0 7.453-6.044 13.495-13.498 13.495-7.455 0-13.5-6.042-13.5-13.495"/><path fill="#99A6AD" d="M68 38H28c-.553 0-1 .447-1 1v2c0 .552.447 1 1 1h40c.553 0 1-.448 1-1v-2c0-.553-.447-1-1-1zm-5 8H33c-.553 0-1 .446-1 1v2c0 .552.447 1 1 1h30c.553 0 1-.448 1-1v-2c0-.554-.447-1-1-1z"/></svg>