<svg xmlns="http://www.w3.org/2000/svg" width="100" height="100" viewBox="0 0 100 100"><path fill="#324D5B" d="M50 0c27.614 0 50 22.386 50 50s-22.386 50-50 50S0 77.614 0 50 22.386 0 50 0z"/><path fill="#2B424D" d="M21 25v52h71.073C97.083 69.21 100 59.95 100 50c0-9.11-2.45-17.644-6.706-25H21z"/><path fill="#ECF0F1" d="M21 23v52h72.294C97.55 67.644 100 59.11 100 50c0-9.95-2.918-19.21-7.927-27H21z"/><path fill="#BFBFBF" d="M39.017 62.01h19.98v2.982h-19.98v-2.98z"/><path fill="#26A6D1" d="M79.018 51.014h3.98v3.98h-3.98v-3.98z"/><path fill="#F4B459" d="M79.018 56.014h3.98v3.98h-3.98v-3.98z"/><path fill="#E2574C" d="M79.018 61.014h3.98v3.98h-3.98v-3.98z"/><path fill="#BFBFBF" d="M79.018 32.01v2.982h11.98v-2.98h-11.98zm0 7.92h11.98v-2.92h-11.98v2.92zm7.978 2.08h-7.98v2.92h7.98v-2.92zM83.97 54.996h6.053v-3.98H83.97v3.98zm0 5h6.053v-3.98H83.97v3.98zm0 5h6.053v-3.98H83.97v3.98z"/><path fill="#26A6D1" d="M48 32.988c-5.605.508-10 5.233-10 10.995S42.395 54.47 48 54.98V32.987z"/><path fill="#E2574C" d="M50 44.99v9.99c5.298-.477 9.514-4.693 9.99-9.99H50z"/><path fill="#F4B459" d="M50 43.01V32.988c5.298.48 9.514 4.71 9.99 10.023H50z"/><path fill="#576E79" d="M92.073 23c-3.33-5.18-7.584-9.704-12.538-13.337L21 23h71.073z"/><path fill="#233640" d="M28.334 85.8c-.622-.757-.622-.757-.205-3.563.71-3.14 1.354-1.19 2.372-7.457.854-5.262-.968-9.783-6.503-9.783s-7.358 4.52-6.504 9.783c1.018 6.266 1.662 4.316 2.374 7.457.418 2.807.418 2.807-.204 3.562-.585.71-1.54 1.26-2.696 1.72 4.634 4.083 10.024 7.33 15.942 9.48H45s-.493-2.994-.6-3.535c-.888-4.572-13.118-4.087-16.066-7.667z"/><path fill="#44545C" d="M21 65.996c5.535 0 7.357 4.52 6.503 9.783-1.017 6.264-1.662 4.314-2.374 7.455-.42 2.807-.42 2.807.203 3.562 2.948 3.58 15.178 3.095 16.067 7.667.066.335.28 1.612.434 2.535H45s-.493-2.995-.6-3.536c-.888-4.572-13.118-4.087-16.066-7.667-.622-.756-.622-.756-.205-3.562.71-3.14 1.354-1.19 2.372-7.457.854-5.263-.968-9.784-6.503-9.784-1.596 0-2.873.385-3.876 1.046.282-.026.57-.046.875-.046z"/><path fill="#233640" d="M79.51 84.898c-.504-.613-.504-.613-.167-2.895.576-2.552 1.1-.967 1.92-6.06.693-4.273-.782-7.947-5.263-7.947s-5.955 3.674-5.264 7.948c.822 5.092 1.345 3.507 1.92 6.06.338 2.28.338 2.28-.165 2.894-2.384 2.91-12.284 2.516-13.005 6.23C59.4 91.568 59 94 59 94l7.53 3.19c6.413-2.247 12.233-5.754 17.15-10.24-1.802-.503-3.39-1.1-4.17-2.052z"/><path fill="#44545C" d="M69.894 86.45c-2.954 1.073-7.22 1.574-9.268 3.073 2.983-1.083 7.265-1.578 9.268-3.073zm9.615-1.552c-.505-.613-.505-.613-.168-2.895.576-2.552 1.1-.967 1.92-6.06.693-4.273-.782-7.947-5.263-7.947-1.534 0-2.707.438-3.57 1.175.477-.11.998-.173 1.57-.173 4.48 0 5.955 3.674 5.263 7.948-.822 5.092-1.345 3.507-1.92 6.06-.338 2.28-.338 2.28.165 2.894.872 1.063 2.753 1.685 4.82 2.23.455-.39.91-.776 1.352-1.18-1.804-.502-3.393-1.1-4.173-2.05z"/><path fill="#233640" d="M32.666 96.91C38.066 98.906 43.906 100 50 100c7.72 0 15.027-1.752 21.555-4.875-4.135-1.032-8.038-2.157-9.76-4.228-.902-1.086-.902-1.086-.297-5.12 1.033-4.516 1.97-1.713 3.447-10.72 1.24-7.563-1.407-14.063-9.445-14.063s-10.685 6.5-9.445 14.064c1.478 9.006 2.414 6.203 3.447 10.72.605 4.033.605 4.033-.297 5.12-2.68 3.222-10.642 4.154-16.54 6.012z"/><path fill="#44545C" d="M61.795 90.897c-.902-1.086-.902-1.086-.297-5.12 1.033-4.516 1.97-1.713 3.447-10.72 1.24-7.563-1.407-14.063-9.445-14.063-2.055 0-3.752.43-5.128 1.188.667-.112 1.365-.188 2.128-.188 8.038 0 10.686 6.5 9.445 14.064-1.48 9.006-2.414 6.203-3.447 10.72-.605 4.033-.605 4.033.297 5.12 1.787 2.148 5.925 3.278 10.232 4.344.854-.352 1.698-.72 2.527-1.117-4.134-1.032-8.037-2.157-9.76-4.228z"/></svg>