<svg xmlns="http://www.w3.org/2000/svg" width="100" height="100" viewBox="0 0 100 100"><path fill="#E2574C" d="M50 0c27.614 0 50 22.386 50 50s-22.386 50-50 50S0 77.614 0 50 22.386 0 50 0z"/><path fill="#DADFE1" d="M85 72H15v13.695C24.02 94.54 36.37 100 50 100s25.98-5.46 35-14.305V72zm0-17H15l.002 19.217c0 3.746 6.366 6.782 14.22 6.782h39.372c9.062 0 16.404-3.505 16.404-7.827C84.998 82.55 85 55 85 55zm0-13H15s.002 23.55.002 15.217c0 3.746 6.082 6.782 13.583 6.782H67.86C77.328 64 85 60.494 85 56.172V42z"/><path d="M75 93.294c3.65-2.112 7.01-4.667 10-7.6V41H75v52.294zm-60-7.6c2.99 2.933 6.35 5.487 10 7.6V43H15v42.694z" fill="#E1E5E7"/><path fill="#F2F1EF" d="M71.688 33.497c-.96-4.76-9.27-8.497-19.5-8.497-7.917 0-14.695 2.023-17.82 5.24-.94-.144-1.92-.242-2.958-.242-5.437 0-9.844 2.322-9.844 4.914 0 .516.122 1.315.444 1.778-4.228 1.176-7.007 3.022-7.007 5.525 0 3.746 6.366 6.782 14.22 6.782V49h39.372C77.657 49 85 45.495 85 41.172c-.002-3.816-5.733-6.985-13.312-7.676z"/><path fill="#9ECEC7" d="M53.5 54c-.828 0-1.5.672-1.5 1.5s.672 1.5 1.5 1.5 1.5-.672 1.5-1.5-.672-1.5-1.5-1.5zm0 17c-.828 0-1.5.672-1.5 1.5s.672 1.5 1.5 1.5 1.5-.672 1.5-1.5-.672-1.5-1.5-1.5zm12 17c-.828 0-1.5.672-1.5 1.5s.672 1.5 1.5 1.5 1.5-.672 1.5-1.5-.672-1.5-1.5-1.5zm-12 0c-.828 0-1.5.672-1.5 1.5s.672 1.5 1.5 1.5 1.5-.672 1.5-1.5-.672-1.5-1.5-1.5z"/><path fill="#3DB39E" d="M59.5 54c-.828 0-1.5.672-1.5 1.5s.672 1.5 1.5 1.5 1.5-.672 1.5-1.5-.672-1.5-1.5-1.5zm6 3c.828 0 1.5-.672 1.5-1.5s-.672-1.5-1.5-1.5-1.5.672-1.5 1.5.672 1.5 1.5 1.5zm-6 14c-.828 0-1.5.672-1.5 1.5s.672 1.5 1.5 1.5 1.5-.672 1.5-1.5-.672-1.5-1.5-1.5zm6 0c-.828 0-1.5.672-1.5 1.5s.672 1.5 1.5 1.5 1.5-.672 1.5-1.5-.672-1.5-1.5-1.5zm-6 17c-.828 0-1.5.672-1.5 1.5s.672 1.5 1.5 1.5 1.5-.672 1.5-1.5-.672-1.5-1.5-1.5z"/><path fill="#C4C8CA" d="M45 53H30c-.552 0-1 .447-1 1v1c0 .553.448 1 1 1h15c.552 0 1-.447 1-1v-1c0-.553-.448-1-1-1zm0 4H30c-.552 0-1 .447-1 1v1c0 .553.448 1 1 1h15c.552 0 1-.447 1-1v-1c0-.553-.448-1-1-1zm0 13H30c-.552 0-1 .447-1 1v1c0 .553.448 1 1 1h15c.552 0 1-.447 1-1v-1c0-.553-.448-1-1-1zm0 4H30c-.552 0-1 .447-1 1v1c0 .553.448 1 1 1h15c.552 0 1-.447 1-1v-1c0-.553-.448-1-1-1zm0 13H30c-.552 0-1 .447-1 1v1c0 .553.448 1 1 1h15c.552 0 1-.447 1-1v-1c0-.553-.448-1-1-1zm0 4H30c-.552 0-1 .447-1 1v1c0 .553.448 1 1 1h15c.552 0 1-.447 1-1v-1c0-.553-.448-1-1-1z"/><path fill="#CECDCB" d="M50 32c-5.523 0-10 1.976-10 5s4.477 5 10 5 10-2.238 10-5c0-2.76-4.477-5-10-5zm4.916 3.845l-5.716 3.13c-.238.13-.56.175-.87.155-.35.05-.737.01-1.01-.142l-2.252-1.232c-.414-.226-.414-.592 0-.818.413-.226 1.083-.226 1.496 0l1.687.924 5.176-2.832c.412-.226 1.08-.226 1.49 0 .413.224.413.59 0 .815z"/><path fill="#AEB2B4" d="M85 72l-.002 3.12v-1.946c0 4.322-7.342 7.825-16.404 7.825H29.22c-7.852 0-14.218-3.038-14.218-6.784v1.57V72H15v5.86c2.47 2.794 7.773 4.64 14.22 4.64h39.374c7.436 0 13.668-2.25 16.406-5.54V72zm0-17l-.002 3.38v-2.206c0 4.322-7.67 7.825-17.14 7.825H28.585C21.085 64 15 60.96 15 57.215V59v-4 5.865c2.417 2.765 7.527 4.634 13.584 4.634H67.86c7.896 0 14.346-2.218 17.14-5.538V55z"/><path d="M84.998 58.38v-2.206c0 3.157-4.102 5.87-9.998 7.107v1.557c4.548-.892 8.11-2.63 10-4.873V55l-.002 3.38zM25 65.27v-1.517c-5.76-.786-9.998-3.41-9.998-6.536v1.707V55H15v5.865c1.922 2.198 5.55 3.826 10 4.404zm59.998 9.626v-1.722c0 3.238-4.12 6.016-9.998 7.206v1.522c4.507-.876 8.098-2.658 10-4.943V72l-.002 2.896zM25 82.216v-1.52c-5.792-.858-9.998-3.435-9.998-6.48v1.5V72H15v5.86c1.905 2.156 5.5 3.74 10 4.356z" fill="#BFC2C4"/></svg>