<svg xmlns="http://www.w3.org/2000/svg" width="100" height="100" viewBox="0 0 100 100"><path fill="#4681A0" d="M50 0c27.614 0 50 22.386 50 50s-22.386 50-50 50S0 77.614 0 50 22.386 0 50 0z"/><path fill="#3F7490" d="M65 87h1c1.656 0 3-1.343 3-3v-2.46c4.057-1.273 7-5.062 7-9.54V28c0-4.478-2.943-8.266-7-9.54V16c0-1.657-1.344-3-3-3h-1V2.292C60.265.805 55.227 0 50 0c-6.73 0-13.14 1.337-19 3.747V13h-1c-1.656 0-3 1.343-3 3v2.46c-4.057 1.274-7 5.062-7 9.54v44c0 4.478 2.943 8.267 7 9.54V84c0 1.657 1.344 3 3 3h1v9.253C36.86 98.663 43.27 100 50 100c5.227 0 10.265-.805 15-2.292V87zm0-72h1c.55 0 1 .45 1 1v2.05c-.33-.032-.662-.05-1-.05h-1v-3zm0 67h1c.338 0 .67-.018 1-.05V84c0 .552-.45 1-1 1h-1v-3zm-34 3h-1c-.55 0-1-.448-1-1v-2.05c.33.032.662.05 1 .05h1v3zm0-67h-1c-.338 0-.67.018-1 .05V16c0-.55.45-1 1-1h1v3z"/><path fill="#CCD0D2" d="M68 15c.55 0 1 .45 1 1v68c0 .552-.45 1-1 1H32c-.55 0-1-.448-1-1V16c0-.55.45-1 1-1h36m0-2H32c-1.656 0-3 1.343-3 3v68c0 1.657 1.344 3 3 3h36c1.656 0 3-1.343 3-3V16c0-1.657-1.344-3-3-3z"/><path fill="#EFC75E" d="M67 2.97C61.692 1.05 55.97 0 50 0c-5.97 0-11.692 1.05-17 2.97v94.06c5.308 1.92 11.03 2.97 17 2.97 5.97 0 11.692-1.05 17-2.97V2.97z"/><path fill="#E3BD59" d="M33 2.97v94.06c5.308 1.92 11.03 2.97 17 2.97V0c-5.97 0-11.692 1.05-17 2.97z"/><path fill="#EDEDED" d="M32 18h36c5.523 0 10 4.478 10 10v44c0 5.523-4.477 10-10 10H32c-5.523 0-10-4.477-10-10V28c0-5.522 4.477-10 10-10z"/><path fill="#E1E1E1" d="M32 18c-5.523 0-10 4.478-10 10v44c0 5.523 4.477 10 10 10h18V18H32z"/><path fill="#324D5B" d="M32 21h36c3.866 0 7 3.134 7 7v44c0 3.866-3.134 7-7 7H32c-3.866 0-7-3.134-7-7V28c0-3.866 3.134-7 7-7z"/><path fill="#2F4956" d="M50 21H32c-3.866 0-7 3.134-7 7v44c0 3.866 3.134 7 7 7h18V21z"/><circle fill="#EDEDED" cx="50" cy="51" r="6"/><circle fill="#93D3E8" cx="62.5" cy="43.5" r="4.5"/><circle fill="#3DB39E" cx="37.5" cy="43.5" r="4.5"/><circle fill="#E2574C" cx="50" cy="37" r="5"/><circle fill="#26A6D1" cx="62.5" cy="56.5" r="4.5"/><circle fill="#93D3E8" cx="37.5" cy="56.5" r="4.5"/><circle fill="#EFC75E" cx="50" cy="65" r="5"/><circle fill="#EFC75E" cx="61" cy="33" r="3"/><circle fill="#26A6D1" cx="39" cy="33" r="3"/><circle fill="#3DB39E" cx="61" cy="67" r="3"/><circle fill="#E2574C" cx="39" cy="67" r="3"/><path fill="#2A424D" d="M28 72V28c0-3.866 3.134-7 7-7h-3c-3.866 0-7 3.134-7 7v44c0 3.866 3.134 7 7 7h3c-3.866 0-7-3.134-7-7z"/></svg>