<svg xmlns="http://www.w3.org/2000/svg" width="100" height="100" viewBox="0 0 100 100"><path fill="#EFC75E" d="M50 0c27.614 0 50 22.386 50 50s-22.386 50-50 50S0 77.614 0 50 22.386 0 50 0z"/><path fill="#324D5B" d="M29 34h42c8.836 0 16 7.164 16 16 0 8.837-7.164 16-16 16H29c-8.836 0-16-7.163-16-16 0-8.836 7.164-16 16-16z"/><path fill="#2D4653" d="M28 39c6.627 0 12 5.373 12 12s-5.373 12-12 12-12-5.373-12-12 5.373-12 12-12z"/><path fill="#3DB39E" d="M29 38c6.627 0 12 5.373 12 12s-5.373 12-12 12-12-5.373-12-12 5.373-12 12-12z"/><path fill="#37A390" d="M25.5 48.5c-1.104 0-2 .896-2 2s.896 2 2 2 2-.896 2-2-.895-2-2-2zm6 0c-1.104 0-2 .896-2 2s.896 2 2 2 2-.896 2-2-.895-2-2-2z"/><path fill="#F2F1EF" d="M55.506 43.984c-3.257 0-5.49 2.615-5.49 6.016 0 3.384 2.25 6.016 5.49 6.016 3.27 0 5.49-2.632 5.49-6.016 0-3.318-2.283-6.016-5.49-6.016zm0 9.776c-2.027 0-3.002-1.766-3.002-3.76 0-1.978 1.006-3.76 3.002-3.76 1.994 0 3 1.782 3 3.76 0 1.994-.974 3.76-3 3.76zm16.268-9.774c-.708 0-1.235.466-1.235 1.296v6.28h-.035l-5.22-7.027c-.215-.3-.726-.55-1.038-.55-.71 0-1.235.467-1.235 1.297v9.436c0 .83.526 1.296 1.235 1.296.708 0 1.234-.465 1.234-1.296v-6.196h.034l5.22 6.944c.232.3.727.548 1.04.548.707 0 1.234-.465 1.234-1.296v-9.436c0-.83-.528-1.296-1.236-1.296z"/><path fill="#fff" d="M26 48c-1.104 0-2 .896-2 2s.896 2 2 2 2-.896 2-2-.896-2-2-2zm6 0c-1.104 0-2 .896-2 2s.896 2 2 2 2-.896 2-2-.896-2-2-2z"/><path fill="#369D8B" d="M31 61c-6.627 0-12-5.373-12-12 0-4.302 2.27-8.064 5.673-10.183C20.187 40.555 17 44.9 17 50c0 6.627 5.373 12 12 12 2.325 0 4.488-.672 6.327-1.817-1.344.52-2.8.817-4.327.817z"/></svg>