<svg xmlns="http://www.w3.org/2000/svg" width="100" height="100" viewBox="0 0 100 100"><path fill="#324D5B" d="M50 0C22.386 0 0 22.386 0 50c0 27.615 22.386 50 50 50 27.616 0 50-22.385 50-50 0-27.614-22.385-50-50-50z"/><path d="M36.738 54.498c-2.69.763-4.453 2.1-5.615 3.438 1.113-.974 2.604-1.868 4.615-2.438 2.057-.583 3.812-.58 5.262-.3v-1.133c-1.237-.113-2.655-.023-4.262.433zM31 44.966l-9.986 2.63s.182.258.52.6L30 45.966s-.12 1.547-1.162 2.93c1.97-1.49 2.162-3.93 2.162-3.93zm8.36 23.47C25.305 72.22 17.87 55.933 15.62 47.48c-1.04-3.9-1.494-6.856-1.615-8.763-.013-.198-.007-.365.007-.518-.73.042-1.078.42-1.007 1.516.12 1.906.575 4.86 1.615 8.764 2.25 8.453 9.686 24.74 23.74 20.954 3.058-.824 5.356-2.325 7.08-4.24-1.59 1.435-3.58 2.566-6.08 3.24zM42 34.998v1h5.512c-.113-.355-.227-.674-.34-1H42zm6.744 8.238c2.48.704 3.79 2.442 4.483 3.98L55.99 48s-.376-5.382-5.245-6.765c-4.555-1.294-7.358 2.53-7.7 3.026 1.326-.942 3.26-1.715 5.7-1.023zm22.002 4.005c-4.56-1.3-7.36 2.535-7.697 3.023 1.324-.943 3.26-1.716 5.695-1.02 2.475.704 3.785 2.44 4.48 3.98l2.768.787s-.383-5.385-5.248-6.77zM68 61.436l-22.993-6.428s.25 1.262 1.204 2.896l19.36 5.412c1.595-.922 2.43-1.88 2.43-1.88zM52.06 75.27C33.852 70.39 36.053 47.192 39 36.2c1.213-4.53 2.46-7.897 3.494-10.154-.617-.127-1.128.198-1.633 1.225-1.096 2.23-2.5 5.855-3.86 10.93-2.944 10.993-5.145 34.19 13.06 39.07 8.58 2.3 15.266-1.195 20.25-6.682-4.73 4.284-10.77 6.686-18.25 4.683z" fill="#2D4552"/><path fill="#E2574C" d="M42 63v-4.682l-13.006 3.688s.96-5.584 7.744-7.508c2.057-.583 3.812-.58 5.262-.3V35h6.512c-.71-2.19-1.395-3.877-1.97-5.05-.954-1.94-1.93-.653-4.15 1.202-1.56 1.305-5.51 4.09-11.45 5.69-5.94 1.602-10.744 1.177-12.748.83-2.84-.49-4.327-1.114-4.188 1.047.12 1.905.575 4.86 1.615 8.763 2.25 8.453 9.688 24.74 23.74 20.954 3.67-.99 6.263-2.944 8.06-5.436H42zM21.013 47.596L31 44.966s-.29 3.84-4.035 4.83c-3.745.985-5.952-2.2-5.952-2.2z"/><path fill="#EDEDED" d="M79.586 35.22c-2.596.456-8.824 1.023-16.52-1.04-7.7-2.062-12.808-5.668-14.832-7.363-2.87-2.403-4.13-4.073-5.373-1.547-1.096 2.228-2.5 5.854-3.86 10.93-2.944 10.992-5.145 34.188 13.06 39.07 18.2 4.876 27.89-16.314 30.836-27.307 1.36-5.075 1.955-8.918 2.12-11.396.186-2.807-1.742-1.992-5.43-1.346zM43.01 44.316s2.868-4.462 7.734-3.08c4.87 1.384 5.246 6.767 5.246 6.767l-12.98-3.687zM54.887 64.34c-8.56-2.508-9.88-9.333-9.88-9.333L68 61.434s-4.64 5.38-13.113 2.904zm8.13-14.027s2.864-4.46 7.73-3.072c4.864 1.386 5.247 6.77 5.247 6.77l-12.978-3.697z"/><path fill="#D65348" d="M37.455 59.607l-8.46 2.398s.918-5.236 7.15-7.31l-4.79-17.98-.414.125c-5.94 1.602-10.742 1.177-12.746.83-2.84-.49-4.327-1.114-4.188 1.047.12 1.906.575 4.86 1.615 8.764 2.25 8.454 9.687 24.74 23.74 20.955l.414-.13-2.318-8.697zm-16.442-12.01L31 44.967s-.29 3.84-4.035 4.828c-3.745.986-5.952-2.198-5.952-2.198z"/><path fill="#E1E1E1" d="M55.273 64.432l-.387-.094c-8.56-2.507-9.88-9.332-9.88-9.332l11.857 3.314L63.14 34.2l-.076-.02c-7.7-2.062-12.807-5.668-14.83-7.363-2.87-2.403-4.132-4.073-5.374-1.547-1.097 2.228-2.5 5.854-3.86 10.93-2.945 10.992-5.146 34.188 13.06 39.07l.372.083 2.84-10.92zM43.01 44.315s2.868-4.462 7.734-3.08c4.87 1.384 5.246 6.767 5.246 6.767l-12.98-3.687z"/><path d="M37.886 59.484l-2.27.644c.537 3.022 1.482 5.922 2.965 8.484.26-.057.516-.106.78-.178.69-.186 1.327-.416 1.942-.667-1.656-2.46-2.752-5.29-3.414-8.283zM37 38.2c-1.166 4.352-2.21 10.616-1.922 16.9.514-.224 1.057-.432 1.66-.603l.42-.094c-.512-6.71.595-13.55 1.842-18.203.316-1.177.633-2.272.95-3.293-.51.324-1.058.656-1.682.998-.42 1.3-.846 2.72-1.268 4.295z" fill="#C04B41"/></svg>