<svg xmlns="http://www.w3.org/2000/svg" width="100" height="100" viewBox="0 0 100 100"><path fill="#EDEDED" d="M50 0C22.387 0 0 22.386 0 50s22.387 50 50 50c27.614 0 50-22.386 50-50S77.614 0 50 0z"/><path fill="#D5D5D5" d="M44.898 3h10.116L65 73 49.977 86 35 73l9.898-70z"/><path fill="#DAD8D8" d="M50 0c6.17 0 12.967 1.457 18.422 3.5L50 18.01 31.64 3.483C37.097 1.44 43.83 0 50 0z"/><path fill="#E2574C" d="M44.898 1h10.116L65 71 49.977 84 35 71l9.898-70z"/><path fill="#CB4E44" d="M49.98 84l.02-.02V1h-5.102L35 71zM44.5 59h11c.828 0 1.5.67 1.5 1.5s-.672 1.5-1.5 1.5h-11c-.828 0-1.5-.673-1.5-1.5s.672-1.5 1.5-1.5z"/><path fill="#B6463D" d="M50 59h-5.5c-.828 0-1.5.67-1.5 1.5s.672 1.5 1.5 1.5H50v-3z"/><path fill="#D15248" d="M43.25 12.667L50 18.01l6.69-5.27L55.014 1H44.898z"/><path fill="#BE4B41" d="M44.898 1l-1.65 11.667L50 18.01V1z"/><path fill="#EC655B" d="M50 0c6.17 0 12.074 1.124 17.53 3.167L50 17.01 32.47 3.166C37.927 1.124 43.83 0 50 0z"/><path fill="#EFC75E" d="M44.5 58h11c.828 0 1.5.67 1.5 1.5s-.672 1.5-1.5 1.5h-11c-.828 0-1.5-.673-1.5-1.5s.672-1.5 1.5-1.5z"/><path fill="#D5D5D5" d="M99.176 41H84v5h15.826c-.134-1.693-.35-3.36-.65-5z"/><path fill="#fff" d="M97.72 35.04l-9.8 1.4c-2.25.32-3.92 2.247-3.92 4.52V41h15.176c-.37-2.032-.85-4.024-1.455-5.96z"/></svg>