<svg xmlns="http://www.w3.org/2000/svg" width="100" height="100" viewBox="0 0 100 100"><path fill="#324D5B" d="M50 0c27.614 0 50 22.386 50 50s-22.386 50-50 50S0 77.614 0 50 22.386 0 50 0z"/><path fill="#475F6C" d="M95.16 71.476C83.17 66.196 67.57 63 50.5 63c-17.46 0-33.39 3.34-45.488 8.837C13.12 88.507 30.216 100 50 100c19.927 0 37.126-11.658 45.16-28.524z"/><path fill="#ccc" d="M70.91 66.767l-17.365-9.95L62.995 51 50 43.004 37.005 51l9.813 6.04-16.975 9.727c-.958.55-.958 1.92 0 2.468L50.377 81 70.91 69.234c.958-.548.958-1.92 0-2.467zM41.067 51L50 45.67 58.934 51 50 56.33 41.066 51zm9.31 26.75L33.093 68l16.455-9.282.453.28.814-.502L67.664 68l-17.287 9.75z"/><path fill="#F2F1EF" d="M75.732 75.97l-23-48.96c-.218-.38-.54-.657-.91-.825C51.512 25.488 50.812 25 50 25c-.684 0-1.286.344-1.647.868-.44.15-.834.448-1.085.884l-23 48.497c-.552.954-.225 2.18.732 2.73.957.552 2.18.224 2.732-.73L48 34.512V83c0 1.104.896 2 2 2s2-.896 2-2V34.847L72.268 77.99c.553.966 1.775 1.297 2.732.74s1.284-1.794.732-2.76z"/><path fill="#EFC75E" d="M50 18c2.762 0 5 2.24 5 5 0 2.762-2.238 5-5 5s-5-2.238-5-5c0-2.76 2.238-5 5-5z"/><path d="M30.13 54.98l.857-1.827C21.357 46.803 15 35.897 15 23.5c0-3.75.585-7.362 1.663-10.755-.965.865-1.892 1.77-2.788 2.707C13.308 18.045 13 20.736 13 23.5c0 13.198 6.824 24.795 17.13 31.48zm30.82-18.987l.876 1.862C66.193 34.375 69 29.02 69 23c0-10.493-8.507-19-19-19s-19 8.507-19 19c0 6.02 2.807 11.374 7.174 14.855l.875-1.862C35.35 32.873 33 28.213 33 23c0-9.39 7.61-17 17-17s17 7.61 17 17c0 5.214-2.353 9.874-6.05 12.993zM76 23c0 8.83-4.41 16.617-11.138 21.316l.868 1.848C73.136 41.127 78 32.632 78 23c0-6.993-2.57-13.382-6.81-18.29-1.598-.748-3.244-1.41-4.93-1.99C72.196 7.483 76 14.795 76 23zM34.27 46.164l.87-1.848C28.41 39.616 24 31.83 24 23c0-8.204 3.804-15.516 9.74-20.28-1.687.58-3.333 1.242-4.932 1.99C24.568 9.62 22 16.008 22 23c0 9.632 4.865 18.127 12.27 23.164zm53.126-29.34c-.857-.965-1.753-1.895-2.683-2.792C85.546 17.048 86 20.22 86 23.5c0 12.724-6.698 23.878-16.756 30.146l.857 1.825C80.84 48.876 88 37.027 88 23.5c0-2.28-.215-4.507-.604-6.675zM50 14c4.97 0 9 4.03 9 9 0 1.957-.63 3.762-1.69 5.238l.946 2.015C59.96 28.316 61 25.783 61 23c0-6.075-4.925-11-11-11s-11 4.925-11 11c0 2.782 1.04 5.316 2.745 7.253l.946-2.015C41.63 26.762 41 24.958 41 23c0-4.97 4.03-9 9-9z" fill="#315F73"/><path fill="#D7B354" d="M51 26c-2.762 0-5-2.238-5-5 0-.397.058-.778.146-1.15C45.44 20.714 45 21.8 45 23c0 2.762 2.238 5 5 5 2.364 0 4.334-1.646 4.854-3.85C53.938 25.27 52.562 26 51 26z"/></svg>