<svg xmlns="http://www.w3.org/2000/svg" width="100" height="100" viewBox="0 0 100 100"><path fill="#3DB39E" d="M50 0c27.613 0 50 22.387 50 50s-22.387 50-50 50S0 77.613 0 50 22.387 0 50 0z"/><path fill="#D9D8D7" d="M89 61l-.117 6.777C89.408 69.922 87.823 72 85.66 72H14.342c-2.162 0-3.865-1.855-3.342-4v-7h78z"/><path fill="#F2F1EF" d="M20.9 28h58.207c1.525 0 2.854 1.062 3.223 2.574l6.553 29.203C89.408 61.922 87.823 64 85.66 64H14.342c-2.162 0-3.748-2.078-3.225-4.223l6.56-29.203C18.047 29.06 19.374 28 20.9 28z"/><path fill="#324D5B" d="M42 32c11.045 0 20 5.373 20 12s-8.955 12-20 12c-11.047 0-20-5.373-20-12s8.953-12 20-12z"/><path fill="#D9D8D7" d="M42 32c11.045 0 20 5.373 20 12s-8.955 12-20 12c-11.047 0-20-5.373-20-12s8.953-12 20-12m0-2c-12.336 0-22 6.15-22 14s9.664 14 22 14c12.337 0 22-6.15 22-14s-9.663-14-22-14z"/><path d="M23.538 39.384L42 44l-5.15-11.583c-6.03.962-10.944 3.562-13.312 6.967zm36.924 9.23L42 44l5.15 11.584c6.03-.964 10.944-3.563 13.312-6.97z" fill="#475F6C"/><path d="M62.585 48.99l-2.05-.497c-2.335 3.464-7.286 6.116-13.386 7.09l.84 1.896c6.8-1.184 12.17-4.34 14.594-8.49zM21.59 38.698l2.06.535c2.406-3.33 7.26-5.868 13.2-6.816l-.843-1.896c-6.63 1.155-11.91 4.18-14.416 8.18z" fill="#DDDCDB"/><path fill="#2D4552" d="M42 35.75c7.857 0 14.25 3.7 14.25 8.25S49.857 52.25 42 52.25 27.75 48.55 27.75 44s6.393-8.25 14.25-8.25m0-.75c-8.285 0-15 4.03-15 9s6.715 9 15 9 15-4.03 15-9-6.715-9-15-9z"/><path fill="#E2574C" d="M42 39c4.418 0 8 2.238 8 5s-3.582 5-8 5-8-2.238-8-5 3.582-5 8-5z"/><path fill="#9E3D35" d="M42 43c1.105 0 2 .447 2 1s-.895 1-2 1-2-.447-2-1 .895-1 2-1z"/><path fill="#D5D9D9" d="M66 33h12l4 20H69l-3-20z"/><path fill="#ACAFAF" d="M69 35l2 12h2l-2-12h-2zm7 0h-2l2 12h2l-2-12z"/><path fill="#26A6D1" d="M72.5 49c-.828 0-1.5.45-1.5 1s.672 1 1.5 1 1.5-.45 1.5-1-.672-1-1.5-1zm5 0c-.828 0-1.5.45-1.5 1s.672 1 1.5 1 1.5-.45 1.5-1-.672-1-1.5-1z"/><path fill="#3DB39E" d="M80 56c1.105 0 2 .672 2 1.5s-.895 1.5-2 1.5-2-.672-2-1.5.895-1.5 2-1.5z"/><path fill="#BDBDBD" d="M17.5 57c-.828 0-1.5.447-1.5 1s.672 1 1.5 1 1.5-.447 1.5-1-.672-1-1.5-1zm5 0c-.828 0-1.5.447-1.5 1s.672 1 1.5 1 1.5-.447 1.5-1-.672-1-1.5-1z"/><path d="M28.153 40.538l.77.192c1.732-2.313 5.245-4.072 9.53-4.71l-.315-.708c-4.523.723-8.21 2.67-9.985 5.226zm27.694 6.924l-.77-.192c-1.73 2.313-5.245 4.072-9.53 4.71l.315.708c4.523-.722 8.208-2.67 9.985-5.226z" fill="#324D5B"/><path d="M70.333 43L71 47h2l-.667-4zM75 40v1l1 6h2l-1.167-7z" fill="#26A6D1"/></svg>