<svg xmlns="http://www.w3.org/2000/svg" width="100" height="100" viewBox="0 0 100 100"><path fill="#82D2ED" d="M50 0c27.614 0 50 22.386 50 50s-22.386 50-50 50S0 77.614 0 50 22.386 0 50 0z"/><path fill="#4681A0" d="M74.675 27.326c-.384-.384-.993-.423-1.422-.09l-5.236 4.073-.006.09 2.59 2.59.094-.006 4.07-5.237c.334-.43.296-1.038-.088-1.422zM29.393 70.06c-1.91 1.874-4.44 2.427-6.337.565-1.283-1.26-.704-3.655 1.145-5.523.653-.658.8-1.703.22-2.424-.686-.852-1.95-.906-2.707-.16 0 0-1.343 1.574-1.79 2.58-1.267 2.85-1.435 5.565.83 7.79 1.618 1.59 3.818 2.278 6 2.09 1.83-.157 3.517-1.032 4.836-2.285l6.406-6.033-2.56-2.514-6.042 5.913z"/><path fill="#DADFE1" d="M37.78 67.01l-2.79-2.79 21.646-21.645c.77-.77 2.02-.77 2.79 0s1.77 1.02 1 1.79L37.778 67.01z"/><path fill="#C4C8CA" d="M54.88 49.912l-2.79-2.79 3.537-3.535 2.79 2.79z"/><path fill="#E2574C" d="M71.152 61.46c3.645 3.644 5.264 8.02 3.878 10.177.366-.315.727-.64 1.072-.984C86.255 60.5 84.356 42.138 71.86 29.64 59.362 17.145 41 15.246 30.846 25.4c-.346.345-.67.706-.984 1.072 2.156-1.385 6.533.234 10.177 3.878 3.514 3.515 5.147 7.713 4.016 9.94-.223.438-.19.957.156 1.304l.14.14c.346.345.866.377 1.303.156 2.23-1.132 6.427.5 9.94 4.016 3.516 3.515 5.148 7.713 4.017 9.94-.222.438-.19.958.157 1.305l.14.14c.345.346.865.38 1.302.155 2.226-1.132 6.425.5 9.94 4.016z"/><path fill="#F2F1EF" d="M70.586 28.425c-7.4-.368-16.938 3.87-24.89 11.822-.475.476-.934.958-1.383 1.445l.04.04c.345.345.865.377 1.302.156 2.23-1.132 6.427.5 9.94 4.016 3.516 3.515 5.148 7.713 4.017 9.94-.222.438-.19.958.157 1.305l.036.036c.486-.45.97-.908 1.445-1.384 7.954-7.95 12.19-17.488 11.823-24.89-.395-.43-.798-.854-1.216-1.272s-.84-.82-1.272-1.215z"/><path fill="#C74C43" d="M74.11 65.294c1.432 2.516 1.837 4.916.92 6.343.366-.315.727-.64 1.072-.984 9.712-9.713 8.39-26.932-2.683-39.348 7.267 11.1 7.415 25.02.69 33.99z"/></svg>