<svg xmlns="http://www.w3.org/2000/svg" width="100" height="100" viewBox="0 0 100 100"><path fill="#E2574C" d="M50 0c27.614 0 50 22.386 50 50s-22.386 50-50 50S0 77.614 0 50 22.386 0 50 0z"/><path fill="#CD4F45" d="M73.98 38.29c-.605-.124-1.234.063-1.673.5L58.084 53.296c-1.434 1.436-6.255.387-9.5-.88-1.268-3.244-2.316-8.066-.886-9.5l14.575-14.153c.438-.437.628-1.064.502-1.668-.125-.606-.55-1.107-1.12-1.335-9.08-3.612-19.414-1.483-26.32 5.42-6.1 6.1-8.36 14.65-6.57 22.6-.23 3.94-3.81 8.556-5.663 10.44L8.87 78.42c3.646 5.268 8.276 9.8 13.627 13.33l13.557-13.53c1.9-1.874 7.035-5.405 10.946-5.81.59.038 1.81.12 2.082.18l-.002-.024c7.626 1.108 15.33-1.382 20.808-6.854 6.907-6.896 9.04-17.225 5.428-26.3-.228-.575-.73-.997-1.337-1.123z"/><path fill="#EDEDED" d="M73.98 37.29c-.605-.124-1.234.063-1.673.5L58.084 52.296c-1.434 1.436-6.255.387-9.5-.88-1.268-3.244-2.316-8.066-.886-9.5l14.575-14.153c.438-.437.628-1.064.502-1.668-.125-.606-.55-1.107-1.12-1.335-9.08-3.612-19.414-1.483-26.32 5.42-6.1 6.1-8.36 14.65-6.57 22.6-.23 3.94-3.81 8.556-5.663 10.44L8.458 77.83c3.572 5.32 8.14 9.917 13.435 13.523l14.16-14.135c1.9-1.873 7.035-5.404 10.946-5.81.59.04 1.81.12 2.08.18v-.023c7.624 1.108 15.327-1.382 20.806-6.854 6.907-6.894 9.04-17.223 5.428-26.297-.227-.575-.73-.997-1.336-1.123z"/><path d="M76.862 44.556c.127 1.086.187 2.175.17 3.26-.073-2.83-.63-5.673-1.717-8.403-.228-.575-.73-.998-1.337-1.123-.604-.123-1.233.064-1.672.502L58.084 53.295c-1.434 1.436-6.255.387-9.5-.88-.11-.283-.22-.58-.327-.886L14.54 85.244c2.248 2.26 4.71 4.307 7.354 6.107l14.16-14.135c1.9-1.873 7.035-5.404 10.946-5.81.59.04 1.81.12 2.082.18l-.002-.023c7.626 1.108 15.33-1.382 20.808-6.854 5.382-5.373 7.85-12.83 6.974-20.154zm-.868-4.18l-.146-.466.146.465zm.813 3.728c-.04-.29-.083-.578-.134-.866.05.288.095.577.134.866zm-.32-1.814l-.175-.754.174.754z" fill="#E1E1E1"/><path fill="#F4F4F4" d="M35.334 31.18c6.907-6.903 17.24-9.032 26.32-5.42.534.212.93.67 1.083 1.223.085-.285.1-.59.038-.89-.125-.605-.55-1.106-1.12-1.334-9.08-3.613-19.414-1.484-26.32 5.42-4.812 4.81-7.224 11.15-7.152 17.515.18-6.026 2.592-11.956 7.15-16.515zM23.102 63.22L8.458 77.83l.41.59L23.1 64.22c1.853-1.885 5.435-6.5 5.666-10.44l-.07-.362c-.543 3.788-3.84 8.018-5.593 9.8z"/><path fill="#CCD0D2" d="M28.71 67.717L12.906 83.522c1.12 1.238 2.3 2.422 3.54 3.543L32.25 71.257c.978-.98.978-2.563 0-3.54s-2.563-.978-3.54 0z"/><path fill="#B8BCBE" d="M28.71 67.717L12.906 83.522l.484.517 15.32-15.324c.98-.978 2.564-.978 3.542 0 .36.36.586.805.68 1.27.163-.795-.063-1.652-.68-2.27-.978-.978-2.563-.978-3.54 0z"/></svg>