<?xml version="1.0" encoding="utf-8"?>
<!-- Generator: Adobe Illustrator 17.1.0, SVG Export Plug-In . SVG Version: 6.00 Build 0)  -->
<!DOCTYPE svg PUBLIC "-//W3C//DTD SVG 1.1//EN" "http://www.w3.org/Graphics/SVG/1.1/DTD/svg11.dtd">
<svg version="1.1" class="svg-source" xmlns="http://www.w3.org/2000/svg" xmlns:xlink="http://www.w3.org/1999/xlink" x="0px" y="0px"
	 width="32px" height="30px" viewBox="170.6 12.6 32 30" enable-background="new 170.6 12.6 32 30" xml:space="preserve">
<g class="hamburger">
	<path class="buns" fill="#DDAF6D" d="M188.6,12.6h-4c-5.5,0-13,4.5-13,10v1c0,0.6,0.4,1,1,1h28c0.6,0,1-0.4,1-1v-1
		C201.6,17.1,194.1,12.6,188.6,12.6z M171.6,40.6c0,1.1,0.9,2,2,2h26c1.1,0,2-0.9,2-2v-2h-30V40.6z"/>
	<path class="burger" fill="#BB6F39" d="M172.6,34.6h28c1.1,0,2,0.9,2,2s-0.9,2-2,2h-28c-1.1,0-2-0.9-2-2S171.5,34.6,172.6,34.6z"/>
	<path class="cheese" fill="#EFC75E" d="M172.6,30.6h28v4h-2l-3,3l-3-3h-20V30.6z"/>
	<path class="lettuce" fill="#3DB39E" d="M200.6,27.6L200.6,27.6l-28-0.1v0.1c-1.1,0.2-2,1.2-2,2.4c0,1.4,1.1,2.5,2.5,2.5
		c1.2,0,2.2-0.9,2.4-2h4.1c0,1.1,1.1,2,2.5,2s2.5-0.9,2.5-2h4c0,1.1,1.1,2,2.5,2s2.5-0.9,2.5-2h4.1c0.2,1.1,1.2,2,2.4,2
		c1.4,0,2.5-1.1,2.5-2.5C202.6,28.9,201.7,27.9,200.6,27.6z"/>
	<path class="tomato" fill="#BF392C" d="M172.6,24.6h28v3h-28V24.6z"/>
	<g class="bun-shadows">
		<path class="shadows" fill="#C69D63" d="M172.6,24.6h2c-0.6,0-1-0.4-1-1v-1c0-5.5,7.5-10,13-10h-2c-5.5,0-13,4.5-13,10v1
			C171.6,24.1,172,24.6,172.6,24.6z M173.6,40.6v-2h-2v2c0,1.1,0.9,2,2,2h2C174.5,42.6,173.6,41.7,173.6,40.6z"/>
	</g>
	<path class="burger-shadow" fill="#A86433" d="M172.6,36.6c0-1.1,0.9-2,2-2h-2c-1.1,0-2,0.9-2,2s0.9,2,2,2h2
		C173.5,38.6,172.6,37.7,172.6,36.6z"/>
	<g class="lettuce-shadow">
		<path fill="#37A18E" d="M172.6,30.1c0-1.2,0.9-2.2,2-2.4v-0.1h-2v0.1c-1.1,0.2-2,1.2-2,2.4c0,1.4,1.1,2.5,2.5,2.5
			c0.4,0,0.7-0.1,1-0.2C173.2,32,172.6,31.1,172.6,30.1z M181.6,30.6h-2c0,1.1,1.1,2,2.5,2c0.4,0,0.7-0.1,1-0.2
			C182.2,32.1,181.6,31.4,181.6,30.6z M190.6,30.6h-2c0,1.1,1.1,2,2.5,2c0.4,0,0.7-0.1,1-0.2C191.2,32.1,190.6,31.4,190.6,30.6z
			 M199.6,30.6h-2c0.2,1.1,1.2,2,2.4,2c0.4,0,0.7-0.1,1-0.2C200.3,32,199.8,31.4,199.6,30.6z"/>
	</g>
</g>
</svg>
