<svg xmlns="http://www.w3.org/2000/svg" width="100" height="100"><path d="M95.838 42.306c-.574-.66-3.049-2.023-3.554-3.61-1.38-4.999-7.236-6.833-7.236-6.833l.628-9.124c-2.598.792-6.201 3.782-9.97 7.567-.587-.076-1.188-.13-1.8-.13-4.327 0-8.182 2.015-10.691 5.148-5.458-4.478-11.402-7.598-21.055-7.255-20.434.731-31.635 14.535-35.311 33.63-4.699 3.742-4.914 7.912-4.554 10.211 1.093 7.012 9.395 12.104 14.94 13.479 16.643 4.131 33.75-2.756 43.576-17.537 1.319-1.981.78-4.656-1.205-5.975-1.979-1.318-4.653-.779-5.974 1.201-7.785 11.711-21.257 17.186-34.322 13.943-3.631-.902-7.785-3.978-8.427-6.16l1.092.275h29.703c3.791-2.306 7.156-5.5 9.806-9.486 2.104-3.17 6.396-4.029 9.562-1.926 3.164 2.106 4.03 6.395 1.925 9.562-.422.631-.859 1.244-1.304 1.851h17.927c-.07-.146.077-.062.077-.062-.149-.224-1.819-2.816-2.006-5.765-.353-5.58 3.39-10.199 3.39-10.199l.039-.055c11.692 2.043 14.223-5.297 14.871-8.869.299-1.65.898-3.19-.127-3.881zm-9.836-1.283c-.891 0-1.613-.723-1.613-1.614 0-.892.723-1.614 1.613-1.614.892 0 1.614.723 1.614 1.614 0 .891-.722 1.614-1.614 1.614z"/></svg>