<?xml version="1.0" encoding="utf-8"?>
<!-- Generator: Adobe Illustrator 17.1.0, SVG Export Plug-In . SVG Version: 6.00 Build 0)  -->
<!DOCTYPE svg PUBLIC "-//W3C//DTD SVG 1.1//EN" "http://www.w3.org/Graphics/SVG/1.1/DTD/svg11.dtd">
<svg version="1.1" id="svg-source" xmlns="http://www.w3.org/2000/svg" xmlns:xlink="http://www.w3.org/1999/xlink" x="0px" y="0px"
	 width="32px" height="23px" viewBox="8.5 132.5 32 23" enable-background="new 8.5 132.5 32 23" xml:space="preserve">
<g id="cloud-refresh">
	<path fill="#9EA1AF" d="M34.4,140.6c-0.4-4.6-4.2-8.1-8.9-8.1c-3.6,0-6.7,2.1-8.1,5.2c-0.4-0.1-0.9-0.2-1.4-0.2
		c-2.5,0-4.5,2-4.5,4.5c0,0.5,0.1,1,0.2,1.4c-1.9,1.1-3.2,3.2-3.2,5.6c0,3.6,2.9,6.5,6.5,6.5l0,0h18l0,0c4.1,0,7.5-3.4,7.5-7.5
		C40.5,144.3,37.9,141.3,34.4,140.6z M19.4,148.1l-1.9-1.8c-0.3-0.4,0-0.8,0.5-0.8h0.8c0.1-3.3,2.8-6,6.1-6c1.7,0,3.2,0.7,4.3,1.8
		l-1.4,1.3c-0.7-0.8-1.8-1.2-2.9-1.2c-2.3,0-4.1,1.9-4.2,4.1h1c0.5,0,0.8,0.4,0.5,0.8l-1.9,1.8C20.1,148.6,19.6,148.6,19.4,148.1z
		 M31.5,145.5h-0.8c-0.1,3.3-2.8,6-6.1,6c-1.7,0-3.2-0.7-4.3-1.8l1.4-1.3c0.7,0.8,1.8,1.2,2.9,1.2c2.3,0,4.1-1.9,4.2-4.1h-1
		c-0.5,0-0.8-0.4-0.5-0.8l1.9-1.8c0.3-0.4,0.7-0.4,1,0l1.9,1.8C32.3,145.1,32,145.5,31.5,145.5z"/>
</g>
</svg>
