<?xml version="1.0" encoding="utf-8"?>
<!-- Generator: Adobe Illustrator 17.1.0, SVG Export Plug-In . SVG Version: 6.00 Build 0)  -->
<!DOCTYPE svg PUBLIC "-//W3C//DTD SVG 1.1//EN" "http://www.w3.org/Graphics/SVG/1.1/DTD/svg11.dtd">
<svg version="1.1" id="svg-source" xmlns="http://www.w3.org/2000/svg" xmlns:xlink="http://www.w3.org/1999/xlink" x="0px" y="0px"
	 width="28px" height="28px" viewBox="126 130 28 28" enable-background="new 126 130 28 28" xml:space="preserve">
<g id="disc-add">
	<path id="stroke_1_" opacity="0.3" enable-background="new    " d="M140,158c-7.7,0-14-6.3-14-14s6.3-14,14-14
		s14,6.3,14,14S147.7,158,140,158z M140,134c-5.5,0-10,4.5-10,10s4.5,10,10,10s10-4.5,10-10S145.5,134,140,134z"/>
	<path id="plus_1_" d="M140,132.5c-6.4,0-11.5,5.1-11.5,11.5s5.1,11.5,11.5,11.5s11.5-5.1,11.5-11.5
		S146.4,132.5,140,132.5z M145.3,145.2h-4.1v4.1c0,0.7-0.5,1.2-1.2,1.2s-1.2-0.5-1.2-1.2v-4.1h-4.1c-0.7,0-1.2-0.5-1.2-1.2
		s0.5-1.2,1.2-1.2h4.1v-4.1c0-0.7,0.5-1.2,1.2-1.2s1.2,0.5,1.2,1.2v4.1h4.1c0.7,0,1.2,0.5,1.2,1.2S146,145.2,145.3,145.2z"/>
</g>
</svg>
