<?xml version="1.0" encoding="utf-8"?>
<!-- Generator: Adobe Illustrator 17.1.0, SVG Export Plug-In . SVG Version: 6.00 Build 0)  -->
<!DOCTYPE svg PUBLIC "-//W3C//DTD SVG 1.1//EN" "http://www.w3.org/Graphics/SVG/1.1/DTD/svg11.dtd">
<svg version="1.1" id="svg-source" xmlns="http://www.w3.org/2000/svg" xmlns:xlink="http://www.w3.org/1999/xlink" x="0px" y="0px"
	 width="32px" height="32px" viewBox="121 68.1 32 32" enable-background="new 121 68.1 32 32" xml:space="preserve">
<g id="eye">
	<path id="outer" fill="#E4E7E7" d="M137,68.1c8.8,0,16,7.2,16,16s-7.2,16-16,16s-16-7.2-16-16S128.2,68.1,137,68.1z"/>
	<path id="blue-circle" fill="#26A6D1" d="M137,73.1c6.1,0,11,4.9,11,11s-4.9,11-11,11s-11-4.9-11-11S130.9,73.1,137,73.1z"/>
	<path id="pupil" fill="#324D5B" d="M137,78.1c3.3,0,6,2.7,6,6s-2.7,6-6,6s-6-2.7-6-6C131,80.8,133.7,78.1,137,78.1z"/>
	<path id="reflectio" fill="#D4EDF6" d="M141.5,78.1c1.4,0,2.5,1.1,2.5,2.5s-1.1,2.5-2.5,2.5S139,82,139,80.6S140.1,78.1,141.5,78.1
		z"/>
	<path id="underlap" fill="#D6DBDE" d="M142.8,82.7c-0.4-1.7-1.5-3.1-3-3.9c-0.5,0.5-0.8,1.1-0.8,1.8c0,1.4,1.1,2.5,2.5,2.5
		C142,83.1,142.4,83,142.8,82.7z"/>
	<path id="blue-shadow" fill="#2296BD" d="M138,94.1c-6.1,0-11-4.9-11-11c0-2.8,1-5.3,2.7-7.3c-2.3,2-3.7,5-3.7,8.3
		c0,6.1,4.9,11,11,11c3.3,0,6.2-1.5,8.3-3.7C143.3,93.1,140.8,94.1,138,94.1z"/>
</g>
</svg>
