<?xml version="1.0" encoding="utf-8"?>
<!-- Generator: Adobe Illustrator 17.1.0, SVG Export Plug-In . SVG Version: 6.00 Build 0)  -->
<!DOCTYPE svg PUBLIC "-//W3C//DTD SVG 1.1//EN" "http://www.w3.org/Graphics/SVG/1.1/DTD/svg11.dtd">
<svg version="1.1" id="svg-source" xmlns="http://www.w3.org/2000/svg" xmlns:xlink="http://www.w3.org/1999/xlink" x="0px" y="0px"
	 width="32.1px" height="32.1px" viewBox="12.4 61.3 32.1 32.1" enable-background="new 12.4 61.3 32.1 32.1" xml:space="preserve">
<g id="hotdog">
	<g id="bun">
		<path fill="#F6C37A" d="M16.2,84L35,65.2c0.2-0.4,0.2-0.9-0.2-1.2c-2-2-5.1-2-7.1,0L15,76.8c-2,2-2,5.1,0,7.1
			C15.3,84.1,15.8,84.2,16.2,84z M40.9,70.6L21.6,89.9c-0.1,0.4-0.1,0.8,0.2,1.1c2,2,5.2,2,7.2,0l13-13c2-2,2-5.2,0-7.2
			C41.7,70.5,41.3,70.4,40.9,70.6z"/>
	</g>
	<path id="bun-shadow-bottom" fill="#DDAF6D" d="M23,89.9c-0.4-0.4-0.4-1,0-1.4l17.9-17.9c-0.1,0.1-0.2,0.1-0.3,0.2L21.8,89.6
		c-0.4,0.4-0.4,1,0,1.4c2,2,5.2,2,7.2,0l0.6-0.6C27.6,91.9,24.8,91.7,23,89.9z"/>
	<path id="bun-shadow" fill="#DDAF6D" d="M16.2,84l1-1c-0.3,0.1-0.7,0-1-0.2c-1.8-1.8-1.9-4.9-0.3-6.9L15,76.8c-2,2-2,5.1,0,7.1
		C15.3,84.1,15.8,84.2,16.2,84z"/>
	<path id="hotdog_1_" fill="#E37948" d="M43.3,62.5c1.6,1.6,1.6,4.1,0,5.7l-24,24c-1.6,1.6-4.1,1.6-5.7,0c-1.6-1.6-1.6-4.1,0-5.7
		l24-24C39.2,60.9,41.8,60.9,43.3,62.5z"/>
	<path id="mustard" fill="#EFC75E" d="M35.5,67.3c-0.6,0-1,0.4-1,1v2h-2c-0.4,0-0.8,0.3-0.9,0.6c-0.1,0.1-0.1,0.3-0.1,0.4v2h-1.9
		l0,0c-0.1,0-0.3,0-0.4,0.1c-0.4,0.1-0.6,0.5-0.6,0.9v0.1v1.9h-2c-0.4,0-0.8,0.3-0.9,0.6c-0.1,0.1-0.1,0.3-0.1,0.4v2h-1.9l0,0
		c-0.1,0-0.3,0-0.4,0.1c-0.4,0.1-0.6,0.5-0.6,0.9v0.1v1.9h-2c-0.6,0-1,0.4-1,1s0.4,1,1,1h3l0,0c0.6,0,1-0.4,1-1v-2h1.9l0,0
		c0.6,0,1-0.4,1-1v-2h2l0,0c0.6,0,1-0.4,1-1v-2h1.9l0,0c0.6,0,1-0.4,1-1v-2h2l0,0c0.6,0,1-0.4,1-1v-3C36.5,67.8,36.1,67.3,35.5,67.3
		z"/>
	<path id="dog-shadow" fill="#CC6D41" d="M20.3,91.1c-1.6,1.6-4.1,1.6-5.7,0c-1.6-1.6-1.6-4.1,0-5.7l-1,1c-1.6,1.6-1.6,4.1,0,5.7
		s4.1,1.6,5.7,0l24-24L20.3,91.1z"/>
</g>
</svg>
