<?xml version="1.0" encoding="UTF-8"?>
<svg xmlns="http://www.w3.org/2000/svg" xmlns:xlink="http://www.w3.org/1999/xlink" contentScriptType="text/ecmascript" zoomAndPan="magnify" baseProfile="tiny" contentStyleType="text/css" version="1.1" width="44px" preserveAspectRatio="xMidYMid meet" viewBox="0 0 44 44" height="44px" x="0px" y="0px">
    <g>
        <g>
            <path fill="none" d="M 0.026 0.0 C 13.178 0.0 26.33 0.0 39.48 0.0 C 40.864998 0.0 42.248 0.011 43.628 -0.041 C 44.387997 -0.069000006 44.024 2.989 44.024 3.555 C 44.024 6.859 44.024 10.163 44.024 13.468 C 44.024 20.11 44.024 26.751 44.024 33.391 C 44.024 36.641 44.024 39.889 44.024 43.139 C 44.024 43.645 44.188 43.993 43.615997 44.035 C 43.231 44.062 42.843 44.034 42.457996 44.012 C 40.961998 43.924 39.437996 44.002003 37.937996 44.002003 C 31.396996 44.002003 24.853996 44.002003 18.310995 44.002003 C 15.024995 44.002003 11.738995 44.002003 8.452995 44.002003 C 5.8089952 44.002003 3.0669951 44.231003 0.43399525 44.035004 C -0.15500474 43.989002 0.024995238 43.599003 0.024995238 43.085003 C 0.024995238 42.288002 0.024995238 41.492004 0.024995238 40.695004 C 0.024995238 38.966003 0.024995238 37.245003 0.024995238 35.519005 C 0.024995238 32.202003 0.024995238 28.879005 0.024995238 25.566006 C 0.026 17.044 0.026 8.522 0.026 0.0 "/>
        </g>
        <g>
            <path d="M 3.114 20.656 C 3.114 12.08 9.985 4.5370007 18.534 3.7789993 C 27.187 3.0109992 35.406 9.314999 36.791 17.91 C 38.177002 26.491001 32.48 35.15 23.999 37.148003 C 15.29 39.195 6.104 33.813 3.725 25.174 C 3.321 23.704 3.114 22.181 3.114 20.656 " fill-opacity="0.2"/>
            <path d="M 35.707 20.662 C 35.707 29.203001 28.346 36.45 19.804 36.307 C 15.649 36.237 11.650001 34.419 8.785001 31.421 C 6.0770006 28.588999 4.0510006 24.281 4.4330006 20.279 C 4.6690006 17.796999 7.1870003 16.467 9.284 15.7369995 C 11.831 14.849999 14.587 14.466 17.264 14.254999 C 21.241 13.941999 25.326 14.148999 29.17 15.261 C 31.71 15.995 35.707 17.432 35.707 20.662 " fill-opacity="0.5"/>
            <linearGradient x1="1014.0742" gradientTransform="matrix(1 0 0 -1 -994.0107 -3186.0244)" y1="-3221.021" x2="1014.0742" gradientUnits="userSpaceOnUse" y2="-3189.7363" xlink:type="simple" xlink:actuate="onLoad" id="SVGID_1_" xlink:show="other">
                <stop stop-color="#84d8fd" offset="0"/>
                <stop stop-color="#7dd1fb" offset="0.1127"/>
                <stop stop-color="#6bbef7" offset="0.2752"/>
                <stop stop-color="#4d9ff0" offset="0.4679"/>
                <stop stop-color="#2676e7" offset="0.6703"/>
                <stop stop-color="#2676e7" offset="1"/>
            </linearGradient>
            <path fill="url(#SVGID_1_)" d="M 20.062 3.712 C 28.602001 3.712 35.848 11.073 35.703 19.612999 C 35.559998 28.151 28.085999 35.278 19.549 34.988 C 11.21 34.707 4.283 27.443 4.424 19.097 C 4.563 10.755 11.717 3.712 20.062 3.712 "/>
            <linearGradient x1="187.3555" gradientTransform="matrix(1 0 0 -1 -168 -850)" y1="-883.0635" x2="187.3555" gradientUnits="userSpaceOnUse" y2="-855.3025" xlink:type="simple" xlink:actuate="onLoad" id="SVGID_2_" xlink:show="other">
                <stop stop-color="#c5eaff" offset="0"/>
                <stop stop-color="#7ac6f7" offset="1"/>
            </linearGradient>
            <path fill="url(#SVGID_2_)" d="M 32.152 20.384 C 32.115 20.105001 31.743 20.105001 31.533 20.108002 C 31.12 20.114 31.0 20.073 30.721 19.77 C 30.305 19.319 29.169 19.657 28.617 19.628 C 28.167 19.604 28.253 19.457 27.984001 19.187 C 27.646002 18.852001 27.646002 19.02 27.316002 19.153 C 26.745003 19.385 25.761002 19.079 25.138002 19.053 C 24.390003 19.022 24.622002 19.456999 24.085003 19.802 C 23.858004 19.948 23.470003 20.855 23.151003 20.682 C 22.533003 20.34 21.827003 20.950998 21.229002 20.428999 C 20.784002 20.039999 20.262001 19.328 19.600002 19.512999 C 18.962002 19.690998 18.975002 18.574 18.258003 18.951998 C 18.065002 19.053997 18.182003 19.283998 18.084003 19.433998 C 17.921003 19.682999 17.571003 19.847998 17.305004 19.953999 C 16.720005 20.186998 16.138004 19.575998 15.877005 19.105 C 15.553004 18.522 16.278004 18.823 15.930005 18.344 C 15.866005 18.255 15.621005 18.055 15.7730055 17.948 C 16.098005 17.723999 15.890005 17.559 16.062006 17.249 C 16.038006 17.291 16.815006 17.267 16.893005 17.267 C 17.027006 17.267 17.437006 17.369 17.409006 17.104 C 17.404007 17.057 17.296005 16.626 17.371006 16.626 C 17.499006 16.626 18.475006 16.538 18.455006 16.512999 C 18.558006 16.640999 18.760006 16.628998 18.899006 16.598999 C 19.087006 16.557999 19.500006 17.119 19.610006 17.23 C 20.044006 16.827 19.282007 16.352999 19.137007 16.005 C 19.001007 15.6779995 19.375008 15.3949995 19.234007 15.070999 C 19.079006 14.7109995 19.437006 14.522999 19.700006 14.3619995 C 20.171007 14.075 20.385006 13.540999 20.512007 13.026999 C 20.580008 12.752999 20.627007 12.464999 20.611008 12.181 C 20.584007 11.665 20.028008 11.866 19.618008 11.866 C 19.622007 11.549 19.918007 11.423 20.195007 11.436 C 20.655006 11.458 20.853008 11.097 21.138008 10.815 C 21.492008 11.53 22.101007 10.596999 22.206009 10.278999 C 22.31301 9.950999 22.54901 9.627999 22.856009 9.459999 C 23.199009 9.271999 23.266008 8.866999 23.52801 8.605 C 23.12001 8.424 22.66401 8.396999 22.25301 8.224 C 21.77401 8.02 21.45801 7.492 21.21101 7.055 C 21.00001 6.672 20.99601 6.1749997 20.68701 5.843 C 20.43201 5.569 19.95301 5.435 19.60401 5.345 C 19.074009 5.2089996 17.89301 5.672 18.11201 6.39 C 18.24601 6.83 18.974009 8.3 18.28201 8.684 C 18.071009 8.801 17.582008 8.795 17.47501 9.053 C 17.36801 9.312 17.88301 9.618 17.62801 9.944 C 17.08401 10.644 16.95301 9.349 16.68001 9.3 C 16.30701 9.233 16.10701 9.502 15.69701 9.204 C 15.44601 9.022 15.69501 8.7300005 15.19201 8.804001 C 14.78901 8.863001 14.57101 8.872001 14.25101 8.584001 C 14.02601 8.384001 13.66001 7.8930006 14.0990095 7.7010007 C 14.55901 7.4990005 15.79801 6.000001 14.81401 5.8010006 C 14.69901 5.778001 14.57901 5.7810006 14.45601 5.7960005 C 10.95001 7.3010006 8.08201 10.153 6.54901 13.650001 C 6.67901 13.758 6.8000097 13.876 6.9130096 14.071001 C 7.1780095 14.528001 7.4090095 14.530001 7.8600097 14.728001 C 8.37801 14.956 8.49401 14.782001 8.49401 15.395 C 8.49401 16.124 8.87501 17.674 9.75501 17.674 C 10.261009 17.674 10.50301 18.015999 10.82901 18.343 C 11.21201 18.727001 11.60301 19.007 12.11501 19.195 C 11.94401 19.121 11.79401 19.018 11.663011 18.887 C 12.31101 18.241 13.28001 19.633 13.725011 20.111 C 14.41501 20.853 15.699011 20.929 16.67201 20.811 C 16.94401 20.777 17.16201 20.592001 17.34501 20.400002 C 17.61601 20.116001 17.632011 20.118002 17.913012 20.124002 C 18.214012 20.130003 18.430012 19.631002 18.867012 19.698002 C 19.031012 19.722002 20.224012 19.998001 20.236012 20.094002 C 20.295012 20.603003 22.521011 21.037003 22.287012 21.564001 C 22.118011 21.94 21.709013 22.091002 21.713013 22.555 C 21.714012 22.788 21.655012 23.458 21.861013 23.631 C 22.111013 23.838001 22.396013 24.022001 22.709013 24.089 C 23.073013 24.168001 23.188013 24.838001 23.413013 25.104 C 23.681013 25.422 23.942013 25.569 24.343014 25.573 C 24.406013 25.575 25.150013 25.612 25.150013 25.612 C 24.995012 25.795 25.376013 26.001999 25.529013 26.156 C 25.675013 26.3 25.592012 26.684 25.577013 26.864 C 25.521013 27.421 25.519012 28.11 25.842012 28.593 C 26.260012 29.228 26.223013 29.57 26.182013 30.312 C 26.171013 30.460001 26.049013 31.426 26.237013 31.468 C 26.327013 31.488 26.557013 31.144001 26.618013 31.082 C 26.688013 31.485 27.201014 31.608002 26.889013 32.06 C 26.832014 32.142002 26.826014 32.242 26.842012 32.339 C 27.352013 32.068 27.841013 31.758001 28.319012 31.428001 C 28.231012 31.324001 28.090012 31.140001 28.098011 31.074001 C 28.098011 30.998001 28.778011 31.052002 28.635012 30.759 C 28.565012 30.609001 28.024012 30.318 28.460012 30.16 C 28.568012 30.119999 28.874012 30.094 28.850012 29.903 C 28.805012 29.587 29.096012 29.569 29.315012 29.382 C 29.840012 28.926 29.758013 28.762 29.278011 28.328 C 28.930012 28.015 29.483011 28.085999 29.67501 28.082998 C 30.237011 28.071 29.88501 27.505 30.13001 27.175 C 30.39501 26.816 31.15401 26.262999 30.729012 25.751999 C 30.44201 25.412998 30.907011 24.789 30.625011 24.505999 C 31.062012 24.943998 31.565012 24.112 31.791012 23.829998 C 32.28601 23.197998 32.02001 22.736998 31.821012 22.056997 C 31.643 21.452 32.232 20.976 32.152 20.384 z "/>
            <linearGradient x1="1014.002" gradientTransform="matrix(1 0 0 -1 -994.0107 -3186.0244)" y1="-3205.3594" x2="1014.002" gradientUnits="userSpaceOnUse" y2="-3190.3687" xlink:type="simple" xlink:actuate="onLoad" id="SVGID_3_" xlink:show="other">
                <stop stop-color="#26bfff" offset="0"/>
                <stop stop-color="#43c8ff" offset="0.0464"/>
                <stop stop-color="#6fd5ff" offset="0.1258"/>
                <stop stop-color="#96e0ff" offset="0.2112"/>
                <stop stop-color="#b6eaff" offset="0.3018"/>
                <stop stop-color="#d1f1ff" offset="0.3987"/>
                <stop stop-color="#e5f7ff" offset="0.5044"/>
                <stop stop-color="#f4fcff" offset="0.6233"/>
                <stop stop-color="#fcfeff" offset="0.7666"/>
                <stop stop-color="#ffffff" offset="1"/>
            </linearGradient>
            <path fill="url(#SVGID_3_)" d="M 4.999 19.356 C 4.999 11.265001 11.899 4.3650007 19.99 4.3650007 C 28.08 4.3650007 34.982 11.264001 34.982 19.356 C 24.986 19.356 14.993 19.356 4.999 19.356 " fill-opacity="0.7"/>
        </g>
        <g>
            <path d="M 30.982 8.114 C 30.982 8.114 37.644 12.75 35.984 19.991001 C 35.986 19.991 41.091 11.429 30.982 8.114 z " fill-opacity="0.2"/>
            <path d="M 32.787 6.241 C 32.787 6.241 40.383 11.528 38.488 19.784 C 38.488 19.784 44.311 10.022 32.787 6.241 z " fill-opacity="0.2"/>
            <path d="M 34.548 3.423 C 34.548 3.423 43.725 9.81 41.438 19.785 C 41.438 19.784 48.471 7.991 34.548 3.423 z " fill-opacity="0.2"/>
            <path d="M 30.966 7.44 C 30.966 7.44 37.858 11.728001 36.572998 19.045 C 36.573 19.046 41.23 10.232 30.966 7.44 z " fill-opacity="0.5"/>
            <path d="M 32.668 5.479 C 32.668 5.479 40.524998 10.367001 39.057 18.709 C 39.063 18.711 44.372 8.661 32.668 5.479 z " fill-opacity="0.5"/>
            <path d="M 34.282 2.573 C 34.282 2.573 43.775 8.48 42.005 18.557999 C 42.005 18.558 48.422 6.419 34.282 2.573 z " fill-opacity="0.5"/>
            <linearGradient x1="895.6084" gradientTransform="matrix(0.9826 0.1856 0.1856 -0.9826 -561.6189 -1677.5083)" y1="-1544.4395" x2="904.6995" gradientUnits="userSpaceOnUse" y2="-1553.5306" xlink:type="simple" xlink:actuate="onLoad" id="SVGID_4_" xlink:show="other">
                <stop stop-color="#00d1ff" offset="0"/>
                <stop stop-color="#0d409b" offset="1"/>
            </linearGradient>
            <path fill="url(#SVGID_4_)" d="M 30.869 6.952 C 30.869 6.952 38.077 10.684 37.371998 18.079 C 37.372 18.079 41.32 8.926 30.869 6.952 z "/>
            <linearGradient x1="896.8486" gradientTransform="matrix(0.9826 0.1856 0.1856 -0.9826 -561.6189 -1677.5083)" y1="-1541.9893" x2="907.2143" gradientUnits="userSpaceOnUse" y2="-1552.355" xlink:type="simple" xlink:actuate="onLoad" id="SVGID_5_" xlink:show="other">
                <stop stop-color="#00d1ff" offset="0"/>
                <stop stop-color="#0d409b" offset="1"/>
            </linearGradient>
            <path fill="url(#SVGID_5_)" d="M 32.413 4.862 C 32.413 4.862 40.630997 9.116 39.825996 17.55 C 39.826 17.55 44.33 7.113 32.413 4.862 z "/>
            <linearGradient x1="897.8311" gradientTransform="matrix(0.9826 0.1856 0.1856 -0.9826 -561.6189 -1677.5083)" y1="-1538.5757" x2="910.3546" gradientUnits="userSpaceOnUse" y2="-1551.0994" xlink:type="simple" xlink:actuate="onLoad" id="SVGID_6_" xlink:show="other">
                <stop stop-color="#00d1ff" offset="0"/>
                <stop stop-color="#0d409b" offset="1"/>
            </linearGradient>
            <path fill="url(#SVGID_6_)" d="M 33.793 1.839 C 33.793 1.839 43.723 6.979 42.751 17.167 C 42.751 17.167 48.188 4.558 33.793 1.839 z "/>
            <path d="M 39.958 25.204 L 40.059002 25.154001 L 39.550003 24.575 C 39.440002 24.449001 39.326004 24.344 39.213 24.251001 C 39.182003 24.225002 39.145 24.195002 39.106003 24.166002 C 38.985004 24.074003 38.848003 23.980001 38.701004 23.900002 C 38.641003 23.869001 38.620003 23.861002 38.621002 23.859001 C 38.481003 23.79 38.342003 23.730001 38.194004 23.679 C 38.188004 23.673 38.160004 23.662 38.102005 23.644001 C 37.928005 23.586 37.757004 23.545 37.585007 23.517 C 37.53301 23.506 37.497005 23.5 37.47101 23.497 C 37.293007 23.473999 37.104008 23.451 36.90101 23.451 L 35.78001 23.451 L 21.05001 19.477001 L 20.580011 21.221 L 28.851011 23.451 L 26.615011 23.451 L 26.615011 23.138 L 21.50801 23.138 L 21.50801 23.495 C 20.05301 23.720001 18.858011 24.739 18.833012 26.162 L 18.833012 37.124 C 18.835012 37.253002 18.85201 37.335 18.85901 37.374 L 18.86001 37.424 L 18.86101 37.47 L 18.86801 37.515 C 18.87801 37.565998 18.88801 37.600998 18.894009 37.619 C 18.913008 37.7 18.933008 37.769 18.953009 37.831 C 18.984009 37.925003 19.017008 38.014 19.054008 38.091 C 19.078009 38.145 19.109009 38.214 19.158009 38.299 C 19.222008 38.409 19.284008 38.493 19.336008 38.563 C 19.377008 38.618 19.428007 38.686 19.498009 38.764 C 19.576008 38.848 19.66401 38.94 19.77101 39.03 L 20.12801 39.333 L 20.16101 39.31 C 20.71101 39.646 21.38101 39.841 22.105011 39.841 L 22.1 39.841 L 22.1 39.843998 L 36.9 39.843998 C 38.607002 39.841 40.140003 38.745 40.171 37.129997 L 40.171 26.168 C 40.171 25.826 40.094 25.501 39.958 25.204 z M 38.98 37.128 C 38.98 37.502 38.792 37.861 38.42 38.157997 C 38.053997 38.450996 37.510998 38.649998 36.899 38.649998 L 22.099998 38.648 C 21.464998 38.649998 20.909998 38.431 20.536999 38.118 L 20.467 38.058 C 20.436998 38.027 20.407999 37.996 20.373999 37.96 C 20.352999 37.937 20.324 37.897 20.282999 37.843998 C 20.237 37.783997 20.205 37.739 20.185 37.704998 C 20.177 37.688 20.16 37.655 20.133999 37.596996 C 20.112 37.549995 20.096998 37.506996 20.084 37.466995 C 20.066 37.416996 20.056 37.381996 20.05 37.352997 C 20.047998 37.341995 20.046 37.333996 20.043999 37.327995 L 20.043999 37.313995 L 20.043 37.283997 L 20.042 37.257996 C 20.035 37.196995 20.026 37.155994 20.022 37.133995 L 20.019999 37.126995 L 20.019999 26.166 C 20.022 25.792 20.208998 25.434 20.578999 25.136 C 20.946999 24.843 21.489998 24.643 22.102 24.645 L 22.696999 24.645 L 22.696999 24.332 L 22.968998 24.332 L 22.968998 24.645 L 25.148998 24.645 L 25.148998 24.332 L 25.419998 24.332 L 25.419998 24.645 L 33.338997 24.645 L 33.415997 24.050001 L 35.616997 24.645 L 36.9 24.645 C 37.025 24.645 37.16 24.659 37.296 24.676 C 37.332 24.684 37.362003 24.688 37.384003 24.69 C 37.500004 24.711 37.620003 24.742 37.730003 24.776001 C 37.726 24.774 37.748005 24.783 37.795002 24.800001 C 37.894 24.835001 37.987003 24.876001 38.076 24.920002 C 38.124 24.943003 38.124 24.943003 38.124 24.943003 C 38.218002 24.994003 38.302002 25.048002 38.386 25.115004 C 38.407 25.131004 38.429 25.146004 38.453003 25.168003 C 38.516003 25.221003 38.574 25.273003 38.621002 25.323004 L 38.651 25.357004 C 38.869 25.609005 38.977 25.880005 38.979 26.167004 L 38.979 37.128 z " fill-opacity="0.2"/>
            <path d="M 39.368 25.499 L 39.103 24.968 L 39.368 25.499 z " fill-opacity="0.2"/>
            <path d="M 39.104 24.967 L 39.104 24.967 C 39.024 24.873999 38.932 24.789 38.835 24.709 C 38.807 24.685999 38.777 24.664 38.749 24.643 C 38.645 24.563 38.534 24.492 38.415 24.424 C 38.394 24.411 38.370003 24.403 38.348 24.390999 C 38.237 24.332998 38.119 24.286 37.995 24.241999 C 37.968 24.230999 37.940998 24.220999 37.913998 24.213 C 37.773 24.168 37.629997 24.133 37.48 24.109 C 37.447998 24.102999 37.416 24.098999 37.378998 24.092999 C 37.224 24.071999 37.064 24.055998 36.899998 24.055998 L 35.698997 24.055998 L 21.468998 20.213997 L 21.308998 20.807997 L 33.340996 24.055996 L 26.02 24.055996 L 26.02 23.74 L 24.555 23.74 L 24.555 24.052 L 23.567 24.052 L 23.567 23.74 L 22.105 23.74 L 22.105 24.052 C 20.626999 24.052 19.43 25.0 19.43 26.169 L 19.43 35.977 L 19.43 37.129 C 19.43 37.199 19.447 37.266003 19.456 37.332 L 19.458 37.417 C 19.461 37.438 19.471 37.458 19.475 37.48 C 19.488 37.541 19.504 37.597 19.523 37.656 C 19.544 37.722 19.570002 37.786 19.599 37.849 C 19.624 37.904 19.648 37.954998 19.678001 38.008 C 19.718002 38.076 19.766 38.144 19.814001 38.207 C 19.855001 38.263 19.896002 38.313 19.941002 38.365 C 20.009003 38.436 20.079002 38.511 20.157001 38.577003 L 20.159002 38.575005 C 20.647003 38.985004 21.336002 39.247005 22.105001 39.247005 L 36.905003 39.247005 C 38.383003 39.247005 39.582 38.299004 39.582 37.129005 L 39.582 26.169 C 39.577 25.721 39.4 25.309 39.104 24.967 z M 30.262 33.799 C 30.262 33.807 30.258999 33.813 30.258999 33.82 C 30.259 33.813 30.26 33.807 30.262 33.799 L 30.262 33.799 z M 29.657 35.552 C 29.657 35.554996 29.654 35.557 29.654 35.557 C 29.654 35.557 29.654 35.555 29.657 35.552 L 29.657 35.552 z M 21.675 33.011 L 21.675 33.011 L 21.675 33.011 L 21.675 33.011 z M 26.477 29.027 C 26.526 29.033 26.576 29.042 26.623 29.048 C 26.573 29.041 26.525 29.032 26.477 29.027 z M 26.971 29.114 C 27.022001 29.127 27.071001 29.138 27.12 29.152 C 27.07 29.141 27.02 29.126 26.971 29.114 z M 27.458 29.264 C 27.499 29.278 27.54 29.291 27.579 29.307 C 27.54 29.291 27.499 29.277 27.458 29.264 z M 24.372 29.307 C 24.41 29.290998 24.452 29.278 24.492 29.264 C 24.452 29.277 24.41 29.291 24.372 29.307 z M 24.831 29.154 C 24.882 29.14 24.932 29.128 24.98 29.113998 C 24.932 29.126 24.882 29.141 24.831 29.154 z M 25.329 29.05 C 25.378 29.040998 25.425001 29.032 25.475 29.028 C 25.425 29.032 25.378 29.041 25.329 29.05 z M 22.893 30.294 C 22.890999 30.296001 22.890999 30.298 22.889 30.300001 C 22.891 30.298 22.891 30.296 22.893 30.294 L 22.893 30.294 z M 21.734 32.529 C 21.734999 32.524998 21.734999 32.519 21.736 32.515 C 21.736 32.521 21.736 32.525 21.734 32.529 z M 21.848 32.053 C 21.848 32.051003 21.848 32.049 21.848999 32.047 L 21.848999 32.047 C 21.849 32.049 21.849 32.051 21.848 32.053 z M 30.177 34.284 C 30.173 34.291 30.173 34.297 30.171 34.302002 C 30.173 34.297 30.173 34.291 30.177 34.284 z M 30.036 34.76 C 30.035 34.760998 30.035 34.761997 30.033998 34.764 L 30.033998 34.764 C 30.034 34.762 30.035 34.761 30.036 34.76 z M 30.273 33.011 L 30.273 33.011 L 30.273 33.011 L 30.273 33.011 z M 30.102 32.047 L 30.102 32.047 C 30.102 32.049 30.102 32.051003 30.104 32.053 C 30.102 32.051 30.102 32.049 30.102 32.047 z M 30.214 32.518 C 30.214 32.522003 30.215 32.526 30.216002 32.531002 C 30.215 32.523 30.214 32.521 30.214 32.518 z M 29.059 30.294 L 29.059 30.294 C 29.061 30.296001 29.061 30.298 29.065 30.300001 C 29.063 30.298 29.061 30.296 29.059 30.294 z M 29.411 30.708 C 29.432 30.736 29.453 30.766 29.473999 30.794 C 29.454 30.766 29.434 30.736 29.411 30.708 z M 22.477 30.793 C 22.498 30.765999 22.519 30.736 22.539999 30.709 C 22.52 30.736 22.497 30.766 22.477 30.793 z M 21.78 34.307 C 21.779001 34.299 21.777 34.293 21.775002 34.286 C 21.777 34.291 21.779 34.299 21.78 34.307 z M 22.293 35.552 C 22.293 35.552998 22.293 35.552998 22.293 35.554996 C 22.294 35.553 22.293 35.553 22.293 35.552 L 22.293 35.552 z M 24.346 37.305 C 24.354 37.309002 24.364 37.311 24.372 37.315 C 24.361 37.311 24.354 37.309 24.346 37.305 L 24.346 37.305 z M 25.977 37.625 C 26.123 37.625 26.265999 37.617 26.407999 37.604 C 26.266 37.617 26.121 37.625 25.977 37.625 C 25.831 37.625 25.688 37.617 25.543999 37.604 C 25.688 37.617 25.829 37.625 25.977 37.625 z M 25.195 37.552 C 25.174 37.546997 25.15 37.545998 25.13 37.540997 C 25.15 37.546 25.175 37.547 25.195 37.552 z M 24.736 37.441 C 24.734 37.441 24.73 37.441 24.728 37.439003 C 24.73 37.441 24.734 37.441 24.736 37.441 z M 27.605 37.305 L 27.605 37.305 C 27.597 37.309002 27.586 37.311 27.579 37.315 C 27.589 37.311 27.598 37.309 27.605 37.305 z M 27.221 37.441 C 27.221 37.441 27.218 37.441 27.216002 37.441 C 27.218 37.441 27.221 37.441 27.221 37.441 z M 26.82 37.541 C 26.799 37.545002 26.779 37.547 26.758 37.551 C 26.779 37.547 26.801 37.545 26.82 37.541 z " fill-opacity="0.4"/>
            <rect x="21.078" y="21.94" transform="matrix(-0.9655 -0.2605 0.2605 -0.9655 53.2497 51.552)" fill="#9fa3b1" width="17.925" height="0.615"/>
            <linearGradient x1="516.8398" gradientTransform="matrix(1 0 0 1 -494.0068 -1628.0156)" y1="1651.1436" x2="516.8398" gradientUnits="userSpaceOnUse" y2="1651.713" xlink:type="simple" xlink:actuate="onLoad" id="SVGID_7_" xlink:show="other">
                <stop stop-color="#606060" offset="0"/>
                <stop stop-color="#000000" offset="1"/>
            </linearGradient>
            <rect x="22.102" width="1.462" fill="url(#SVGID_7_)" y="23.145" height="0.568"/>
            <linearGradient x1="519.2939" gradientTransform="matrix(1 0 0 1 -494.0068 -1628.0156)" y1="1651.1436" x2="519.2939" gradientUnits="userSpaceOnUse" y2="1651.713" xlink:type="simple" xlink:actuate="onLoad" id="SVGID_8_" xlink:show="other">
                <stop stop-color="#606060" offset="0"/>
                <stop stop-color="#000000" offset="1"/>
            </linearGradient>
            <rect x="24.555" width="1.465" fill="url(#SVGID_8_)" y="23.145" height="0.568"/>
            <linearGradient x1="519.9844" gradientTransform="matrix(1 0 0 1 -494.0068 -1628.0156)" y1="1665.0303" x2="519.9844" gradientUnits="userSpaceOnUse" y2="1656.4014" xlink:type="simple" xlink:actuate="onLoad" id="SVGID_9_" xlink:show="other">
                <stop stop-color="#000000" offset="0"/>
                <stop stop-color="#606060" offset="1"/>
            </linearGradient>
            <circle fill="url(#SVGID_9_)" r="4.314" cx="25.977" cy="32.715"/>
            <linearGradient x1="523.5098" gradientTransform="matrix(1 0 0 1 -494.0068 -1628.0156)" y1="1651.4697" x2="523.5098" gradientUnits="userSpaceOnUse" y2="1666.665" xlink:type="simple" xlink:actuate="onLoad" id="SVGID_10_" xlink:show="other">
                <stop stop-color="#cccccc" offset="0"/>
                <stop stop-color="#878787" offset="1"/>
            </linearGradient>
            <path fill="url(#SVGID_10_)" d="M 36.9 23.455 L 22.102 23.455 C 20.623999 23.455 19.427 24.402 19.427 25.573 L 19.427 36.534 C 19.427 37.704 20.625 38.65 22.102 38.65 L 36.902 38.65 C 38.38 38.65 39.579002 37.704002 39.579002 36.534 L 39.579002 25.573 C 39.577 24.402 38.38 23.455 36.9 23.455 z M 28.857 35.921 L 23.09 35.921 C 22.778 35.639 22.511 35.317 22.29 34.957 L 29.653 34.957 C 29.438 35.314 29.169 35.639 28.857 35.921 z M 21.916 34.168 C 21.806 33.859 21.727001 33.538998 21.69 33.204 L 30.262001 33.204 C 30.225 33.538998 30.145 33.861 30.034 34.168 L 21.916 34.168 z M 21.675 32.415 C 21.698 32.082 21.755 31.76 21.848999 31.453001 L 30.100998 31.453001 C 30.194998 31.761002 30.247997 32.084 30.272999 32.415 L 21.675 32.415 z M 22.178 30.663 C 22.371 30.309 22.611 29.984 22.89 29.699 L 29.057999 29.699 C 29.335999 29.984 29.578999 30.307999 29.770998 30.663 L 22.178 30.663 z M 23.939 28.911 C 24.543 28.585 25.237999 28.4 25.973999 28.4 C 26.709 28.4 27.404 28.585 28.011 28.911 L 23.939 28.911 z M 24.343 36.709 L 27.608 36.709 C 27.105999 36.914 26.555 37.029 25.977 37.029 C 25.398998 37.029 24.848 36.914 24.343 36.709 z "/>
            <linearGradient x1="517.1709" gradientTransform="matrix(1 0 0 1 -494.0068 -1628.0156)" y1="1650.0166" x2="529.8472" gradientUnits="userSpaceOnUse" y2="1668.1205" xlink:type="simple" xlink:actuate="onLoad" id="SVGID_11_" xlink:show="other">
                <stop stop-color="#ffffff" offset="0"/>
                <stop stop-color="#ffffff" offset="0.499"/>
                <stop stop-color="#000000" offset="0.5"/>
                <stop stop-color="#000000" offset="1"/>
            </linearGradient>
            <path fill="url(#SVGID_11_)" d="M 36.9 23.455 L 22.102 23.455 C 20.623999 23.455 19.427 24.402 19.427 25.573 L 19.427 36.534 C 19.427 37.704 20.625 38.65 22.102 38.65 L 36.902 38.65 C 38.38 38.65 39.579002 37.704002 39.579002 36.534 L 39.579002 25.573 C 39.577 24.402 38.38 23.455 36.9 23.455 z M 39.227 36.533 C 39.227 36.995003 38.996002 37.424 38.578003 37.756 C 38.162003 38.086002 37.567 38.301 36.903004 38.301 L 22.103 38.3 C 21.439001 38.301 20.845001 38.086 20.428001 37.756 C 20.011002 37.424 19.778002 36.995 19.778002 36.533 L 19.778002 25.572 C 19.778002 25.111 20.010002 24.683 20.428001 24.349 C 20.845001 24.019001 21.439001 23.804 22.103 23.804 L 36.9 23.804 C 37.566 23.804 38.159 24.019001 38.577003 24.349 C 38.993004 24.683 39.226 25.111 39.226 25.572 L 39.226 36.533 L 39.227 36.533 z " fill-opacity="0.5"/>
            <path fill="#383838" d="M 25.968 27.479 C 23.067001 27.481 20.711 29.833 20.711 32.737 C 20.711 35.641 23.065 37.995 25.968 37.996 C 28.872 37.995 31.227001 35.642 31.227001 32.737 C 31.225 29.833 28.872 27.48 25.968 27.479 z M 30.501 32.854 C 30.46 33.423 30.316 33.992 30.091 34.518 L 30.159 34.518 C 30.144001 34.547 30.134 34.58 30.121 34.606003 L 30.052 34.606003 C 29.737 35.301003 29.29 35.858 28.762001 36.270004 L 28.841002 36.270004 C 28.505001 36.544003 28.128002 36.772003 27.723001 36.942005 L 27.708002 36.871006 C 26.626001 37.292007 25.387001 37.259007 24.268002 36.752007 L 24.229002 36.949005 C 23.817001 36.776005 23.436003 36.550007 23.096003 36.270004 L 23.450003 36.270004 C 23.232002 36.116005 23.021002 35.946003 22.824003 35.748005 C 22.468002 35.394005 22.178003 35.012005 21.955004 34.606007 L 21.813004 34.606007 C 21.800003 34.578007 21.788004 34.546005 21.775003 34.518005 L 21.908003 34.518005 C 21.636003 33.997005 21.479002 33.440006 21.448004 32.854004 L 21.414003 32.854004 C 21.414003 32.826004 21.414003 32.794003 21.414003 32.766003 L 21.445004 32.766003 C 21.432003 32.344 21.481003 31.909002 21.600004 31.458002 C 21.620005 31.385002 21.649004 31.314003 21.675005 31.243002 C 21.675005 31.070002 21.699005 30.902002 21.753004 30.745003 C 21.966003 30.129004 22.336004 29.730003 22.850004 29.355003 C 22.920004 29.304003 22.996004 29.260004 23.071005 29.214003 C 23.403006 28.830002 23.852005 28.594002 24.329004 28.582003 C 24.392004 28.556004 24.450005 28.524002 24.510004 28.496002 C 24.810003 28.350002 25.126003 28.285002 25.435003 28.298002 C 25.785004 27.982002 26.275003 27.818003 26.873003 27.984003 C 27.357002 28.120003 27.684004 28.330004 28.074003 28.635002 C 28.091003 28.648003 28.129004 28.681002 28.176003 28.724003 C 28.593002 28.926003 28.940002 29.219004 29.239002 29.570004 C 29.427002 29.717003 29.598001 29.892004 29.760002 30.114004 C 30.333002 30.894005 30.559002 31.831005 30.511002 32.763004 L 30.53 32.763004 C 30.53 32.790005 30.53 32.823006 30.53 32.851006 L 30.501 32.854 L 30.501 32.854 z "/>
            <linearGradient x1="519.9756" gradientTransform="matrix(1 0 0 1 -494.0068 -1628.0156)" y1="1655.8311" x2="519.9756" gradientUnits="userSpaceOnUse" y2="1665.6445" xlink:type="simple" xlink:actuate="onLoad" id="SVGID_12_" xlink:show="other">
                <stop stop-color="#e5e5e5" offset="0"/>
                <stop stop-color="#606060" offset="1"/>
            </linearGradient>
            <path fill="url(#SVGID_12_)" d="M 25.968 27.831 C 23.259 27.831 21.062 30.025 21.062 32.736 C 21.062 35.447 23.258 37.644 25.968 37.644 C 28.68 37.644 30.875 35.447002 30.875 32.736 C 30.874 30.025 28.677 27.831 25.968 27.831 z M 25.977 28.4 C 26.712 28.4 27.407999 28.585 28.012 28.911 L 23.942 28.911 C 24.546 28.585 25.238 28.4 25.977 28.4 z M 25.977 37.029 C 25.399 37.029 24.848 36.913998 24.342999 36.709 L 27.607998 36.709 C 27.104 36.914 26.553 37.029 25.977 37.029 z M 28.857 35.921 L 23.09 35.921 C 22.778 35.639 22.511 35.317 22.29 34.957 L 29.653 34.957 C 29.438 35.314 29.169 35.639 28.857 35.921 z M 30.034 34.168 L 21.916 34.168 C 21.806 33.859 21.727001 33.538998 21.69 33.204 L 30.262001 33.204 C 30.223 33.539 30.145 33.861 30.034 34.168 z M 30.273 32.415 L 21.673 32.415 C 21.696001 32.082 21.753 31.76 21.847 31.453001 L 30.1 31.453001 C 30.195 31.76 30.251 32.082 30.273 32.415 z M 22.178 30.663 C 22.371 30.309 22.611 29.984 22.89 29.699 L 29.057999 29.699 C 29.335999 29.984 29.578999 30.307999 29.770998 30.663 L 22.178 30.663 z "/>
            <linearGradient x1="523.5742" gradientTransform="matrix(1 0 0 1 -494.0068 -1628.0156)" y1="1655.042" x2="523.5742" gradientUnits="userSpaceOnUse" y2="1652.3701" xlink:type="simple" xlink:actuate="onLoad" id="SVGID_13_" xlink:show="other">
                <stop stop-color="#d3d3d3" offset="0"/>
                <stop stop-color="#878787" offset="1"/>
            </linearGradient>
            <path fill="url(#SVGID_13_)" d="M 21.179 27.042 L 21.179 24.37 L 37.956 24.37 L 37.956 26.691002 L 37.956 27.042002 L 21.179 27.042002 L 21.179 27.042 z M 37.605 26.691 L 37.605 26.34 L 37.605 26.691 L 37.605 26.691 z M 21.879 26.342 L 37.255 26.342 L 37.255 25.07 L 21.879 25.07 L 21.879 26.342 L 21.879 26.342 z "/>
            <linearGradient x1="530.8906" gradientTransform="matrix(1 0 0 1 -494.0068 -1628.0156)" y1="1656.9258" x2="530.8906" gradientUnits="userSpaceOnUse" y2="1658.9844" xlink:type="simple" xlink:actuate="onLoad" id="SVGID_14_" xlink:show="other">
                <stop stop-color="#606060" offset="0"/>
                <stop stop-color="#000000" offset="1"/>
            </linearGradient>
            <circle fill="url(#SVGID_14_)" r="1.029" cx="36.884" cy="29.955"/>
            <linearGradient x1="527.7363" gradientTransform="matrix(1 0 0 1 -494.0068 -1628.0156)" y1="1656.9258" x2="527.7363" gradientUnits="userSpaceOnUse" y2="1658.9844" xlink:type="simple" xlink:actuate="onLoad" id="SVGID_15_" xlink:show="other">
                <stop stop-color="#606060" offset="0"/>
                <stop stop-color="#000000" offset="1"/>
            </linearGradient>
            <circle fill="url(#SVGID_15_)" r="1.029" cx="33.729" cy="29.955"/>
            <path fill="#ffffff" d="M 22.293 34.957 L 24.366 34.957 L 25.463999 34.168 L 21.917 34.168 C 21.807 33.859 21.728 33.538998 21.691 33.204 L 26.807 33.204 L 27.904999 32.414997 L 21.675999 32.414997 C 21.699 32.081997 21.755999 31.759996 21.849998 31.452997 L 29.245998 31.452997 L 39.102997 24.371998 C 38.622997 23.817997 37.815998 23.455997 36.901997 23.455997 L 22.101997 23.455997 C 20.623997 23.455997 19.426998 24.403997 19.426998 25.572998 L 19.426998 35.380997 L 19.453999 36.822 C 19.529999 37.268997 19.781998 37.670998 20.154 37.982 L 23.067 35.89 C 22.768 35.617 22.505 35.305 22.293 34.957 z M 25.977 28.4 C 26.712 28.4 27.407999 28.585 28.012 28.911 L 23.942 28.911 C 24.546 28.585 25.238 28.4 25.977 28.4 z M 22.893 29.699 L 29.061 29.699 C 29.339 29.984 29.582 30.307999 29.772001 30.661999 L 22.18 30.661999 C 22.372 30.309 22.611 29.984 22.893 29.699 z " fill-opacity="0.3"/>
            <linearGradient x1="515.5352" gradientTransform="matrix(1 0 0 1 -494.0068 -1628.0156)" y1="1653.7217" x2="531.6143" gradientUnits="userSpaceOnUse" y2="1653.7217" xlink:type="simple" xlink:actuate="onLoad" id="SVGID_16_" xlink:show="other">
                <stop stop-color="#000000" offset="0"/>
                <stop stop-color="#606060" offset="1"/>
            </linearGradient>
            <rect x="21.529" width="16.079" fill="url(#SVGID_16_)" y="24.721" height="1.971"/>
            <linearGradient x1="525.5156" gradientTransform="matrix(1 0 0 1 -494.0068 -1628.0156)" y1="1654.6924" x2="525.5156" gradientUnits="userSpaceOnUse" y2="1653.2852" xlink:type="simple" xlink:actuate="onLoad" id="SVGID_17_" xlink:show="other">
                <stop stop-color="#fccc00" offset="0"/>
                <stop stop-color="#e88400" offset="1"/>
            </linearGradient>
            <polygon fill="url(#SVGID_17_)" points="31.518,25.3 31.518,25.284 31.509,25.292 31.5,25.284 31.5,25.3 31.21,25.578     31.21,26.461 31.21,26.691 31.5,26.691 31.518,26.691 31.809,26.691 31.809,26.461 31.809,25.578   "/>
        </g>
    </g>
</svg>
