<?xml version="1.0" encoding="UTF-8"?>
<svg xmlns="http://www.w3.org/2000/svg" xmlns:xlink="http://www.w3.org/1999/xlink" contentScriptType="text/ecmascript" zoomAndPan="magnify" baseProfile="tiny" contentStyleType="text/css" version="1.1" width="44px" preserveAspectRatio="xMidYMid meet" viewBox="0 0 44 44" height="44px" x="0px" y="0px">
    <rect width="44" fill="none" height="44"/>
    <g>
        <path d="M 3.114 20.697 C 3.114 12.121 9.985 4.578001 18.534 3.8199997 C 27.187 3.0519996 35.406 9.355999 36.791 17.951 C 38.177002 26.532001 32.48 35.191 23.999 37.189003 C 15.29 39.236 6.104 33.854 3.725 25.215 C 3.321 23.745 3.114 22.222 3.114 20.697 " fill-opacity="0.2"/>
        <path d="M 35.707 20.703 C 35.707 29.244 28.346 36.490997 19.804 36.348 C 15.649 36.278 11.650001 34.46 8.785001 31.462 C 6.0770006 28.63 4.0510006 24.322 4.4330006 20.32 C 4.6690006 17.838 7.1870003 16.508 9.284 15.778 C 11.831 14.891 14.587 14.507 17.264 14.296 C 21.241 13.983 25.326 14.19 29.17 15.302 C 31.71 16.036 35.707 17.473 35.707 20.703 " fill-opacity="0.5"/>
        <linearGradient x1="1070.0752" gradientTransform="matrix(1 0 0 1 -1050.0107 -3832.0244)" y1="3867.0625" x2="1070.0752" gradientUnits="userSpaceOnUse" y2="3835.7773" xlink:type="simple" xlink:actuate="onLoad" id="SVGID_1_" xlink:show="other">
            <stop stop-color="#84d8fd" offset="0"/>
            <stop stop-color="#7dd1fb" offset="0.1127"/>
            <stop stop-color="#6bbef7" offset="0.2752"/>
            <stop stop-color="#4d9ff0" offset="0.4679"/>
            <stop stop-color="#2676e7" offset="0.6703"/>
            <stop stop-color="#2676e7" offset="1"/>
        </linearGradient>
        <path fill="url(#SVGID_1_)" d="M 20.062 3.753 C 28.602001 3.753 35.848 11.114 35.703 19.654 C 35.559998 28.192 28.085999 35.319 19.549 35.029 C 11.21 34.748 4.283 27.484 4.424 19.138 C 4.563 10.796 11.717 3.753 20.062 3.753 "/>
        <linearGradient x1="243.3535" gradientTransform="matrix(1 0 0 1 -224 -1496)" y1="1529.1045" x2="243.3535" gradientUnits="userSpaceOnUse" y2="1501.3435" xlink:type="simple" xlink:actuate="onLoad" id="SVGID_2_" xlink:show="other">
            <stop stop-color="#c5eaff" offset="0"/>
            <stop stop-color="#7ac6f7" offset="1"/>
        </linearGradient>
        <path fill="url(#SVGID_2_)" d="M 32.152 20.425 C 32.115 20.146 31.743 20.146 31.533 20.149 C 31.12 20.155 31.0 20.114 30.720001 19.811 C 30.304 19.36 29.167002 19.698 28.616001 19.669 C 28.166 19.645 28.252 19.498001 27.982 19.228 C 27.644001 18.893002 27.644001 19.061 27.314001 19.194 C 26.744001 19.426 25.759 19.12 25.136002 19.094 C 24.388002 19.063 24.62 19.498 24.083002 19.843 C 23.856003 19.989 23.468002 20.896 23.149002 20.723 C 22.531002 20.381 21.825003 20.991999 21.227001 20.47 C 20.782001 20.081 20.260002 19.369 19.598001 19.553999 C 18.960001 19.731998 18.973001 18.615 18.256 18.992998 C 18.063 19.094997 18.18 19.324999 18.082 19.474998 C 17.919 19.723999 17.569 19.888998 17.303001 19.994999 C 16.718002 20.227999 16.136002 19.616999 15.875002 19.146 C 15.551002 18.563 16.276001 18.864 15.928002 18.385 C 15.864002 18.296 15.619002 18.096 15.771003 17.989 C 16.096003 17.765 15.888002 17.6 16.060003 17.29 C 16.036003 17.332 16.813004 17.308 16.891003 17.308 C 17.025003 17.308 17.435003 17.41 17.407003 17.145 C 17.402004 17.098 17.294003 16.667 17.369003 16.667 C 17.497004 16.667 18.473003 16.579 18.453003 16.553999 C 18.556004 16.682 18.758003 16.669998 18.897003 16.64 C 19.085003 16.598999 19.498003 17.16 19.608004 17.271 C 20.042004 16.868 19.280005 16.394 19.135004 16.046 C 18.999004 15.719 19.373005 15.436 19.232004 15.1119995 C 19.077003 14.752 19.435003 14.563999 19.698004 14.403 C 20.169004 14.116 20.383003 13.582 20.510004 13.068 C 20.578005 12.794 20.625004 12.506 20.609005 12.222 C 20.582005 11.706 20.026005 11.907001 19.616005 11.907001 C 19.620005 11.59 19.916004 11.464001 20.193005 11.477 C 20.653004 11.499001 20.851006 11.1380005 21.136005 10.856 C 21.490005 11.571 22.099005 10.638 22.204006 10.32 C 22.311007 9.992 22.547007 9.669 22.854006 9.500999 C 23.197006 9.313 23.264006 8.907999 23.526007 8.646 C 23.118008 8.465 22.662006 8.438 22.251007 8.265 C 21.772007 8.061001 21.456007 7.5330005 21.209007 7.096 C 20.998007 6.7130003 20.994007 6.216 20.685007 5.8840003 C 20.430008 5.61 19.951008 5.4760003 19.602007 5.386 C 19.072006 5.25 17.891006 5.7130003 18.110006 6.431 C 18.244007 6.8710003 18.972006 8.341001 18.280006 8.725 C 18.069006 8.842 17.580006 8.836 17.473007 9.094001 C 17.366007 9.353001 17.881008 9.659 17.626007 9.985001 C 17.082006 10.685 16.951008 9.39 16.678007 9.341001 C 16.305008 9.274 16.105007 9.543 15.695007 9.245001 C 15.444007 9.063001 15.693007 8.771001 15.190007 8.845001 C 14.787007 8.904001 14.569007 8.913001 14.249007 8.625001 C 14.024007 8.425001 13.658008 7.934001 14.097007 7.742001 C 14.557007 7.540001 15.796007 6.0410013 14.812007 5.842001 C 14.697007 5.819001 14.577007 5.822001 14.454007 5.837001 C 10.948008 7.342001 8.080008 10.194 6.547007 13.691001 C 6.677007 13.799001 6.798007 13.917001 6.911007 14.112001 C 7.176007 14.569001 7.4070067 14.571001 7.858007 14.769001 C 8.376007 14.997001 8.492007 14.823001 8.492007 15.436001 C 8.492007 16.165 8.873007 17.715 9.753007 17.715 C 10.2590065 17.715 10.501007 18.057 10.827007 18.384 C 11.210008 18.768002 11.601007 19.048 12.113008 19.236 C 11.942007 19.162 11.792007 19.059 11.661008 18.928 C 12.309008 18.282 13.2780075 19.674 13.723008 20.152 C 14.413008 20.894001 15.697008 20.970001 16.670008 20.852001 C 16.942007 20.818 17.160007 20.633001 17.343008 20.441002 C 17.614008 20.157001 17.630009 20.159002 17.911009 20.165003 C 18.21201 20.171003 18.428009 19.672003 18.86501 19.739002 C 19.029009 19.763002 20.22201 20.039001 20.234009 20.135002 C 20.293009 20.644003 22.519009 21.078003 22.28501 21.605001 C 22.116009 21.981 21.70701 22.132002 21.71101 22.596 C 21.71201 22.829 21.65301 23.499 21.85901 23.672 C 22.10901 23.879002 22.39401 24.063002 22.70701 24.130001 C 23.07101 24.209002 23.18601 24.879002 23.41101 25.145 C 23.67901 25.463001 23.94001 25.61 24.341011 25.615 C 24.40401 25.617 25.14801 25.653 25.14801 25.653 C 24.99401 25.837 25.37501 26.044 25.52701 26.198 C 25.67301 26.342 25.59001 26.725 25.57601 26.906 C 25.51901 27.463 25.51701 28.151001 25.84101 28.635 C 26.259008 29.271 26.22301 29.613 26.182009 30.355 C 26.17001 30.501999 26.048008 31.468 26.23701 31.51 C 26.32701 31.531 26.557009 31.187 26.61801 31.124 C 26.68801 31.526001 27.20101 31.649 26.88901 32.103 C 26.831009 32.185 26.82601 32.285 26.84101 32.381 C 27.352009 32.11 27.84001 31.800001 28.31901 31.470001 C 28.23101 31.366001 28.09001 31.183 28.09801 31.116001 C 28.09801 31.04 28.77801 31.094002 28.634008 30.801 C 28.565008 30.652 28.024008 30.361 28.45901 30.202 C 28.56601 30.161999 28.873009 30.136 28.85001 29.944 C 28.80501 29.629 29.09601 29.61 29.31501 29.423 C 29.83901 28.967001 29.75701 28.803 29.27801 28.369 C 28.93001 28.056 29.48301 28.126999 29.67401 28.123999 C 30.23701 28.110998 29.884008 27.546 30.12901 27.216 C 30.39501 26.858 31.15201 26.305 30.72901 25.793 C 30.442009 25.453999 30.90701 24.83 30.62501 24.546999 C 31.06201 24.984999 31.56501 24.151999 31.79101 23.870998 C 32.28601 23.238998 32.020008 22.776999 31.82101 22.097998 C 31.643 21.493 32.232 21.017 32.152 20.425 z "/>
        <linearGradient x1="1070.0029" gradientTransform="matrix(1 0 0 1 -1050.0107 -3832.0244)" y1="3851.4004" x2="1070.0029" gradientUnits="userSpaceOnUse" y2="3836.4092" xlink:type="simple" xlink:actuate="onLoad" id="SVGID_3_" xlink:show="other">
            <stop stop-color="#26bfff" offset="0"/>
            <stop stop-color="#43c8ff" offset="0.0464"/>
            <stop stop-color="#6fd5ff" offset="0.1258"/>
            <stop stop-color="#96e0ff" offset="0.2112"/>
            <stop stop-color="#b6eaff" offset="0.3018"/>
            <stop stop-color="#d1f1ff" offset="0.3987"/>
            <stop stop-color="#e5f7ff" offset="0.5044"/>
            <stop stop-color="#f4fcff" offset="0.6233"/>
            <stop stop-color="#fcfeff" offset="0.7666"/>
            <stop stop-color="#ffffff" offset="1"/>
        </linearGradient>
        <path fill="url(#SVGID_3_)" d="M 4.999 19.397 C 4.999 11.306 11.899 4.405999 19.99 4.405999 C 28.08 4.405999 34.982 11.304999 34.982 19.397 C 24.986 19.397 14.993 19.397 4.999 19.397 " fill-opacity="0.7"/>
    </g>
    <g>
        <g>
            <path d="M 42.938 17.978 C 40.973 14.645 36.764 13.356001 33.203 14.742001 L 33.170998 14.696001 C 27.371998 17.773 22.568996 22.271 19.288998 27.975002 C 18.147997 29.956001 16.949997 32.118004 16.862997 34.455 C 16.741997 37.708 18.605997 40.705 21.585997 42.018 L 25.027996 41.455 L 27.519997 34.253002 C 26.650997 33.064003 25.726997 31.880003 24.613997 30.907001 C 24.642996 30.781002 24.689997 30.618002 24.759996 30.411001 C 25.663996 28.772001 26.787996 27.259 28.057997 25.883001 C 29.225996 24.614002 30.661997 22.954002 32.322 22.359001 C 33.406 23.359001 34.678997 24.161001 35.961998 24.883001 L 42.856 21.627 L 43.038998 18.140001 L 42.938 17.978 " fill-opacity="0.2"/>
            <path d="M 26.829 34.46 C 25.107 32.106 23.939001 31.258 23.939001 31.258 C 23.939001 31.258 23.964 30.925 24.191002 30.264 C 25.261002 28.309 26.634003 26.531 28.191002 24.944 C 29.373001 23.741001 30.783 22.157 32.491 21.764 C 32.491 21.764 33.464 22.832 35.988003 24.289 L 42.253002 21.326 L 42.407 18.397 C 42.109 17.894999 41.747 17.421999 41.316 16.991999 C 39.097 14.770999 35.755 14.324999 32.966003 15.613998 L 32.964005 15.607999 L 32.964005 15.607999 C 31.411005 16.287998 29.933004 17.405998 28.597004 18.426998 C 26.758003 19.829998 25.056004 21.352999 23.545004 23.108997 C 21.226004 25.805998 19.079004 29.024998 17.872004 32.401997 L 17.872004 32.401997 L 17.876003 32.401997 C 16.900003 35.313995 17.707003 38.589996 20.155003 40.550995 C 20.630003 40.930996 21.139002 41.239994 21.669003 41.481995 L 24.564003 41.010994 L 26.829 34.46 " fill-opacity="0.4"/>
            <linearGradient x1="275.4727" gradientTransform="matrix(1 0 0 -1 -258.002 -981.0039)" y1="-1008.5762" x2="300.4082" gradientUnits="userSpaceOnUse" y2="-1008.5762" xlink:type="simple" xlink:actuate="onLoad" id="SVGID_4_" xlink:show="other">
                <stop stop-color="#66e800" offset="0"/>
                <stop stop-color="#1f7216" offset="1"/>
            </linearGradient>
            <path fill="url(#SVGID_4_)" d="M 26.829 33.841 C 25.107 31.489 23.939001 30.639 23.939001 30.639 C 24.218 28.598 26.139002 26.555 27.476002 25.081 C 28.795002 23.628 30.505001 21.620998 32.49 21.144 C 32.49 21.144 33.463 22.210999 35.986 23.668 L 42.252 20.706999 L 42.406 17.776999 C 42.107 17.274998 41.746 16.801998 41.315998 16.373 C 39.094997 14.151999 35.753998 13.705999 32.964996 14.9939995 L 32.962997 14.988 L 32.962997 14.989 C 29.486998 16.861 26.276997 19.348 23.682999 22.329 C 21.334 25.026001 19.015999 28.346 17.869999 31.782001 L 17.869999 31.782001 L 17.873999 31.782001 C 16.897 34.695 17.704998 37.968002 20.152998 39.933002 C 20.626999 40.312004 21.135998 40.622 21.666998 40.865 L 24.561998 40.394 L 26.829 33.841 "/>
            <linearGradient x1="287.9863" gradientTransform="matrix(1 0 0 -1 -258.002 -981.0039)" y1="-995.7998" x2="287.9863" gradientUnits="userSpaceOnUse" y2="-1014.082" xlink:type="simple" xlink:actuate="onLoad" id="SVGID_5_" xlink:show="other">
                <stop stop-color="#cfffb6" offset="0"/>
                <stop stop-color="#8def00" offset="1"/>
            </linearGradient>
            <path fill="url(#SVGID_5_)" d="M 41.883 17.909 C 41.625 17.492 41.317 17.099 40.954998 16.738 C 39.656 15.441001 37.948997 14.7960005 36.204 14.7960005 C 35.182 14.7960005 34.146 15.019 33.183 15.463 L 33.062 15.519 L 33.06 15.52 C 32.84 15.626 32.625 15.747001 32.416 15.876 L 32.407 15.88 L 32.401 15.883 C 31.548 16.368 30.09 17.271 28.408 18.605 L 28.403002 18.608 L 28.4 18.61 C 26.331 20.167 24.626999 21.934 23.25 23.649 C 20.751 26.766 19.306 29.727001 18.698 31.121 L 18.696 31.129 L 18.692 31.14 C 18.585999 31.366 18.49 31.59 18.41 31.817999 L 18.407999 31.827 L 18.366 31.947 C 18.241999 32.318 18.149 32.701 18.085999 33.08 C 22.189 27.199001 32.586 14.163002 39.899 21.253002 L 41.753 20.374002 L 41.883 17.909 z "/>
        </g>
    </g>
</svg>
