<?xml version="1.0" encoding="utf-8"?>
<!-- Generator: Adobe Illustrator 17.1.0, SVG Export Plug-In . SVG Version: 6.00 Build 0)  -->
<!DOCTYPE svg PUBLIC "-//W3C//DTD SVG 1.1//EN" "http://www.w3.org/Graphics/SVG/1.1/DTD/svg11.dtd">
<svg version="1.1" id="svg-source" xmlns="http://www.w3.org/2000/svg" xmlns:xlink="http://www.w3.org/1999/xlink" x="0px" y="0px"
	 width="31.9px" height="31.9px" viewBox="70.6 59.9 31.9 31.9" enable-background="new 70.6 59.9 31.9 31.9" xml:space="preserve">
<g id="knife">
	<path fill="#CCCFD1" d="M76.6,59.9c2,0,20.8,2,20.8,2l2.2,6h-20c0,0-9-2-9-4C70.6,62,74.7,59.9,76.6,59.9z"/>
	<path fill="#B7BABC" d="M96.5,61.9c-1.5-0.2-4.5-0.5-7.9-0.8V68h7l1.8-6L96.5,61.9z"/>
	<path fill="#D9DCDD" d="M77,67.5c1.1,0.3,2,0.4,2.6,0.4h16.8c-0.9-2.3-5-4-9.8-4C82.1,63.9,78.3,65.4,77,67.5z"/>
	<path fill="#C2C4C5" d="M88.6,64v3.9h7v-1.2C94.3,65.4,91.7,64.3,88.6,64z"/>
	<path fill="#BF392C" d="M74.4,81.7l18-18c2.3-2.3,6.1-2.3,8.4,0c2.3,2.3,2.3,6.1,0,8.4l-18,18c-2.3,2.3-6.1,2.3-8.4,0
		C72.1,87.8,72.1,84,74.4,81.7z"/>
	<path fill="#E4E5E5" d="M80.6,85.4l0.7-0.7c0.4-0.4,0.4-1.1,0-1.5s-1.1-0.4-1.5,0l-0.7,0.7l-0.7-0.7c-0.4-0.4-1.1-0.4-1.5,0
		s-0.4,1.1,0,1.5l0.7,0.7l-0.7,0.7c-0.4,0.4-0.4,1.1,0,1.5s1.1,0.4,1.5,0l0.7-0.7l0.7,0.7c0.4,0.4,1.1,0.4,1.5,0s0.4-1.1,0-1.5
		L80.6,85.4z"/>
</g>
</svg>
