<?xml version="1.0" encoding="utf-8"?>
<!-- Generator: Adobe Illustrator 17.1.0, SVG Export Plug-In . SVG Version: 6.00 Build 0)  -->
<!DOCTYPE svg PUBLIC "-//W3C//DTD SVG 1.1//EN" "http://www.w3.org/Graphics/SVG/1.1/DTD/svg11.dtd">
<svg version="1.1" id="svg-source" xmlns="http://www.w3.org/2000/svg" xmlns:xlink="http://www.w3.org/1999/xlink" x="0px" y="0px"
	 width="20px" height="27.5px" viewBox="51.6 129 20 27.5" enable-background="new 51.6 129 20 27.5" xml:space="preserve">
<path id="marker_1_" fill="#DB3931" d="M61.6,129c-5.5,0-10,4.7-10,10.4c0,0.2,0.2,3.3,0.9,4.7c2.5,5.9,9.1,12.5,9.1,12.4
	c0,0,6.6-6.5,9.1-12.5c0.9-1.9,0.9-4.6,0.9-4.7C71.6,133.7,67.1,129,61.6,129z M61.6,143.6c-2.2,0-4-1.8-4-4s1.8-4,4-4s4,1.8,4,4
	S63.8,143.6,61.6,143.6z"/>
</svg>
