<?xml version="1.0" encoding="utf-8"?>
<!-- Generator: Adobe Illustrator 17.1.0, SVG Export Plug-In . SVG Version: 6.00 Build 0)  -->
<!DOCTYPE svg PUBLIC "-//W3C//DTD SVG 1.1//EN" "http://www.w3.org/Graphics/SVG/1.1/DTD/svg11.dtd">
<svg version="1.1" id="svg-source" xmlns="http://www.w3.org/2000/svg" xmlns:xlink="http://www.w3.org/1999/xlink" x="0px" y="0px"
	 width="32px" height="32px" viewBox="14.5 9 32 32" enable-background="new 14.5 9 32 32" xml:space="preserve">
<g id="mountain">
	<path fill="#DBDEE0" d="M45.4,19.7c0-0.2,0.1-0.5,0.1-0.7c0-2.2-1.8-4-4-4c-1.6,0-2.9,0.9-3.6,2.2c-0.5-0.8-1.4-1.2-2.4-1.2
		c-1.7,0-3,1.3-3,3c0,0.2,0,0.5,0.1,0.7c-0.7,0.6-1.1,1.4-1.1,2.3c0,1.7,1.3,3,3,3h9c1.7,0,3-1.3,3-3C46.5,21.1,46.1,20.3,45.4,19.7
		z"/>
	<path fill="#3DB39E" d="M30.5,9l16,32h-32L30.5,9z"/>
	<path fill="#E4E7E7" d="M24.5,20l3,3l3-3l3,3l3-3l-5-11h-2L24.5,20z"/>
	<path fill="#4A4A4A" d="M32.5,38h2v3h-2V38z"/>
	<polygon fill="#277264" points="38.5,38 35.3,34 37.5,34 33.5,29 29.5,34 31.7,34 28.5,38 	"/>
	<polygon fill="#349886" points="21.5,27 14.5,41 15.5,41 29.5,27 	"/>
	<path fill="#ECEEEE" d="M28.4,23.7c0-0.2,0.1-0.5,0.1-0.7c0-2.2-1.8-4-4-4c-1.6,0-2.9,0.9-3.6,2.2c-0.5-0.8-1.4-1.2-2.4-1.2
		c-1.7,0-3,1.3-3,3c0,0.2,0,0.5,0.1,0.7c-0.7,0.6-1.1,1.4-1.1,2.3c0,1.7,1.3,3,3,3h9c1.7,0,3-1.3,3-3C29.5,25.1,29.1,24.3,28.4,23.7
		z"/>
</g>
</svg>
