<?xml version="1.0" encoding="utf-8"?>
<!-- Generator: Adobe Illustrator 17.1.0, SVG Export Plug-In . SVG Version: 6.00 Build 0)  -->
<!DOCTYPE svg PUBLIC "-//W3C//DTD SVG 1.1//EN" "http://www.w3.org/Graphics/SVG/1.1/DTD/svg11.dtd">
<svg version="1.1" id="svg-source" xmlns="http://www.w3.org/2000/svg" xmlns:xlink="http://www.w3.org/1999/xlink" x="0px" y="0px"
	 width="32.1px" height="23.9px" viewBox="85.5 132.7 32.1 23.9" enable-background="new 85.5 132.7 32.1 23.9"
	 xml:space="preserve">
<path id="piggy" fill="#E8927C" d="M117.6,143.2c0-5.8-6.5-10.5-14.5-10.5c-2.8,0-5.4,0.6-7.6,1.6c0-0.2-0.1-0.4-0.3-0.6h-4.4
	c-0.4,0.5-0.4,1.3,0,1.8l0.9,1.1c-1.4,1.3-2.5,2.9-2.9,4.6l-1.2,0.3c-1.5,0.4-2.4,1.9-2,3.4l0.7,2.7c0.4,1.5,1.9,2.4,3.4,2l1.4-0.4
	c1,1.1,2.3,2,3.8,2.7l-0.4,1.8c-0.3,1.2,0.4,2.5,1.5,2.8s2.2-0.4,2.4-1.6l0.4-1.8c1.3,0.3,2.7,0.4,4.2,0.4c1.8,0,3.5-0.2,5.1-0.7
	l0.5,2c0.3,1.2,1.4,1.9,2.4,1.6c1.1-0.3,1.7-1.6,1.4-2.8l-0.5-2.3C115.4,149.6,117.6,146.6,117.6,143.2z M93.7,142.7
	c-0.6,0-1-0.4-1-1s0.5-1,1-1c0.6,0,1,0.4,1,1C94.7,142.2,94.2,142.7,93.7,142.7z M108.7,137.6c0,0-2.5-0.8-5-0.8s-5,0.9-5,0.9v-1.1
	c0,0,2.5-0.9,5-0.9s5,0.8,5,0.8V137.6z"/>
</svg>
