<svg xmlns="http://www.w3.org/2000/svg" width="100" height="62.905"><path d="M11.068 34.558c-1.585-2.365-2.595-5.098-2.939-8.106-.344.092-.666.161-1.033.161-2.342 0-4.248-1.906-4.248-4.248 0-1.47.758-2.756 1.883-3.514l12.147-8.45c2.549-1.562 5.534-2.526 8.749-2.641l30.149.092 22.043-3.512v-.345c0-2.204 1.767-3.995 3.972-3.995s3.996 1.791 3.996 3.995c0 .345-.046.712-.138 1.034l2.043.275c2.365.459 4.156 2.549 4.156 5.052 0 .161 0 .298-.022.436l6.544 3.536c.941.368 1.63 1.309 1.63 2.388 0 .367-.068.689-.206 1.01l-1.631 3.697c-.804 1.309-2.181 2.228-3.788 2.411l-15.041 1.791-13.547 15.902 7.738 13.363 5.098 2.365c.803.552 1.354 1.493 1.354 2.549 0 1.699-1.378 3.078-3.101 3.078l-9.805.022c-2.525 0-4.707-1.424-5.809-3.49l-8.382-15.155-18.92.023 6.682 10.287 4.937 2.25c.919.551 1.516 1.538 1.516 2.664 0 1.699-1.378 3.076-3.077 3.076l-9.828.023c-2.388 0-4.5-1.286-5.649-3.215l-9.208-14.627-6.429 6.246-.528 4.087 2.158 1.423c.368.184.689.438.965.758 1.056 1.332.872 3.284-.459 4.34-.574.482-1.286.713-1.975.689l-4.317.023c-1.194-.139-2.273-.758-2.962-1.677l-5.029-8.68c-.482-.916-.757-1.949-.757-3.051 0-1.676.62-3.215 1.676-4.387l9.392-9.953z"/></svg>