<svg class="svg-source" xmlns="http://www.w3.org/2000/svg" width="32" height="30" viewBox="170.6 12.6 32 30"><g class="hamburger"><path class="buns" fill="#DDAF6D" d="M188.6 12.6h-4c-5.5 0-13 4.5-13 10v1c0 .6.4 1 1 1h28c.6 0 1-.4 1-1v-1c0-5.5-7.5-10-13-10zm-17 28c0 1.1.9 2 2 2h26c1.1 0 2-.9 2-2v-2h-30v2z"/><path class="burger" fill="#BB6F39" d="M172.6 34.6h28c1.1 0 2 .9 2 2s-.9 2-2 2h-28c-1.1 0-2-.9-2-2s.9-2 2-2z"/><path class="cheese" fill="#EFC75E" d="M172.6 30.6h28v4h-2l-3 3-3-3h-20v-4z"/><path class="lettuce" fill="#3DB39E" d="M200.6 27.6l-28-.1v.1c-1.1.2-2 1.2-2 2.4 0 1.4 1.1 2.5 2.5 2.5 1.2 0 2.2-.9 2.4-2h4.1c0 1.1 1.1 2 2.5 2s2.5-.9 2.5-2h4c0 1.1 1.1 2 2.5 2s2.5-.9 2.5-2h4.1c.2 1.1 1.2 2 2.4 2 1.4 0 2.5-1.1 2.5-2.5 0-1.1-.9-2.1-2-2.4z"/><path class="tomato" fill="#BF392C" d="M172.6 24.6h28v3h-28v-3z"/><path class="bun-shadows shadows" fill="#C69D63" d="M172.6 24.6h2c-.6 0-1-.4-1-1v-1c0-5.5 7.5-10 13-10h-2c-5.5 0-13 4.5-13 10v1c0 .5.4 1 1 1zm1 16v-2h-2v2c0 1.1.9 2 2 2h2c-1.1 0-2-.9-2-2z"/><path class="burger-shadow" fill="#A86433" d="M172.6 36.6c0-1.1.9-2 2-2h-2c-1.1 0-2 .9-2 2s.9 2 2 2h2c-1.1 0-2-.9-2-2z"/><path fill="#37A18E" d="M172.6 30.1c0-1.2.9-2.2 2-2.4v-.1h-2v.1c-1.1.2-2 1.2-2 2.4 0 1.4 1.1 2.5 2.5 2.5.4 0 .7-.1 1-.2-.9-.4-1.5-1.3-1.5-2.3zm9 .5h-2c0 1.1 1.1 2 2.5 2 .4 0 .7-.1 1-.2-.9-.3-1.5-1-1.5-1.8zm9 0h-2c0 1.1 1.1 2 2.5 2 .4 0 .7-.1 1-.2-.9-.3-1.5-1-1.5-1.8zm9 0h-2c.2 1.1 1.2 2 2.4 2 .4 0 .7-.1 1-.2-.7-.4-1.2-1-1.4-1.8z" class="lettuce-shadow"/></g></svg>