<svg xmlns="http://www.w3.org/2000/svg" xmlns:xlink="http://www.w3.org/1999/xlink" version="1.1" id="Layer_1" x="0px" y="0px" width="100px" height="100px" viewBox="0 0 100 100" enable-background="new 0 0 100 100" xml:space="preserve">
<path d="M95.838,42.306c-0.574-0.66-3.049-2.023-3.554-3.61c-1.38-4.999-7.236-6.833-7.236-6.833l0.628-9.124  c-2.598,0.792-6.201,3.782-9.97,7.567c-0.587-0.076-1.188-0.13-1.8-0.13c-4.327,0-8.182,2.015-10.691,5.148  c-5.458-4.478-11.402-7.598-21.055-7.255C21.726,28.8,10.525,42.604,6.849,61.699C2.15,65.441,1.935,69.611,2.295,71.91  c1.093,7.012,9.395,12.104,14.94,13.479c16.643,4.131,33.75-2.756,43.576-17.537c1.319-1.981,0.78-4.656-1.205-5.975  c-1.979-1.318-4.653-0.779-5.974,1.201C45.847,74.789,32.375,80.264,19.31,77.021c-3.631-0.902-7.785-3.978-8.427-6.16l1.092,0.275  h29.703c3.791-2.306,7.156-5.5,9.806-9.486c2.104-3.17,6.396-4.029,9.562-1.926c3.164,2.106,4.03,6.395,1.925,9.562  c-0.422,0.631-0.859,1.244-1.304,1.851h17.927c-0.07-0.146,0.077-0.062,0.077-0.062c-0.149-0.224-1.819-2.816-2.006-5.765  c-0.353-5.58,3.39-10.199,3.39-10.199l0.039-0.055c11.692,2.043,14.223-5.297,14.871-8.869  C96.264,44.537,96.863,42.997,95.838,42.306z M86.002,41.023c-0.891,0-1.613-0.723-1.613-1.614c0-0.892,0.723-1.614,1.613-1.614  c0.892,0,1.614,0.723,1.614,1.614C87.616,40.3,86.894,41.023,86.002,41.023z"/>
</svg>