<svg xmlns="http://www.w3.org/2000/svg" width="100" height="100"><path d="M95.838 42.306c-.574-.66-3.05-2.023-3.554-3.61-1.38-5-7.236-6.833-7.236-6.833l.628-9.124c-2.598.79-6.2 3.78-9.97 7.566-.587-.076-1.188-.13-1.8-.13-4.327 0-8.182 2.015-10.69 5.148-5.46-4.478-11.403-7.598-21.056-7.255-20.434.73-31.635 14.534-35.31 33.63-4.7 3.74-4.915 7.91-4.555 10.21 1.093 7.012 9.395 12.104 14.94 13.48 16.643 4.13 33.75-2.757 43.576-17.538 1.32-1.98.78-4.656-1.204-5.975-1.98-1.318-4.653-.78-5.974 1.2C45.847 74.79 32.375 80.265 19.31 77.022c-3.63-.9-7.785-3.977-8.427-6.16l1.092.276h29.703c3.79-2.306 7.156-5.5 9.806-9.486 2.104-3.17 6.396-4.03 9.562-1.926 3.164 2.106 4.03 6.395 1.925 9.562-.42.63-.858 1.244-1.303 1.85h17.927c-.07-.145.077-.06.077-.06-.148-.225-1.818-2.817-2.005-5.766-.353-5.58 3.39-10.2 3.39-10.2l.04-.054c11.69 2.043 14.222-5.297 14.87-8.87.3-1.65.898-3.19-.127-3.88zm-9.836-1.283c-.89 0-1.613-.723-1.613-1.614 0-.893.722-1.615 1.612-1.615.892 0 1.614.723 1.614 1.614 0 .89-.722 1.613-1.614 1.613z"/></svg>