<svg xmlns="http://www.w3.org/2000/svg" width="32" height="23" viewBox="8.5 132.5 32 23"><path fill="#9EA1AF" d="M34.4 140.6c-.4-4.6-4.2-8.1-8.9-8.1-3.6 0-6.7 2.1-8.1 5.2-.4-.1-.9-.2-1.4-.2-2.5 0-4.5 2-4.5 4.5 0 .5.1 1 .2 1.4-1.9 1.1-3.2 3.2-3.2 5.6 0 3.6 2.9 6.5 6.5 6.5h18c4.1 0 7.5-3.4 7.5-7.5 0-3.7-2.6-6.7-6.1-7.4zm-15 7.5l-1.9-1.8c-.3-.4 0-.8.5-.8h.8c.1-3.3 2.8-6 6.1-6 1.7 0 3.2.7 4.3 1.8l-1.4 1.3c-.7-.8-1.8-1.2-2.9-1.2-2.3 0-4.1 1.9-4.2 4.1h1c.5 0 .8.4.5.8l-1.9 1.8c-.2.5-.7.5-.9 0zm12.1-2.6h-.8c-.1 3.3-2.8 6-6.1 6-1.7 0-3.2-.7-4.3-1.8l1.4-1.3c.7.8 1.8 1.2 2.9 1.2 2.3 0 4.1-1.9 4.2-4.1h-1c-.5 0-.8-.4-.5-.8l1.9-1.8c.3-.4.7-.4 1 0l1.9 1.8c.2.4-.1.8-.6.8z"/></svg>