<svg xmlns="http://www.w3.org/2000/svg" width="650" height="347.078" font-size="15" font-family="Verdana, Helvetica, sans-serif"><defs><pattern id="a" patternUnits="userSpaceOnUse" width="7" height="7"><path d="M0 7l7-7" stroke="#e8e9ea" fill="none"/></pattern></defs><rect width="650" height="266" fill="url(#a)" transform="translate(0 2)"/><g class="field"><text fill="#284b81" font-weight="bold" font-size=".8em" transform="translate(25 20)"><tspan dy="0" x="0">Динамика объёмов технологического присоединения</tspan><tspan dy="1.5em" x="0">генерирующих энергоустановок заявителей всего по Обществу, МВт</tspan></text><g class="graph-area"><g class="y axis" fill="#284b81" font-size=".8em"><text class="tick" transform="translate(25 221.801)" dominant-baseline="central">2010</text><text class="tick" transform="translate(25 151.304)" dominant-baseline="central">2011</text><text class="tick" transform="translate(25 80.808)" dominant-baseline="central">2012</text></g><g class="layer-0 layer" fill="#284b81" stroke="#284b81" transform="translate(82 52.609)"><rect height="17.799" width="467.158" transform="translate(0 140.993)"/><rect height="17.799" width="468" transform="translate(0 70.497)"/><rect height="17.799" width="75.368"/><text class="label" transform="translate(472.158 150.393)" font-size=".667em" fill="#368cc5" dominant-baseline="central">221.9</text><text class="label" transform="translate(473 79.896)" font-size=".667em" fill="#368cc5" dominant-baseline="central">222.3</text><text class="label" transform="translate(80.368 9.4)" font-size=".667em" fill="#368cc5" dominant-baseline="central">35.8</text></g><g class="layer-1 layer" fill="#c19a59" stroke="#c19a59" transform="translate(82 52.609)"><rect height="17.799" width="407.579" transform="translate(0 159.792)"/><rect height="17.799" width="37.895" transform="translate(0 89.296)"/><text class="label" transform="translate(412.579 169.192)" font-size=".667em" fill="#368cc5" dominant-baseline="central">193.6</text><text class="label" transform="translate(42.895 98.695)" font-size=".667em" fill="#368cc5" dominant-baseline="central">18.0</text><text class="label" transform="translate(5 28.199)" font-size=".667em" fill="#368cc5" dominant-baseline="central">0.0</text></g><g class="layer-2 layer" fill="#3e6cb1" stroke="#3e6cb1" transform="translate(82 52.609)"><rect height="17.799" width="84.211" transform="translate(0 178.592)"/><rect height="17.799" width="231.579" transform="translate(0 37.598)"/><text class="label" transform="translate(89.211 187.991)" font-size=".667em" fill="#368cc5" dominant-baseline="central">40.0</text><text class="label" transform="translate(5 117.494)" font-size=".667em" fill="#368cc5" dominant-baseline="central">0.0</text><text class="label" transform="translate(236.579 46.998)" font-size=".667em" fill="#368cc5" dominant-baseline="central">110.0</text></g></g><g class="legend" font-size=".733em"><g class="legend-item" transform="translate(25 20) translate(-25 270)" fill="#284b81"><rect width="15" height="15"/><text dy="7.5" font-size="1.091em" dx="22.5" dominant-baseline="central">Объем поданных заявок на ТП</text></g><g class="legend-item" transform="translate(229 290)"><rect width="15" height="15" fill="#c19a59"/><text fill="#284b81" dy="7.5" font-size="1.091em" dx="22.5" dominant-baseline="central">Объем заключенных договоров на ТП</text></g><g class="legend-item" transform="translate(0 320)"><rect width="15" height="15" fill="#3e6cb1"/><text fill="#284b81" dy="7.5" font-size="1.091em" dx="22.5" dominant-baseline="central">Объем исполненных договоров ТП</text></g></g></g><path d="M0 270h650M0 0h650" stroke="#dedfe0"/></svg>