<svg xmlns="http://www.w3.org/2000/svg" width="28" height="28" viewBox="126 130 28 28"><path opacity=".3" d="M140 158c-7.7 0-14-6.3-14-14s6.3-14 14-14 14 6.3 14 14-6.3 14-14 14zm0-24c-5.5 0-10 4.5-10 10s4.5 10 10 10 10-4.5 10-10-4.5-10-10-10z"/><path d="M140 132.5c-6.4 0-11.5 5.1-11.5 11.5s5.1 11.5 11.5 11.5 11.5-5.1 11.5-11.5-5.1-11.5-11.5-11.5zm5.3 12.7h-4.1v4.1c0 .7-.5 1.2-1.2 1.2s-1.2-.5-1.2-1.2v-4.1h-4.1c-.7 0-1.2-.5-1.2-1.2s.5-1.2 1.2-1.2h4.1v-4.1c0-.7.5-1.2 1.2-1.2s1.2.5 1.2 1.2v4.1h4.1c.7 0 1.2.5 1.2 1.2s-.5 1.2-1.2 1.2z"/></svg>