<svg xmlns="http://www.w3.org/2000/svg" width="32" height="32" viewBox="121 68.1 32 32"><path fill="#E4E7E7" d="M137 68.1c8.8 0 16 7.2 16 16s-7.2 16-16 16-16-7.2-16-16 7.2-16 16-16z"/><path fill="#26A6D1" d="M137 73.1c6.1 0 11 4.9 11 11s-4.9 11-11 11-11-4.9-11-11 4.9-11 11-11z"/><path fill="#324D5B" d="M137 78.1c3.3 0 6 2.7 6 6s-2.7 6-6 6-6-2.7-6-6 2.7-6 6-6z"/><path fill="#D4EDF6" d="M141.5 78.1c1.4 0 2.5 1.1 2.5 2.5s-1.1 2.5-2.5 2.5-2.5-1.1-2.5-2.5 1.1-2.5 2.5-2.5z"/><path fill="#D6DBDE" d="M142.8 82.7c-.4-1.7-1.5-3.1-3-3.9-.5.5-.8 1.1-.8 1.8 0 1.4 1.1 2.5 2.5 2.5.5 0 .9-.1 1.3-.4z"/><path fill="#2296BD" d="M138 94.1c-6.1 0-11-4.9-11-11 0-2.8 1-5.3 2.7-7.3-2.3 2-3.7 5-3.7 8.3 0 6.1 4.9 11 11 11 3.3 0 6.2-1.5 8.3-3.7-2 1.7-4.5 2.7-7.3 2.7z"/></svg>