<svg viewBox="0 0 512 512" xmlns="http://www.w3.org/2000/svg">
<path d="m0,0h512v512h-512z"/>
<g transform="matrix(18.68858,0,0,18.68858,-9079.17267,-20445.93239)">
<g transform="matrix(.93098,0,0,.93098,35.34356,77.33533)">
<path d="m493.7933,1101.8423c2.2452-1.2966 5.1433-.5778 6.4395,1.6672s.509,5.183-1.7361,6.4789-5.1144.4697-6.4107-1.7753-.5378-5.0747 1.7073-6.3708z" fill="#fff" stroke="#000" stroke-width="1.2609"/>
<path d="m496.9475,1104.9196 6.3035,10.9181c1.2678,2.0199 2.8104,2.2797 4.8625,1.3292 1.4207-.8712 2.476-2.8653 1.2142-5.0509l-1.2526-2.1696 1.8319-.8442 1.2525,2.1693c1.8868,3.2681.5449,6.7823-1.9277,8.2984-1.2363.7581-2.7583,1.0503-4.2671.6905s-2.9607-1.4108-3.9533-3.1298l-6.3035-10.918 2.2396-1.293z" fill="#fff"/>
<path d="m494.9918,1104.0315c-1.06.612-1.4021,1.8896-.7904,2.9492s1.9386,1.4874 2.9985.8753 1.4381-2.0235.8261-3.0834-1.9744-1.3529-3.0342-.7411z"/>
<path d="m505.8695,1105.2823c.7344,2.639.9997,5.2781.9247,7.9173l1.6495-1.9544 1.9778-1.2145c-1.1547-2.3042-2.6945-3.8424-4.552-4.7484z" fill="#fff"/>
</g>
<path d="m496.6723,1094.3943c.8984,2.6762-1.0408,5.4395-5.5313,6.8027-7.0759,2.1482-4.1046,10.4764 3.2609,7.5395" fill="none" stroke="#fff"/>
<path d="m492.3278,1108.2857c1.4742-.1697 2.4771-.7952 3.2572-1.3243" fill="none" stroke="#000"/>
<path d="m493.2122,1110.1678c1.5801-.446 3.8319-1.461 3.9046-2.8334" fill="none" stroke="#000"/>
<path d="m493.5135,1094.5096h8.5368" fill="none" stroke="#000"/>
</g>
</svg>
