<?xml version="1.0" encoding="utf-8"?>
<!-- Generator: Adobe Illustrator 15.0.0, SVG Export Plug-In . SVG Version: 6.00 Build 0)  -->
<!DOCTYPE svg PUBLIC "-//W3C//DTD SVG 1.1//EN" "http://www.w3.org/Graphics/SVG/1.1/DTD/svg11.dtd">
<svg version="1.1" id="Layer_1" xmlns="http://www.w3.org/2000/svg" xmlns:xlink="http://www.w3.org/1999/xlink" x="0px" y="0px"
	 width="30px" height="30px" viewBox="0 0 30 30" enable-background="new 0 0 30 30" xml:space="preserve">
<g>
	
		<image overflow="visible" opacity="0.33" enable-background="new    " width="26" height="26" xlink:href="52D24F0F.png"  transform="matrix(1.0002 0 0 1.0002 -7809.0029 -7899.0039)">
	</image>
	<g>
		
			<linearGradient id="SVGID_1_" gradientUnits="userSpaceOnUse" x1="12.5996" y1="579.0996" x2="12.5996" y2="604.0977" gradientTransform="matrix(1 0 0 1 4 -575)">
			<stop  offset="0" style="stop-color:#E6E6E6"/>
			<stop  offset="1" style="stop-color:#CCCCCC"/>
		</linearGradient>
		<path fill="url(#SVGID_1_)" d="M28.046,18.865c0.468,0,0.901-0.379,0.966-0.842c0,0,0.088-0.649,0.088-1.422
			c0-0.773-0.088-1.425-0.088-1.425c-0.062-0.462-0.498-0.841-0.966-0.841h-2.411c-0.468,0-0.951-0.298-1.078-0.662
			c-0.125-0.364-0.298-1.531,0.032-1.861l1.705-1.705c0.33-0.331,0.354-0.894,0.058-1.253L24.346,6.85
			c-0.359-0.299-0.924-0.274-1.254,0.057l-1.705,1.705c-0.33,0.33-0.88,0.463-1.222,0.295s-1.302-0.874-1.302-1.341V5.154
			c0-0.467-0.377-0.901-0.84-0.965c0,0-0.649-0.089-1.424-0.089c-0.773,0-1.425,0.089-1.425,0.089
			c-0.463,0.063-0.841,0.498-0.841,0.965v2.412c0,0.467-0.298,0.952-0.662,1.078c-0.363,0.125-1.53,0.298-1.86-0.032l-1.705-1.705
			c-0.33-0.33-0.894-0.355-1.252-0.057L6.85,8.856c-0.299,0.359-0.273,0.922,0.057,1.252l1.705,1.705
			c0.33,0.33,0.463,0.88,0.296,1.222c-0.168,0.341-0.874,1.3-1.342,1.3H5.155c-0.467,0-0.901,0.379-0.965,0.841
			c0,0-0.09,0.65-0.09,1.424c0,0.772,0.09,1.422,0.09,1.422c0.063,0.463,0.498,0.843,0.965,0.843h2.412
			c0.467,0,0.951,0.297,1.077,0.659c0.125,0.365,0.298,1.531-0.032,1.86l-1.705,1.705c-0.33,0.33-0.355,0.894-0.057,1.253
			l2.007,2.006c0.358,0.299,0.922,0.274,1.252-0.057l1.705-1.704c0.33-0.33,0.88-0.464,1.222-0.296
			c0.343,0.167,1.301,0.874,1.301,1.341v2.412c0,0.467,0.378,0.899,0.841,0.964c0,0,0.65,0.09,1.423,0.09s1.424-0.09,1.424-0.09
			c0.463-0.062,0.841-0.497,0.841-0.964v-2.412c0-0.467,0.298-0.952,0.661-1.077s1.531-0.299,1.861,0.031l1.703,1.705
			c0.33,0.33,0.895,0.355,1.254,0.057l2.006-2.006c0.299-0.357,0.272-0.922-0.058-1.252l-1.705-1.705
			c-0.33-0.33-0.464-0.88-0.296-1.223c0.168-0.342,0.874-1.301,1.341-1.301h2.411L28.046,18.865L28.046,18.865z M16.6,21.176
			c-2.524,0-4.575-2.049-4.575-4.576c0-2.525,2.049-4.576,4.575-4.576c2.527,0,4.576,2.048,4.576,4.576
			C21.176,19.128,19.127,21.176,16.6,21.176z"/>
		<path fill="none" stroke="#FFFFFF" stroke-miterlimit="10" d="M28.046,18.865c0.468,0,0.901-0.379,0.966-0.842
			c0,0,0.088-0.649,0.088-1.422c0-0.773-0.088-1.425-0.088-1.425c-0.062-0.462-0.498-0.841-0.966-0.841h-2.411
			c-0.468,0-0.951-0.298-1.078-0.662c-0.125-0.364-0.298-1.531,0.032-1.861l1.705-1.705c0.33-0.331,0.354-0.894,0.058-1.253
			L24.346,6.85c-0.359-0.299-0.924-0.274-1.254,0.057l-1.705,1.705c-0.33,0.33-0.88,0.463-1.222,0.295s-1.302-0.874-1.302-1.341
			V5.154c0-0.467-0.377-0.901-0.84-0.965c0,0-0.649-0.089-1.424-0.089c-0.773,0-1.425,0.089-1.425,0.089
			c-0.463,0.063-0.841,0.498-0.841,0.965v2.412c0,0.467-0.298,0.952-0.662,1.078c-0.363,0.125-1.53,0.298-1.86-0.032l-1.705-1.705
			c-0.33-0.33-0.894-0.355-1.252-0.057L6.85,8.856c-0.299,0.359-0.273,0.922,0.057,1.252l1.705,1.705
			c0.33,0.33,0.463,0.88,0.296,1.222c-0.168,0.341-0.874,1.3-1.342,1.3H5.155c-0.467,0-0.901,0.379-0.965,0.841
			c0,0-0.09,0.65-0.09,1.424c0,0.772,0.09,1.422,0.09,1.422c0.063,0.463,0.498,0.843,0.965,0.843h2.412
			c0.467,0,0.951,0.297,1.077,0.659c0.125,0.365,0.298,1.531-0.032,1.86l-1.705,1.705c-0.33,0.33-0.355,0.894-0.057,1.253
			l2.007,2.006c0.358,0.299,0.922,0.274,1.252-0.057l1.705-1.704c0.33-0.33,0.88-0.464,1.222-0.296
			c0.343,0.167,1.301,0.874,1.301,1.341v2.412c0,0.467,0.378,0.899,0.841,0.964c0,0,0.65,0.09,1.423,0.09s1.424-0.09,1.424-0.09
			c0.463-0.062,0.841-0.497,0.841-0.964v-2.412c0-0.467,0.298-0.952,0.661-1.077s1.531-0.299,1.861,0.031l1.703,1.705
			c0.33,0.33,0.895,0.355,1.254,0.057l2.006-2.006c0.299-0.357,0.272-0.922-0.058-1.252l-1.705-1.705
			c-0.33-0.33-0.464-0.88-0.296-1.223c0.168-0.342,0.874-1.301,1.341-1.301h2.411L28.046,18.865L28.046,18.865z M16.6,21.176
			c-2.524,0-4.575-2.049-4.575-4.576c0-2.525,2.049-4.576,4.575-4.576c2.527,0,4.576,2.048,4.576,4.576
			C21.176,19.128,19.127,21.176,16.6,21.176z"/>
	</g>
</g>
</svg>
