<svg xmlns="http://www.w3.org/2000/svg" xmlns:xlink="http://www.w3.org/1999/xlink" width="30" height="30" viewBox="0 0 30 30"><image overflow="visible" opacity=".33" enable-background="new" width="26" height="26" xlink:href="52D24F0F.png" transform="translate(-7809.003 -7899.004)"/><linearGradient id="a" gradientUnits="userSpaceOnUse" x1="12.6" y1="579.1" x2="12.6" y2="604.098" gradientTransform="translate(4 -575)"><stop offset="0" stop-color="#E6E6E6"/><stop offset="1" stop-color="#ccc"/></linearGradient><path fill="url(#a)" d="M28.046 18.865c.468 0 .9-.38.966-.842 0 0 .088-.65.088-1.422 0-.772-.088-1.424-.088-1.424-.062-.462-.498-.84-.966-.84h-2.41c-.47 0-.952-.3-1.08-.663-.124-.364-.297-1.53.033-1.86l1.704-1.706c.33-.33.354-.894.058-1.253L24.346 6.85c-.36-.3-.924-.274-1.254.057l-1.705 1.705c-.33.33-.88.463-1.222.295s-1.302-.874-1.302-1.34V5.153c0-.467-.377-.9-.84-.965 0 0-.65-.09-1.424-.09-.774 0-1.426.09-1.426.09-.463.062-.84.497-.84.964v2.412c0 .467-.3.952-.663 1.078-.362.125-1.53.298-1.86-.032l-1.704-1.705c-.33-.33-.894-.355-1.252-.057L6.85 8.856c-.3.36-.273.922.057 1.252l1.705 1.705c.33.33.463.88.296 1.222-.168.34-.874 1.3-1.342 1.3h-2.41c-.468 0-.902.38-.966.84 0 0-.09.65-.09 1.425 0 .772.09 1.422.09 1.422.063.463.498.843.965.843h2.412c.467 0 .95.297 1.077.66.125.364.298 1.53-.032 1.86l-1.705 1.704c-.33.33-.355.893-.057 1.252l2.007 2.006c.358.3.922.274 1.252-.057l1.704-1.703c.33-.33.88-.464 1.222-.296.343.168 1.3.875 1.3 1.342v2.412c0 .467.38.9.842.964 0 0 .65.09 1.423.09s1.425-.09 1.425-.09c.463-.062.84-.497.84-.964v-2.412c0-.467.3-.952.662-1.077s1.53-.3 1.86.03l1.704 1.706c.33.33.896.356 1.255.058l2.006-2.006c.3-.357.273-.922-.057-1.252l-1.705-1.705c-.33-.33-.464-.88-.296-1.223.168-.342.874-1.3 1.34-1.3h2.412l.002.003zM16.6 21.175c-2.524 0-4.575-2.048-4.575-4.575 0-2.525 2.05-4.576 4.575-4.576 2.527 0 4.576 2.048 4.576 4.576 0 2.528-2.05 4.576-4.576 4.576z"/><path stroke="#fff" stroke-miterlimit="10" d="M28.046 18.865c.468 0 .9-.38.966-.842 0 0 .088-.65.088-1.422 0-.772-.088-1.424-.088-1.424-.062-.462-.498-.84-.966-.84h-2.41c-.47 0-.952-.3-1.08-.663-.124-.364-.297-1.53.033-1.86l1.704-1.706c.33-.33.354-.894.058-1.253L24.346 6.85c-.36-.3-.924-.274-1.254.057l-1.705 1.705c-.33.33-.88.463-1.222.295s-1.302-.874-1.302-1.34V5.153c0-.467-.377-.9-.84-.965 0 0-.65-.09-1.424-.09-.774 0-1.426.09-1.426.09-.463.062-.84.497-.84.964v2.412c0 .467-.3.952-.663 1.078-.362.125-1.53.298-1.86-.032l-1.704-1.705c-.33-.33-.894-.355-1.252-.057L6.85 8.856c-.3.36-.273.922.057 1.252l1.705 1.705c.33.33.463.88.296 1.222-.168.34-.874 1.3-1.342 1.3h-2.41c-.468 0-.902.38-.966.84 0 0-.09.65-.09 1.425 0 .772.09 1.422.09 1.422.063.463.498.843.965.843h2.412c.467 0 .95.297 1.077.66.125.364.298 1.53-.032 1.86l-1.705 1.704c-.33.33-.355.893-.057 1.252l2.007 2.006c.358.3.922.274 1.252-.057l1.704-1.703c.33-.33.88-.464 1.222-.296.343.168 1.3.875 1.3 1.342v2.412c0 .467.38.9.842.964 0 0 .65.09 1.423.09s1.425-.09 1.425-.09c.463-.062.84-.497.84-.964v-2.412c0-.467.3-.952.662-1.077s1.53-.3 1.86.03l1.704 1.706c.33.33.896.356 1.255.058l2.006-2.006c.3-.357.273-.922-.057-1.252l-1.705-1.705c-.33-.33-.464-.88-.296-1.223.168-.342.874-1.3 1.34-1.3h2.412l.002.003zM16.6 21.175c-2.524 0-4.575-2.048-4.575-4.575 0-2.525 2.05-4.576 4.575-4.576 2.527 0 4.576 2.048 4.576 4.576 0 2.528-2.05 4.576-4.576 4.576z" fill="none"/></svg>