<svg xmlns="http://www.w3.org/2000/svg" xmlns:xlink="http://www.w3.org/1999/xlink" width="30" height="30" viewBox="0 0 30 30"><image overflow="visible" opacity=".33" enable-background="new" width="26" height="26" xlink:href="52D24F0F.png" transform="translate(-7809.003 -7899.004)"/><linearGradient id="a" gradientUnits="userSpaceOnUse" x1="12.6" y1="579.1" x2="12.6" y2="604.098" gradientTransform="translate(4 -575)"><stop offset="0" stop-color="#E6E6E6"/><stop offset="1" stop-color="#ccc"/></linearGradient><path fill="url(#a)" d="M28.046 18.865c.468 0 .901-.379.966-.842 0 0 .088-.649.088-1.422 0-.773-.088-1.425-.088-1.425-.062-.462-.498-.841-.966-.841h-2.411c-.468 0-.951-.298-1.078-.662-.125-.364-.298-1.531.032-1.861l1.705-1.705c.33-.331.354-.894.058-1.253l-2.006-2.004c-.359-.299-.924-.274-1.254.057l-1.705 1.705c-.33.33-.88.463-1.222.295s-1.302-.874-1.302-1.341v-2.412c0-.467-.377-.901-.84-.965 0 0-.649-.089-1.424-.089-.773 0-1.425.089-1.425.089-.463.063-.841.498-.841.965v2.412c0 .467-.298.952-.662 1.078-.363.125-1.53.298-1.86-.032l-1.705-1.705c-.33-.33-.894-.355-1.252-.057l-2.004 2.006c-.299.359-.273.922.057 1.252l1.705 1.705c.33.33.463.88.296 1.222-.168.341-.874 1.3-1.342 1.3h-2.411c-.467 0-.901.379-.965.841 0 0-.09.65-.09 1.424 0 .772.09 1.422.09 1.422.063.463.498.843.965.843h2.412c.467 0 .951.297 1.077.659.125.365.298 1.531-.032 1.86l-1.705 1.705c-.33.33-.355.894-.057 1.253l2.007 2.006c.358.299.922.274 1.252-.057l1.705-1.704c.33-.33.88-.464 1.222-.296.343.167 1.301.874 1.301 1.341v2.412c0 .467.378.899.841.964 0 0 .65.09 1.423.09l1.424-.09c.463-.062.841-.497.841-.964v-2.412c0-.467.298-.952.661-1.077s1.531-.299 1.861.031l1.703 1.705c.33.33.895.355 1.254.057l2.006-2.006c.299-.357.272-.922-.058-1.252l-1.705-1.705c-.33-.33-.464-.88-.296-1.223.168-.342.874-1.301 1.341-1.301h2.411l.002.004zm-11.446 2.311c-2.524 0-4.575-2.049-4.575-4.576 0-2.525 2.049-4.576 4.575-4.576 2.527 0 4.576 2.048 4.576 4.576 0 2.528-2.049 4.576-4.576 4.576z"/><path stroke="#fff" stroke-miterlimit="10" d="M28.046 18.865c.468 0 .901-.379.966-.842 0 0 .088-.649.088-1.422 0-.773-.088-1.425-.088-1.425-.062-.462-.498-.841-.966-.841h-2.411c-.468 0-.951-.298-1.078-.662-.125-.364-.298-1.531.032-1.861l1.705-1.705c.33-.331.354-.894.058-1.253l-2.006-2.004c-.359-.299-.924-.274-1.254.057l-1.705 1.705c-.33.33-.88.463-1.222.295s-1.302-.874-1.302-1.341v-2.412c0-.467-.377-.901-.84-.965 0 0-.649-.089-1.424-.089-.773 0-1.425.089-1.425.089-.463.063-.841.498-.841.965v2.412c0 .467-.298.952-.662 1.078-.363.125-1.53.298-1.86-.032l-1.705-1.705c-.33-.33-.894-.355-1.252-.057l-2.004 2.006c-.299.359-.273.922.057 1.252l1.705 1.705c.33.33.463.88.296 1.222-.168.341-.874 1.3-1.342 1.3h-2.411c-.467 0-.901.379-.965.841 0 0-.09.65-.09 1.424 0 .772.09 1.422.09 1.422.063.463.498.843.965.843h2.412c.467 0 .951.297 1.077.659.125.365.298 1.531-.032 1.86l-1.705 1.705c-.33.33-.355.894-.057 1.253l2.007 2.006c.358.299.922.274 1.252-.057l1.705-1.704c.33-.33.88-.464 1.222-.296.343.167 1.301.874 1.301 1.341v2.412c0 .467.378.899.841.964 0 0 .65.09 1.423.09l1.424-.09c.463-.062.841-.497.841-.964v-2.412c0-.467.298-.952.661-1.077s1.531-.299 1.861.031l1.703 1.705c.33.33.895.355 1.254.057l2.006-2.006c.299-.357.272-.922-.058-1.252l-1.705-1.705c-.33-.33-.464-.88-.296-1.223.168-.342.874-1.301 1.341-1.301h2.411l.002.004zm-11.446 2.311c-2.524 0-4.575-2.049-4.575-4.576 0-2.525 2.049-4.576 4.575-4.576 2.527 0 4.576 2.048 4.576 4.576 0 2.528-2.049 4.576-4.576 4.576z" fill="none"/></svg>