<?xml version="1.0" encoding="iso-8859-1"?>
<!-- Generator: Adobe Illustrator 15.0.2, SVG Export Plug-In . SVG Version: 6.00 Build 0)  -->
<!DOCTYPE svg PUBLIC "-//W3C//DTD SVG 1.1//EN" "http://www.w3.org/Graphics/SVG/1.1/DTD/svg11.dtd">
<svg version="1.1" id="Layer_1" xmlns="http://www.w3.org/2000/svg" xmlns:xlink="http://www.w3.org/1999/xlink" x="0px" y="0px"
	 width="84.501px" height="42px" viewBox="0 0 84.501 42" enable-background="new 0 0 84.501 42" xml:space="preserve">
<g opacity="0.12">
	<path fill="#FFFFFF" d="M48.755,34.104c0,1.905-1.559,3.463-3.463,3.463H19.318c-1.905,0-3.463-1.559-3.463-3.463V8.13
		c0-1.905,1.559-3.463,3.463-3.463h25.974c1.904,0,3.463,1.559,3.463,3.463V34.104z"/>
	<path fill="none" stroke="#000000" stroke-width="4" stroke-miterlimit="10" d="M48.755,34.104c0,1.905-1.559,3.463-3.463,3.463
		H19.318c-1.905,0-3.463-1.559-3.463-3.463V8.13c0-1.905,1.559-3.463,3.463-3.463h25.974c1.904,0,3.463,1.559,3.463,3.463V34.104z"
		/>
</g>
<g>
	<linearGradient id="SVGID_1_" gradientUnits="userSpaceOnUse" x1="32.3052" y1="36.6167" x2="32.3052" y2="5.6167">
		<stop  offset="0" style="stop-color:#39B54A"/>
		<stop  offset="1" style="stop-color:#D9E021"/>
	</linearGradient>
	<path fill="url(#SVGID_1_)" d="M47.805,33.354c0,1.795-1.469,3.263-3.263,3.263H20.068c-1.795,0-3.263-1.468-3.263-3.263V8.88
		c0-1.795,1.468-3.263,3.263-3.263h24.474c1.794,0,3.263,1.468,3.263,3.263V33.354z"/>
	<path fill="none" stroke="#FFFFFF" stroke-width="1.6316" stroke-miterlimit="10" d="M47.805,33.354
		c0,1.795-1.469,3.263-3.263,3.263H20.068c-1.795,0-3.263-1.468-3.263-3.263V8.88c0-1.795,1.468-3.263,3.263-3.263h24.474
		c1.794,0,3.263,1.468,3.263,3.263V33.354z"/>
</g>
<g opacity="0.12">
	<path fill="none" stroke="#000000" stroke-width="4.6517" stroke-miterlimit="10" d="M74.511,21.377
		c0,8.254-6.691,14.945-14.945,14.945S44.62,29.632,44.62,21.377c0-8.257,6.691-14.945,14.945-14.945S74.511,13.121,74.511,21.377z"
		/>
</g>
<g>
	<radialGradient id="SVGID_2_" cx="59.5654" cy="21.3774" r="14.5" gradientUnits="userSpaceOnUse">
		<stop  offset="0" style="stop-color:#00E6E6"/>
		<stop  offset="1" style="stop-color:#29ABE2"/>
	</radialGradient>
	<circle fill="url(#SVGID_2_)" cx="59.565" cy="21.377" r="14.5"/>
	<circle fill="none" stroke="#FFFFFF" stroke-width="1.871" stroke-miterlimit="10" cx="59.565" cy="21.377" r="14.5"/>
</g>
<polygon opacity="0.4" fill="#39B54A" points="32.301,10.421 23.056,19.667 29.167,19.667 29.167,31.667 35.167,31.667 
	35.167,19.667 41.372,19.667 "/>
<polygon fill="#FFFFFF" points="32.292,11.354 23.979,19.667 29.167,19.667 29.167,30.667 35.167,30.667 35.167,19.667 
	40.448,19.667 "/>
<g>
	<g>
		<path opacity="0.2" fill="#0071BC" d="M57.961,25.667l-1.293,4.656h-4.226l5.519-18.143h5.384l5.653,18.143h-4.44l-1.401-4.656
			H57.961z M62.564,22.598l-1.132-3.85c-0.321-1.077-0.646-2.422-0.915-3.5h-0.052c-0.271,1.078-0.539,2.45-0.836,3.5l-1.075,3.85
			H62.564z"/>
	</g>
	<g>
		<path fill="#FFFFFF" d="M56.723,24.895l-1.294,4.657h-4.225l5.519-18.144h5.384l5.653,18.144h-4.442l-1.399-4.657H56.723z
			 M61.326,21.827l-1.132-3.85c-0.321-1.076-0.646-2.422-0.915-3.5h-0.053c-0.27,1.078-0.539,2.45-0.835,3.5l-1.075,3.85H61.326z"/>
	</g>
</g>
</svg>
