<svg xmlns="http://www.w3.org/2000/svg" width="84.501" height="42" viewBox="0 0 84.501 42"><g opacity=".12"><path fill="#fff" d="M48.755 34.104c0 1.905-1.56 3.463-3.463 3.463H19.318c-1.905 0-3.463-1.56-3.463-3.463V8.13c0-1.905 1.56-3.463 3.463-3.463h25.974c1.904 0 3.463 1.56 3.463 3.463v25.974z"/><path stroke="#000" stroke-width="4" stroke-miterlimit="10" d="M48.755 34.104c0 1.905-1.56 3.463-3.463 3.463H19.318c-1.905 0-3.463-1.56-3.463-3.463V8.13c0-1.905 1.56-3.463 3.463-3.463h25.974c1.904 0 3.463 1.56 3.463 3.463v25.974z" fill="none"/></g><linearGradient id="a" gradientUnits="userSpaceOnUse" x1="32.305" y1="36.617" x2="32.305" y2="5.617"><stop offset="0" stop-color="#39B54A"/><stop offset="1" stop-color="#D9E021"/></linearGradient><path fill="url(#a)" d="M47.805 33.354c0 1.795-1.47 3.263-3.263 3.263H20.068c-1.795 0-3.263-1.468-3.263-3.263V8.88c0-1.795 1.468-3.263 3.263-3.263h24.474c1.794 0 3.263 1.468 3.263 3.263v24.474z"/><path stroke="#fff" stroke-width="1.632" stroke-miterlimit="10" d="M47.805 33.354c0 1.795-1.47 3.263-3.263 3.263H20.068c-1.795 0-3.263-1.468-3.263-3.263V8.88c0-1.795 1.468-3.263 3.263-3.263h24.474c1.794 0 3.263 1.468 3.263 3.263v24.474z" fill="none"/><path stroke="#000" stroke-width="4.652" stroke-miterlimit="10" d="M74.51 21.377c0 8.254-6.69 14.945-14.944 14.945S44.62 29.632 44.62 21.377c0-8.257 6.69-14.945 14.945-14.945s14.946 6.69 14.946 14.945z" fill="none" opacity=".12"/><radialGradient id="b" cx="59.565" cy="21.377" r="14.5" gradientUnits="userSpaceOnUse"><stop offset="0" stop-color="#00E6E6"/><stop offset="1" stop-color="#29ABE2"/></radialGradient><circle fill="url(#b)" cx="59.565" cy="21.377" r="14.5"/><circle stroke="#fff" stroke-width="1.871" stroke-miterlimit="10" cx="59.565" cy="21.377" r="14.5" fill="none"/><path opacity=".4" fill="#39B54A" d="M32.3 10.42l-9.244 9.247h6.11v12h6v-12h6.206z"/><path fill="#fff" d="M32.292 11.354l-8.313 8.313h5.187v11h6v-11h5.28z"/><path opacity=".2" fill="#0071BC" d="M57.96 25.667l-1.292 4.656h-4.226l5.52-18.143h5.383l5.653 18.143h-4.44l-1.4-4.656H57.96zm4.604-3.07l-1.132-3.85c-.32-1.076-.646-2.42-.915-3.5h-.052c-.27 1.08-.54 2.45-.836 3.5l-1.076 3.85h4.01z"/><path fill="#fff" d="M56.723 24.895l-1.294 4.657h-4.226l5.52-18.144h5.383l5.653 18.144h-4.442l-1.4-4.657h-5.195zm4.603-3.068l-1.132-3.85c-.32-1.076-.646-2.422-.915-3.5h-.054c-.27 1.078-.54 2.45-.835 3.5l-1.074 3.85h4.01z"/></svg>