<svg xmlns="http://www.w3.org/2000/svg" width="84.501" height="42" viewBox="0 0 84.501 42"><g opacity=".12"><path fill="#fff" d="M48.755 34.104c0 1.905-1.559 3.463-3.463 3.463h-25.974c-1.905 0-3.463-1.559-3.463-3.463v-25.974c0-1.905 1.559-3.463 3.463-3.463h25.974c1.904 0 3.463 1.559 3.463 3.463v25.974z"/><path stroke="#000" stroke-width="4" stroke-miterlimit="10" d="M48.755 34.104c0 1.905-1.559 3.463-3.463 3.463h-25.974c-1.905 0-3.463-1.559-3.463-3.463v-25.974c0-1.905 1.559-3.463 3.463-3.463h25.974c1.904 0 3.463 1.559 3.463 3.463v25.974z" fill="none"/></g><linearGradient id="a" gradientUnits="userSpaceOnUse" x1="32.305" y1="36.617" x2="32.305" y2="5.617"><stop offset="0" stop-color="#39B54A"/><stop offset="1" stop-color="#D9E021"/></linearGradient><path fill="url(#a)" d="M47.805 33.354c0 1.795-1.469 3.263-3.263 3.263h-24.474c-1.795 0-3.263-1.468-3.263-3.263v-24.474c0-1.795 1.468-3.263 3.263-3.263h24.474c1.794 0 3.263 1.468 3.263 3.263v24.474z"/><path stroke="#fff" stroke-width="1.632" stroke-miterlimit="10" d="M47.805 33.354c0 1.795-1.469 3.263-3.263 3.263h-24.474c-1.795 0-3.263-1.468-3.263-3.263v-24.474c0-1.795 1.468-3.263 3.263-3.263h24.474c1.794 0 3.263 1.468 3.263 3.263v24.474z" fill="none"/><path stroke="#000" stroke-width="4.652" stroke-miterlimit="10" d="M74.511 21.377c0 8.254-6.691 14.945-14.945 14.945s-14.946-6.69-14.946-14.945c0-8.257 6.691-14.945 14.945-14.945s14.946 6.689 14.946 14.945z" fill="none" opacity=".12"/><radialGradient id="b" cx="59.565" cy="21.377" r="14.5" gradientUnits="userSpaceOnUse"><stop offset="0" stop-color="#00E6E6"/><stop offset="1" stop-color="#29ABE2"/></radialGradient><circle fill="url(#b)" cx="59.565" cy="21.377" r="14.5"/><circle stroke="#fff" stroke-width="1.871" stroke-miterlimit="10" cx="59.565" cy="21.377" r="14.5" fill="none"/><path opacity=".4" fill="#39B54A" d="M32.301 10.421l-9.245 9.246h6.111v12h6v-12h6.205z"/><path fill="#fff" d="M32.292 11.354l-8.313 8.313h5.188v11h6v-11h5.281z"/><path opacity=".2" fill="#0071BC" d="M57.961 25.667l-1.293 4.656h-4.226l5.519-18.143h5.384l5.653 18.143h-4.44l-1.401-4.656h-5.196zm4.603-3.069l-1.132-3.85c-.321-1.077-.646-2.422-.915-3.5h-.052c-.271 1.078-.539 2.45-.836 3.5l-1.075 3.85h4.01z"/><path fill="#fff" d="M56.723 24.895l-1.294 4.657h-4.225l5.519-18.144h5.384l5.653 18.144h-4.442l-1.399-4.657h-5.196zm4.603-3.068l-1.132-3.85c-.321-1.076-.646-2.422-.915-3.5h-.053c-.27 1.078-.539 2.45-.835 3.5l-1.075 3.85h4.01z"/></svg>