<svg xmlns="http://www.w3.org/2000/svg" width="100" height="100" viewBox="0 0 100 100"><path fill="#473E12" d="M68.745 67.217v.063l11.401 3.056.002-.001v11.481c-.002 2.408 1.953 4.363 4.359 4.361 2.406 0 4.385-1.953 4.385-4.361v-18.185l-16.229-4.354-3.918 7.94z"/><path fill="#685938" d="M96.057 29.62l-12.936-8.601 13.667-21.265-17.102 17.915-1.789-4.072-2.017 8.03-19.097 19.76h-37.407c0-5.233-4.409-9.755-9.677-9.755-5.359 0-9.699 4.361-9.699 9.722v16.105h6.906v-15.947c0-2.154.522-5.497 3.589-5.497 3.115 0 3.57 2.898 3.587 5.372l-.004 4.384v19.149l-3.612 5.655v24.395c0 2.409 1.976 4.362 4.384 4.362 2.406 0 4.361-1.953 4.361-4.362v-21.122l4.823-7.588h34.542v28.71c0 2.409 1.955 4.362 4.361 4.362 2.408 0 4.385-1.953 4.385-4.362v-28.085l15.195-30.768 10.494 1.998c1.838.342 3.793-.499 4.768-2.237 1.253-2.192.457-5.009-1.722-6.258z"/><path fill="#E5235F" d="M83.121 21.019l13.667-21.265-17.102 17.915"/></svg>