<svg xmlns="http://www.w3.org/2000/svg" width="100" height="100" viewBox="0 0 100 100"><path fill="#473E12" d="M68.745 67.217v.063l11.4 3.056h.003v11.48c-.002 2.408 1.953 4.363 4.36 4.36 2.405 0 4.384-1.952 4.384-4.36V63.63l-16.23-4.353-3.917 7.94z"/><path fill="#685938" d="M96.057 29.62l-12.936-8.6L96.79-.247 79.686 17.67l-1.79-4.073-2.016 8.03-19.097 19.76H19.376c0-5.233-4.41-9.755-9.677-9.755-5.36 0-9.7 4.36-9.7 9.722V57.46h6.906V41.51c0-2.154.522-5.497 3.59-5.497 3.114 0 3.57 2.898 3.586 5.372l-.004 4.384v19.15l-3.612 5.655V94.97c0 2.41 1.976 4.362 4.384 4.362 2.406 0 4.36-1.953 4.36-4.362V73.848l4.824-7.588h34.542v28.71c0 2.41 1.955 4.362 4.36 4.362 2.41 0 4.386-1.953 4.386-4.362V66.885l15.195-30.768 10.494 1.998c1.84.342 3.794-.5 4.77-2.237 1.252-2.192.456-5.01-1.723-6.258z"/><path fill="#E5235F" d="M83.12 21.02L96.79-.247 79.686 17.67"/></svg>