<svg xmlns="http://www.w3.org/2000/svg" version="1" width="340" height="449" viewBox="0 0 340 449"><path d="M36.06 359.865c-5.334-7.959-8.733-17.157-9.891-27.281-1.158.31-2.241.542-3.477.542-7.882 0-14.297-6.415-14.297-14.297 0-4.947 2.551-9.275 6.337-11.826l40.88-28.438c8.579-5.257 18.625-8.501 29.445-8.888l101.466.31 74.185-11.82v-1.161c0-7.418 5.947-13.445 13.368-13.445s13.448 6.028 13.448 13.445c0 1.161-.155 2.396-.464 3.48l6.876.926c7.959 1.545 13.987 8.579 13.987 17.002 0 .542 0 1.003-.074 1.467l22.024 11.9c3.167 1.238 5.486 4.405 5.486 8.037 0 1.235-.229 2.319-.693 3.399l-5.489 12.442c-2.706 4.405-7.34 7.498-12.748 8.114l-50.62 6.028-45.592 53.518 26.042 44.973 17.157 7.959c2.702 1.858 4.557 5.025 4.557 8.579 0 5.718-4.638 10.359-10.436 10.359l-32.998.074c-8.498 0-15.841-4.792-19.55-11.745l-28.209-51.004-63.675.077 22.488 34.621 16.615 7.572c3.093 1.854 5.102 5.176 5.102 8.966 0 5.718-4.638 10.352-10.356 10.352l-33.076.077c-8.037 0-15.145-4.328-19.012-10.82l-30.989-49.227-21.637 21.021-1.777 13.755 7.263 4.789c1.238.619 2.319 1.474 3.248 2.551 3.554 4.483 2.935 11.052-1.545 14.606-1.932 1.622-4.328 2.4-6.647 2.319l-14.529.077c-4.018-.468-7.65-2.551-9.969-5.644l-16.925-29.212c-1.622-3.083-2.548-6.559-2.548-10.268 0-5.641 2.087-10.82 5.641-14.764l31.609-33.497z" opacity=".84" fill="#800080"/><path d="M43.192 227.922c-5.334-7.959-8.733-17.157-9.891-27.281-1.158.31-2.241.542-3.477.542-7.882 0-14.297-6.415-14.297-14.297 0-4.947 2.551-9.275 6.337-11.826l40.88-28.438c8.579-5.257 18.625-8.501 29.445-8.888l101.466.31 74.185-11.82v-1.161c0-7.418 5.947-13.445 13.368-13.445s13.448 6.028 13.448 13.445c0 1.161-.155 2.396-.464 3.48l6.876.926c7.959 1.545 13.987 8.579 13.987 17.002 0 .542 0 1.003-.074 1.467l22.024 11.9c3.167 1.238 5.486 4.405 5.486 8.037 0 1.235-.229 2.319-.693 3.399l-5.489 12.442c-2.706 4.405-7.34 7.498-12.748 8.114l-50.62 6.028-45.592 53.518 26.042 44.973 17.157 7.959c2.702 1.858 4.557 5.025 4.557 8.579 0 5.718-4.638 10.359-10.436 10.359l-32.998.074c-8.498 0-15.841-4.792-19.55-11.745l-28.209-51.004-63.675.077 22.488 34.621 16.615 7.572c3.093 1.854 5.102 5.176 5.102 8.966 0 5.718-4.638 10.352-10.356 10.352l-33.076.077c-8.037 0-15.145-4.328-19.012-10.82l-30.989-49.227-21.637 21.021-1.777 13.755 7.263 4.789c1.238.619 2.319 1.474 3.248 2.551 3.554 4.483 2.935 11.052-1.545 14.606-1.932 1.622-4.328 2.4-6.647 2.319l-14.529.077c-4.018-.468-7.65-2.551-9.969-5.644l-16.925-29.212c-1.622-3.083-2.548-6.559-2.548-10.268 0-5.641 2.087-10.82 5.641-14.764l31.609-33.497z" opacity=".75" fill="#ff0"/><path d="M36.06 100.733c-5.334-7.959-8.733-17.157-9.891-27.281-1.158.31-2.241.542-3.477.542-7.882 0-14.297-6.415-14.297-14.297 0-4.947 2.551-9.275 6.337-11.826l40.88-28.438c8.579-5.257 18.625-8.501 29.445-8.888l101.466.31 74.185-11.82v-1.161c0-7.418 5.947-13.445 13.368-13.445s13.448 6.028 13.448 13.445c0 1.161-.155 2.396-.464 3.48l6.876.926c7.959 1.545 13.987 8.579 13.987 17.002 0 .542 0 1.003-.074 1.467l22.024 11.9c3.167 1.238 5.486 4.405 5.486 8.037 0 1.235-.229 2.319-.693 3.399l-5.489 12.442c-2.706 4.405-7.34 7.498-12.748 8.114l-50.62 6.028-45.592 53.518 26.042 44.973 17.157 7.959c2.702 1.858 4.557 5.025 4.557 8.579 0 5.718-4.638 10.359-10.436 10.359l-32.998.074c-8.498 0-15.841-4.792-19.55-11.745l-28.209-51.004-63.675.077 22.488 34.621 16.615 7.572c3.093 1.854 5.102 5.176 5.102 8.966 0 5.718-4.638 10.352-10.356 10.352l-33.076.077c-8.037 0-15.145-4.328-19.012-10.82l-30.989-49.227-21.637 21.021-1.777 13.755 7.263 4.789c1.238.619 2.319 1.474 3.248 2.551 3.554 4.483 2.935 11.052-1.545 14.606-1.932 1.622-4.328 2.4-6.647 2.319l-14.529.077c-4.018-.468-7.65-2.551-9.969-5.644l-16.925-29.212c-1.622-3.083-2.548-6.559-2.548-10.268 0-5.641 2.087-10.82 5.641-14.764l31.609-33.497z" opacity=".84" fill="#008000"/><path d="M40.815 491.809c-5.334-7.959-8.733-17.157-9.891-27.281-1.158.31-2.241.542-3.477.542-7.882 0-14.297-6.415-14.297-14.297 0-4.947 2.551-9.275 6.337-11.826l40.88-28.438c8.579-5.257 18.625-8.501 29.445-8.888l101.466.31 74.185-11.82v-1.161c0-7.418 5.947-13.445 13.368-13.445s13.448 6.028 13.448 13.445c0 1.161-.155 2.396-.464 3.48l6.876.926c7.959 1.545 13.987 8.579 13.987 17.002 0 .542 0 1.003-.074 1.467l22.024 11.9c3.167 1.238 5.486 4.405 5.486 8.037 0 1.235-.229 2.319-.693 3.399l-5.489 12.442c-2.706 4.405-7.34 7.498-12.748 8.114l-50.62 6.028-45.592 53.518 26.042 44.973 17.157 7.959c2.702 1.858 4.557 5.025 4.557 8.579 0 5.718-4.638 10.359-10.436 10.359l-32.998.074c-8.498 0-15.841-4.792-19.55-11.745l-28.209-51.004-63.675.077 22.488 34.621 16.615 7.572c3.093 1.854 5.102 5.176 5.102 8.966 0 5.718-4.638 10.352-10.356 10.352l-33.076.077c-8.037 0-15.145-4.328-19.012-10.82l-30.989-49.227-21.637 21.021-1.777 13.755 7.263 4.789c1.238.619 2.319 1.474 3.248 2.551 3.554 4.483 2.935 11.052-1.545 14.606-1.932 1.622-4.328 2.4-6.647 2.319l-14.529.077c-4.018-.468-7.65-2.551-9.969-5.644l-16.925-29.212c-1.622-3.083-2.548-6.559-2.548-10.268 0-5.641 2.087-10.82 5.641-14.764l31.609-33.497z" opacity=".81" fill="#d40000"/></svg>