<?xml version="1.0" encoding="UTF-8" standalone="no"?>
<!-- Created with Inkscape (http://www.inkscape.org/) -->

<svg
   xmlns:dc="http://purl.org/dc/elements/1.1/"
   xmlns:cc="http://creativecommons.org/ns#"
   xmlns:rdf="http://www.w3.org/1999/02/22-rdf-syntax-ns#"
   xmlns:svg="http://www.w3.org/2000/svg"
   xmlns="http://www.w3.org/2000/svg"
   version="1.0"
   width="340px"
   height="448px"
   viewBox="0 0 340 448"
   id="Layer_1"
   xml:space="preserve"><metadata
   id="metadata3170"><rdf:RDF><cc:Work
       rdf:about=""><dc:format>image/svg+xml</dc:format><dc:type
         rdf:resource="http://purl.org/dc/dcmitype/StillImage" /><dc:title></dc:title></cc:Work></rdf:RDF></metadata><defs
   id="defs3168" />
<path
   d="m 36.060362,359.8655 c -5.334272,-7.95934 -8.733399,-17.15718 -9.891121,-27.28052 -1.157723,0.30963 -2.241404,0.54185 -3.476533,0.54185 -7.881934,0 -14.2965238,-6.41459 -14.2965238,-14.29653 0,-4.94724 2.5510278,-9.27524 6.3371838,-11.82627 L 55.613753,278.5658 c 8.578587,-5.25687 18.624521,-8.50118 29.444512,-8.88821 l 101.465605,0.30962 74.1851,-11.81954 c 0,-0.38703 0,-0.77069 0,-1.16108 0,-7.4175 5.94678,-13.44506 13.36765,-13.44506 7.42086,0 13.44842,6.02756 13.44842,13.44506 0,1.16108 -0.15481,2.39621 -0.46443,3.47989 l 6.87566,0.92551 c 7.95934,1.54475 13.9869,8.57859 13.9869,17.00236 0,0.54184 0,1.00291 -0.074,1.46735 l 22.02365,11.9003 c 3.1669,1.2385 5.48571,4.40541 5.48571,8.03675 0,1.23513 -0.22885,2.31881 -0.69328,3.39913 l -5.48909,12.44215 c -2.70584,4.4054 -7.34009,7.49827 -12.7484,8.11415 l -50.62006,6.02756 -45.59205,53.51773 26.04202,44.9728 17.15717,7.95934 c 2.70248,1.85774 4.55685,5.02465 4.55685,8.57859 0,5.71793 -4.63762,10.35892 -10.43632,10.35892 l -32.99845,0.074 c -8.49782,0 -15.84128,-4.79243 -19.55003,-11.7455 l -28.20938,-51.00372 -63.67473,0.0774 22.48808,34.6206 16.61534,7.57231 c 3.09286,1.85438 5.10205,5.1761 5.10205,8.96562 0,5.71794 -4.63762,10.35219 -10.35555,10.35219 l -33.07586,0.0774 c -8.03675,0 -15.144628,-4.328 -19.01155,-10.81999 l -30.989264,-49.22676 -21.636618,21.02074 -1.776969,13.75468 7.262688,4.78907 c 1.238494,0.61924 2.31881,1.47407 3.24768,2.55102 3.553939,4.48281 2.934692,11.05221 -1.544751,14.60615 -1.931781,1.62216 -4.327997,2.39958 -6.646807,2.31881 l -14.528741,0.0774 c -4.018373,-0.4678 -7.649717,-2.55103 -9.968528,-5.6439 L 1.3589828,418.39442 c -1.6221573,-3.08278 -2.5476621,-6.55931 -2.5476621,-10.26806 0,-5.64053 2.0865925,-10.81999 5.6405306,-14.76432 L 36.060362,359.8655 z"
   id="path3164"
   style="opacity:0.83999999;fill:#800080" />
<path
   d="m 43.192437,227.92209 c -5.334272,-7.95934 -8.733399,-17.15718 -9.891121,-27.28052 -1.157723,0.30963 -2.241404,0.54185 -3.476533,0.54185 -7.881934,0 -14.296523,-6.41459 -14.296523,-14.29653 0,-4.94724 2.551027,-9.27524 6.337183,-11.82627 l 40.880385,-28.43823 c 8.578587,-5.25687 18.624521,-8.50118 29.444512,-8.88821 l 101.4656,0.30962 74.1851,-11.81953 c 0,-0.38703 0,-0.77069 0,-1.16108 0,-7.4175 5.94678,-13.44506 13.36765,-13.44506 7.42086,0 13.44842,6.02756 13.44842,13.44506 0,1.16108 -0.15481,2.39621 -0.46443,3.47989 l 6.87566,0.92551 c 7.95934,1.54475 13.9869,8.57858 13.9869,17.00235 0,0.54184 0,1.00291 -0.074,1.46735 l 22.02365,11.9003 c 3.1669,1.2385 5.48571,4.40541 5.48571,8.03675 0,1.23513 -0.22885,2.31881 -0.69328,3.39913 l -5.48909,12.44215 c -2.70584,4.4054 -7.34009,7.49827 -12.7484,8.11415 l -50.62006,6.02756 -45.59205,53.51773 26.04202,44.9728 17.15717,7.95934 c 2.70248,1.85774 4.55685,5.02465 4.55685,8.57859 0,5.71793 -4.63762,10.35892 -10.43632,10.35892 l -32.99845,0.074 c -8.49782,0 -15.84128,-4.79243 -19.55003,-11.7455 l -28.20938,-51.00372 -63.67473,0.0774 22.48808,34.6206 16.61534,7.57231 c 3.09286,1.85438 5.10205,5.1761 5.10205,8.96562 0,5.71794 -4.63762,10.35219 -10.35555,10.35219 l -33.07586,0.0774 c -8.03674,0 -15.14461,-4.328 -19.01154,-10.81999 L 71.008101,262.18926 49.371483,283.21 l -1.776969,13.75468 7.262688,4.78907 c 1.238494,0.61924 2.31881,1.47407 3.24768,2.55102 3.553939,4.48281 2.934692,11.05221 -1.544751,14.60615 -1.931781,1.62216 -4.327997,2.39958 -6.646807,2.31881 l -14.528741,0.0774 c -4.018373,-0.4678 -7.649717,-2.55103 -9.968528,-5.6439 L 8.4910584,286.45101 c -1.6221573,-3.08278 -2.547662,-6.55931 -2.547662,-10.26806 0,-5.64053 2.0865924,-10.81999 5.6405306,-14.76432 l 31.60851,-33.49654 z"
   id="path3271"
   style="opacity:0.75;fill:#ffff00" /><path
   d="M 36.060362,100.73342 C 30.72609,92.774081 27.326963,83.576241 26.169241,73.452899 c -1.157723,0.30963 -2.241404,0.54185 -3.476533,0.54185 -7.881934,0 -14.2965238,-6.41459 -14.2965238,-14.29653 0,-4.94724 2.5510278,-9.27524 6.3371838,-11.82627 l 40.880385,-28.43823 c 8.578587,-5.25687 18.624521,-8.50118 29.444512,-8.88821 l 101.465605,0.30962 74.1851,-11.81954001 c 0,-0.38702999 0,-0.77068999 0,-1.16107999 0,-7.4175 5.94678,-13.44506 13.36765,-13.44506 7.42086,0 13.44842,6.02756 13.44842,13.44506 0,1.16107999 -0.15481,2.39620999 -0.46443,3.47989 l 6.87566,0.92551 c 7.95934,1.54475 13.9869,8.57859 13.9869,17.00236 0,0.54184 0,1.00291 -0.074,1.46735 l 22.02365,11.9003 c 3.1669,1.2385 5.48571,4.40541 5.48571,8.03675 0,1.23513 -0.22885,2.31881 -0.69328,3.39913 l -5.48909,12.44215 c -2.70584,4.4054 -7.34009,7.49827 -12.7484,8.11415 l -50.62006,6.02756 -45.59205,53.517731 26.04202,44.9728 17.15717,7.95934 c 2.70248,1.85774 4.55685,5.02465 4.55685,8.57859 0,5.71793 -4.63762,10.35892 -10.43632,10.35892 l -32.99845,0.074 c -8.49782,0 -15.84128,-4.79243 -19.55003,-11.7455 l -28.20938,-51.00372 -63.67473,0.0774 22.48808,34.6206 16.61534,7.57231 c 3.09286,1.85438 5.10205,5.1761 5.10205,8.96562 0,5.71794 -4.63762,10.35219 -10.35555,10.35219 l -33.07586,0.0774 c -8.03675,0 -15.144623,-4.328 -19.01155,-10.81999 l -30.989264,-49.22676 -21.636618,21.02074 -1.776969,13.75468 7.262688,4.78907 c 1.238494,0.61924 2.31881,1.47407 3.24768,2.55102 3.553939,4.48281 2.934692,11.05221 -1.544751,14.60615 -1.931781,1.62216 -4.327997,2.39958 -6.646807,2.31881 l -14.528741,0.0774 c -4.018373,-0.4678 -7.649717,-2.55103 -9.968528,-5.6439 L 1.3589828,159.26234 c -1.62215734,-3.08278 -2.547662,-6.55931 -2.547662,-10.26806 0,-5.64053 2.08659243,-10.81999 5.6405305,-14.76432 L 36.060362,100.73342 z"
   id="path3273"
   style="opacity:0.83999999;fill:#008000" /><path
   d="m 40.815079,491.80889 c -5.334272,-7.95934 -8.733399,-17.15718 -9.891121,-27.28052 -1.157723,0.30963 -2.241404,0.54185 -3.476533,0.54185 -7.881934,0 -14.296524,-6.41459 -14.296524,-14.29653 0,-4.94724 2.551028,-9.27524 6.337184,-11.82627 L 60.36847,410.50919 c 8.578587,-5.25687 18.624521,-8.50118 29.444512,-8.88821 l 101.465608,0.30962 74.1851,-11.81954 c 0,-0.38703 0,-0.77069 0,-1.16108 0,-7.4175 5.94678,-13.44506 13.36765,-13.44506 7.42086,0 13.44842,6.02756 13.44842,13.44506 0,1.16108 -0.15481,2.39621 -0.46443,3.47989 l 6.87566,0.92551 c 7.95934,1.54475 13.9869,8.57859 13.9869,17.00236 0,0.54184 0,1.00291 -0.074,1.46735 l 22.02365,11.9003 c 3.1669,1.2385 5.48571,4.40541 5.48571,8.03675 0,1.23513 -0.22885,2.31881 -0.69328,3.39913 l -5.48909,12.44215 c -2.70584,4.4054 -7.34009,7.49827 -12.7484,8.11415 l -50.62006,6.02756 -45.59205,53.51773 26.04202,44.9728 17.15717,7.95934 c 2.70248,1.85774 4.55685,5.02465 4.55685,8.57859 0,5.71793 -4.63762,10.35892 -10.43632,10.35892 l -32.99845,0.074 c -8.49782,0 -15.84128,-4.79243 -19.55003,-11.7455 l -28.20938,-51.00372 -63.67473,0.0774 22.48808,34.6206 16.61534,7.57231 c 3.09286,1.85438 5.10205,5.1761 5.10205,8.96562 0,5.71794 -4.63762,10.35219 -10.35555,10.35219 l -33.07586,0.0774 c -8.03675,0 -15.14463,-4.328 -19.011559,-10.81999 l -30.989258,-49.22676 -21.636618,21.02074 -1.776969,13.75468 7.262688,4.78907 c 1.238494,0.61924 2.31881,1.47407 3.24768,2.55102 3.553939,4.48281 2.934692,11.05221 -1.544751,14.60615 -1.931781,1.62216 -4.327997,2.39958 -6.646807,2.31881 l -14.528741,0.0774 c -4.018373,-0.4678 -7.649717,-2.55103 -9.968528,-5.6439 L 6.1136999,550.33781 c -1.6221573,-3.08278 -2.5476617,-6.55931 -2.5476617,-10.26806 0,-5.64053 2.0865917,-10.81999 5.6405295,-14.76432 L 40.815079,491.80889 z"
   id="path3294"
   style="opacity:0.81000001;fill:#d40000" /></svg>