<svg xmlns="http://www.w3.org/2000/svg" version="1" width="340" height="449" viewBox="0 0 340 449"><path d="M36.06 359.865c-5.334-7.96-8.733-17.157-9.89-27.28-1.158.31-2.242.542-3.477.542-7.882 0-14.297-6.415-14.297-14.297 0-4.947 2.55-9.275 6.337-11.826l40.88-28.438c8.58-5.257 18.625-8.5 29.445-8.888l101.466.31 74.185-11.82v-1.16c0-7.42 5.946-13.446 13.367-13.446 7.42 0 13.448 6.027 13.448 13.445 0 1.16-.155 2.396-.464 3.48l6.876.925c7.96 1.545 13.987 8.58 13.987 17.002 0 .542 0 1.003-.074 1.468l22.023 11.9c3.167 1.238 5.486 4.405 5.486 8.037 0 1.234-.23 2.318-.695 3.398l-5.49 12.442c-2.705 4.405-7.34 7.498-12.747 8.114l-50.62 6.028-45.592 53.517 26.042 44.972 17.157 7.96c2.702 1.857 4.557 5.024 4.557 8.578 0 5.718-4.638 10.36-10.437 10.36l-32.998.073c-8.498 0-15.84-4.792-19.55-11.745l-28.21-51.004-63.674.077 22.488 34.622 16.616 7.572c3.093 1.855 5.102 5.176 5.102 8.966 0 5.718-4.637 10.352-10.355 10.352l-33.076.077c-8.037 0-15.145-4.33-19.012-10.82l-30.99-49.227-21.636 21.02-1.778 13.755 7.263 4.79c1.24.618 2.32 1.473 3.248 2.55 3.554 4.483 2.934 11.052-1.545 14.606-1.932 1.622-4.328 2.4-6.647 2.32l-14.527.077c-4.02-.467-7.65-2.55-9.97-5.643L1.36 418.394c-1.623-3.082-2.55-6.56-2.55-10.268 0-5.64 2.088-10.82 5.642-14.764l31.608-33.497z" opacity=".84" fill="#800080"/><path d="M43.192 227.922c-5.334-7.96-8.733-17.157-9.89-27.28-1.158.31-2.242.54-3.477.54-7.882 0-14.297-6.413-14.297-14.295 0-4.947 2.55-9.275 6.337-11.826l40.88-28.438c8.58-5.256 18.625-8.5 29.445-8.888l101.466.31 74.185-11.82v-1.16c0-7.418 5.948-13.446 13.37-13.446 7.42 0 13.447 6.028 13.447 13.445 0 1.16-.155 2.396-.464 3.48l6.875.926c7.96 1.543 13.987 8.577 13.987 17 0 .543 0 1.004-.074 1.468l22.025 11.9c3.167 1.24 5.486 4.406 5.486 8.037 0 1.235-.228 2.32-.693 3.4l-5.49 12.442c-2.705 4.405-7.34 7.498-12.747 8.114l-50.62 6.028-45.592 53.518 26.042 44.973 17.157 7.958c2.702 1.858 4.557 5.025 4.557 8.58 0 5.717-4.638 10.358-10.437 10.358l-32.998.074c-8.5 0-15.842-4.793-19.55-11.746l-28.21-51.004-63.675.078 22.488 34.62 16.615 7.573c3.093 1.855 5.102 5.177 5.102 8.966 0 5.718-4.637 10.353-10.355 10.353l-33.076.076c-8.038 0-15.146-4.328-19.013-10.82l-30.99-49.227-21.636 21.02-1.775 13.755 7.262 4.79c1.24.618 2.32 1.473 3.248 2.55 3.554 4.483 2.935 11.052-1.545 14.606-1.932 1.623-4.328 2.4-6.647 2.32l-14.528.077c-4.02-.468-7.65-2.55-9.97-5.644L8.492 286.45c-1.62-3.082-2.547-6.558-2.547-10.267 0-5.64 2.087-10.82 5.64-14.764l31.61-33.498z" opacity=".75" fill="#ff0"/><path d="M36.06 100.733c-5.334-7.96-8.733-17.157-9.89-27.28-1.158.31-2.242.542-3.477.542-7.882 0-14.297-6.415-14.297-14.297 0-4.947 2.55-9.275 6.337-11.826l40.88-28.438c8.58-5.257 18.625-8.5 29.445-8.888l101.466.31L260.71-.965v-1.16c0-7.42 5.946-13.447 13.367-13.447 7.42 0 13.448 6.027 13.448 13.445 0 1.16-.155 2.396-.464 3.48l6.876.925c7.96 1.545 13.987 8.578 13.987 17.002 0 .542 0 1.003-.074 1.468l22.023 11.9c3.167 1.238 5.486 4.405 5.486 8.037 0 1.235-.23 2.318-.695 3.4l-5.49 12.44c-2.705 4.406-7.34 7.5-12.747 8.115l-50.62 6.028-45.592 53.517 26.042 44.973 17.157 7.96c2.702 1.857 4.557 5.024 4.557 8.578 0 5.718-4.638 10.36-10.437 10.36l-32.998.073c-8.498 0-15.84-4.79-19.55-11.744l-28.21-51.004-63.674.077 22.488 34.62 16.616 7.572c3.093 1.855 5.102 5.176 5.102 8.966 0 5.718-4.637 10.352-10.355 10.352l-33.076.077c-8.037 0-15.145-4.328-19.012-10.82L63.875 135 42.24 156.02l-1.778 13.756 7.263 4.79c1.24.618 2.32 1.473 3.248 2.55 3.554 4.483 2.934 11.052-1.545 14.606-1.932 1.622-4.328 2.4-6.647 2.32l-14.527.076c-4.02-.467-7.65-2.55-9.97-5.643L1.36 159.262c-1.623-3.082-2.55-6.56-2.55-10.268 0-5.64 2.088-10.82 5.642-14.764l31.608-33.497z" opacity=".84" fill="#008000"/><path d="M40.815 491.81c-5.334-7.96-8.733-17.158-9.89-27.282-1.16.31-2.242.542-3.478.542-7.882 0-14.296-6.414-14.296-14.296 0-4.948 2.552-9.276 6.338-11.827l40.88-28.438c8.58-5.258 18.625-8.502 29.445-8.89l101.466.31 74.184-11.82v-1.16c0-7.418 5.946-13.445 13.367-13.445 7.422 0 13.45 6.027 13.45 13.445 0 1.16-.155 2.396-.465 3.48l6.876.925c7.96 1.545 13.988 8.58 13.988 17.003 0 .542 0 1.003-.074 1.467l22.024 11.9c3.166 1.24 5.485 4.406 5.485 8.037 0 1.235-.23 2.32-.693 3.4l-5.49 12.44c-2.705 4.407-7.34 7.5-12.748 8.116l-50.62 6.027-45.592 53.518 26.042 44.973 17.158 7.96c2.702 1.857 4.556 5.024 4.556 8.578 0 5.718-4.637 10.36-10.436 10.36l-32.998.073c-8.498 0-15.842-4.793-19.55-11.746l-28.21-51.003-63.675.078 22.49 34.62 16.614 7.573c3.094 1.854 5.103 5.176 5.103 8.965 0 5.718-4.638 10.352-10.356 10.352l-33.075.078c-8.037 0-15.145-4.328-19.012-10.82l-30.99-49.227-21.636 21.02-1.777 13.755 7.263 4.79c1.238.62 2.32 1.475 3.248 2.552 3.553 4.482 2.934 11.052-1.545 14.606-1.932 1.622-4.328 2.4-6.647 2.32l-14.53.076c-4.017-.468-7.648-2.55-9.967-5.644L6.113 550.338c-1.622-3.083-2.548-6.56-2.548-10.268 0-5.64 2.087-10.82 5.64-14.765l31.61-33.496z" opacity=".81" fill="#d40000"/></svg>