<svg xmlns="http://www.w3.org/2000/svg" xmlns:xlink="http://www.w3.org/1999/xlink" contentScriptType="text/ecmascript" baseProfile="tiny" width="44" viewBox="0 0 44 44" height="44"><path fill="none" d="M0 0h44v44H0z"/><path d="M39.27 19.707c-.423-.625-.806-1.26-1.33-1.802-1.847-1.02-3.564-2.454-5.296-3.653-3.99-2.764-7.98-5.528-11.972-8.29-4.348 2.995-8.682 6.012-13.023 9.017-1.363.943-2.856 1.8-4.124 2.866-.993.833-1.658 2.173-2.375 3.245h3.4v15.175c8.78 0 17.56.002 26.34.004h5.9V21.09h3.41l-.93-1.385" fill-opacity=".2"/><path d="M38.53 20.203c-.5-.743-.887-1.408-1.624-1.914h-.002c-5.407-3.754-10.82-7.5-16.233-11.247-3.924 2.715-7.845 5.436-11.768 8.152-1.283.89-2.566 1.777-3.85 2.667-.438.304-1.01.604-1.352 1.025-.328.406-.596.884-.885 1.316H5.44v15.174H35.902V20.203h2.627" fill-opacity=".4"/><path fill="#636363" d="M35.9 17.76v-.835h-1.202l-14.088-9.8-13.25 9.8H5.44v17.563H35.903v-15.9c.162-.165.325-.328.488-.49l-.49-.338"/><linearGradient x1="188.694" gradientTransform="matrix(1 0 0 -1 -168 -850)" y1="-883.686" x2="188.694" gradientUnits="userSpaceOnUse" y2="-858.116" xlink:type="simple" xlink:actuate="onLoad" id="a" xlink:show="other"><stop stop-color="#e8e8e8" offset="0"/><stop stop-color="#c9ccd9" offset="1"/></linearGradient><path fill="url(#a)" d="M35.145 18.212l-.046-.03v-.453h-.653l-13.82-9.614-13 9.613H6.243v15.956H35.1v-15.43l.045-.044"/><path fill="#777" d="M24.307 22.73h7.514v7.513h-7.513z"/><linearGradient x1="198.93" gradientTransform="matrix(1 0 0 -1 -168 -850)" y1="-876.485" x2="193.195" gradientUnits="userSpaceOnUse" y2="-876.485" xlink:type="simple" xlink:actuate="onLoad" id="b" xlink:show="other"><stop stop-color="#e8e8e8" offset="0"/><stop stop-color="#c9ccd9" offset="1"/></linearGradient><path fill="url(#b)" d="M25.196 23.62h5.735v5.732h-5.734V23.62"/><path fill="#777" d="M31.288 26.04h-2.82v-2.767h-.808v2.766h-2.822v.804h2.822v2.63h.808v-2.63h2.82v-.805"/><path fill="#513511" d="M11.224 22.017h8.01v11.667h-8.01z"/><linearGradient x1="183.228" gradientTransform="matrix(1 0 0 -1 -168 -850)" y1="-882.793" x2="183.228" gradientUnits="userSpaceOnUse" y2="-872.908" xlink:type="simple" xlink:actuate="onLoad" id="c" xlink:show="other"><stop stop-color="#d16b07" offset="0"/><stop stop-color="#9b510e" offset="1"/></linearGradient><path fill="url(#c)" d="M12.115 22.908h6.227v9.885h-6.227v-9.885"/><g fill-opacity=".5"><path fill="#513511" d="M12.915 23.78h1.575v2.74h-.017c.12.118.24.24.36.356h.015V23.42h-2.275c.127.11.243.232.342.36m1.755 2.74v.18-.18z"/><path fill="#f4a44d" d="M14.473 26.52h-1.575v-2.737h.017c-.1-.13-.216-.25-.342-.355h-.034v3.453h2.29l-.357-.36"/><path fill="#513511" d="M15.933 23.78h1.574v2.74h-.017c.12.118.24.24.36.356h.015V23.42H15.59c.126.11.243.232.343.36m1.753 2.74v.18-.18z"/><path fill="#f4a44d" d="M17.49 26.52h-1.576v-2.737h.02c-.1-.13-.218-.25-.344-.355h-.033v3.453h2.292l-.36-.36"/><path fill="#513511" d="M12.915 29.264h1.575V32h-.017l.36.36h.015v-3.456h-2.275c.127.108.243.23.342.36M14.67 32v.182V32z"/><path fill="#f4a44d" d="M14.473 32h-1.575v-2.736h.017c-.1-.13-.216-.252-.342-.36h-.034v3.46h2.29c-.118-.124-.237-.243-.357-.364"/><path fill="#513511" d="M15.933 29.264h1.574V32h-.017l.36.36h.015v-3.456H15.59c.126.108.243.23.343.36M17.686 32v.182V32z"/><path fill="#f4a44d" d="M17.49 32h-1.576v-2.736h.02c-.1-.13-.218-.252-.344-.36h-.033v3.46h2.292c-.12-.124-.24-.243-.36-.364"/></g><path fill="#f9f9f9" fill-opacity=".4" d="M6.773 18.868v14.196L34.653 18.6 20.895 8.385 6.866 17.73l-.093 1.138"/><path fill="#990719" d="M38.53 19.315c-.5-.742-.887-1.41-1.626-1.914-5.408-3.75-10.82-7.498-16.234-11.245-3.927 2.712-7.846 5.435-11.77 8.152-1.282.89-2.566 1.777-3.85 2.667-.438.304-1.008.604-1.35 1.025-.33.402-.596.88-.885 1.313H6.91c4.604-3.15 9.174-6.353 13.76-9.53 4.584 3.176 9.126 6.428 13.76 9.53h.14v.002h3.96"/><linearGradient x1="188.672" gradientTransform="matrix(1 0 0 -1 -168 -850)" y1="-857.131" x2="188.672" gradientUnits="userSpaceOnUse" y2="-868.511" xlink:type="simple" xlink:actuate="onLoad" id="d" xlink:show="other"><stop stop-color="#f00" offset="0"/><stop stop-color="#a80000" offset="1"/></linearGradient><path fill="url(#d)" d="M6.662 18.51c1.457-1.01 5.08-3.517 14.01-9.703 4.67 3.235 9.345 6.46 14.01 9.704h2.342c-.045-.072-.11-.132-.182-.18-5.372-3.756-10.78-7.466-16.168-11.2l-10.63 7.36-2.866 1.987-1.993 1.38c-.26.178-.682.38-.866.652H6.66m-1.954-.28c-.03.01-.06.023-.088.036.02-.01.04-.018.088-.037"/><circle r="7.739" fill-opacity=".4" cx="33.428" cy="31.176"/><path d="M25.22 31.176c.003-4.533 3.675-8.21 8.208-8.21v.942c-4.015 0-7.27 3.253-7.27 7.27 0 4.015 3.255 7.27 7.27 7.27 4.016.002 7.27-3.255 7.27-7.27 0-4.018-3.255-7.27-7.27-7.27v-.94c4.533.002 8.206 3.675 8.21 8.208-.004 4.533-3.677 8.208-8.21 8.21-4.533-.004-8.205-3.678-8.207-8.21z" fill-opacity=".2"/><radialGradient gradientTransform="matrix(1 0 0 -1 -348.004 -851.012)" gradientUnits="userSpaceOnUse" xlink:type="simple" r="7.348" xlink:actuate="onLoad" cx="381.432" id="e" cy="-881.719" xlink:show="other"><stop stop-color="#0082e2" offset="0"/><stop stop-color="#25427c" offset="1"/></radialGradient><circle fill="url(#e)" r="7.348" cx="33.428" cy="30.707"/><linearGradient x1="381.485" gradientTransform="matrix(1 0 0 -1 -348.004 -851.012)" y1="-881.656" x2="381.485" gradientUnits="userSpaceOnUse" y2="-874.606" xlink:type="simple" xlink:actuate="onLoad" id="f" xlink:show="other"><stop stop-color="#5487fc" offset="0"/><stop stop-color="#c2f1ff" offset="1"/></linearGradient><path fill="url(#f)" d="M40.53 30.656c0-3.895-3.156-7.05-7.05-7.05-3.895 0-7.05 3.155-7.05 7.05h14.1z"/><radialGradient gradientTransform="matrix(1 0 0 -1 -736.01 -1656.023)" gradientUnits="userSpaceOnUse" xlink:type="simple" r="3.832" xlink:actuate="onLoad" cx="770.832" id="g" cy="-1686.914" xlink:show="other"><stop stop-color="#0082e2" offset="0"/><stop stop-color="#25427c" offset="1"/></radialGradient><path fill="url(#g)" d="M30.94 27.145v7.54l7.785-4.68z"/><linearGradient x1="382.496" gradientTransform="matrix(1 0 0 -1 -348.004 -851.012)" y1="-878.866" x2="382.496" gradientUnits="userSpaceOnUse" y2="-884.83" xlink:type="simple" xlink:actuate="onLoad" id="h" xlink:show="other"><stop stop-color="#fff2fc" offset="0"/><stop stop-color="#bdd0e0" offset="1"/></linearGradient><path fill="url(#h)" d="M31.415 27.866v5.964l6.155-3.7z"/></svg>