<svg xmlns="http://www.w3.org/2000/svg" xmlns:xlink="http://www.w3.org/1999/xlink" contentScriptType="text/ecmascript" baseProfile="tiny" width="44" viewBox="0 0 44 44" height="44"><path fill="none" d="M0 0h43.999v44h-43.999z"/><path d="M39.269 19.707c-.422-.625-.805-1.259-1.329-1.802-1.847-1.02-3.564-2.454-5.296-3.653-3.99-2.764-7.981-5.528-11.972-8.291-4.348 2.996-8.682 6.013-13.023 9.018-1.362.944-2.855 1.802-4.123 2.867-.993.833-1.658 2.173-2.375 3.245h3.398v15.174c8.78 0 17.562.002 26.341.004h5.901v-15.177h3.409l-.931-1.385" fill-opacity=".2"/><path d="M38.529 20.203c-.5-.743-.886-1.408-1.623-1.914h-.002c-5.407-3.753-10.821-7.5-16.233-11.246-3.925 2.715-7.846 5.436-11.769 8.152l-3.85 2.667c-.438.304-1.01.604-1.352 1.025-.328.406-.596.884-.885 1.316h2.625v15.174h30.462000000000003v-15.174h2.627" fill-opacity=".4"/><path fill="#636363" d="M35.9 17.76v-.835h-1.202l-14.088-9.799-13.25 9.799h-1.92v17.563h30.463v-15.901l.488-.489-.491-.338"/><linearGradient x1="188.694" gradientTransform="matrix(1 0 0 -1 -168 -850)" y1="-883.686" x2="188.694" gradientUnits="userSpaceOnUse" y2="-858.116" xlink:type="simple" xlink:actuate="onLoad" id="a" xlink:show="other"><stop stop-color="#e8e8e8" offset="0"/><stop stop-color="#c9ccd9" offset="1"/></linearGradient><path fill="url(#a)" d="M35.145 18.212l-.046-.031v-.452h-.652l-13.821-9.613-13 9.613h-1.382v15.957h28.855v-15.431l.046-.043"/><path fill="#777" d="M24.307 22.729h7.514v7.514h-7.514z"/><linearGradient x1="198.93" gradientTransform="matrix(1 0 0 -1 -168 -850)" y1="-876.485" x2="193.195" gradientUnits="userSpaceOnUse" y2="-876.485" xlink:type="simple" xlink:actuate="onLoad" id="b" xlink:show="other"><stop stop-color="#e8e8e8" offset="0"/><stop stop-color="#c9ccd9" offset="1"/></linearGradient><path fill="url(#b)" d="M25.196 23.619h5.735v5.733h-5.735v-5.733"/><path fill="#777" d="M31.288 26.039h-2.82v-2.766h-.808v2.766h-2.822v.805h2.822v2.629h.808v-2.629h2.82v-.805"/><path fill="#513511" d="M11.224 22.017h8.009v11.667h-8.009z"/><linearGradient x1="183.228" gradientTransform="matrix(1 0 0 -1 -168 -850)" y1="-882.793" x2="183.228" gradientUnits="userSpaceOnUse" y2="-872.908" xlink:type="simple" xlink:actuate="onLoad" id="c" xlink:show="other"><stop stop-color="#d16b07" offset="0"/><stop stop-color="#9b510e" offset="1"/></linearGradient><path fill="url(#c)" d="M12.115 22.908h6.227v9.885h-6.227v-9.885"/><g fill-opacity=".5"><path fill="#513511" d="M12.915 23.781h1.575v2.738h-.017l.359.357h.016v-3.455h-2.275c.127.11.243.231.342.36m1.755 2.74v.178-.178z"/><path fill="#f4a44d" d="M14.473 26.521h-1.575v-2.738h.017c-.099-.131-.216-.25-.342-.355h-.034v3.453h2.292l-.358-.36"/><path fill="#513511" d="M15.933 23.781h1.574v2.738h-.017l.359.357h.016v-3.455h-2.276c.127.11.244.231.344.36m1.753 2.74v.178-.178z"/><path fill="#f4a44d" d="M17.49 26.521h-1.576v-2.738h.019c-.099-.131-.217-.25-.343-.355h-.033v3.453h2.292l-.359-.36"/><path fill="#513511" d="M12.915 29.264h1.575v2.736h-.017l.359.359h.016v-3.455h-2.275c.127.108.243.231.342.36m1.755 2.736v.182-.182z"/><path fill="#f4a44d" d="M14.473 32h-1.575v-2.736h.017c-.099-.129-.216-.252-.342-.359h-.034v3.459h2.292l-.358-.364"/><path fill="#513511" d="M15.933 29.264h1.574v2.736h-.017l.359.359h.016v-3.455h-2.276c.127.108.244.231.344.36m1.753 2.736v.182-.182z"/><path fill="#f4a44d" d="M17.49 32h-1.576v-2.736h.019c-.099-.129-.217-.252-.343-.359h-.033v3.459h2.292l-.359-.364"/></g><path fill="#f9f9f9" fill-opacity=".4" d="M6.773 18.868v14.196l27.879-14.464-13.756-10.215-14.03 9.344-.093 1.139"/><path fill="#990719" d="M38.529 19.315c-.5-.742-.886-1.409-1.625-1.914h-.001c-5.407-3.752-10.82-7.499-16.233-11.246-3.927 2.712-7.846 5.435-11.769 8.152l-3.85 2.667c-.439.304-1.009.604-1.352 1.025-.328.403-.595.882-.884 1.314h4.095c4.604-3.151 9.174-6.353 13.76-9.529 4.584 3.175 9.126 6.427 13.759 9.529h.141v.002h3.959"/><linearGradient x1="188.672" gradientTransform="matrix(1 0 0 -1 -168 -850)" y1="-857.131" x2="188.672" gradientUnits="userSpaceOnUse" y2="-868.511" xlink:type="simple" xlink:actuate="onLoad" id="d" xlink:show="other"><stop stop-color="#f00" offset="0"/><stop stop-color="#a80000" offset="1"/></linearGradient><path fill="url(#d)" d="M6.662 18.511l14.01-9.704c4.67 3.235 9.345 6.461 14.011 9.704h2.341c-.045-.073-.111-.133-.182-.181-5.372-3.756-10.78-7.466-16.168-11.2l-10.63 7.361-2.866 1.986-1.993 1.38c-.259.178-.682.379-.866.652l2.343.002m-1.954-.282l-.088.037.088-.037"/><circle r="7.739" fill-opacity=".4" cx="33.428" cy="31.176"/><path d="M25.221 31.176c.002-4.533 3.674-8.209 8.207-8.21v.941c-4.015 0-7.271 3.254-7.271 7.271 0 4.015 3.256 7.271 7.271 7.271 4.016.001 7.271-3.256 7.271-7.271 0-4.018-3.256-7.271-7.271-7.271v-.939c4.533.002 8.206 3.675 8.209 8.208-.003 4.533-3.676 8.208-8.209 8.209-4.533-.003-8.205-3.677-8.207-8.209z" fill-opacity=".2"/><radialGradient gradientTransform="matrix(1 0 0 -1 -348.004 -851.012)" gradientUnits="userSpaceOnUse" xlink:type="simple" r="7.348" xlink:actuate="onLoad" cx="381.432" id="e" cy="-881.719" xlink:show="other"><stop stop-color="#0082e2" offset="0"/><stop stop-color="#25427c" offset="1"/></radialGradient><circle fill="url(#e)" r="7.348" cx="33.428" cy="30.707"/><linearGradient x1="381.485" gradientTransform="matrix(1 0 0 -1 -348.004 -851.012)" y1="-881.656" x2="381.485" gradientUnits="userSpaceOnUse" y2="-874.606" xlink:type="simple" xlink:actuate="onLoad" id="f" xlink:show="other"><stop stop-color="#5487fc" offset="0"/><stop stop-color="#c2f1ff" offset="1"/></linearGradient><path fill="url(#f)" d="M40.531 30.656c0-3.895-3.157-7.051-7.051-7.051-3.895 0-7.051 3.156-7.051 7.051h14.102z"/><radialGradient gradientTransform="matrix(1 0 0 -1 -736.01 -1656.023)" gradientUnits="userSpaceOnUse" xlink:type="simple" r="3.832" xlink:actuate="onLoad" cx="770.832" id="g" cy="-1686.914" xlink:show="other"><stop stop-color="#0082e2" offset="0"/><stop stop-color="#25427c" offset="1"/></radialGradient><path fill="url(#g)" d="M30.941 27.145v7.541l7.784-4.681z"/><linearGradient x1="382.496" gradientTransform="matrix(1 0 0 -1 -348.004 -851.012)" y1="-878.866" x2="382.496" gradientUnits="userSpaceOnUse" y2="-884.83" xlink:type="simple" xlink:actuate="onLoad" id="h" xlink:show="other"><stop stop-color="#fff2fc" offset="0"/><stop stop-color="#bdd0e0" offset="1"/></linearGradient><path fill="url(#h)" d="M31.415 27.866v5.964l6.155-3.7z"/></svg>