<svg xmlns="http://www.w3.org/2000/svg" width="32.1" height="32.1" viewBox="12.4 61.3 32.1 32.1"><path fill="#F6C37A" d="M16.2 84L35 65.2c.2-.4.2-.9-.2-1.2-2-2-5.1-2-7.1 0L15 76.8c-2 2-2 5.1 0 7.1.3.2.8.3 1.2.1zm24.7-13.4L21.6 89.9c-.1.4-.1.8.2 1.1 2 2 5.2 2 7.2 0l13-13c2-2 2-5.2 0-7.2-.3-.3-.7-.4-1.1-.2z"/><path fill="#DDAF6D" d="M23 89.9c-.4-.4-.4-1 0-1.4l17.9-17.9c-.1.1-.2.1-.3.2L21.8 89.6c-.4.4-.4 1 0 1.4 2 2 5.2 2 7.2 0l.6-.6c-2 1.5-4.8 1.3-6.6-.5zM16.2 84l1-1c-.3.1-.7 0-1-.2-1.8-1.8-1.9-4.9-.3-6.9l-.9.9c-2 2-2 5.1 0 7.1.3.2.8.3 1.2.1z"/><path fill="#E37948" d="M43.3 62.5c1.6 1.6 1.6 4.1 0 5.7l-24 24c-1.6 1.6-4.1 1.6-5.7 0-1.6-1.6-1.6-4.1 0-5.7l24-24c1.6-1.6 4.2-1.6 5.7 0z"/><path fill="#EFC75E" d="M35.5 67.3c-.6 0-1 .4-1 1v2h-2c-.4 0-.8.3-.9.6-.1.1-.1.3-.1.4v2h-1.9c-.1 0-.3 0-.4.1-.4.1-.6.5-.6.9v2h-2c-.4 0-.8.3-.9.6-.1.1-.1.3-.1.4v2h-1.9c-.1 0-.3 0-.4.1-.4.1-.6.5-.6.9v2h-2c-.6 0-1 .4-1 1s.4 1 1 1h3c.6 0 1-.4 1-1v-2h1.9c.6 0 1-.4 1-1v-2h2c.6 0 1-.4 1-1v-2h1.9c.6 0 1-.4 1-1v-2h2c.6 0 1-.4 1-1v-3c0-.5-.4-1-1-1z"/><path fill="#CC6D41" d="M20.3 91.1c-1.6 1.6-4.1 1.6-5.7 0-1.6-1.6-1.6-4.1 0-5.7l-1 1c-1.6 1.6-1.6 4.1 0 5.7s4.1 1.6 5.7 0l24-24-23 23z"/></svg>