<svg xmlns="http://www.w3.org/2000/svg" xmlns:xlink="http://www.w3.org/1999/xlink" contentScriptType="text/ecmascript" baseProfile="tiny" width="44" viewBox="0 0 44 44" height="44"><path d="M5.027 8.896V35.968h31.091v-.002h3.05V8.896H5.03" fill-opacity=".2"/><path d="M6.028 8.897v26.07h32.14V8.896H6.028" fill-opacity=".4"/><linearGradient x1="78.098" gradientTransform="matrix(1 0 0 -1 -56 -102)" y1="-110.897" x2="78.098" gradientUnits="userSpaceOnUse" y2="-135.968" xlink:type="simple" xlink:actuate="onLoad" id="a" xlink:show="other"><stop stop-color="#ececec" offset="0"/><stop stop-color="#dcdcdc" offset="1"/></linearGradient><path fill="url(#a)" d="M6.028 8.897v25.07h32.14V8.896H6.028"/><linearGradient x1="280.1" gradientTransform="matrix(1 0 0 -1 -258.002 -981.004)" y1="-1012.921" x2="280.1" gradientUnits="userSpaceOnUse" y2="-991.952" xlink:type="simple" xlink:actuate="onLoad" id="b" xlink:show="other"><stop stop-color="#fff" offset="0"/><stop stop-color="#fff" offset=".357"/><stop stop-color="#0aabff" offset="1"/></linearGradient><path fill="url(#b)" d="M8.078 10.948h28.038v20.97H8.078z"/><linearGradient x1="277.521" gradientTransform="matrix(1 0 0 -1 -258.002 -981.004)" y1="-991.947" x2="277.521" gradientUnits="userSpaceOnUse" y2="-1012.918" xlink:type="simple" xlink:actuate="onLoad" id="c" xlink:show="other"><stop stop-color="#0032bf" offset="0"/><stop stop-color="#0032bf" offset=".071"/><stop stop-color="#7de0ff" offset=".923"/><stop stop-color="#7de0ff" offset="1"/></linearGradient><path fill="url(#c)" d="M8.078 25.823h22.88v6.094H8.08z"/><path fill="#453e60" d="M35.588 26.41l-.525-2.696-7.676-5.156-.88.352-.82.175-2.374-1.728-1.025 1.026-3.926-2.696-1.054 2.11-2.286-.352-6.944 3.737v5.504l5.714-.276z"/><linearGradient x1="284.537" gradientTransform="matrix(1 0 0 -1 -258.002 -981.004)" y1="-996.691" x2="284.537" gradientUnits="userSpaceOnUse" y2="-1006.945" xlink:type="simple" xlink:actuate="onLoad" id="d" xlink:show="other"><stop stop-color="#fff" offset="0"/><stop stop-color="#82d4ff" offset="1"/></linearGradient><path fill="url(#d)" d="M18.567 17.065s.44 1.61.44 1.845c0 .235-1.29.527-1.29.527l.352.586v1.114l1.58 1.935s2.58 3.456 7.208 2.694c4.63-.762 8.496.178 8.496.178v-.73l-.293-1.498-7.165-4.814c-.303-.12-.53-.218-.65-.284l-.223.088c-.008.338.13 1.026.13 1.026h-.646l-.82-.645h-.35l-1.76-1.523h-.47l-.818.82-.35-.238 1.29 1.29-1.29-1.29-1.492-1.026-.805-.55h-.282l-.623-.624-.375-.257-.095.19.564.924-.263.265z" fill-opacity=".9"/><linearGradient x1="274.426" gradientTransform="matrix(1 0 0 -1 -258.002 -981.004)" y1="-1006.004" x2="274.426" gradientUnits="userSpaceOnUse" y2="-1008.3" xlink:type="simple" xlink:actuate="onLoad" id="e" xlink:show="other"><stop stop-color="#a3c600" offset="0"/><stop stop-color="#0a4d0a" offset="1"/></linearGradient><path fill="url(#e)" d="M24.572 26.41c-1.8-.877-12.81-1.27-16.494-1.374v2.254c4.667.02 18.507.1 16.494-.88z"/><linearGradient x1="283.891" gradientTransform="matrix(1 0 0 -1 -258.002 -981.004)" y1="-1006.066" x2="283.891" gradientUnits="userSpaceOnUse" y2="-1015.791" xlink:type="simple" xlink:actuate="onLoad" id="f" xlink:show="other"><stop stop-color="#a8c600" offset="0"/><stop stop-color="#0a4d0a" offset="1"/></linearGradient><path fill="url(#f)" d="M26.214 26.41s3.808 0 4.806.703c.836.59-11.027 3.664-15.36 4.804h20.46v-4.935c-.73-.82-1.702-1.92-1.702-1.92l-8.204 1.348z"/><linearGradient x1="68.691" gradientTransform="matrix(1 0 0 -1 -56 -102)" y1="-119.445" x2="68.691" gradientUnits="userSpaceOnUse" y2="-127.823" xlink:type="simple" xlink:actuate="onLoad" id="g" xlink:show="other"><stop stop-color="#22c600" offset="0"/><stop stop-color="#0a4d0a" offset="1"/></linearGradient><path fill="url(#g)" d="M16.504 22.624l-.3 1.594-.532-2.13-.326 1.74-.77-3.078-.52 2.764-.69-2.764-.226 1.205-.702-2.81-.46 2.45-1.038-4.15-1.158 6.167-.736-2.943-.968 5.154h9.226l-.8-3.2"/><linearGradient x1="88.244" gradientTransform="matrix(1 0 0 -1 -56 -102)" y1="-122.157" x2="88.244" gradientUnits="userSpaceOnUse" y2="-131.505" xlink:type="simple" xlink:actuate="onLoad" id="h" xlink:show="other"><stop stop-color="#22c600" offset="0"/><stop stop-color="#0a770a" offset="1"/></linearGradient><path fill="url(#h)" d="M35.107 20.157l-.982 3.932-.316-1.686-.968 3.867-.727-3.866-1.077 4.31-.458-2.44-.745 2.983-.42-2.232-1.118 4.48h7.82c0-1.386.2-2.91-.057-4.272l-.953-5.076"/><path fill="#fff" fill-opacity=".3" d="M6.028 8.897V33.967h.08l31.764-25.07z"/><path d="M38.89 25.97c-.23-.077-.48.058-.58.322-2.35 6.294-6.446 8.502-11.048 8.526-4.322.006-9.047-2.045-12.813-4.732l2.133-4.755c.087-.193.072-.422-.036-.6-.107-.174-.292-.266-.475-.23L3.71 26.884c-.153.03-.283.143-.354.303-.072.162-.072.35-.004.514l5.444 12.956c.08.19.246.315.43.317.182.004.35-.11.437-.3l1.977-4.28c4.962 3.332 9.645 4.938 13.73 4.94h.067c7.295 0 12.638-5.343 13.805-14.728.033-.285-.118-.558-.35-.635z" fill-opacity=".2"/><path d="M38.76 26.52C36.91 41 25.35 45.19 11.45 35.605l-2.215 4.802L3.79 27.45l12.362-2.382-2.346 5.227c7.89 5.807 20.214 9.05 24.953-3.774z" fill-opacity=".5"/><linearGradient x1="-1166.279" gradientTransform="matrix(-.991 -.136 -.136 .991 -979.584 -1259.589)" y1="1137.004" x2="-1168.323" gradientUnits="userSpaceOnUse" y2="1151.911" xlink:type="simple" xlink:actuate="onLoad" id="i" xlink:show="other"><stop stop-color="#32abcc" offset="0"/><stop stop-color="#0045bf" offset="1"/></linearGradient><path fill="url(#i)" d="M38.928 25.352c-1.848 14.478-13.408 18.67-27.31 9.086l-2.213 4.797L3.957 26.28 16.32 23.9l-2.346 5.228c7.89 5.806 20.214 9.046 24.954-3.774z"/><linearGradient x1="231.544" gradientTransform="translate(-212.002 -849.003)" y1="875.027" x2="231.544" gradientUnits="userSpaceOnUse" y2="886.368" xlink:type="simple" xlink:actuate="onLoad" id="j" xlink:show="other"><stop stop-color="#33d9ff" offset="0"/><stop stop-color="#00a8eb" offset="1"/></linearGradient><path fill="url(#j)" d="M34.033 33.2c-2.02 1.31-4.287 1.895-6.605 1.88-4.805-.01-9.862-2.307-13.844-5.23l-.576-.42 1.978-4.407-9.937 1.912.19.457c4.506 3.754 19.906 15.294 28.793 5.807z"/><path d="M40.447 19.054L35 6.098c-.08-.19-.246-.313-.43-.318-.18-.005-.353.11-.438.3l-1.975 4.28c-4.964-3.333-9.646-4.94-13.73-4.942-7.332-.034-12.703 5.316-13.872 14.733-.036.284.115.555.35.635.234.076.485-.062.582-.323 2.346-6.3 6.44-8.506 11.048-8.53 4.318-.004 9.043 2.048 12.813 4.732l-2.136 4.753c-.087.195-.07.427.037.6.09.152.238.24.396.24.025 0 .054-.003.078-.007l12.364-2.38c.153-.03.285-.142.354-.302.072-.163.074-.35.005-.514z" fill-opacity=".2"/><path d="M5.038 20.235c1.847-14.48 13.408-18.67 27.31-9.085l2.213-4.8 5.448 12.956-12.36 2.38 2.347-5.227C22.1 10.654 9.775 7.412 5.038 20.234z" fill-opacity=".5"/><linearGradient x1="846.952" gradientTransform="matrix(.991 .136 .136 -.991 -696.829 -969.092)" y1="-881.615" x2="844.909" gradientUnits="userSpaceOnUse" y2="-866.71" xlink:type="simple" xlink:actuate="onLoad" id="k" xlink:show="other"><stop stop-color="#32bd41" offset="0"/><stop stop-color="#39bf3d" offset=".054"/><stop stop-color="#55c52d" offset=".288"/><stop stop-color="#69c922" offset=".524"/><stop stop-color="#75cc1b" offset=".761"/><stop stop-color="#79cd19" offset="1"/></linearGradient><path fill="url(#k)" d="M5.038 19.23C6.885 4.754 18.446.564 32.348 10.148l2.213-4.8 5.448 12.955-12.36 2.38 2.347-5.224C22.1 9.65 9.775 6.408 5.038 19.23z"/><linearGradient x1="236.194" gradientTransform="translate(-212.002 -849.003)" y1="865.547" x2="236.194" gradientUnits="userSpaceOnUse" y2="854.339" xlink:type="simple" xlink:actuate="onLoad" id="l" xlink:show="other"><stop stop-color="#32ed41" offset="0"/><stop stop-color="#c9ff8f" offset="1"/></linearGradient><path fill="url(#l)" d="M32.627 11.336l-.652-.452C26.987 7.444 22.35 5.84 18.43 5.842c-3.67.028-6.702 1.403-8.918 4.027 3.628-2.066 12.278-3.82 29.36 7.665L34.53 7.215l-1.903 4.12z"/></svg>