<svg xmlns="http://www.w3.org/2000/svg" xmlns:xlink="http://www.w3.org/1999/xlink" contentScriptType="text/ecmascript" baseProfile="tiny" width="44" viewBox="0 0 44 44" height="44"><path d="M5.027 8.896v27.071h31.091v-.001h3.049c0-9.008.001-18.015.002-27.023v-.047h-34.142" fill-opacity=".2"/><path d="M6.028 8.897v26.071h26.095c2.016 0 4.029 0 6.045-.002v-26.069h-32.14" fill-opacity=".4"/><linearGradient x1="78.098" gradientTransform="matrix(1 0 0 -1 -56 -102)" y1="-110.897" x2="78.098" gradientUnits="userSpaceOnUse" y2="-135.968" xlink:type="simple" xlink:actuate="onLoad" id="a" xlink:show="other"><stop stop-color="#ececec" offset="0"/><stop stop-color="#dcdcdc" offset="1"/></linearGradient><path fill="url(#a)" d="M6.028 8.897v25.071h26.095c2.016 0 4.029 0 6.045-.002v-25.069h-32.14"/><linearGradient x1="280.1" gradientTransform="matrix(1 0 0 -1 -258.002 -981.004)" y1="-1012.921" x2="280.1" gradientUnits="userSpaceOnUse" y2="-991.952" xlink:type="simple" xlink:actuate="onLoad" id="b" xlink:show="other"><stop stop-color="#fff" offset="0"/><stop stop-color="#fff" offset=".357"/><stop stop-color="#0aabff" offset="1"/></linearGradient><path fill="url(#b)" d="M8.078 10.948h28.038v20.969h-28.038z"/><linearGradient x1="277.521" gradientTransform="matrix(1 0 0 -1 -258.002 -981.004)" y1="-991.947" x2="277.521" gradientUnits="userSpaceOnUse" y2="-1012.918" xlink:type="simple" xlink:actuate="onLoad" id="c" xlink:show="other"><stop stop-color="#0032bf" offset="0"/><stop stop-color="#0032bf" offset=".071"/><stop stop-color="#7de0ff" offset=".923"/><stop stop-color="#7de0ff" offset="1"/></linearGradient><path fill="url(#c)" d="M8.078 25.823h22.881v6.094h-22.881z"/><path fill="#453e60" d="M35.588 26.41l-.525-2.696-7.676-5.156-.881.352-.82.175-2.373-1.728-1.025 1.026-3.926-2.696-1.054 2.109-2.286-.351-6.944 3.737v5.504l5.714-.276z"/><linearGradient x1="284.537" gradientTransform="matrix(1 0 0 -1 -258.002 -981.004)" y1="-996.691" x2="284.537" gradientUnits="userSpaceOnUse" y2="-1006.945" xlink:type="simple" xlink:actuate="onLoad" id="d" xlink:show="other"><stop stop-color="#fff" offset="0"/><stop stop-color="#82d4ff" offset="1"/></linearGradient><path fill="url(#d)" d="M18.567 17.065s.439 1.61.439 1.845c0 .235-1.288.527-1.288.527l.351.586v1.113l1.582 1.935s2.579 3.455 7.207 2.693c4.629-.762 8.496.178 8.496.178v-.729l-.293-1.499-7.166-4.814c-.303-.12-.531-.218-.651-.284l-.222.088c-.008.338.129 1.026.129 1.026h-.645l-.82-.645h-.351l-1.758-1.523h-.47l-.819.82-.349-.238 1.29 1.289-1.29-1.29-1.493-1.025h-.001l-.804-.551h-.283l-.623-.623-.375-.257-.095.191.564.923-.262.264z" fill-opacity=".9"/><linearGradient x1="274.426" gradientTransform="matrix(1 0 0 -1 -258.002 -981.004)" y1="-1006.004" x2="274.426" gradientUnits="userSpaceOnUse" y2="-1008.3" xlink:type="simple" xlink:actuate="onLoad" id="e" xlink:show="other"><stop stop-color="#a3c600" offset="0"/><stop stop-color="#0a4d0a" offset="1"/></linearGradient><path fill="url(#e)" d="M24.572 26.41c-1.801-.877-12.811-1.27-16.494-1.374v2.254c4.667.019 18.507.099 16.494-.88z"/><linearGradient x1="283.891" gradientTransform="matrix(1 0 0 -1 -258.002 -981.004)" y1="-1006.066" x2="283.891" gradientUnits="userSpaceOnUse" y2="-1015.791" xlink:type="simple" xlink:actuate="onLoad" id="f" xlink:show="other"><stop stop-color="#a8c600" offset="0"/><stop stop-color="#0a4d0a" offset="1"/></linearGradient><path fill="url(#f)" d="M26.214 26.41s3.808 0 4.806.703c.836.59-11.027 3.664-15.359 4.804h20.458v-4.935c-.729-.819-1.701-1.92-1.701-1.92l-8.204 1.348z"/><linearGradient x1="68.691" gradientTransform="matrix(1 0 0 -1 -56 -102)" y1="-119.445" x2="68.691" gradientUnits="userSpaceOnUse" y2="-127.823" xlink:type="simple" xlink:actuate="onLoad" id="g" xlink:show="other"><stop stop-color="#22c600" offset="0"/><stop stop-color="#0a4d0a" offset="1"/></linearGradient><path fill="url(#g)" d="M16.504 22.624l-.299 1.594-.533-2.129-.326 1.738-.77-3.077-.519 2.764-.691-2.764-.226 1.205-.702-2.81-.46 2.45-1.038-4.15-1.158 6.167-.736-2.943-.968 5.155h9.226l-.8-3.2"/><linearGradient x1="88.244" gradientTransform="matrix(1 0 0 -1 -56 -102)" y1="-122.157" x2="88.244" gradientUnits="userSpaceOnUse" y2="-131.505" xlink:type="simple" xlink:actuate="onLoad" id="h" xlink:show="other"><stop stop-color="#22c600" offset="0"/><stop stop-color="#0a770a" offset="1"/></linearGradient><path fill="url(#h)" d="M35.107 20.157l-.982 3.932-.316-1.685-.967 3.867-.727-3.867-1.077 4.309-.458-2.438-.745 2.982-.419-2.232-1.119 4.479h7.819c0-1.385.2-2.909-.056-4.271l-.953-5.076"/><path fill="#fff" fill-opacity=".3" d="M6.028 8.897v25.070999999999998h.08l31.764-25.071z"/><path d="M38.891 25.97c-.232-.077-.482.058-.58.322-2.352 6.294-6.447 8.502-11.049 8.526-4.322.006-9.047-2.045-12.813-4.732l2.134-4.755c.087-.194.072-.423-.036-.601-.107-.174-.292-.266-.475-.229l-12.362 2.382c-.153.029-.283.143-.354.303-.072.162-.072.351-.004.514l5.444 12.956c.081.19.246.315.429.317.183.004.352-.111.438-.299l1.977-4.281c4.962 3.332 9.645 4.938 13.729 4.939h.068c7.295 0 12.638-5.342 13.805-14.727.033-.285-.118-.558-.351-.635z" fill-opacity=".2"/><path d="M38.759 26.521c-1.847 14.479-13.407 18.668-27.309 9.083l-2.215 4.802-5.444-12.957 12.361-2.381-2.346 5.227c7.889 5.807 20.214 9.049 24.953-3.774z" fill-opacity=".5"/><linearGradient x1="-1166.279" gradientTransform="matrix(-.991 -.136 -.136 .991 -979.584 -1259.589)" y1="1137.004" x2="-1168.323" gradientUnits="userSpaceOnUse" y2="1151.911" xlink:type="simple" xlink:actuate="onLoad" id="i" xlink:show="other"><stop stop-color="#32abcc" offset="0"/><stop stop-color="#0045bf" offset="1"/></linearGradient><path fill="url(#i)" d="M38.928 25.352c-1.848 14.478-13.408 18.669-27.309 9.086l-2.214 4.797-5.448-12.954 12.362-2.383-2.345 5.228c7.891 5.806 20.214 9.046 24.954-3.774z"/><linearGradient x1="231.544" gradientTransform="translate(-212.002 -849.003)" y1="875.027" x2="231.544" gradientUnits="userSpaceOnUse" y2="886.368" xlink:type="simple" xlink:actuate="onLoad" id="j" xlink:show="other"><stop stop-color="#33d9ff" offset="0"/><stop stop-color="#00a8eb" offset="1"/></linearGradient><path fill="url(#j)" d="M34.033 33.199c-2.02 1.312-4.287 1.896-6.605 1.881-4.805-.01-9.862-2.307-13.844-5.229l-.576-.422 1.978-4.406-9.937 1.912.191.457c4.506 3.754 19.906 15.294 28.793 5.807z"/><path d="M40.447 19.054l-5.446-12.956c-.081-.191-.247-.313-.431-.318-.18-.005-.353.111-.438.299l-1.975 4.281c-4.964-3.333-9.646-4.94-13.73-4.942-7.332-.034-12.703 5.316-13.872 14.733-.036.283.115.554.35.634.234.076.485-.062.582-.323 2.346-6.3 6.441-8.506 11.048-8.53 4.318-.004 9.043 2.048 12.813 4.732l-2.136 4.753c-.087.195-.069.427.037.601.092.151.239.239.397.24l.078-.008 12.364-2.381c.153-.029.285-.141.354-.301.072-.163.074-.351.005-.514z" fill-opacity=".2"/><path d="M5.038 20.235c1.847-14.479 13.408-18.67 27.31-9.085l2.213-4.8 5.447 12.956-12.361 2.379 2.348-5.226c-7.894-5.804-20.22-9.046-24.957 3.776z" fill-opacity=".5"/><linearGradient x1="846.952" gradientTransform="matrix(.991 .136 .136 -.991 -696.829 -969.092)" y1="-881.615" x2="844.909" gradientUnits="userSpaceOnUse" y2="-866.71" xlink:type="simple" xlink:actuate="onLoad" id="k" xlink:show="other"><stop stop-color="#32bd41" offset="0"/><stop stop-color="#39bf3d" offset=".054"/><stop stop-color="#55c52d" offset=".288"/><stop stop-color="#69c922" offset=".524"/><stop stop-color="#75cc1b" offset=".761"/><stop stop-color="#79cd19" offset="1"/></linearGradient><path fill="url(#k)" d="M5.038 19.231c1.847-14.478 13.408-18.668 27.31-9.084l2.213-4.799 5.447 12.954-12.361 2.38 2.348-5.224c-7.894-5.807-20.22-9.049-24.957 3.773z"/><linearGradient x1="236.194" gradientTransform="translate(-212.002 -849.003)" y1="865.547" x2="236.194" gradientUnits="userSpaceOnUse" y2="854.339" xlink:type="simple" xlink:actuate="onLoad" id="l" xlink:show="other"><stop stop-color="#32ed41" offset="0"/><stop stop-color="#c9ff8f" offset="1"/></linearGradient><path fill="url(#l)" d="M32.627 11.336l-.652-.452c-4.988-3.44-9.626-5.043-13.545-5.042-3.67.028-6.702 1.403-8.918 4.027 3.628-2.065 12.278-3.818 29.36 7.666l-4.343-10.32-1.902 4.121z"/></svg>