<svg xmlns="http://www.w3.org/2000/svg" xmlns:xlink="http://www.w3.org/1999/xlink" contentScriptType="text/ecmascript" baseProfile="tiny" width="44" viewBox="0 0 44 44" height="44"><path d="M.026 0H39.48c1.385 0 2.768.01 4.148-.04.76-.03.396 3.03.396 3.595V43.14c0 .505.164.853-.408.895-.385.027-.773 0-1.158-.023-1.496-.088-3.02-.01-4.52-.01H8.454c-2.644 0-5.386.23-8.02.033-.588-.046-.408-.436-.408-.95V0" fill="none"/><path d="M3.114 20.656c0-8.576 6.87-16.12 15.42-16.877 8.653-.77 16.872 5.535 18.257 14.13 1.387 8.58-4.31 17.24-12.79 19.238-8.71 2.047-17.896-3.335-20.275-11.974-.404-1.47-.61-2.993-.61-4.518" fill-opacity=".2"/><path d="M35.707 20.662c0 8.54-7.36 15.788-15.903 15.645-4.155-.07-8.154-1.888-11.02-4.886-2.707-2.83-4.733-7.14-4.35-11.14.235-2.483 2.753-3.813 4.85-4.543 2.547-.887 5.303-1.27 7.98-1.482 3.977-.313 8.062-.106 11.906 1.006 2.54.735 6.537 2.172 6.537 5.402" fill-opacity=".5"/><linearGradient x1="1014.074" gradientTransform="matrix(1 0 0 -1 -994.011 -3186.024)" y1="-3221.021" x2="1014.074" gradientUnits="userSpaceOnUse" y2="-3189.736" xlink:type="simple" xlink:actuate="onLoad" id="a" xlink:show="other"><stop stop-color="#84d8fd" offset="0"/><stop stop-color="#7dd1fb" offset=".113"/><stop stop-color="#6bbef7" offset=".275"/><stop stop-color="#4d9ff0" offset=".468"/><stop stop-color="#2676e7" offset=".67"/><stop stop-color="#2676e7" offset="1"/></linearGradient><path fill="url(#a)" d="M20.062 3.712c8.54 0 15.786 7.36 15.64 15.9-.142 8.54-7.616 15.666-16.153 15.376-8.34-.28-15.267-7.545-15.126-15.89.14-8.343 7.293-15.386 15.638-15.386"/><linearGradient x1="187.356" gradientTransform="matrix(1 0 0 -1 -168 -850)" y1="-883.063" x2="187.356" gradientUnits="userSpaceOnUse" y2="-855.303" xlink:type="simple" xlink:actuate="onLoad" id="b" xlink:show="other"><stop stop-color="#c5eaff" offset="0"/><stop stop-color="#7ac6f7" offset="1"/></linearGradient><path fill="url(#b)" d="M32.152 20.384c-.037-.28-.41-.28-.62-.276-.412.006-.532-.035-.81-.338-.417-.45-1.553-.113-2.105-.142-.45-.024-.364-.17-.633-.44-.338-.336-.338-.168-.668-.035-.57.232-1.555-.074-2.178-.1-.748-.03-.516.404-1.053.75-.227.145-.615 1.052-.934.88-.617-.343-1.323.268-1.92-.254-.446-.39-.968-1.102-1.63-.917-.638.178-.625-.94-1.342-.56-.193.1-.076.33-.174.48-.163.25-.513.415-.78.52-.584.234-1.166-.377-1.427-.848-.324-.583.4-.282.053-.76-.064-.09-.31-.29-.157-.397.325-.224.117-.39.29-.7-.025.043.752.02.83.02.134 0 .544.1.516-.164-.006-.047-.114-.478-.04-.478.13 0 1.105-.088 1.085-.113.103.128.305.116.444.086.187-.042.6.52.71.63.434-.403-.328-.877-.473-1.225-.136-.327.238-.61.097-.934-.155-.36.203-.547.466-.708.47-.287.685-.82.812-1.335.068-.274.115-.562.1-.846-.028-.515-.584-.314-.994-.314.004-.317.3-.443.577-.43.46.022.658-.34.943-.62.354.714.963-.22 1.068-.537.107-.33.343-.652.65-.82.343-.188.41-.593.672-.855-.408-.18-.864-.208-1.275-.38-.48-.205-.795-.733-1.042-1.17-.21-.383-.214-.88-.523-1.212-.255-.274-.734-.408-1.083-.498-.53-.136-1.71.327-1.492 1.045.134.44.862 1.91.17 2.294-.21.117-.7.11-.807.37-.107.258.408.564.153.89-.544.7-.675-.595-.948-.644-.373-.067-.573.202-.983-.096-.25-.182-.002-.474-.505-.4-.403.06-.62.068-.94-.22-.226-.2-.592-.69-.153-.883.46-.2 1.698-1.7.714-1.9-.115-.022-.235-.02-.358-.004C10.95 7.3 8.082 10.153 6.55 13.65c.13.108.25.226.363.42.265.458.496.46.947.658.518.228.634.054.634.667 0 .73.38 2.28 1.26 2.28.507 0 .75.34 1.075.668.382.384.773.664 1.285.852-.17-.074-.32-.177-.452-.308.648-.646 1.617.746 2.062 1.224.69.743 1.974.82 2.947.7.272-.033.49-.218.673-.41.27-.284.287-.282.568-.276.3.006.517-.493.954-.426.164.024 1.357.3 1.37.396.058.51 2.284.943 2.05 1.47-.17.376-.578.527-.574.99 0 .234-.058.904.148 1.077.25.208.536.392.85.46.363.078.478.748.703 1.014.268.318.53.465.93.47.063 0 .807.038.807.038-.155.183.226.39.38.544.145.144.062.528.047.708-.056.557-.058 1.246.265 1.73.418.634.38.976.34 1.718-.01.148-.133 1.114.055 1.156.09.02.32-.324.38-.386.07.403.584.526.272.978-.058.082-.064.182-.048.28.51-.272 1-.582 1.477-.912-.09-.104-.23-.288-.222-.354 0-.076.68-.022.537-.315-.07-.15-.61-.442-.175-.6.108-.04.414-.066.39-.257-.045-.316.246-.334.465-.52.525-.457.443-.62-.037-1.055-.348-.313.205-.242.397-.245.562-.012.21-.578.455-.908.265-.36 1.024-.912.6-1.423-.288-.34.177-.963-.105-1.246.437.438.94-.394 1.166-.676.496-.632.23-1.093.03-1.773-.177-.605.412-1.08.332-1.673z"/><linearGradient x1="1014.002" gradientTransform="matrix(1 0 0 -1 -994.011 -3186.024)" y1="-3205.359" x2="1014.002" gradientUnits="userSpaceOnUse" y2="-3190.369" xlink:type="simple" xlink:actuate="onLoad" id="c" xlink:show="other"><stop stop-color="#26bfff" offset="0"/><stop stop-color="#43c8ff" offset=".046"/><stop stop-color="#6fd5ff" offset=".126"/><stop stop-color="#96e0ff" offset=".211"/><stop stop-color="#b6eaff" offset=".302"/><stop stop-color="#d1f1ff" offset=".399"/><stop stop-color="#e5f7ff" offset=".504"/><stop stop-color="#f4fcff" offset=".623"/><stop stop-color="#fcfeff" offset=".767"/><stop stop-color="#fff" offset="1"/></linearGradient><path fill="url(#c)" d="M5 19.356c0-8.09 6.9-14.99 14.99-14.99s14.992 6.898 14.992 14.99H5" fill-opacity=".7"/><path d="M30.982 8.114s6.662 4.636 5.002 11.877c.002 0 5.107-8.56-5.002-11.876zM32.787 6.24s7.596 5.288 5.7 13.544c0 0 5.824-9.762-5.7-13.543zM34.548 3.423s9.177 6.387 6.89 16.362c0 0 7.033-11.794-6.89-16.362z" fill-opacity=".2"/><path d="M30.966 7.44s6.892 4.288 5.607 11.605c0 0 4.657-8.813-5.607-11.605zM32.668 5.48s7.857 4.887 6.39 13.23c.005 0 5.314-10.05-6.39-13.23zM34.282 2.573s9.493 5.907 7.723 15.985c0 0 6.417-12.14-7.723-15.985z" fill-opacity=".5"/><linearGradient x1="895.608" gradientTransform="matrix(.983 .186 .186 -.983 -561.619 -1677.508)" y1="-1544.439" x2="904.699" gradientUnits="userSpaceOnUse" y2="-1553.531" xlink:type="simple" xlink:actuate="onLoad" id="d" xlink:show="other"><stop stop-color="#00d1ff" offset="0"/><stop stop-color="#0d409b" offset="1"/></linearGradient><path fill="url(#d)" d="M30.87 6.952s7.207 3.732 6.502 11.127c0 0 3.948-9.154-6.503-11.128z"/><linearGradient x1="896.849" gradientTransform="matrix(.983 .186 .186 -.983 -561.619 -1677.508)" y1="-1541.989" x2="907.214" gradientUnits="userSpaceOnUse" y2="-1552.355" xlink:type="simple" xlink:actuate="onLoad" id="e" xlink:show="other"><stop stop-color="#00d1ff" offset="0"/><stop stop-color="#0d409b" offset="1"/></linearGradient><path fill="url(#e)" d="M32.413 4.862s8.218 4.254 7.413 12.688c0 0 4.504-10.437-7.413-12.688z"/><linearGradient x1="897.831" gradientTransform="matrix(.983 .186 .186 -.983 -561.619 -1677.508)" y1="-1538.576" x2="910.355" gradientUnits="userSpaceOnUse" y2="-1551.099" xlink:type="simple" xlink:actuate="onLoad" id="f" xlink:show="other"><stop stop-color="#00d1ff" offset="0"/><stop stop-color="#0d409b" offset="1"/></linearGradient><path fill="url(#f)" d="M33.793 1.84s9.93 5.14 8.958 15.327c0 0 5.438-12.61-8.957-15.328z"/><path d="M39.958 25.204l.1-.05-.508-.58c-.11-.125-.224-.23-.337-.323-.03-.025-.068-.055-.107-.084-.12-.092-.258-.186-.405-.266l-.08-.04c-.14-.07-.278-.13-.426-.18-.006-.007-.034-.018-.092-.036-.174-.058-.345-.1-.517-.127-.052-.01-.088-.017-.114-.02-.177-.023-.366-.046-.57-.046h-1.12l-14.73-3.973-.47 1.744 8.27 2.23h-2.235v-.312h-5.107v.357c-1.455.225-2.65 1.244-2.675 2.667v10.962c.002.13.02.21.026.25v.096l.008.045c.01.05.02.086.026.104.02.08.04.15.06.21.03.095.063.184.1.26.024.055.055.124.104.21.064.11.126.193.178.263.04.055.092.123.162.2.078.085.166.177.273.267l.358.303.033-.023c.55.336 1.22.53 1.945.53H22.1v.004h14.8c1.707-.003 3.24-1.1 3.27-2.714V26.168c0-.342-.076-.667-.212-.964zm-.978 11.924c0 .374-.188.733-.56 1.03-.366.293-.91.492-1.52.492l-14.8-.002c-.635.002-1.19-.217-1.563-.53l-.07-.06c-.03-.03-.06-.062-.093-.098-.02-.023-.05-.063-.09-.116-.047-.06-.08-.105-.1-.14l-.05-.107c-.022-.047-.037-.09-.05-.13-.018-.05-.028-.085-.034-.114l-.006-.025v-.044l-.002-.026c-.007-.06-.016-.102-.02-.124l-.002-.007v-10.96c.002-.375.19-.733.56-1.03.367-.294.91-.494 1.522-.492h.595v-.313h.272v.313h2.18v-.313h.27v.313h7.92l.076-.595 2.2.595H36.9c.125 0 .26.014.396.03.036.01.066.013.088.015.116.02.236.052.346.086l.065.024c.1.035.192.076.28.12l.05.023c.093.05.177.105.26.172.022.016.044.03.068.053.063.053.12.105.168.155l.03.034c.22.252.327.523.33.81v10.96zM39.368 25.5l-.265-.532.265.53z" fill-opacity=".2"/><path d="M39.104 24.967c-.08-.093-.172-.178-.27-.258-.027-.024-.057-.046-.085-.067-.105-.08-.216-.15-.335-.22-.02-.012-.045-.02-.067-.032-.11-.057-.23-.104-.353-.148l-.08-.03c-.142-.044-.285-.08-.435-.103-.032-.007-.064-.01-.1-.017-.156-.02-.316-.037-.48-.037h-1.2l-14.23-3.842-.16.594 12.03 3.248h-7.32v-.316h-1.465v.312h-.988v-.312h-1.462v.312c-1.478 0-2.675.948-2.675 2.117v10.959c0 .07.017.136.026.202l.002.085c.003.02.013.04.017.063.013.06.03.117.048.176.02.066.047.13.076.193.024.054.048.105.078.158.04.068.088.136.136.2.04.055.082.105.127.157.07.07.14.146.217.212l.002-.002c.487.41 1.176.672 1.945.672h14.8c1.478 0 2.677-.948 2.677-2.118V26.17c-.005-.45-.182-.86-.478-1.203zM30.262 33.8c0 .007-.003.013-.003.02 0-.007 0-.013.002-.02zm-.605 1.752c0 .003-.003.005-.003.005s0-.002.003-.005zm-7.982-2.54zm4.802-3.985c.05.006.1.015.146.02-.05-.006-.098-.015-.146-.02zm.494.087c.052.013.1.024.15.038-.05-.01-.1-.026-.15-.038zm.488.15c.04.014.082.027.12.043-.038-.016-.08-.03-.12-.043zm-3.086.043c.038-.016.08-.03.12-.043-.04.013-.082.027-.12.043zm.46-.153l.148-.04-.15.04zm.497-.104c.048-.01.095-.018.145-.022-.05.004-.097.013-.146.022zm-2.437 1.244l-.004.006c0-.002 0-.004.003-.006zm-1.16 2.235l.003-.015c0 .006 0 .01-.002.014zm.115-.477v-.006.006zm8.33 2.23c-.005.008-.005.014-.007.02.003-.006.003-.012.007-.02zm-.142.477l-.002.004c0-.002 0-.003.002-.004zm.237-1.75zm-.17-.963v.006-.006zm.11.47c0 .005.002.01.003.014 0-.007-.002-.01-.002-.012zm-1.154-2.223c0 .002 0 .004.005.006l-.006-.006zm.35.414l.064.086c-.02-.028-.04-.058-.063-.086zm-6.933.085l.063-.084-.063.083zm-.697 3.514c0-.008-.003-.014-.005-.02l.005.02zm.513 1.245v.003-.003zm2.053 1.753l.026.01-.026-.01zm1.63.32c.147 0 .29-.008.432-.02-.142.012-.287.02-.43.02-.147 0-.29-.008-.434-.02.144.012.285.02.433.02zm-.78-.073c-.022-.005-.046-.006-.066-.01.02.004.045.005.065.01zm-.46-.11c-.002 0-.006 0-.008-.003h.008zm2.87-.137c-.01.004-.02.006-.027.01.01-.004.018-.006.025-.01zm-.385.136h-.004.005zm-.4.1c-.02.005-.04.007-.062.01.02-.003.043-.005.062-.01z" fill-opacity=".4"/><path fill="#9fa3b1" d="M38.614 24.878l-17.306-4.67.16-.593 17.306 4.67z"/><linearGradient x1="516.84" gradientTransform="translate(-494.007 -1628.016)" y1="1651.144" x2="516.84" gradientUnits="userSpaceOnUse" y2="1651.713" xlink:type="simple" xlink:actuate="onLoad" id="g" xlink:show="other"><stop stop-color="#606060" offset="0"/><stop offset="1"/></linearGradient><path fill="url(#g)" d="M22.102 23.145h1.462v.568h-1.462z"/><linearGradient x1="519.294" gradientTransform="translate(-494.007 -1628.016)" y1="1651.144" x2="519.294" gradientUnits="userSpaceOnUse" y2="1651.713" xlink:type="simple" xlink:actuate="onLoad" id="h" xlink:show="other"><stop stop-color="#606060" offset="0"/><stop offset="1"/></linearGradient><path fill="url(#h)" d="M24.555 23.145h1.465v.568h-1.465z"/><linearGradient x1="519.984" gradientTransform="translate(-494.007 -1628.016)" y1="1665.03" x2="519.984" gradientUnits="userSpaceOnUse" y2="1656.401" xlink:type="simple" xlink:actuate="onLoad" id="i" xlink:show="other"><stop offset="0"/><stop stop-color="#606060" offset="1"/></linearGradient><circle fill="url(#i)" r="4.314" cx="25.977" cy="32.715"/><linearGradient x1="523.51" gradientTransform="translate(-494.007 -1628.016)" y1="1651.47" x2="523.51" gradientUnits="userSpaceOnUse" y2="1666.665" xlink:type="simple" xlink:actuate="onLoad" id="j" xlink:show="other"><stop stop-color="#ccc" offset="0"/><stop stop-color="#878787" offset="1"/></linearGradient><path fill="url(#j)" d="M36.9 23.455H22.102c-1.478 0-2.675.947-2.675 2.118v10.96c0 1.17 1.198 2.117 2.675 2.117h14.8c1.478 0 2.677-.946 2.677-2.116v-10.96c-.003-1.172-1.2-2.12-2.68-2.12zM28.857 35.92H23.09c-.312-.28-.58-.603-.8-.963h7.363c-.215.357-.484.682-.796.964zm-6.94-1.752c-.11-.31-.19-.63-.227-.964h8.572c-.037.335-.117.657-.228.964h-8.118zm-.242-1.753c.023-.333.08-.655.174-.962h8.25c.095.308.148.63.173.962h-8.598zm.503-1.752c.193-.354.433-.68.712-.964h6.168c.278.284.52.608.713.963H22.18zm1.76-1.752c.605-.325 1.3-.51 2.036-.51.735 0 1.43.185 2.037.51h-4.07zm.405 7.8h3.265c-.502.204-1.053.32-1.63.32-.58 0-1.13-.116-1.635-.32z"/><linearGradient x1="517.171" gradientTransform="translate(-494.007 -1628.016)" y1="1650.017" x2="529.847" gradientUnits="userSpaceOnUse" y2="1668.12" xlink:type="simple" xlink:actuate="onLoad" id="k" xlink:show="other"><stop stop-color="#fff" offset="0"/><stop stop-color="#fff" offset=".499"/><stop offset=".5"/><stop offset="1"/></linearGradient><path fill="url(#k)" d="M36.9 23.455H22.102c-1.478 0-2.675.947-2.675 2.118v10.96c0 1.17 1.198 2.117 2.675 2.117h14.8c1.478 0 2.677-.946 2.677-2.116v-10.96c-.003-1.172-1.2-2.12-2.68-2.12zm2.327 13.078c0 .462-.23.89-.65 1.223-.415.33-1.01.545-1.674.545h-14.8c-.664 0-1.258-.214-1.675-.544-.417-.332-.65-.76-.65-1.223v-10.96c0-.462.232-.89.65-1.224.417-.33 1.01-.546 1.675-.546H36.9c.666 0 1.26.215 1.677.545.416.333.65.76.65 1.222v10.96z" fill-opacity=".5"/><path fill="#383838" d="M25.968 27.48c-2.9 0-5.257 2.353-5.257 5.257 0 2.904 2.355 5.258 5.258 5.26 2.904-.002 5.26-2.355 5.26-5.26-.003-2.904-2.356-5.257-5.26-5.258zm4.533 5.374c-.04.57-.184 1.138-.41 1.664h.07c-.016.03-.026.062-.04.088h-.068c-.315.695-.762 1.252-1.29 1.664h.08c-.337.274-.714.502-1.12.672l-.014-.07c-1.082.42-2.32.387-3.44-.12l-.04.197c-.41-.174-.792-.4-1.132-.68h.354c-.218-.154-.43-.324-.626-.522-.356-.354-.646-.736-.87-1.142h-.14c-.014-.028-.026-.06-.04-.088h.134c-.272-.52-.43-1.078-.46-1.664h-.034v-.088h.03c-.012-.422.037-.857.156-1.308.02-.073.05-.144.075-.215 0-.173.024-.34.078-.498.213-.616.583-1.015 1.097-1.39.07-.05.146-.095.22-.14.333-.385.782-.62 1.26-.633.062-.026.12-.058.18-.086.3-.146.616-.21.925-.198.35-.316.84-.48 1.438-.314.484.136.81.346 1.2.65.018.014.056.047.103.09.417.202.764.495 1.063.846.187.147.358.322.52.544.573.78.8 1.717.75 2.65h.02v.087l-.03.004z"/><linearGradient x1="519.976" gradientTransform="translate(-494.007 -1628.016)" y1="1655.831" x2="519.976" gradientUnits="userSpaceOnUse" y2="1665.645" xlink:type="simple" xlink:actuate="onLoad" id="l" xlink:show="other"><stop stop-color="#e5e5e5" offset="0"/><stop stop-color="#606060" offset="1"/></linearGradient><path fill="url(#l)" d="M25.968 27.83c-2.71 0-4.906 2.195-4.906 4.906 0 2.71 2.196 4.908 4.906 4.908 2.712 0 4.907-2.197 4.907-4.908 0-2.71-2.198-4.905-4.907-4.905zm.01.57c.734 0 1.43.185 2.034.51h-4.07c.604-.325 1.296-.51 2.035-.51zm0 8.63c-.58 0-1.13-.116-1.635-.32h3.265c-.504.204-1.055.32-1.63.32zm2.88-1.11H23.09c-.312-.28-.58-.603-.8-.963h7.363c-.215.357-.484.682-.796.964zm1.176-1.752h-8.118c-.11-.31-.19-.63-.226-.964h8.572c-.04.335-.117.657-.228.964zm.24-1.753h-8.6c.022-.333.08-.655.173-.962H30.1c.095.307.15.63.173.962zm-8.096-1.752c.193-.354.433-.68.712-.964h6.168c.278.284.52.608.713.963H22.18z"/><linearGradient x1="523.574" gradientTransform="translate(-494.007 -1628.016)" y1="1655.042" x2="523.574" gradientUnits="userSpaceOnUse" y2="1652.37" xlink:type="simple" xlink:actuate="onLoad" id="m" xlink:show="other"><stop stop-color="#d3d3d3" offset="0"/><stop stop-color="#878787" offset="1"/></linearGradient><path fill="url(#m)" d="M21.18 27.042V24.37h16.776V27.042H21.18zm16.425-.35v-.352.35zm-15.726-.35h15.375V25.07H21.88v1.272z"/><linearGradient x1="530.891" gradientTransform="translate(-494.007 -1628.016)" y1="1656.926" x2="530.891" gradientUnits="userSpaceOnUse" y2="1658.984" xlink:type="simple" xlink:actuate="onLoad" id="n" xlink:show="other"><stop stop-color="#606060" offset="0"/><stop offset="1"/></linearGradient><circle fill="url(#n)" r="1.029" cx="36.884" cy="29.955"/><linearGradient x1="527.736" gradientTransform="translate(-494.007 -1628.016)" y1="1656.926" x2="527.736" gradientUnits="userSpaceOnUse" y2="1658.984" xlink:type="simple" xlink:actuate="onLoad" id="o" xlink:show="other"><stop stop-color="#606060" offset="0"/><stop offset="1"/></linearGradient><circle fill="url(#o)" r="1.029" cx="33.729" cy="29.955"/><path fill="#fff" d="M22.293 34.957h2.073l1.098-.79h-3.547c-.11-.308-.19-.628-.226-.963h5.117l1.098-.79h-6.23c.024-.332.08-.654.175-.96h7.396l9.857-7.082c-.48-.554-1.287-.916-2.2-.916h-14.8c-1.48 0-2.676.948-2.676 2.117v9.808l.027 1.442c.076.447.328.85.7 1.16l2.913-2.092c-.3-.273-.562-.585-.774-.933zm3.684-6.557c.735 0 1.43.185 2.035.51h-4.07c.604-.325 1.296-.51 2.035-.51zm-3.084 1.3h6.168c.28.284.522.608.712.962H22.18c.192-.353.43-.678.713-.963z" fill-opacity=".3"/><linearGradient x1="515.535" gradientTransform="translate(-494.007 -1628.016)" y1="1653.722" x2="531.614" gradientUnits="userSpaceOnUse" y2="1653.722" xlink:type="simple" xlink:actuate="onLoad" id="p" xlink:show="other"><stop offset="0"/><stop stop-color="#606060" offset="1"/></linearGradient><path fill="url(#p)" d="M21.53 24.72h16.078v1.972h-16.08z"/><linearGradient x1="525.516" gradientTransform="translate(-494.007 -1628.016)" y1="1654.692" x2="525.516" gradientUnits="userSpaceOnUse" y2="1653.285" xlink:type="simple" xlink:actuate="onLoad" id="q" xlink:show="other"><stop stop-color="#fccc00" offset="0"/><stop stop-color="#e88400" offset="1"/></linearGradient><path fill="url(#q)" d="M31.518 25.3v-.016l-.01.008-.008-.008v.016l-.29.278v1.113h.598V25.58z"/></svg>