<?xml version="1.0" encoding="UTF-8"?>
<svg xmlns="http://www.w3.org/2000/svg" xmlns:xlink="http://www.w3.org/1999/xlink" contentScriptType="text/ecmascript" zoomAndPan="magnify" baseProfile="tiny" contentStyleType="text/css" version="1.1" preserveAspectRatio="xMidYMid meet" viewBox="0 0 44 44" x="0px" y="0px">
    <g>
        <g>
            <g>
                <rect width="44" fill="none" height="44"/>
                <path d="M 35.898 14.374 L 35.898 14.374 C 31.523 14.375 27.149998 14.375 22.777 14.375 L 20.246998 11.458 C 17.749998 11.458 15.251998 11.458 12.754997 11.458 C 11.369997 11.458 9.984997 11.458 8.599997 11.458 C 6.791997 11.458 5.5529966 12.589001 5.116997 14.375 L 4.999 14.375 C 4.999 22.234 4.999 30.093 4.999 37.951 C 13.558001 37.951 22.118 37.956 30.677 37.952 C 33.397 37.951 36.115 37.95 38.835 37.95 C 38.835 30.092 38.835 22.233002 38.835 14.374001 L 35.898 14.374001 " fill-opacity="0.2"/>
                <path d="M 35.898 15.375 C 31.374 15.375 26.847 15.375 22.323996 15.375 L 19.791998 12.458 L 8.031 12.458 C 6.738 12.458 5.976 14.3 6.009 15.375 L 6.0 15.375 C 6.0 22.568 6.0 29.761 6.0 36.954 C 14.738 36.954 23.477 36.954 32.212997 36.954 C 34.087 36.954 35.962 36.954 37.836 36.954 C 37.836 29.761002 37.836 22.568005 37.836 15.375002 L 35.898 15.375002 " fill-opacity="0.4"/>
                <g>
                    <path d="M 41.202 12.483 L 41.33 12.04 L 16.316 4.817 L 16.188 5.26 L 15.974 5.1980004 L 15.758 5.9450006 L 15.316 5.817001 L 9.767 25.025 L 10.207 25.152 L 10.146 25.363 L 10.628 25.504002 L 36.120003 32.873 L 36.469 31.670002 L 41.948 12.698002 L 41.202 12.483 z M 35.438 31.633 L 35.0 31.505 L 35.066 31.266 L 35.506 31.393 L 35.438 31.633 z " fill-opacity="0.2"/>
                    <polygon fill="#d6c1aa" points="16.316,4.817 10.767,24.025 35.781,31.254 35.988,30.532 41.33,12.04     "/>
                    <linearGradient x1="291.6953" gradientTransform="matrix(1 0 0 -1 -280 -1598)" y1="-1616.0361" x2="320.4023" gradientUnits="userSpaceOnUse" y2="-1616.0361" xlink:type="simple" xlink:actuate="onLoad" id="SVGID_1_" xlink:show="other">
                        <stop stop-color="#e8e0b5" offset="0"/>
                        <stop stop-color="#ede7cc" offset="1"/>
                    </linearGradient>
                    <polygon fill="url(#SVGID_1_)" points="35.271,30.325 11.696,23.516 16.828,5.747 40.402,12.555     "/>
                    <g>
                        <path d="M 38.836 13.375 L 36.898 13.375 L 29.527 13.375 L 29.524998 13.375 L 23.323996 13.375 L 20.791998 10.458 L 15.466998 10.458 L 11.695998 23.516 L 35.272 30.329 L 38.836 17.982998 C 38.836 16.979998 38.836 16.079998 38.836 15.347998 C 38.836 14.134 38.836 13.375 38.836 13.375 z " fill-opacity="0.2"/>
                    </g>
                    <rect x="15.064" y="8.97" fill-opacity="0.4" transform="matrix(-0.9607 -0.2775 0.2775 -0.9607 49.8178 34.2379)" fill="#ffffff" width="24.536" height="9.248"/>
                </g>
                <linearGradient x1="301.918" gradientTransform="matrix(1 0 0 -1 -280 -1598)" y1="-1609.458" x2="301.918" gradientUnits="userSpaceOnUse" y2="-1633.9541" xlink:type="simple" xlink:actuate="onLoad" id="SVGID_2_" xlink:show="other">
                    <stop stop-color="#ffe23d" offset="0"/>
                    <stop stop-color="#fad337" offset="0.2239"/>
                    <stop stop-color="#efab26" offset="0.6537"/>
                    <stop stop-color="#e48717" offset="1"/>
                </linearGradient>
                <path fill="url(#SVGID_2_)" d="M 35.898 14.375 C 31.374 14.375 26.847 14.375 22.323996 14.375 L 19.791998 11.458 L 8.031 11.458 C 6.738 11.458 5.976 13.3 6.009 14.375 L 6.0 14.375 C 6.0 21.568 6.0 28.761 6.0 35.954 C 14.738 35.954 23.477 35.954 32.212997 35.954 C 34.087 35.954 35.962 35.954 37.836 35.954 C 37.836 28.761002 37.836 21.568005 37.836 14.375002 L 35.898 14.375002 "/>
                <path fill="#ffffff" d="M 34.457 15.137 C 30.302 15.137 26.146 15.137 21.991 15.137 L 19.437 12.25 L 8.637 12.25 C 7.427 12.25 6.82 14.182 6.852 15.137 L 6.844 15.137 C 6.844 18.536 6.844 21.935 6.844 25.334 C 13.792 25.334 20.74 25.334 27.687 25.334 C 30.791 25.334 33.894 25.334 37.0 25.334 C 37.0 21.935 37.0 18.536 37.0 15.137 L 34.457 15.137 " fill-opacity="0.3"/>
            </g>
        </g>
        <g>
            <path d="M 21.353 30.672 C 21.353 25.598 25.419 21.136002 30.475 20.687 C 35.595 20.232 40.458 23.961 41.278 29.048 C 42.097 34.125 38.728 39.249 33.71 40.43 C 28.558 41.642 23.124 38.457 21.717 33.345 C 21.475 32.475 21.353 31.573 21.353 30.672 " fill-opacity="0.2"/>
            <path d="M 40.637 30.675 C 40.637 35.73 36.282 40.017 31.227 39.932 C 28.768002 39.892 26.401 38.816 24.708 37.042 C 23.106 35.366 21.906 32.817 22.133 30.448 C 22.272 28.98 23.762 28.193 25.004 27.761 C 26.51 27.235 28.141 27.009 29.724 26.883 C 32.077 26.698 34.495 26.821 36.768 27.478 C 38.272 27.913 40.637 28.765 40.637 30.675 " fill-opacity="0.5"/>
            <linearGradient x1="1081.3936" gradientTransform="matrix(1 0 0 1 -1050.0107 -3832.0244)" y1="3871.1807" x2="1081.3936" gradientUnits="userSpaceOnUse" y2="3852.6719" xlink:type="simple" xlink:actuate="onLoad" id="SVGID_3_" xlink:show="other">
                <stop stop-color="#84d8fd" offset="0"/>
                <stop stop-color="#7dd1fb" offset="0.1127"/>
                <stop stop-color="#6bbef7" offset="0.2752"/>
                <stop stop-color="#4d9ff0" offset="0.4679"/>
                <stop stop-color="#2676e7" offset="0.6703"/>
                <stop stop-color="#2676e7" offset="1"/>
            </linearGradient>
            <path fill="url(#SVGID_3_)" d="M 31.38 20.647 C 36.433 20.647 40.721 25.0 40.635 30.055 C 40.55 35.107 36.127 39.323 31.075998 39.152 C 26.145 38.986 22.045998 34.688 22.128998 29.75 C 22.21 24.813 26.444 20.647 31.38 20.647 "/>
            <linearGradient x1="254.96" gradientTransform="matrix(1 0 0 1 -224 -1496)" y1="1534.0137" x2="254.96" gradientUnits="userSpaceOnUse" y2="1517.5881" xlink:type="simple" xlink:actuate="onLoad" id="SVGID_4_" xlink:show="other">
                <stop stop-color="#c5eaff" offset="0"/>
                <stop stop-color="#7ac6f7" offset="1"/>
            </linearGradient>
            <path fill="url(#SVGID_4_)" d="M 38.533 30.51 C 38.512 30.345 38.292 30.345 38.168 30.348 C 37.924 30.352 37.853 30.327 37.687 30.149 C 37.44 29.88 36.769 30.082 36.441 30.064 C 36.174004 30.047 36.225 29.963 36.068 29.804 C 35.868 29.605 35.868 29.705 35.674 29.783 C 35.334 29.922 34.753 29.740002 34.383 29.722 C 33.942 29.704 34.078 29.962 33.76 30.164 C 33.628 30.252 33.396 30.787 33.209 30.685 C 32.843998 30.482 32.427 30.846 32.072 30.536 C 31.807 30.307 31.498 29.884998 31.107998 29.995 C 30.728 30.099 30.736998 29.438 30.312998 29.662 C 30.198996 29.721998 30.267998 29.857998 30.209995 29.947 C 30.112995 30.093998 29.906998 30.192 29.749998 30.253998 C 29.403996 30.391998 29.058998 30.029997 28.903996 29.752998 C 28.712996 29.408 29.139996 29.586 28.933998 29.301 C 28.896996 29.249 28.752 29.131 28.839998 29.069998 C 29.033 28.937998 28.910995 28.837996 29.012 28.655998 C 28.995 28.679998 29.457 28.665998 29.502 28.665998 C 29.582 28.665998 29.825998 28.728 29.807 28.568998 C 29.804 28.541998 29.741 28.286 29.785 28.286 C 29.86 28.286 30.44 28.234 30.427 28.22 C 30.488 28.296 30.608 28.288 30.69 28.271 C 30.8 28.25 31.045 28.58 31.11 28.645 C 31.367 28.407 30.915 28.125 30.831 27.921 C 30.750002 27.728 30.972002 27.56 30.888 27.368002 C 30.797 27.154 31.008 27.044004 31.166 26.947002 C 31.442 26.779003 31.568 26.462002 31.646 26.160002 C 31.683 25.997002 31.713 25.826002 31.704 25.660002 C 31.687 25.354002 31.359 25.473 31.118 25.473 C 31.119 25.285002 31.295 25.211002 31.46 25.218002 C 31.73 25.232002 31.848 25.015003 32.017 24.849005 C 32.227997 25.272003 32.587997 24.722002 32.648 24.533005 C 32.711 24.341003 32.850998 24.147003 33.032997 24.048002 C 33.236996 23.937002 33.275997 23.699 33.429996 23.542002 C 33.187996 23.437002 32.917995 23.420002 32.675995 23.318 C 32.392994 23.198 32.203995 22.884 32.056995 22.625 C 31.933996 22.399 31.930996 22.105 31.747995 21.908 C 31.597996 21.746 31.311996 21.665 31.107996 21.613 C 30.792995 21.532 30.093996 21.806002 30.224997 22.231 C 30.302996 22.491 30.733995 23.363 30.323996 23.588 C 30.198996 23.658 29.909998 23.653002 29.846998 23.807 C 29.783998 23.958 30.087996 24.143002 29.936998 24.335 C 29.616 24.750002 29.54 23.982 29.375998 23.955002 C 29.154997 23.914 29.035995 24.073002 28.795998 23.895002 C 28.645998 23.787004 28.795998 23.616005 28.495998 23.659002 C 28.256998 23.694002 28.127998 23.700005 27.937998 23.529003 C 27.805998 23.411003 27.586998 23.120005 27.847998 23.006002 C 28.119995 22.888002 28.851995 22.002005 28.27 21.882002 C 28.200998 21.868002 28.131 21.869 28.06 21.879002 C 25.987 22.770002 24.289 24.456 23.38 26.527 C 23.457 26.59 23.53 26.662 23.596 26.776 C 23.752998 27.046 23.891 27.047 24.155 27.166 C 24.461998 27.301 24.532 27.196 24.532 27.56 C 24.532 27.991 24.757 28.908 25.28 28.908 C 25.579 28.908 25.72 29.11 25.914 29.304 C 26.14 29.532 26.372 29.697 26.675 29.807 C 26.575 29.764 26.487 29.703 26.408 29.625 C 26.790998 29.244 27.365 30.065 27.627998 30.35 C 28.036 30.788 28.795998 30.834 29.371998 30.765 C 29.530998 30.744 29.662 30.634 29.767998 30.52 C 29.930998 30.353 29.94 30.354 30.106998 30.357 C 30.283 30.361 30.412998 30.066 30.670998 30.105 C 30.768995 30.119 31.474998 30.284 31.480995 30.339 C 31.516996 30.64 32.834995 30.898998 32.695995 31.207998 C 32.595997 31.429 32.352997 31.520998 32.354996 31.792995 C 32.358997 31.933998 32.323997 32.329 32.443996 32.429996 C 32.592995 32.552998 32.758995 32.659996 32.944996 32.700996 C 33.160995 32.747997 33.227997 33.144997 33.361996 33.300995 C 33.520996 33.488995 33.675995 33.575996 33.91299 33.576996 C 33.948994 33.578995 34.389996 33.598995 34.389996 33.598995 C 34.295994 33.708996 34.522995 33.82999 34.613995 33.91999 C 34.700996 34.005993 34.651993 34.23299 34.638996 34.340996 C 34.608997 34.668995 34.608 35.075996 34.796 35.361996 C 35.046 35.737995 35.023 35.94099 34.997 36.379997 C 34.990997 36.469997 34.921997 37.039997 35.03 37.063995 C 35.083 37.075996 35.218 36.872993 35.254997 36.835995 C 35.297997 37.074993 35.599 37.147995 35.415997 37.414993 C 35.382996 37.463993 35.378 37.52199 35.390995 37.580994 C 35.691994 37.418995 35.979996 37.23699 36.261993 37.039993 C 36.209995 36.977993 36.126995 36.86899 36.13299 36.830994 C 36.13299 36.784992 36.53199 36.817993 36.450993 36.643993 C 36.406994 36.555992 36.087994 36.38299 36.346992 36.289993 C 36.41099 36.26799 36.59299 36.25399 36.575993 36.138992 C 36.55099 35.951992 36.721992 35.941994 36.85099 35.830994 C 37.161995 35.561993 37.112995 35.464993 36.827995 35.206993 C 36.620995 35.020992 36.949997 35.064995 37.063995 35.061993 C 37.395996 35.054993 37.187996 34.719994 37.332996 34.525993 C 37.488995 34.312992 37.939995 33.98699 37.686996 33.68399 C 37.515995 33.482994 37.789997 33.112995 37.623997 32.944996 C 37.881996 33.203995 38.180996 32.711994 38.313995 32.545998 C 38.60799 32.172997 38.450996 31.899998 38.332996 31.496998 C 38.232 31.144 38.581 30.861 38.533 30.51 z "/>
            <linearGradient x1="1081.3496" gradientTransform="matrix(1 0 0 1 -1050.0107 -3832.0244)" y1="3861.9141" x2="1081.3496" gradientUnits="userSpaceOnUse" y2="3853.0459" xlink:type="simple" xlink:actuate="onLoad" id="SVGID_5_" xlink:show="other">
                <stop stop-color="#26bfff" offset="0"/>
                <stop stop-color="#43c8ff" offset="0.0464"/>
                <stop stop-color="#6fd5ff" offset="0.1258"/>
                <stop stop-color="#96e0ff" offset="0.2112"/>
                <stop stop-color="#b6eaff" offset="0.3018"/>
                <stop stop-color="#d1f1ff" offset="0.3987"/>
                <stop stop-color="#e5f7ff" offset="0.5044"/>
                <stop stop-color="#f4fcff" offset="0.6233"/>
                <stop stop-color="#fcfeff" offset="0.7666"/>
                <stop stop-color="#ffffff" offset="1"/>
            </linearGradient>
            <path fill="url(#SVGID_5_)" d="M 22.469 29.902 C 22.469 25.115 26.551 21.033 31.337 21.033 C 36.125 21.033 40.207 25.116 40.207 29.902 C 34.295 29.902 28.383 29.902 22.469 29.902 " fill-opacity="0.7"/>
        </g>
    </g>
</svg>
