<svg xmlns="http://www.w3.org/2000/svg" xmlns:xlink="http://www.w3.org/1999/xlink" contentScriptType="text/ecmascript" baseProfile="tiny" width="44" viewBox="0 0 44 44" height="44"><path fill="none" d="M0 0h44v44H0z"/><path d="M35.898 14.374h-13.12l-2.53-2.916H8.6c-1.808 0-3.047 1.13-3.483 2.917H5V37.95c8.558 0 17.118.006 25.677.002l8.158-.002V14.374h-2.937" fill-opacity=".2"/><path d="M35.898 15.375H22.324l-2.532-2.917H8.032c-1.294 0-2.056 1.842-2.023 2.917H6v21.58H37.836v-21.58h-1.938" fill-opacity=".4"/><path d="M41.202 12.483l.128-.443-25.014-7.223-.128.443-.214-.062-.216.747-.442-.128-5.55 19.208.44.127-.06.21.482.142 25.492 7.37.35-1.204 5.478-18.972-.746-.215zm-5.764 19.15L35 31.505l.066-.24.44.128-.068.24z" fill-opacity=".2"/><path fill="#d6c1aa" d="M16.316 4.817l-5.55 19.208 25.015 7.23.208-.723L41.33 12.04z"/><linearGradient x1="291.695" gradientTransform="matrix(1 0 0 -1 -280 -1598)" y1="-1616.036" x2="320.402" gradientUnits="userSpaceOnUse" y2="-1616.036" xlink:type="simple" xlink:actuate="onLoad" id="a" xlink:show="other"><stop stop-color="#e8e0b5" offset="0"/><stop stop-color="#ede7cc" offset="1"/></linearGradient><path fill="url(#a)" d="M35.27 30.325l-23.574-6.81 5.132-17.768 23.574 6.808z"/><path d="M38.836 13.375H23.325l-2.533-2.917h-5.325l-3.77 13.058L35.27 30.33l3.564-12.347v-4.608z" fill-opacity=".2"/><path fill-opacity=".4" fill="#fff" d="M37.835 21.44l-23.572-6.81 2.567-8.883 23.57 6.81z"/><linearGradient x1="301.918" gradientTransform="matrix(1 0 0 -1 -280 -1598)" y1="-1609.458" x2="301.918" gradientUnits="userSpaceOnUse" y2="-1633.954" xlink:type="simple" xlink:actuate="onLoad" id="b" xlink:show="other"><stop stop-color="#ffe23d" offset="0"/><stop stop-color="#fad337" offset=".224"/><stop stop-color="#efab26" offset=".654"/><stop stop-color="#e48717" offset="1"/></linearGradient><path fill="url(#b)" d="M35.898 14.375H22.324l-2.532-2.917H8.032c-1.294 0-2.056 1.842-2.023 2.917H6v21.58H37.836v-21.58h-1.938"/><path fill="#fff" d="M34.457 15.137H21.99l-2.553-2.887h-10.8c-1.21 0-1.817 1.932-1.785 2.887h-.008v10.197H37V15.137h-2.543" fill-opacity=".3"/><path d="M21.353 30.672c0-5.074 4.066-9.536 9.122-9.985 5.12-.455 9.983 3.274 10.803 8.36.82 5.078-2.55 10.202-7.568 11.383-5.152 1.212-10.586-1.973-11.993-7.085-.242-.87-.364-1.772-.364-2.673" fill-opacity=".2"/><path d="M40.637 30.675c0 5.055-4.355 9.342-9.41 9.257-2.46-.04-4.826-1.116-6.52-2.89-1.6-1.676-2.8-4.225-2.574-6.594.14-1.468 1.63-2.255 2.87-2.687 1.507-.525 3.138-.75 4.72-.877 2.354-.185 4.772-.062 7.045.595 1.504.435 3.87 1.287 3.87 3.197" fill-opacity=".5"/><linearGradient x1="1081.394" gradientTransform="translate(-1050.011 -3832.024)" y1="3871.181" x2="1081.394" gradientUnits="userSpaceOnUse" y2="3852.672" xlink:type="simple" xlink:actuate="onLoad" id="c" xlink:show="other"><stop stop-color="#84d8fd" offset="0"/><stop stop-color="#7dd1fb" offset=".113"/><stop stop-color="#6bbef7" offset=".275"/><stop stop-color="#4d9ff0" offset=".468"/><stop stop-color="#2676e7" offset=".67"/><stop stop-color="#2676e7" offset="1"/></linearGradient><path fill="url(#c)" d="M31.38 20.647c5.053 0 9.34 4.353 9.255 9.408-.085 5.052-4.508 9.268-9.56 9.097-4.93-.166-9.03-4.464-8.946-9.402.08-4.937 4.314-9.103 9.25-9.103"/><linearGradient x1="254.96" gradientTransform="translate(-224 -1496)" y1="1534.014" x2="254.96" gradientUnits="userSpaceOnUse" y2="1517.588" xlink:type="simple" xlink:actuate="onLoad" id="d" xlink:show="other"><stop stop-color="#c5eaff" offset="0"/><stop stop-color="#7ac6f7" offset="1"/></linearGradient><path fill="url(#d)" d="M38.533 30.51c-.02-.165-.24-.165-.365-.162-.244.004-.315-.02-.48-.2-.248-.268-.92-.066-1.247-.084-.266-.017-.215-.1-.372-.26-.2-.2-.2-.1-.394-.02-.34.138-.92-.044-1.29-.062-.442-.018-.306.24-.624.442-.132.088-.364.623-.55.52-.366-.202-.783.162-1.138-.148-.265-.23-.574-.65-.964-.54-.38.103-.37-.558-.795-.334-.114.06-.045.196-.103.285-.097.147-.303.245-.46.307-.346.138-.69-.224-.846-.5-.19-.346.236-.168.03-.453-.037-.05-.182-.17-.094-.23.193-.132.07-.232.172-.414-.017.024.445.01.49.01.08 0 .324.062.305-.097-.003-.028-.066-.284-.022-.284.075 0 .655-.052.642-.066.06.076.18.068.263.05.11-.02.355.31.42.375.257-.238-.195-.52-.28-.724-.08-.192.142-.36.058-.552-.09-.214.12-.324.278-.42.276-.17.402-.486.48-.788.037-.163.067-.334.058-.5-.017-.306-.345-.187-.586-.187 0-.188.177-.262.342-.255.27.014.388-.203.557-.37.21.424.57-.126.63-.315.064-.192.204-.386.386-.485.204-.11.243-.35.397-.506-.242-.105-.512-.122-.754-.224-.283-.12-.472-.434-.62-.693-.122-.226-.125-.52-.308-.717-.15-.162-.436-.243-.64-.295-.315-.08-1.014.193-.883.618.078.26.51 1.133.1 1.358-.126.07-.415.065-.478.22-.063.15.24.335.09.527-.32.415-.397-.353-.56-.38-.222-.04-.34.118-.58-.06-.15-.108 0-.28-.3-.236-.24.034-.37.04-.56-.13-.13-.12-.35-.41-.09-.524.273-.118 1.005-1.004.423-1.124-.07-.014-.14-.013-.21-.003-2.073.89-3.77 2.576-4.68 4.647.077.063.15.135.216.25.157.27.295.27.56.39.306.134.376.03.376.393 0 .43.225 1.348.748 1.348.3 0 .44.202.634.396.226.228.458.393.76.503-.1-.043-.187-.104-.266-.182.383-.38.957.44 1.22.725.408.438 1.168.484 1.744.415.16-.02.29-.13.396-.245.163-.167.172-.166.34-.163.175.004.305-.29.563-.252.1.014.805.18.81.234.037.3 1.355.56 1.216.868-.1.22-.343.313-.34.585.003.14-.032.536.088.637.15.123.315.23.5.27.217.048.284.445.418.6.16.19.314.276.55.277l.478.022c-.094.11.133.23.224.32.087.086.038.313.025.42-.03.33-.032.736.156 1.022.25.376.227.58.2 1.018-.005.09-.074.66.034.684.053.012.188-.19.225-.228.043.24.344.312.16.58-.032.048-.037.106-.024.165.302-.16.59-.343.872-.54-.052-.062-.135-.17-.13-.21 0-.045.4-.012.32-.186-.045-.088-.364-.26-.105-.354.064-.022.246-.036.23-.15-.026-.188.145-.198.274-.31.312-.268.263-.365-.022-.623-.207-.186.122-.142.236-.145.332-.007.124-.342.27-.536.155-.213.606-.54.353-.842-.17-.2.103-.57-.063-.74.258.26.557-.232.69-.398.294-.373.137-.646.02-1.05-.102-.352.247-.635.2-.986z"/><linearGradient x1="1081.35" gradientTransform="translate(-1050.011 -3832.024)" y1="3861.914" x2="1081.35" gradientUnits="userSpaceOnUse" y2="3853.046" xlink:type="simple" xlink:actuate="onLoad" id="e" xlink:show="other"><stop stop-color="#26bfff" offset="0"/><stop stop-color="#43c8ff" offset=".046"/><stop stop-color="#6fd5ff" offset=".126"/><stop stop-color="#96e0ff" offset=".211"/><stop stop-color="#b6eaff" offset=".302"/><stop stop-color="#d1f1ff" offset=".399"/><stop stop-color="#e5f7ff" offset=".504"/><stop stop-color="#f4fcff" offset=".623"/><stop stop-color="#fcfeff" offset=".767"/><stop stop-color="#fff" offset="1"/></linearGradient><path fill="url(#e)" d="M22.47 29.902c0-4.787 4.08-8.87 8.867-8.87 4.788 0 8.87 4.084 8.87 8.87H22.47" fill-opacity=".7"/></svg>