<svg xmlns="http://www.w3.org/2000/svg" xmlns:xlink="http://www.w3.org/1999/xlink" contentScriptType="text/ecmascript" baseProfile="tiny" width="44" viewBox="0 0 44 44" height="44"><path fill="none" d="M0 0h44v44h-44z"/><path d="M3.114 20.697c0-8.576 6.871-16.119 15.42-16.877 8.653-.768 16.872 5.536 18.257 14.131 1.386 8.581-4.311 17.24-12.792 19.238-8.709 2.047-17.895-3.335-20.274-11.974-.404-1.47-.611-2.993-.611-4.518" fill-opacity=".2"/><path d="M35.707 20.703c0 8.541-7.361 15.788-15.903 15.645-4.155-.07-8.154-1.888-11.019-4.886-2.708-2.832-4.734-7.14-4.352-11.142.236-2.482 2.754-3.812 4.851-4.542 2.547-.887 5.303-1.271 7.98-1.482 3.977-.313 8.062-.106 11.906 1.006 2.54.734 6.537 2.171 6.537 5.401" fill-opacity=".5"/><linearGradient x1="1070.075" gradientTransform="translate(-1050.011 -3832.024)" y1="3867.063" x2="1070.075" gradientUnits="userSpaceOnUse" y2="3835.777" xlink:type="simple" xlink:actuate="onLoad" id="a" xlink:show="other"><stop stop-color="#84d8fd" offset="0"/><stop stop-color="#7dd1fb" offset=".113"/><stop stop-color="#6bbef7" offset=".275"/><stop stop-color="#4d9ff0" offset=".468"/><stop stop-color="#2676e7" offset=".67"/><stop stop-color="#2676e7" offset="1"/></linearGradient><path fill="url(#a)" d="M20.062 3.753c8.54 0 15.786 7.361 15.641 15.901-.143 8.538-7.617 15.665-16.154 15.375-8.339-.281-15.266-7.545-15.125-15.891.139-8.342 7.293-15.385 15.638-15.385"/><linearGradient x1="243.353" gradientTransform="translate(-224 -1496)" y1="1529.104" x2="243.353" gradientUnits="userSpaceOnUse" y2="1501.343" xlink:type="simple" xlink:actuate="onLoad" id="b" xlink:show="other"><stop stop-color="#c5eaff" offset="0"/><stop stop-color="#7ac6f7" offset="1"/></linearGradient><path fill="url(#b)" d="M32.152 20.425c-.037-.279-.409-.279-.619-.276-.413.006-.533-.035-.813-.338-.416-.451-1.553-.113-2.104-.142-.45-.024-.364-.171-.634-.441-.338-.335-.338-.167-.668-.034-.57.232-1.555-.074-2.178-.1-.748-.031-.516.404-1.053.749-.227.146-.615 1.053-.934.88-.618-.342-1.324.269-1.922-.253-.445-.389-.967-1.101-1.629-.916-.638.178-.625-.939-1.342-.561-.193.102-.076.332-.174.482-.163.249-.513.414-.779.52-.585.233-1.167-.378-1.428-.849-.324-.583.401-.282.053-.761-.064-.089-.309-.289-.157-.396.325-.224.117-.389.289-.699-.024.042.753.018.831.018.134 0 .544.102.516-.163-.005-.047-.113-.478-.038-.478.128 0 1.104-.088 1.084-.113.103.128.305.116.444.086.188-.041.601.52.711.631.434-.403-.328-.877-.473-1.225l.097-.934c-.155-.36.203-.548.466-.709.471-.287.685-.821.812-1.335.068-.274.115-.562.099-.846-.027-.516-.583-.315-.993-.315.004-.317.3-.443.577-.43.46.022.658-.339.943-.621.354.715.963-.218 1.068-.536.107-.328.343-.651.65-.819.343-.188.41-.593.672-.855-.408-.181-.864-.208-1.275-.381-.479-.204-.795-.732-1.042-1.169-.211-.383-.215-.88-.524-1.212-.255-.274-.734-.408-1.083-.498-.53-.136-1.711.327-1.492 1.045.134.44.862 1.91.17 2.294-.211.117-.7.111-.807.369-.107.259.408.565.153.891-.544.7-.675-.595-.948-.644-.373-.067-.573.202-.983-.096-.251-.182-.002-.474-.505-.4-.403.059-.621.068-.941-.22-.225-.2-.591-.691-.152-.883.46-.202 1.699-1.701.715-1.9-.115-.023-.235-.02-.358-.005-3.506 1.505-6.374 4.357-7.907 7.854.13.108.251.226.364.421.265.457.496.459.947.657.518.228.634.054.634.667 0 .729.381 2.279 1.261 2.279.506 0 .748.342 1.074.669.383.384.774.664 1.286.852-.171-.074-.321-.177-.452-.308.648-.646 1.617.746 2.062 1.224.69.742 1.974.818 2.947.7.272-.034.49-.219.673-.411.271-.284.287-.282.568-.276.301.006.517-.493.954-.426.164.024 1.357.3 1.369.396.059.509 2.285.943 2.051 1.47-.169.376-.578.527-.574.991.001.233-.058.903.148 1.076.25.207.535.391.848.458.364.079.479.749.704 1.015.268.318.529.465.93.47l.807.038c-.154.184.227.391.379.545.146.144.063.527.049.708-.057.557-.059 1.245.265 1.729.418.636.382.978.341 1.72-.012.147-.134 1.113.055 1.155.09.021.32-.323.381-.386.07.402.583.525.271.979-.058.082-.063.182-.048.278.511-.271.999-.581 1.478-.911-.088-.104-.229-.287-.221-.354 0-.076.68-.022.536-.315-.069-.149-.61-.44-.175-.599.107-.04.414-.066.391-.258-.045-.315.246-.334.465-.521.524-.456.442-.62-.037-1.054-.348-.313.205-.242.396-.245.563-.013.21-.578.455-.908.266-.358 1.023-.911.6-1.423-.287-.339.178-.963-.104-1.246.437.438.94-.395 1.166-.676.495-.632.229-1.094.03-1.773-.178-.605.411-1.081.331-1.673z"/><linearGradient x1="1070.003" gradientTransform="translate(-1050.011 -3832.024)" y1="3851.4" x2="1070.003" gradientUnits="userSpaceOnUse" y2="3836.409" xlink:type="simple" xlink:actuate="onLoad" id="c" xlink:show="other"><stop stop-color="#26bfff" offset="0"/><stop stop-color="#43c8ff" offset=".046"/><stop stop-color="#6fd5ff" offset=".126"/><stop stop-color="#96e0ff" offset=".211"/><stop stop-color="#b6eaff" offset=".302"/><stop stop-color="#d1f1ff" offset=".399"/><stop stop-color="#e5f7ff" offset=".504"/><stop stop-color="#f4fcff" offset=".623"/><stop stop-color="#fcfeff" offset=".767"/><stop stop-color="#fff" offset="1"/></linearGradient><path fill="url(#c)" d="M4.999 19.397c0-8.091 6.9-14.991 14.991-14.991 8.09 0 14.992 6.899 14.992 14.991h-29.983" fill-opacity=".7"/><path d="M42.938 17.978c-1.965-3.333-6.174-4.622-9.735-3.236l-.032-.046c-5.799 3.077-10.602 7.575-13.882 13.279-1.141 1.981-2.339 4.143-2.426 6.48-.121 3.253 1.743 6.25 4.723 7.563l3.442-.563 2.492-7.202c-.869-1.189-1.793-2.373-2.906-3.346.029-.126.076-.289.146-.496.904-1.639 2.028-3.152 3.298-4.528 1.168-1.269 2.604-2.929 4.264-3.524 1.084 1 2.357 1.802 3.64 2.524l6.894-3.256.183-3.487-.101-.162" fill-opacity=".2"/><path d="M26.829 34.46c-1.722-2.354-2.89-3.202-2.89-3.202s.025-.333.252-.994c1.07-1.955 2.443-3.733 4-5.32 1.182-1.203 2.592-2.787 4.3-3.18 0 0 .973 1.068 3.497 2.525l6.265-2.963.154-2.929c-.298-.502-.66-.975-1.091-1.405-2.219-2.221-5.561-2.667-8.35-1.378l-.002-.006c-1.553.68-3.031 1.798-4.367 2.819-1.839 1.403-3.541 2.926-5.052 4.682-2.319 2.697-4.466 5.916-5.673 9.293h.004c-.976 2.912-.169 6.188 2.279 8.149.475.38.984.689 1.514.931l2.895-.471 2.265-6.551" fill-opacity=".4"/><linearGradient x1="275.473" gradientTransform="matrix(1 0 0 -1 -258.002 -981.004)" y1="-1008.576" x2="300.408" gradientUnits="userSpaceOnUse" y2="-1008.576" xlink:type="simple" xlink:actuate="onLoad" id="d" xlink:show="other"><stop stop-color="#66e800" offset="0"/><stop stop-color="#1f7216" offset="1"/></linearGradient><path fill="url(#d)" d="M26.829 33.841c-1.722-2.352-2.89-3.202-2.89-3.202.279-2.041 2.2-4.084 3.537-5.558 1.319-1.453 3.029-3.46 5.014-3.937 0 0 .973 1.067 3.496 2.524l6.266-2.961.154-2.93c-.299-.502-.66-.975-1.09-1.404-2.221-2.221-5.562-2.667-8.351-1.379l-.002-.006v.001c-3.476 1.872-6.686 4.359-9.28 7.34-2.349 2.697-4.667 6.017-5.813 9.453h.004c-.977 2.913-.169 6.186 2.279 8.151.474.379.983.689 1.514.932l2.895-.471 2.267-6.553"/><linearGradient x1="287.986" gradientTransform="matrix(1 0 0 -1 -258.002 -981.004)" y1="-995.8" x2="287.986" gradientUnits="userSpaceOnUse" y2="-1014.082" xlink:type="simple" xlink:actuate="onLoad" id="e" xlink:show="other"><stop stop-color="#cfffb6" offset="0"/><stop stop-color="#8def00" offset="1"/></linearGradient><path fill="url(#e)" d="M41.883 17.909c-.258-.417-.566-.81-.928-1.171-1.299-1.297-3.006-1.942-4.751-1.942-1.022 0-2.058.223-3.021.667l-.121.056-.002.001c-.22.106-.435.227-.644.356l-.009.004-.006.003c-.853.485-2.311 1.388-3.993 2.722l-.005.003-.003.002c-2.069 1.557-3.773 3.324-5.15 5.039-2.499 3.117-3.944 6.078-4.552 7.472l-.002.008-.004.011c-.106.226-.202.45-.282.678l-.002.009-.042.12c-.124.371-.217.754-.28 1.133 4.103-5.881 14.5-18.917 21.813-11.827l1.854-.879.13-2.465z"/></svg>