<svg xmlns="http://www.w3.org/2000/svg" xmlns:xlink="http://www.w3.org/1999/xlink" contentScriptType="text/ecmascript" baseProfile="tiny" width="44" viewBox="0 0 44 44" height="44"><path fill="none" d="M0 0h44v44H0z"/><path d="M3.114 20.697c0-8.576 6.87-16.12 15.42-16.877 8.653-.768 16.872 5.536 18.257 14.13 1.387 8.582-4.31 17.24-12.79 19.24-8.71 2.046-17.896-3.336-20.275-11.975-.404-1.47-.61-2.993-.61-4.518" fill-opacity=".2"/><path d="M35.707 20.703c0 8.54-7.36 15.788-15.903 15.645-4.155-.07-8.154-1.888-11.02-4.886-2.707-2.832-4.733-7.14-4.35-11.142.235-2.482 2.753-3.812 4.85-4.542 2.547-.887 5.303-1.27 7.98-1.482 3.977-.313 8.062-.106 11.906 1.006 2.54.734 6.537 2.17 6.537 5.4" fill-opacity=".5"/><linearGradient x1="1070.075" gradientTransform="translate(-1050.011 -3832.024)" y1="3867.063" x2="1070.075" gradientUnits="userSpaceOnUse" y2="3835.777" xlink:type="simple" xlink:actuate="onLoad" id="a" xlink:show="other"><stop stop-color="#84d8fd" offset="0"/><stop stop-color="#7dd1fb" offset=".113"/><stop stop-color="#6bbef7" offset=".275"/><stop stop-color="#4d9ff0" offset=".468"/><stop stop-color="#2676e7" offset=".67"/><stop stop-color="#2676e7" offset="1"/></linearGradient><path fill="url(#a)" d="M20.062 3.753c8.54 0 15.786 7.36 15.64 15.9-.142 8.54-7.616 15.666-16.153 15.376-8.34-.282-15.267-7.546-15.126-15.892.14-8.342 7.293-15.385 15.638-15.385"/><linearGradient x1="243.353" gradientTransform="translate(-224 -1496)" y1="1529.104" x2="243.353" gradientUnits="userSpaceOnUse" y2="1501.343" xlink:type="simple" xlink:actuate="onLoad" id="b" xlink:show="other"><stop stop-color="#c5eaff" offset="0"/><stop stop-color="#7ac6f7" offset="1"/></linearGradient><path fill="url(#b)" d="M32.152 20.425c-.037-.28-.41-.28-.62-.276-.412.005-.532-.036-.812-.34-.416-.45-1.553-.112-2.104-.14-.45-.025-.364-.172-.634-.442-.338-.335-.338-.167-.668-.034-.57.232-1.555-.074-2.178-.1-.748-.03-.516.404-1.053.75-.227.145-.615 1.052-.934.88-.62-.343-1.325.268-1.923-.254-.445-.39-.967-1.1-1.63-.916-.637.178-.624-.94-1.34-.56-.194.1-.077.33-.175.48-.163.25-.513.415-.78.52-.584.234-1.166-.377-1.427-.848-.324-.583.4-.282.053-.76-.064-.09-.31-.29-.157-.397.326-.225.118-.39.29-.7-.024.042.753.018.83.018.135 0 .545.102.517-.163-.005-.047-.113-.478-.038-.478.127 0 1.103-.088 1.083-.113.103.128.305.116.444.086.188-.04.6.52.71.63.435-.402-.327-.876-.472-1.224-.136-.327.238-.61.097-.934-.155-.36.203-.548.466-.71.47-.286.685-.82.812-1.334.068-.274.115-.562.1-.846-.028-.516-.584-.315-.994-.315.004-.317.3-.443.577-.43.46.022.658-.34.943-.62.354.714.963-.22 1.068-.537.107-.328.343-.65.65-.82.343-.187.41-.592.672-.854-.408-.18-.864-.208-1.275-.38-.478-.205-.794-.733-1.04-1.17-.212-.383-.216-.88-.525-1.212-.255-.274-.734-.408-1.083-.498-.53-.136-1.71.327-1.492 1.045.134.44.862 1.91.17 2.295-.21.117-.7.11-.807.37-.107.258.408.564.153.89-.544.7-.675-.595-.948-.644-.373-.066-.573.203-.983-.095-.25-.182-.002-.474-.505-.4-.403.06-.62.068-.94-.22-.226-.2-.592-.69-.153-.883.46-.202 1.7-1.7.715-1.9-.115-.023-.235-.02-.358-.005-3.506 1.505-6.374 4.357-7.907 7.854.13.11.25.227.364.422.266.457.497.46.948.657.518.227.634.053.634.666 0 .73.38 2.28 1.26 2.28.507 0 .75.34 1.075.668.383.384.774.664 1.286.852-.17-.074-.32-.177-.452-.308.65-.646 1.618.746 2.063 1.224.69.742 1.974.818 2.947.7.272-.034.49-.22.673-.41.27-.285.287-.283.568-.277.302.006.518-.493.955-.426.164.023 1.357.3 1.37.395.058.51 2.284.943 2.05 1.47-.17.376-.578.527-.574.99.002.234-.057.904.15 1.077.25.207.534.39.847.458.364.08.48.75.704 1.015.27.318.53.465.93.47.064.002.808.038.808.038-.154.184.227.39.38.545.145.144.062.527.048.708-.057.557-.06 1.245.265 1.73.42.635.383.977.342 1.72-.012.146-.134 1.112.055 1.154.09.02.32-.323.38-.386.07.402.584.525.272.98-.06.08-.064.18-.05.277.512-.27 1-.58 1.48-.91-.09-.104-.23-.287-.222-.354 0-.076.68-.022.536-.315-.07-.148-.61-.44-.175-.598.106-.04.413-.066.39-.258-.045-.315.246-.334.465-.52.524-.457.442-.62-.037-1.055-.348-.314.205-.243.396-.246.563-.013.21-.578.455-.908.265-.358 1.022-.91.6-1.423-.288-.34.177-.963-.105-1.246.437.438.94-.395 1.166-.676.496-.63.23-1.093.03-1.772-.177-.605.412-1.08.332-1.673z"/><linearGradient x1="1070.003" gradientTransform="translate(-1050.011 -3832.024)" y1="3851.4" x2="1070.003" gradientUnits="userSpaceOnUse" y2="3836.409" xlink:type="simple" xlink:actuate="onLoad" id="c" xlink:show="other"><stop stop-color="#26bfff" offset="0"/><stop stop-color="#43c8ff" offset=".046"/><stop stop-color="#6fd5ff" offset=".126"/><stop stop-color="#96e0ff" offset=".211"/><stop stop-color="#b6eaff" offset=".302"/><stop stop-color="#d1f1ff" offset=".399"/><stop stop-color="#e5f7ff" offset=".504"/><stop stop-color="#f4fcff" offset=".623"/><stop stop-color="#fcfeff" offset=".767"/><stop stop-color="#fff" offset="1"/></linearGradient><path fill="url(#c)" d="M5 19.397c0-8.09 6.9-14.99 14.99-14.99s14.992 6.898 14.992 14.99H5" fill-opacity=".7"/><path d="M42.938 17.978c-1.965-3.333-6.174-4.622-9.735-3.236l-.032-.046c-5.798 3.077-10.6 7.575-13.88 13.28-1.142 1.98-2.34 4.142-2.427 6.48-.12 3.252 1.743 6.25 4.723 7.562l3.442-.563 2.492-7.202c-.87-1.19-1.793-2.373-2.906-3.346.03-.126.076-.29.146-.496.904-1.638 2.028-3.15 3.298-4.527 1.168-1.27 2.604-2.93 4.264-3.524 1.084 1 2.357 1.8 3.64 2.523l6.894-3.256.183-3.487-.102-.162" fill-opacity=".2"/><path d="M26.83 34.46c-1.723-2.354-2.89-3.202-2.89-3.202s.024-.333.25-.994c1.07-1.955 2.444-3.733 4-5.32 1.183-1.203 2.593-2.787 4.3-3.18 0 0 .974 1.068 3.498 2.525l6.265-2.964.154-2.93c-.298-.5-.66-.974-1.09-1.404-2.22-2.22-5.562-2.667-8.35-1.378l-.003-.006c-1.553.68-3.03 1.798-4.367 2.82-1.84 1.402-3.54 2.925-5.052 4.68-2.32 2.698-4.466 5.917-5.673 9.294h.004c-.976 2.912-.17 6.188 2.28 8.15.474.38.983.688 1.513.93l2.894-.47 2.265-6.552" fill-opacity=".4"/><linearGradient x1="275.473" gradientTransform="matrix(1 0 0 -1 -258.002 -981.004)" y1="-1008.576" x2="300.408" gradientUnits="userSpaceOnUse" y2="-1008.576" xlink:type="simple" xlink:actuate="onLoad" id="d" xlink:show="other"><stop stop-color="#66e800" offset="0"/><stop stop-color="#1f7216" offset="1"/></linearGradient><path fill="url(#d)" d="M26.83 33.84c-1.723-2.35-2.89-3.2-2.89-3.2.278-2.042 2.2-4.085 3.536-5.56 1.32-1.452 3.03-3.46 5.014-3.936 0 0 .973 1.067 3.496 2.524l6.266-2.96.154-2.93c-.3-.503-.66-.976-1.09-1.405-2.22-2.22-5.562-2.667-8.35-1.38l-.003-.005c-3.476 1.873-6.686 4.36-9.28 7.34-2.35 2.698-4.667 6.018-5.813 9.454h.004c-.977 2.913-.17 6.186 2.28 8.15.473.38.982.69 1.513.933l2.895-.47 2.267-6.554"/><linearGradient x1="287.986" gradientTransform="matrix(1 0 0 -1 -258.002 -981.004)" y1="-995.8" x2="287.986" gradientUnits="userSpaceOnUse" y2="-1014.082" xlink:type="simple" xlink:actuate="onLoad" id="e" xlink:show="other"><stop stop-color="#cfffb6" offset="0"/><stop stop-color="#8def00" offset="1"/></linearGradient><path fill="url(#e)" d="M41.883 17.91c-.258-.418-.566-.81-.928-1.172-1.3-1.297-3.006-1.942-4.75-1.942-1.023 0-2.06.223-3.022.667l-.12.056h-.003c-.22.106-.435.227-.644.356l-.01.004-.005.003c-.852.485-2.31 1.388-3.992 2.722l-.005.003-.003.002c-2.07 1.557-3.773 3.324-5.15 5.04-2.5 3.116-3.944 6.077-4.552 7.47l-.002.01-.004.01c-.106.226-.202.45-.282.678l-.002.01-.042.12c-.124.37-.217.753-.28 1.132 4.103-5.88 14.5-18.917 21.813-11.827l1.853-.88.13-2.464z"/></svg>