<svg xmlns="http://www.w3.org/2000/svg" xmlns:xlink="http://www.w3.org/1999/xlink" contentScriptType="text/ecmascript" baseProfile="tiny" width="44" viewBox="0 0 44 44" height="44"><path d="M.026 0h39.454c1.385 0 2.768.011 4.148-.041.76-.028.396 3.03.396 3.596v39.583999999999996c0 .506.164.854-.408.896-.385.027-.773-.001-1.158-.023-1.496-.088-3.02-.01-4.52-.01h-29.485c-2.644 0-5.386.229-8.019.033-.589-.046-.409-.436-.409-.95v-17.519c.001-8.522.001-17.044.001-25.566" fill="none"/><path d="M3.114 20.656c0-8.576 6.871-16.119 15.42-16.877 8.653-.768 16.872 5.536 18.257 14.131 1.386 8.581-4.311 17.24-12.792 19.238-8.709 2.047-17.895-3.335-20.274-11.974-.404-1.47-.611-2.993-.611-4.518" fill-opacity=".2"/><path d="M35.707 20.662c0 8.541-7.361 15.788-15.903 15.645-4.155-.07-8.154-1.888-11.019-4.886-2.708-2.832-4.734-7.14-4.352-11.142.236-2.482 2.754-3.812 4.851-4.542 2.547-.887 5.303-1.271 7.98-1.482 3.977-.313 8.062-.106 11.906 1.006 2.54.734 6.537 2.171 6.537 5.401" fill-opacity=".5"/><linearGradient x1="1014.074" gradientTransform="matrix(1 0 0 -1 -994.011 -3186.024)" y1="-3221.021" x2="1014.074" gradientUnits="userSpaceOnUse" y2="-3189.736" xlink:type="simple" xlink:actuate="onLoad" id="a" xlink:show="other"><stop stop-color="#84d8fd" offset="0"/><stop stop-color="#7dd1fb" offset=".113"/><stop stop-color="#6bbef7" offset=".275"/><stop stop-color="#4d9ff0" offset=".468"/><stop stop-color="#2676e7" offset=".67"/><stop stop-color="#2676e7" offset="1"/></linearGradient><path fill="url(#a)" d="M20.062 3.712c8.54 0 15.786 7.361 15.641 15.901-.143 8.538-7.617 15.665-16.154 15.375-8.339-.281-15.266-7.545-15.125-15.891.139-8.342 7.293-15.385 15.638-15.385"/><linearGradient x1="187.356" gradientTransform="matrix(1 0 0 -1 -168 -850)" y1="-883.063" x2="187.356" gradientUnits="userSpaceOnUse" y2="-855.303" xlink:type="simple" xlink:actuate="onLoad" id="b" xlink:show="other"><stop stop-color="#c5eaff" offset="0"/><stop stop-color="#7ac6f7" offset="1"/></linearGradient><path fill="url(#b)" d="M32.152 20.384c-.037-.279-.409-.279-.619-.276-.413.006-.533-.035-.812-.338-.416-.451-1.552-.113-2.104-.142-.45-.024-.364-.171-.633-.441-.338-.335-.338-.167-.668-.034-.571.232-1.555-.074-2.178-.1-.748-.031-.516.404-1.053.749-.227.146-.615 1.053-.934.88-.618-.342-1.324.269-1.922-.253-.445-.389-.967-1.101-1.629-.916-.638.178-.625-.939-1.342-.561-.193.102-.076.332-.174.482-.163.249-.513.414-.779.52-.585.233-1.167-.378-1.428-.849-.324-.583.401-.282.053-.761-.064-.089-.309-.289-.157-.396.325-.224.117-.389.289-.699-.024.042.753.018.831.018.134 0 .544.102.516-.163-.005-.047-.113-.478-.038-.478.128 0 1.104-.088 1.084-.113.103.128.305.116.444.086.188-.041.601.52.711.631.434-.403-.328-.877-.473-1.225l.097-.934c-.155-.36.203-.548.466-.709.471-.287.685-.821.812-1.335.068-.274.115-.562.099-.846-.027-.516-.583-.315-.993-.315.004-.317.3-.443.577-.43.46.022.658-.339.943-.621.354.715.963-.218 1.068-.536.107-.328.343-.651.65-.819.343-.188.41-.593.672-.855-.408-.181-.864-.208-1.275-.381-.479-.204-.795-.732-1.042-1.169-.211-.383-.215-.88-.524-1.212-.255-.274-.734-.408-1.083-.498-.53-.136-1.711.327-1.492 1.045.134.44.862 1.91.17 2.294-.211.117-.7.111-.807.369-.107.259.408.565.153.891-.544.7-.675-.595-.948-.644-.373-.067-.573.202-.983-.096-.251-.182-.002-.474-.505-.4-.403.059-.621.068-.941-.22-.225-.2-.591-.691-.152-.883.46-.202 1.699-1.701.715-1.9-.115-.023-.235-.02-.358-.005-3.506 1.505-6.374 4.357-7.907 7.854.13.108.251.226.364.421.265.457.496.459.947.657.518.228.634.054.634.667 0 .729.381 2.279 1.261 2.279.506 0 .748.342 1.074.669.383.384.774.664 1.286.852-.171-.074-.321-.177-.452-.308.648-.646 1.617.746 2.062 1.224.69.742 1.974.818 2.947.7.272-.034.49-.219.673-.411.271-.284.287-.282.568-.276.301.006.517-.493.954-.426.164.024 1.357.3 1.369.396.059.509 2.285.943 2.051 1.47-.169.376-.578.527-.574.991.001.233-.058.903.148 1.076.25.207.535.391.848.458.364.079.479.749.704 1.015.268.318.529.465.93.469l.807.039c-.155.183.226.39.379.544.146.144.063.528.048.708-.056.557-.058 1.246.265 1.729.418.635.381.977.34 1.719-.011.148-.133 1.114.055 1.156.09.02.32-.324.381-.386.07.403.583.526.271.978-.057.082-.063.182-.047.279.51-.271.999-.581 1.477-.911-.088-.104-.229-.288-.221-.354 0-.076.68-.022.537-.315-.07-.15-.611-.441-.175-.599.108-.04.414-.066.39-.257-.045-.316.246-.334.465-.521.525-.456.443-.62-.037-1.054-.348-.313.205-.242.397-.245.562-.012.21-.578.455-.908.265-.359 1.024-.912.599-1.423-.287-.339.178-.963-.104-1.246.437.438.94-.394 1.166-.676.495-.632.229-1.093.03-1.773-.178-.605.411-1.081.331-1.673z"/><linearGradient x1="1014.002" gradientTransform="matrix(1 0 0 -1 -994.011 -3186.024)" y1="-3205.359" x2="1014.002" gradientUnits="userSpaceOnUse" y2="-3190.369" xlink:type="simple" xlink:actuate="onLoad" id="c" xlink:show="other"><stop stop-color="#26bfff" offset="0"/><stop stop-color="#43c8ff" offset=".046"/><stop stop-color="#6fd5ff" offset=".126"/><stop stop-color="#96e0ff" offset=".211"/><stop stop-color="#b6eaff" offset=".302"/><stop stop-color="#d1f1ff" offset=".399"/><stop stop-color="#e5f7ff" offset=".504"/><stop stop-color="#f4fcff" offset=".623"/><stop stop-color="#fcfeff" offset=".767"/><stop stop-color="#fff" offset="1"/></linearGradient><path fill="url(#c)" d="M4.999 19.356c0-8.091 6.9-14.991 14.991-14.991 8.09 0 14.992 6.899 14.992 14.991h-29.983" fill-opacity=".7"/><path d="M30.982 8.114s6.662 4.636 5.002 11.877c.002 0 5.107-8.562-5.002-11.877zM32.787 6.241s7.596 5.287 5.701 13.543c0 0 5.823-9.762-5.701-13.543zM34.548 3.423s9.177 6.387 6.89 16.362c0-.001 7.033-11.794-6.89-16.362z" fill-opacity=".2"/><path d="M30.966 7.44s6.892 4.288 5.607 11.605c0 .001 4.657-8.813-5.607-11.605zM32.668 5.479s7.857 4.888 6.389 13.23c.006.002 5.315-10.048-6.389-13.23zM34.282 2.573s9.493 5.907 7.723 15.985c0 0 6.417-12.139-7.723-15.985z" fill-opacity=".5"/><linearGradient x1="895.608" gradientTransform="matrix(.983 .186 .186 -.983 -561.619 -1677.508)" y1="-1544.439" x2="904.699" gradientUnits="userSpaceOnUse" y2="-1553.531" xlink:type="simple" xlink:actuate="onLoad" id="d" xlink:show="other"><stop stop-color="#00d1ff" offset="0"/><stop stop-color="#0d409b" offset="1"/></linearGradient><path fill="url(#d)" d="M30.869 6.952s7.208 3.732 6.503 11.127c0 0 3.948-9.153-6.503-11.127z"/><linearGradient x1="896.849" gradientTransform="matrix(.983 .186 .186 -.983 -561.619 -1677.508)" y1="-1541.989" x2="907.214" gradientUnits="userSpaceOnUse" y2="-1552.355" xlink:type="simple" xlink:actuate="onLoad" id="e" xlink:show="other"><stop stop-color="#00d1ff" offset="0"/><stop stop-color="#0d409b" offset="1"/></linearGradient><path fill="url(#e)" d="M32.413 4.862s8.218 4.254 7.413 12.688c0 0 4.504-10.437-7.413-12.688z"/><linearGradient x1="897.831" gradientTransform="matrix(.983 .186 .186 -.983 -561.619 -1677.508)" y1="-1538.576" x2="910.355" gradientUnits="userSpaceOnUse" y2="-1551.099" xlink:type="simple" xlink:actuate="onLoad" id="f" xlink:show="other"><stop stop-color="#00d1ff" offset="0"/><stop stop-color="#0d409b" offset="1"/></linearGradient><path fill="url(#f)" d="M33.793 1.839s9.93 5.14 8.958 15.328c0 0 5.437-12.609-8.958-15.328z"/><path d="M39.958 25.204l.101-.05-.509-.579c-.11-.126-.224-.231-.337-.324l-.107-.085c-.121-.092-.258-.186-.405-.266l-.08-.041c-.14-.069-.279-.129-.427-.18l-.092-.035c-.174-.058-.345-.099-.517-.127l-.114-.02c-.178-.023-.367-.046-.57-.046h-1.121l-14.73-3.974-.47 1.744 8.271 2.23h-2.236v-.313h-5.107v.357c-1.455.225-2.65 1.244-2.675 2.667v10.962l.026.25.001.05.001.046.007.045.026.104.059.212.101.26.104.208.178.264.162.201.273.266.357.303.033-.023c.55.336 1.22.531 1.944.531h-.005v.003h14.8c1.707-.003 3.24-1.099 3.271-2.714v-10.962c0-.342-.077-.667-.213-.964zm-.978 11.924c0 .374-.188.733-.56 1.03-.366.293-.909.492-1.521.492l-14.799-.002c-.635.002-1.19-.217-1.563-.53l-.07-.06-.093-.098-.091-.116-.098-.139-.051-.108-.05-.13-.034-.114-.006-.025v-.014l-.001-.03-.001-.026-.02-.124-.002-.007v-10.961c.002-.374.189-.732.559-1.03.368-.293.911-.493 1.523-.491h.595v-.313h.272v.313h2.18v-.313h.271v.313h7.919l.077-.595 2.201.595h1.283l.396.031.088.014.346.086.065.024.281.12.048.023.262.172.067.053.168.155.03.034c.218.252.326.523.328.81v10.961zM39.368 25.499l-.265-.531.265.531z" fill-opacity=".2"/><path d="M39.104 24.967c-.08-.093-.172-.178-.269-.258l-.086-.066-.334-.219-.067-.033-.353-.149-.081-.029c-.141-.045-.284-.08-.434-.104l-.101-.016c-.155-.021-.315-.037-.479-.037h-1.201l-14.23-3.842-.16.594 12.032 3.248h-7.321v-.316h-1.465v.312h-.988v-.312h-1.462v.312c-1.478 0-2.675.948-2.675 2.117v10.959999999999999l.026.203.002.085.017.063.048.176.076.193.079.159.136.199.127.158.216.212.002-.002c.488.41 1.177.672 1.946.672h14.8c1.478 0 2.677-.948 2.677-2.118v-10.96c-.005-.448-.182-.86-.478-1.202zm-8.842 8.832l-.003.021.003-.021zm-.605 1.753l-.003.005.003-.005zm-7.982-2.541zm4.802-3.984l.146.021-.146-.021zm.494.087l.149.038-.149-.038zm.487.15l.121.043-.121-.043zm-3.086.043l.12-.043-.12.043zm.459-.153l.149-.04-.149.04zm.498-.104l.146-.022-.146.022zm-2.436 1.244l-.004.006.004-.006zm-1.159 2.235l.002-.014-.002.014zm.114-.476l.001-.006-.001.006zm8.329 2.231l-.006.018.006-.018zm-.141.476l-.002.004.002-.004zm.237-1.749zm-.171-.964l.002.006-.002-.006zm.112.471l.002.013-.002-.013zm-1.155-2.224l.006.006-.006-.006zm.352.414l.063.086-.063-.086zm-6.934.085l.063-.084-.063.084zm-.697 3.514l-.005-.021.005.021zm.513 1.245v.003-.003zm2.053 1.753l.026.01-.026-.01zm1.631.32l.431-.021-.431.021-.433-.021.433.021zm-.782-.073l-.065-.011.065.011zm-.459-.111l-.008-.002.008.002zm2.869-.136l-.026.01.026-.01zm-.384.136h-.005.005zm-.401.1l-.062.01.062-.01z" fill-opacity=".4"/><path fill="#9fa3b1" d="M38.614 24.878l-17.307-4.669.16-.594 17.307 4.669z"/><linearGradient x1="516.84" gradientTransform="translate(-494.007 -1628.016)" y1="1651.144" x2="516.84" gradientUnits="userSpaceOnUse" y2="1651.713" xlink:type="simple" xlink:actuate="onLoad" id="g" xlink:show="other"><stop stop-color="#606060" offset="0"/><stop offset="1"/></linearGradient><path fill="url(#g)" d="M22.102 23.145h1.462v.568h-1.462z"/><linearGradient x1="519.294" gradientTransform="translate(-494.007 -1628.016)" y1="1651.144" x2="519.294" gradientUnits="userSpaceOnUse" y2="1651.713" xlink:type="simple" xlink:actuate="onLoad" id="h" xlink:show="other"><stop stop-color="#606060" offset="0"/><stop offset="1"/></linearGradient><path fill="url(#h)" d="M24.555 23.145h1.465v.568h-1.465z"/><linearGradient x1="519.984" gradientTransform="translate(-494.007 -1628.016)" y1="1665.03" x2="519.984" gradientUnits="userSpaceOnUse" y2="1656.401" xlink:type="simple" xlink:actuate="onLoad" id="i" xlink:show="other"><stop offset="0"/><stop stop-color="#606060" offset="1"/></linearGradient><circle fill="url(#i)" r="4.314" cx="25.977" cy="32.715"/><linearGradient x1="523.51" gradientTransform="translate(-494.007 -1628.016)" y1="1651.47" x2="523.51" gradientUnits="userSpaceOnUse" y2="1666.665" xlink:type="simple" xlink:actuate="onLoad" id="j" xlink:show="other"><stop stop-color="#ccc" offset="0"/><stop stop-color="#878787" offset="1"/></linearGradient><path fill="url(#j)" d="M36.9 23.455h-14.798c-1.478 0-2.675.947-2.675 2.118v10.961c0 1.17 1.198 2.116 2.675 2.116h14.8c1.478 0 2.677-.946 2.677-2.116v-10.961c-.002-1.171-1.199-2.118-2.679-2.118zm-8.043 12.466h-5.767c-.312-.282-.579-.604-.8-.964h7.363c-.215.357-.484.682-.796.964zm-6.941-1.753c-.11-.309-.189-.629-.226-.964h8.572c-.037.335-.117.657-.228.964h-8.118zm-.241-1.753c.023-.333.08-.655.174-.962h8.252c.094.308.147.631.172.962h-8.598zm.503-1.752c.193-.354.433-.679.712-.964h6.168c.278.285.521.609.713.964h-7.593zm1.761-1.752c.604-.326 1.299-.511 2.035-.511.735 0 1.43.185 2.037.511h-4.072zm.404 7.798h3.265c-.502.205-1.053.32-1.631.32-.578 0-1.129-.115-1.634-.32z"/><linearGradient x1="517.171" gradientTransform="translate(-494.007 -1628.016)" y1="1650.017" x2="529.847" gradientUnits="userSpaceOnUse" y2="1668.12" xlink:type="simple" xlink:actuate="onLoad" id="k" xlink:show="other"><stop stop-color="#fff" offset="0"/><stop stop-color="#fff" offset=".499"/><stop offset=".5"/><stop offset="1"/></linearGradient><path fill="url(#k)" d="M36.9 23.455h-14.798c-1.478 0-2.675.947-2.675 2.118v10.961c0 1.17 1.198 2.116 2.675 2.116h14.8c1.478 0 2.677-.946 2.677-2.116v-10.961c-.002-1.171-1.199-2.118-2.679-2.118zm2.327 13.078c0 .462-.231.891-.649 1.223-.416.33-1.011.545-1.675.545l-14.8-.001c-.664.001-1.258-.214-1.675-.544-.417-.332-.65-.761-.65-1.223v-10.961c0-.461.232-.889.65-1.223.417-.33 1.011-.545 1.675-.545h14.797c.666 0 1.259.215 1.677.545.416.334.649.762.649 1.223v10.961h.001z" fill-opacity=".5"/><path fill="#383838" d="M25.968 27.479c-2.901.002-5.257 2.354-5.257 5.258s2.354 5.258 5.257 5.259c2.904-.001 5.259-2.354 5.259-5.259-.002-2.904-2.355-5.257-5.259-5.258zm4.533 5.375c-.041.569-.185 1.138-.41 1.664h.068l-.038.088h-.069c-.315.695-.762 1.252-1.29 1.664h.079c-.336.274-.713.502-1.118.672l-.015-.071c-1.082.421-2.321.388-3.44-.119l-.039.197c-.412-.173-.793-.399-1.133-.679h.354c-.218-.154-.429-.324-.626-.522-.356-.354-.646-.736-.869-1.142h-.142l-.038-.088h.133c-.272-.521-.429-1.078-.46-1.664h-.034v-.088h.031c-.013-.422.036-.857.155-1.308l.075-.215c0-.173.024-.341.078-.498.213-.616.583-1.015 1.097-1.39l.221-.141c.332-.384.781-.62 1.258-.632l.181-.086c.3-.146.616-.211.925-.198.35-.316.84-.48 1.438-.314.484.136.811.346 1.201.651l.102.089c.417.202.764.495 1.063.846.188.147.359.322.521.544.573.78.799 1.717.751 2.649h.019v.088l-.029.003z"/><linearGradient x1="519.976" gradientTransform="translate(-494.007 -1628.016)" y1="1655.831" x2="519.976" gradientUnits="userSpaceOnUse" y2="1665.645" xlink:type="simple" xlink:actuate="onLoad" id="l" xlink:show="other"><stop stop-color="#e5e5e5" offset="0"/><stop stop-color="#606060" offset="1"/></linearGradient><path fill="url(#l)" d="M25.968 27.831c-2.709 0-4.906 2.194-4.906 4.905 0 2.711 2.196 4.908 4.906 4.908 2.712 0 4.907-2.197 4.907-4.908-.001-2.711-2.198-4.905-4.907-4.905zm.009.569c.735 0 1.431.185 2.035.511h-4.07c.604-.326 1.296-.511 2.035-.511zm0 8.629c-.578 0-1.129-.115-1.634-.32h3.265c-.504.205-1.055.32-1.631.32zm2.88-1.108h-5.767c-.312-.282-.579-.604-.8-.964h7.363c-.215.357-.484.682-.796.964zm1.177-1.753h-8.118c-.11-.309-.189-.629-.226-.964h8.572c-.039.335-.117.657-.228.964zm.239-1.753h-8.6c.023-.333.08-.655.174-.962h8.253c.095.307.151.629.173.962zm-8.095-1.752c.193-.354.433-.679.712-.964h6.168c.278.285.521.609.713.964h-7.593z"/><linearGradient x1="523.574" gradientTransform="translate(-494.007 -1628.016)" y1="1655.042" x2="523.574" gradientUnits="userSpaceOnUse" y2="1652.37" xlink:type="simple" xlink:actuate="onLoad" id="m" xlink:show="other"><stop stop-color="#d3d3d3" offset="0"/><stop stop-color="#878787" offset="1"/></linearGradient><path fill="url(#m)" d="M21.179 27.042v-2.672h16.777v2.672h-16.777zm16.426-.351v-.351.351zm-15.726-.349h15.376v-1.272h-15.376v1.272z"/><linearGradient x1="530.891" gradientTransform="translate(-494.007 -1628.016)" y1="1656.926" x2="530.891" gradientUnits="userSpaceOnUse" y2="1658.984" xlink:type="simple" xlink:actuate="onLoad" id="n" xlink:show="other"><stop stop-color="#606060" offset="0"/><stop offset="1"/></linearGradient><circle fill="url(#n)" r="1.029" cx="36.884" cy="29.955"/><linearGradient x1="527.736" gradientTransform="translate(-494.007 -1628.016)" y1="1656.926" x2="527.736" gradientUnits="userSpaceOnUse" y2="1658.984" xlink:type="simple" xlink:actuate="onLoad" id="o" xlink:show="other"><stop stop-color="#606060" offset="0"/><stop offset="1"/></linearGradient><circle fill="url(#o)" r="1.029" cx="33.729" cy="29.955"/><path fill="#fff" d="M22.293 34.957h2.073l1.098-.789h-3.547c-.11-.309-.189-.629-.226-.964h5.116l1.098-.789h-6.229c.023-.333.08-.655.174-.962h7.396l9.857-7.081c-.48-.554-1.287-.916-2.201-.916h-14.8c-1.478 0-2.675.948-2.675 2.117v9.808l.027 1.441c.076.447.328.849.7 1.16l2.913-2.092c-.299-.273-.562-.585-.774-.933zm3.684-6.557c.735 0 1.431.185 2.035.511h-4.07c.604-.326 1.296-.511 2.035-.511zm-3.084 1.299h6.168c.278.285.521.609.711.963h-7.592c.192-.353.431-.678.713-.963z" fill-opacity=".3"/><linearGradient x1="515.535" gradientTransform="translate(-494.007 -1628.016)" y1="1653.722" x2="531.614" gradientUnits="userSpaceOnUse" y2="1653.722" xlink:type="simple" xlink:actuate="onLoad" id="p" xlink:show="other"><stop offset="0"/><stop stop-color="#606060" offset="1"/></linearGradient><path fill="url(#p)" d="M21.529 24.721h16.079v1.971h-16.079z"/><linearGradient x1="525.516" gradientTransform="translate(-494.007 -1628.016)" y1="1654.692" x2="525.516" gradientUnits="userSpaceOnUse" y2="1653.285" xlink:type="simple" xlink:actuate="onLoad" id="q" xlink:show="other"><stop stop-color="#fccc00" offset="0"/><stop stop-color="#e88400" offset="1"/></linearGradient><path fill="url(#q)" d="M31.518 25.3v-.016l-.009.008-.009-.008v.016l-.29.278v1.113h.599v-1.113z"/></svg>