<svg xmlns="http://www.w3.org/2000/svg" xmlns:xlink="http://www.w3.org/1999/xlink" contentScriptType="text/ecmascript" baseProfile="tiny" viewBox="0 0 44 44"><path fill="none" d="M0 0h44v44h-44z"/><path d="M35.898 14.374c-4.375.001-8.748.001-13.121.001l-2.53-2.917h-11.647c-1.808 0-3.047 1.131-3.483 2.917h-.118v23.576c8.559 0 17.119.005 25.678.001 2.72-.001 5.438-.002 8.158-.002v-23.576h-2.937" fill-opacity=".2"/><path d="M35.898 15.375h-13.574l-2.532-2.917h-11.761c-1.293 0-2.055 1.842-2.022 2.917h-.009v21.579h31.836000000000002v-21.579h-1.938" fill-opacity=".4"/><path d="M41.202 12.483l.128-.443-25.014-7.223-.128.443-.214-.062-.216.747-.442-.128-5.549 19.208.44.127-.061.211.482.141 25.492 7.369.349-1.203 5.479-18.972-.746-.215zm-5.764 19.15l-.438-.128.066-.239.44.127-.068.24z" fill-opacity=".2"/><path fill="#d6c1aa" d="M16.316 4.817l-5.549 19.208 25.014 7.229.207-.722 5.342-18.492z"/><linearGradient x1="291.695" gradientTransform="matrix(1 0 0 -1 -280 -1598)" y1="-1616.036" x2="320.402" gradientUnits="userSpaceOnUse" y2="-1616.036" xlink:type="simple" xlink:actuate="onLoad" id="a" xlink:show="other"><stop stop-color="#e8e0b5" offset="0"/><stop stop-color="#ede7cc" offset="1"/></linearGradient><path fill="url(#a)" d="M35.271 30.325l-23.575-6.809 5.132-17.769 23.574 6.808z"/><path d="M38.836 13.375h-15.512l-2.532-2.917h-5.325l-3.771 13.058 23.576 6.813 3.564-12.346v-4.608z" fill-opacity=".2"/><path fill-opacity=".4" fill="#fff" d="M37.835 21.44l-23.572-6.809 2.566-8.885 23.572 6.809z"/><linearGradient x1="301.918" gradientTransform="matrix(1 0 0 -1 -280 -1598)" y1="-1609.458" x2="301.918" gradientUnits="userSpaceOnUse" y2="-1633.954" xlink:type="simple" xlink:actuate="onLoad" id="b" xlink:show="other"><stop stop-color="#ffe23d" offset="0"/><stop stop-color="#fad337" offset=".224"/><stop stop-color="#efab26" offset=".654"/><stop stop-color="#e48717" offset="1"/></linearGradient><path fill="url(#b)" d="M35.898 14.375h-13.574l-2.532-2.917h-11.761c-1.293 0-2.055 1.842-2.022 2.917h-.009v21.579h31.836000000000002v-21.579h-1.938"/><path fill="#fff" d="M34.457 15.137h-12.466l-2.554-2.887h-10.8c-1.21 0-1.817 1.932-1.785 2.887h-.008v10.197h30.156v-10.197h-2.543" fill-opacity=".3"/><path d="M21.353 30.672c0-5.074 4.066-9.536 9.122-9.985 5.12-.455 9.983 3.274 10.803 8.361.819 5.077-2.55 10.201-7.568 11.382-5.152 1.212-10.586-1.973-11.993-7.085-.242-.87-.364-1.772-.364-2.673" fill-opacity=".2"/><path d="M40.637 30.675c0 5.055-4.355 9.342-9.41 9.257-2.459-.04-4.826-1.116-6.519-2.89-1.602-1.676-2.802-4.225-2.575-6.594.139-1.468 1.629-2.255 2.871-2.687 1.506-.526 3.137-.752 4.72-.878 2.353-.185 4.771-.062 7.044.595 1.504.435 3.869 1.287 3.869 3.197" fill-opacity=".5"/><linearGradient x1="1081.394" gradientTransform="translate(-1050.011 -3832.024)" y1="3871.181" x2="1081.394" gradientUnits="userSpaceOnUse" y2="3852.672" xlink:type="simple" xlink:actuate="onLoad" id="c" xlink:show="other"><stop stop-color="#84d8fd" offset="0"/><stop stop-color="#7dd1fb" offset=".113"/><stop stop-color="#6bbef7" offset=".275"/><stop stop-color="#4d9ff0" offset=".468"/><stop stop-color="#2676e7" offset=".67"/><stop stop-color="#2676e7" offset="1"/></linearGradient><path fill="url(#c)" d="M31.38 20.647c5.053 0 9.341 4.353 9.255 9.408-.085 5.052-4.508 9.268-9.559 9.097-4.931-.166-9.03-4.464-8.947-9.402.081-4.937 4.315-9.103 9.251-9.103"/><linearGradient x1="254.96" gradientTransform="translate(-224 -1496)" y1="1534.014" x2="254.96" gradientUnits="userSpaceOnUse" y2="1517.588" xlink:type="simple" xlink:actuate="onLoad" id="d" xlink:show="other"><stop stop-color="#c5eaff" offset="0"/><stop stop-color="#7ac6f7" offset="1"/></linearGradient><path fill="url(#d)" d="M38.533 30.51c-.021-.165-.241-.165-.365-.162-.244.004-.315-.021-.481-.199-.247-.269-.918-.067-1.246-.085-.267-.017-.216-.101-.373-.26-.2-.199-.2-.099-.394-.021-.34.139-.921-.043-1.291-.061-.441-.018-.305.24-.623.442-.132.088-.364.623-.551.521-.365-.203-.782.161-1.137-.149-.265-.229-.574-.651-.964-.541-.38.104-.371-.557-.795-.333-.114.06-.045.196-.103.285-.097.147-.303.245-.46.307-.346.138-.691-.224-.846-.501-.191-.345.236-.167.03-.452-.037-.052-.182-.17-.094-.231.193-.132.071-.232.172-.414-.017.024.445.01.49.01.08 0 .324.062.305-.097-.003-.027-.066-.283-.022-.283.075 0 .655-.052.642-.066.061.076.181.068.263.051.11-.021.355.309.42.374.257-.238-.195-.52-.279-.724l.057-.553c-.091-.214.12-.324.278-.421.276-.168.402-.485.48-.787.037-.163.067-.334.058-.5-.017-.306-.345-.187-.586-.187.001-.188.177-.262.342-.255.27.014.388-.203.557-.369.211.423.571-.127.631-.316.063-.192.203-.386.385-.485.204-.111.243-.349.397-.506l-.754-.224c-.283-.12-.472-.434-.619-.693-.123-.226-.126-.52-.309-.717-.15-.162-.436-.243-.64-.295-.315-.081-1.014.193-.883.618.078.26.509 1.132.099 1.357-.125.07-.414.065-.477.219-.063.151.241.336.09.528-.321.415-.397-.353-.561-.38-.221-.041-.34.118-.58-.06-.15-.108 0-.279-.3-.236-.239.035-.368.041-.558-.13-.132-.118-.351-.409-.09-.523.272-.118 1.004-1.004.422-1.124l-.21-.003c-2.073.891-3.771 2.577-4.68 4.648.077.063.15.135.216.249.157.27.295.271.559.39.307.135.377.03.377.394 0 .431.225 1.348.748 1.348.299 0 .44.202.634.396.226.228.458.393.761.503-.1-.043-.188-.104-.267-.182.383-.381.957.44 1.22.725.408.438 1.168.484 1.744.415.159-.021.29-.131.396-.245.163-.167.172-.166.339-.163.176.004.306-.291.564-.252.098.014.804.179.81.234.036.301 1.354.56 1.215.869-.1.221-.343.313-.341.585.004.141-.031.536.089.637.149.123.315.23.501.271.216.047.283.444.417.6.159.188.314.275.551.276l.477.022c-.094.11.133.231.224.321.087.086.038.313.025.421-.03.328-.031.735.157 1.021.25.376.227.579.201 1.018-.006.09-.075.66.033.684.053.012.188-.191.225-.228.043.239.344.312.161.579-.033.049-.038.107-.025.166.301-.162.589-.344.871-.541-.052-.062-.135-.171-.129-.209 0-.046.399-.013.318-.187-.044-.088-.363-.261-.104-.354.064-.022.246-.036.229-.151-.025-.187.146-.197.275-.308.311-.269.262-.366-.023-.624-.207-.186.122-.142.236-.145.332-.007.124-.342.269-.536.156-.213.607-.539.354-.842-.171-.201.103-.571-.063-.739.258.259.557-.233.69-.399.294-.373.137-.646.019-1.049-.101-.353.248-.636.2-.987z"/><linearGradient x1="1081.35" gradientTransform="translate(-1050.011 -3832.024)" y1="3861.914" x2="1081.35" gradientUnits="userSpaceOnUse" y2="3853.046" xlink:type="simple" xlink:actuate="onLoad" id="e" xlink:show="other"><stop stop-color="#26bfff" offset="0"/><stop stop-color="#43c8ff" offset=".046"/><stop stop-color="#6fd5ff" offset=".126"/><stop stop-color="#96e0ff" offset=".211"/><stop stop-color="#b6eaff" offset=".302"/><stop stop-color="#d1f1ff" offset=".399"/><stop stop-color="#e5f7ff" offset=".504"/><stop stop-color="#f4fcff" offset=".623"/><stop stop-color="#fcfeff" offset=".767"/><stop stop-color="#fff" offset="1"/></linearGradient><path fill="url(#e)" d="M22.469 29.902c0-4.787 4.082-8.869 8.868-8.869 4.788 0 8.87 4.083 8.87 8.869h-17.738" fill-opacity=".7"/></svg>