<svg xmlns="http://www.w3.org/2000/svg" xmlns:xlink="http://www.w3.org/1999/xlink" contentScriptType="text/ecmascript" baseProfile="tiny" width="44" viewBox="0 0 44 44" height="44"><path fill="none" d="M0 0h44v44H0z"/><path d="M37.008 23.756c.068-.847.06-1.66.004-2.506 1.504-.734 2.91-1.613 4.27-2.584-.31-1.386-.73-2.713-1.25-4.035-1.72-.11-3.426-.106-5.14.11-.432-.683-.89-1.368-1.44-2.015.796-1.475 1.396-3.026 1.94-4.608-1.08-.923-2.19-1.764-3.405-2.506-1.442.916-2.82 1.902-4.065 3.077-.726-.316-1.532-.577-2.39-.77-.24-1.657-.637-3.267-1.122-4.866-1.415-.104-2.806-.135-4.222-.02-.638 1.587-1.158 3.2-1.48 4.882-.87.194-1.668.45-2.388.762-1.154-1.2-2.43-2.248-3.762-3.243-1.233.706-2.35 1.547-3.476 2.408.452 1.667.96 3.31 1.705 4.875-.542.65-1.002 1.333-1.44 2.01-1.667-.3-3.348-.405-5.04-.448-.502 1.328-.98 2.643-1.297 4.03 1.305 1.097 2.67 2.082 4.165 2.91-.09.812-.09 1.68 0 2.518-1.503.728-2.9 1.605-4.254 2.58.313 1.38.733 2.703 1.26 4.02 1.72.11 3.428.11 5.143-.1.435.67.894 1.347 1.436 2.002-.797 1.48-1.4 3.043-1.954 4.627 1.09.914 2.198 1.76 3.417 2.496 1.44-.92 2.816-1.906 4.063-3.08.722.315 1.52.574 2.384.772.234 1.66.64 3.27 1.13 4.872 1.41.1 2.803.133 4.215.018.63-1.586 1.157-3.195 1.483-4.875.866-.194 1.666-.45 2.388-.767 1.15 1.198 2.424 2.24 3.758 3.23 1.234-.694 2.348-1.533 3.47-2.393-.445-1.67-.95-3.313-1.696-4.88.544-.646 1.004-1.326 1.44-2 1.667.293 3.347.396 5.036.436.502-1.326.983-2.64 1.28-4.03-1.308-1.096-2.675-2.077-4.166-2.904" fill-opacity=".2"/><path d="M36.072 22.474c-.05-.602-.025-1.22-.135-1.823 1.438-.656 2.9-1.47 4.223-2.413-.203-.904-.49-1.787-.83-2.65-1.676-.11-3.373-.008-4.943.23-.652-1.05-1.285-2.064-2.164-2.95.822-1.413 1.46-2.855 2.002-4.432-.7-.598-1.44-1.165-2.23-1.647-1.427.906-2.72 1.935-3.876 3.1-1.067-.56-2.304-.925-3.485-1.135-.19-1.564-.512-3.204-.982-4.757-.932-.07-1.85-.095-2.768-.02-.62 1.545-1.057 3.203-1.313 4.78-1.184.212-2.416.572-3.483 1.135-1.083-1.194-2.292-2.285-3.606-3.267-.803.46-1.532 1.042-2.262 1.6.452 1.666 1.003 3.18 1.757 4.646-.856.91-1.49 1.915-2.157 2.96-1.545-.32-3.17-.498-4.833-.54-.328.866-.665 1.73-.87 2.64 1.285 1.08 2.706 1.985 4.145 2.734-.217 1.147-.205 2.51 0 3.658-1.436.646-2.906 1.463-4.225 2.412.203.9.49 1.785.832 2.637 1.677.11 3.376.017 4.946-.218.668 1.043 1.307 2.035 2.155 2.95-.813 1.41-1.442 2.855-1.996 4.435.703.59 1.438 1.163 2.23 1.64 1.427-.91 2.717-1.937 3.88-3.103 1.075.56 2.295.92 3.483 1.14.18 1.562.507 3.204.983 4.756.932.064 1.847.095 2.76.02.613-1.54 1.062-3.193 1.32-4.774 1.185-.212 2.414-.573 3.48-1.14 1.08 1.195 2.288 2.29 3.603 3.26.807-.45 1.53-1.037 2.258-1.59-.445-1.67-.996-3.188-1.757-4.65.86-.904 1.492-1.906 2.16-2.95 1.542.314 3.17.493 4.83.528.32-.855.668-1.73.86-2.634-1.284-1.074-2.707-1.98-4.144-2.73.127-.613.108-1.228.15-1.836" fill-opacity=".4"/><linearGradient x1="60.04" gradientTransform="matrix(1 0 0 -1 -56 -102)" y1="-123.482" x2="96.16" gradientUnits="userSpaceOnUse" y2="-123.482" xlink:type="simple" xlink:actuate="onLoad" id="a" xlink:show="other"><stop stop-color="#e8e8e8" offset="0"/><stop stop-color="#a4a4a4" offset="1"/></linearGradient><path fill="url(#a)" d="M36.072 21.474c-.05-.602-.025-1.22-.135-1.823 1.438-.656 2.9-1.47 4.223-2.413-.203-.904-.49-1.787-.83-2.65-1.676-.11-3.373-.008-4.943.23-.652-1.05-1.285-2.064-2.164-2.95.822-1.413 1.46-2.855 2.002-4.432-.7-.598-1.44-1.165-2.23-1.647-1.427.906-2.72 1.935-3.876 3.1-1.067-.56-2.304-.925-3.485-1.135-.19-1.564-.512-3.204-.982-4.757-.932-.07-1.85-.095-2.768-.02-.62 1.545-1.057 3.203-1.313 4.78-1.184.212-2.416.572-3.483 1.135-1.083-1.194-2.292-2.285-3.606-3.267-.803.46-1.532 1.042-2.262 1.6.452 1.666 1.003 3.18 1.757 4.646-.856.91-1.49 1.915-2.157 2.96-1.545-.32-3.17-.498-4.833-.54-.328.866-.665 1.73-.87 2.64 1.285 1.08 2.706 1.985 4.145 2.734-.217 1.147-.205 2.51 0 3.658-1.436.646-2.906 1.463-4.225 2.412.203.9.49 1.785.832 2.637 1.677.11 3.376.017 4.946-.218.668 1.043 1.307 2.035 2.155 2.95-.813 1.41-1.442 2.855-1.996 4.435.703.59 1.438 1.163 2.23 1.64 1.427-.91 2.717-1.937 3.88-3.103 1.075.56 2.295.92 3.483 1.14.18 1.562.507 3.204.983 4.757.932.064 1.847.095 2.76.022.613-1.54 1.062-3.194 1.32-4.775 1.185-.212 2.414-.573 3.48-1.14 1.08 1.195 2.288 2.29 3.603 3.26.807-.45 1.53-1.037 2.258-1.59-.445-1.67-.996-3.188-1.757-4.65.86-.904 1.492-1.906 2.16-2.95 1.542.314 3.17.493 4.83.528.32-.855.668-1.73.86-2.634-1.284-1.073-2.707-1.978-4.144-2.728.127-.615.108-1.23.15-1.838"/><path fill="#fff" d="M14.56 26.95c-2.356-3.18-2.368-7.774 0-10.95 3.55-5.068 11.51-5.044 15.083-.018v.008l3.15-2.296c-.424-.63-.953-1.18-1.475-1.73.81-1.38 1.496-2.812 2.047-4.314-.443-.357-.903-.7-1.368-1.016-1.364.912-2.593 1.967-3.752 3.124-1.34-.716-2.77-1.145-4.265-1.402-.176-1.58-.447-3.15-.892-4.678-.57-.035-1.148-.06-1.72-.018-.567 1.53-.913 3.103-1.188 4.706-1.495.252-2.93.684-4.262 1.417-1.068-1.2-2.216-2.313-3.488-3.298-.47.305-.93.64-1.394 1.005.45 1.563 1.06 3.05 1.81 4.49-1.07 1.13-1.853 2.334-2.694 3.633-1.55-.306-3.1-.533-4.683-.596-.207.56-.4 1.093-.55 1.64 1.287 1.015 2.682 1.853 4.142 2.59-.28 1.485-.27 3 .002 4.485-1.463.66-2.888 1.393-4.22 2.295.146.555.322 1.103.52 1.646 1.6.093 3.217-.057 4.796-.313.413.63.752 1.313 1.22 1.902 1.06-.77 2.142-1.516 3.18-2.313" fill-opacity=".3"/><path d="M10.066 21.48c0-6.667 5.403-12.07 12.075-12.072 6.672 0 12.076 5.405 12.077 12.072-.005 6.668-5.408 12.077-12.076 12.077-6.672 0-12.074-5.41-12.074-12.077z" fill-opacity=".2"/><linearGradient x1="904.205" gradientTransform="matrix(1 0 0 -1 -882.011 -2438.024)" y1="-2470.452" x2="904.205" gradientUnits="userSpaceOnUse" y2="-2448.061" xlink:type="simple" xlink:actuate="onLoad" id="b" xlink:show="other"><stop stop-color="#84d8fd" offset="0"/><stop stop-color="#7dd1fb" offset=".113"/><stop stop-color="#6bbef7" offset=".275"/><stop stop-color="#4d9ff0" offset=".468"/><stop stop-color="#2676e7" offset=".67"/><stop stop-color="#2676e7" offset="1"/></linearGradient><path fill="url(#b)" d="M22.193 10.036c6.112 0 11.298 5.27 11.196 11.38-.104 6.11-5.454 11.213-11.565 11.006-5.968-.2-10.927-5.4-10.826-11.374.1-5.97 5.22-11.012 11.193-11.012"/><linearGradient x1="77.686" gradientTransform="matrix(1 0 0 -1 -56 -102)" y1="-133.044" x2="77.686" gradientUnits="userSpaceOnUse" y2="-113.175" xlink:type="simple" xlink:actuate="onLoad" id="c" xlink:show="other"><stop stop-color="#c5eaff" offset="0"/><stop stop-color="#7ac6f7" offset="1"/></linearGradient><path fill="url(#c)" d="M30.845 21.97c-.025-.2-.29-.2-.44-.2-.297.005-.383-.024-.584-.24-.296-.324-1.11-.083-1.503-.103-.324-.017-.262-.123-.453-.316-.24-.24-.24-.118-.48-.022-.408.166-1.11-.054-1.558-.072-.533-.022-.367.29-.753.536-.16.104-.44.753-.666.63-.443-.245-.948.192-1.378-.18-.318-.28-.692-.79-1.167-.657-.457.127-.447-.672-.96-.402-.138.073-.054.237-.125.346-.117.176-.367.295-.557.37-.418.167-.834-.27-1.02-.606-.233-.417.286-.2.037-.544-.046-.064-.22-.208-.112-.283.232-.16.083-.278.207-.5-.017.03.54.013.595.013.096 0 .39.072.37-.117-.004-.035-.083-.342-.028-.342.09 0 .79-.062.775-.08.074.09.22.082.318.062.135-.03.43.37.508.45.313-.288-.233-.626-.337-.876-.097-.233.17-.436.07-.668-.11-.257.146-.392.333-.507.338-.204.49-.586.582-.956.05-.195.082-.402.07-.605-.02-.37-.417-.227-.71-.227.002-.227.214-.317.412-.308.33.016.47-.242.675-.444.252.513.69-.156.766-.383.078-.235.246-.466.466-.586.245-.134.292-.423.48-.61-.292-.13-.618-.15-.912-.274-.345-.146-.57-.524-.746-.836-.152-.274-.155-.63-.376-.868-.183-.195-.526-.292-.775-.356-.38-.097-1.225.234-1.068.75.095.314.616 1.366.12 1.64-.15.085-.5.08-.576.266-.078.184.292.404.11.637-.39.5-.484-.426-.68-.46-.266-.05-.41.143-.703-.07-.18-.13 0-.338-.36-.286-.29.042-.445.048-.675-.158-.16-.144-.423-.495-.108-.633.33-.143 1.216-1.216.512-1.36-.083-.015-.17-.013-.257-.002-2.51 1.08-4.562 3.12-5.66 5.622.094.077.18.162.262.3.19.328.354.33.677.472.37.163.454.04.454.478 0 .52.272 1.63.903 1.63.362 0 .534.246.768.48.274.273.554.474.92.608-.12-.053-.23-.126-.323-.22.464-.463 1.157.533 1.476.875.495.53 1.413.585 2.11.5.195-.023.35-.156.48-.293.194-.204.207-.202.407-.197.216.004.37-.353.683-.305.117.018.972.215.98.284.04.365 1.635.675 1.468 1.052-.122.27-.414.377-.41.71 0 .165-.042.646.104.77.18.148.384.276.606.326.262.058.344.537.505.727.19.227.38.33.665.335.044 0 .578.027.578.027-.113.13.158.28.27.388.105.104.044.38.034.51-.04.396-.04.892.188 1.237.3.454.272.7.242 1.23-.005.107-.094.797.04.827.063.014.23-.233.27-.273.053.288.418.375.197.696-.042.06-.047.13-.035.202.365-.196.718-.415 1.057-.652-.064-.075-.163-.207-.158-.255 0-.054.487-.015.385-.226-.05-.106-.438-.314-.125-.427.078-.03.297-.048.28-.182-.033-.228.174-.24.33-.375.378-.326.318-.444-.025-.755-.25-.223.146-.174.284-.176.403-.007.152-.415.327-.65.19-.26.734-.653.428-1.018-.205-.244.126-.69-.075-.893.312.312.674-.28.835-.484.355-.454.166-.78.023-1.27-.128-.433.296-.774.237-1.197z"/><linearGradient x1="904.152" gradientTransform="matrix(1 0 0 -1 -882.011 -2438.024)" y1="-2459.242" x2="904.152" gradientUnits="userSpaceOnUse" y2="-2448.512" xlink:type="simple" xlink:actuate="onLoad" id="d" xlink:show="other"><stop stop-color="#26bfff" offset="0"/><stop stop-color="#43c8ff" offset=".046"/><stop stop-color="#6fd5ff" offset=".126"/><stop stop-color="#96e0ff" offset=".211"/><stop stop-color="#b6eaff" offset=".302"/><stop stop-color="#d1f1ff" offset=".399"/><stop stop-color="#e5f7ff" offset=".504"/><stop stop-color="#f4fcff" offset=".623"/><stop stop-color="#fcfeff" offset=".767"/><stop stop-color="#fff" offset="1"/></linearGradient><path fill="url(#d)" d="M11.41 21.233c0-5.79 4.94-10.73 10.73-10.73s10.73 4.94 10.73 10.73H11.41" fill-opacity=".7"/></svg>