<svg xmlns="http://www.w3.org/2000/svg" xmlns:xlink="http://www.w3.org/1999/xlink" contentScriptType="text/ecmascript" baseProfile="tiny" width="44" viewBox="0 0 44 44" height="44"><path fill="none" d="M0 0h44v44h-44z"/><path d="M37.008 23.756c.068-.847.061-1.66.004-2.506 1.504-.734 2.909-1.613 4.271-2.584-.312-1.386-.732-2.713-1.251-4.035-1.721-.112-3.426-.107-5.141.108-.431-.682-.889-1.367-1.44-2.014.797-1.475 1.397-3.026 1.942-4.608-1.082-.923-2.192-1.764-3.406-2.506-1.442.915-2.82 1.901-4.065 3.076-.726-.316-1.532-.577-2.39-.771-.239-1.656-.637-3.266-1.122-4.865-1.415-.105-2.806-.136-4.222-.021-.638 1.587-1.158 3.199-1.481 4.882-.868.194-1.667.449-2.387.762-1.154-1.2-2.431-2.248-3.762-3.243-1.233.705-2.351 1.546-3.476 2.407.452 1.667.961 3.31 1.705 4.875-.542.65-1.002 1.333-1.439 2.009-1.668-.299-3.349-.404-5.041-.447-.502 1.328-.981 2.643-1.297 4.03 1.305 1.097 2.671 2.082 4.165 2.91-.09.812-.09 1.68-.001 2.518-1.502.728-2.9 1.605-4.253 2.58.312 1.381.732 2.703 1.259 4.019 1.721.112 3.428.11 5.143-.099.435.67.894 1.347 1.436 2.002-.796 1.481-1.398 3.043-1.953 4.627 1.09.914 2.198 1.761 3.417 2.496 1.439-.92 2.816-1.906 4.063-3.08.722.315 1.52.574 2.384.772.234 1.66.64 3.271 1.129 4.872 1.412.1 2.804.133 4.216.018.631-1.586 1.157-3.195 1.483-4.875.866-.194 1.666-.45 2.388-.767 1.151 1.198 2.424 2.241 3.758 3.229 1.234-.693 2.348-1.532 3.471-2.392-.446-1.67-.951-3.313-1.697-4.879.544-.647 1.004-1.327 1.439-2.002 1.668.294 3.348.397 5.037.437.502-1.327.983-2.64 1.28-4.03-1.308-1.097-2.675-2.078-4.166-2.905" fill-opacity=".2"/><path d="M36.072 22.474c-.051-.602-.025-1.221-.135-1.823 1.438-.657 2.9-1.472 4.223-2.414-.203-.904-.491-1.787-.829-2.65-1.677-.109-3.374-.008-4.944.231-.652-1.05-1.285-2.065-2.164-2.952.822-1.412 1.459-2.854 2.002-4.431-.701-.598-1.439-1.165-2.229-1.647-1.428.906-2.721 1.935-3.877 3.1-1.066-.559-2.303-.925-3.484-1.135-.189-1.564-.512-3.204-.982-4.757-.932-.069-1.851-.095-2.768-.021-.621 1.546-1.057 3.204-1.313 4.781-1.184.212-2.416.572-3.483 1.135-1.082-1.195-2.291-2.286-3.605-3.268-.803.459-1.532 1.042-2.262 1.6.452 1.666 1.003 3.18 1.757 4.646-.855.912-1.488 1.916-2.156 2.961-1.545-.32-3.169-.498-4.833-.54-.328.866-.665 1.731-.871 2.639 1.286 1.081 2.707 1.986 4.146 2.735-.217 1.147-.205 2.51 0 3.658-1.436.646-2.906 1.463-4.225 2.412.203.899.491 1.785.832 2.637 1.677.109 3.376.016 4.946-.219.668 1.043 1.307 2.035 2.155 2.951-.813 1.41-1.442 2.854-1.996 4.434.703.589 1.438 1.163 2.23 1.641 1.427-.91 2.717-1.938 3.88-3.104 1.075.56 2.295.92 3.483 1.139.179 1.563.507 3.205.983 4.757.932.064 1.847.095 2.761.021.612-1.54 1.061-3.194 1.318-4.775 1.186-.212 2.415-.573 3.48-1.139 1.082 1.194 2.289 2.288 3.604 3.26.807-.451 1.529-1.038 2.258-1.592-.445-1.668-.996-3.187-1.757-4.649.86-.904 1.492-1.906 2.161-2.949 1.541.313 3.168.492 4.828.527.322-.855.669-1.729.861-2.634-1.284-1.074-2.707-1.979-4.144-2.729.127-.614.108-1.229.149-1.837" fill-opacity=".4"/><linearGradient x1="60.04" gradientTransform="matrix(1 0 0 -1 -56 -102)" y1="-123.482" x2="96.16" gradientUnits="userSpaceOnUse" y2="-123.482" xlink:type="simple" xlink:actuate="onLoad" id="a" xlink:show="other"><stop stop-color="#e8e8e8" offset="0"/><stop stop-color="#a4a4a4" offset="1"/></linearGradient><path fill="url(#a)" d="M36.072 21.474c-.051-.602-.025-1.221-.135-1.823 1.438-.657 2.9-1.472 4.223-2.414-.203-.904-.491-1.787-.829-2.65-1.677-.109-3.374-.008-4.944.231-.652-1.05-1.285-2.065-2.164-2.952.822-1.412 1.459-2.854 2.002-4.431-.701-.598-1.439-1.165-2.229-1.647-1.428.906-2.721 1.935-3.877 3.1-1.066-.559-2.303-.925-3.484-1.135-.189-1.564-.512-3.204-.982-4.757-.932-.069-1.851-.095-2.768-.021-.621 1.546-1.057 3.204-1.313 4.781-1.184.212-2.416.572-3.483 1.135-1.082-1.195-2.291-2.286-3.605-3.268-.803.459-1.532 1.042-2.262 1.6.452 1.666 1.003 3.18 1.757 4.646-.855.912-1.488 1.916-2.156 2.961-1.545-.32-3.169-.498-4.833-.54-.328.866-.665 1.731-.871 2.639 1.286 1.081 2.707 1.986 4.146 2.735-.217 1.147-.205 2.51 0 3.658-1.436.646-2.906 1.463-4.225 2.412.203.899.491 1.785.832 2.637 1.677.109 3.376.016 4.946-.219.668 1.043 1.307 2.035 2.155 2.951-.813 1.41-1.442 2.854-1.996 4.434.703.589 1.438 1.163 2.23 1.641 1.427-.91 2.717-1.938 3.88-3.104 1.075.56 2.295.92 3.483 1.139.179 1.563.507 3.205.983 4.758.932.063 1.847.094 2.761.021.612-1.54 1.061-3.194 1.318-4.775 1.186-.212 2.415-.573 3.48-1.139 1.082 1.194 2.289 2.288 3.604 3.26.807-.451 1.529-1.038 2.258-1.592-.445-1.668-.996-3.187-1.757-4.649.86-.904 1.492-1.906 2.161-2.949 1.541.313 3.168.492 4.828.527.322-.855.669-1.729.861-2.634-1.284-1.074-2.707-1.979-4.144-2.729.127-.615.108-1.23.149-1.838"/><path fill="#fff" d="M14.56 26.949c-2.356-3.18-2.368-7.773 0-10.95 3.55-5.067 11.51-5.043 15.083-.017v.008l3.151-2.296c-.425-.63-.954-1.181-1.476-1.731.811-1.379 1.496-2.811 2.047-4.313-.443-.357-.903-.701-1.368-1.016-1.364.912-2.593 1.967-3.752 3.124-1.341-.716-2.771-1.145-4.265-1.402-.176-1.581-.447-3.149-.892-4.678-.571-.035-1.148-.059-1.72-.018-.567 1.529-.913 3.103-1.188 4.706-1.495.252-2.931.684-4.262 1.417-1.068-1.199-2.216-2.313-3.488-3.298-.47.305-.929.64-1.394 1.005.451 1.563 1.059 3.05 1.81 4.491-1.069 1.13-1.853 2.333-2.694 3.632-1.551-.306-3.1-.533-4.683-.596-.206.561-.398 1.093-.548 1.639 1.286 1.016 2.681 1.854 4.141 2.592-.279 1.484-.27 3 .002 4.484-1.463.66-2.888 1.393-4.219 2.295.145.555.321 1.103.52 1.646 1.6.093 3.216-.057 4.795-.313.413.63.752 1.313 1.22 1.902 1.06-.77 2.142-1.516 3.18-2.313" fill-opacity=".3"/><path d="M10.066 21.48c0-6.667 5.403-12.07 12.075-12.072 6.671.001 12.075 5.405 12.076 12.072-.005 6.668-5.408 12.077-12.076 12.077-6.673 0-12.075-5.409-12.075-12.077z" fill-opacity=".2"/><linearGradient x1="904.205" gradientTransform="matrix(1 0 0 -1 -882.011 -2438.024)" y1="-2470.452" x2="904.205" gradientUnits="userSpaceOnUse" y2="-2448.061" xlink:type="simple" xlink:actuate="onLoad" id="b" xlink:show="other"><stop stop-color="#84d8fd" offset="0"/><stop stop-color="#7dd1fb" offset=".113"/><stop stop-color="#6bbef7" offset=".275"/><stop stop-color="#4d9ff0" offset=".468"/><stop stop-color="#2676e7" offset=".67"/><stop stop-color="#2676e7" offset="1"/></linearGradient><path fill="url(#b)" d="M22.193 10.036c6.112 0 11.298 5.269 11.196 11.381-.103 6.109-5.453 11.212-11.564 11.005-5.968-.201-10.927-5.401-10.826-11.374.1-5.971 5.22-11.012 11.194-11.012"/><linearGradient x1="77.686" gradientTransform="matrix(1 0 0 -1 -56 -102)" y1="-133.044" x2="77.686" gradientUnits="userSpaceOnUse" y2="-113.175" xlink:type="simple" xlink:actuate="onLoad" id="c" xlink:show="other"><stop stop-color="#c5eaff" offset="0"/><stop stop-color="#7ac6f7" offset="1"/></linearGradient><path fill="url(#c)" d="M30.845 21.969c-.025-.2-.291-.2-.441-.198-.296.004-.382-.025-.583-.242-.297-.323-1.111-.082-1.504-.102-.324-.017-.262-.123-.453-.316-.241-.24-.241-.119-.479-.023-.409.166-1.111-.054-1.559-.072-.533-.022-.367.29-.753.536-.161.104-.44.753-.666.63-.443-.245-.948.192-1.378-.181-.317-.279-.691-.788-1.166-.656-.457.127-.447-.672-.96-.402-.138.073-.054.237-.125.346-.117.177-.367.296-.557.372-.419.166-.835-.27-1.022-.607-.232-.417.287-.201.038-.544-.046-.064-.221-.208-.112-.283.232-.16.083-.278.207-.5-.017.03.539.013.595.013.096 0 .389.072.369-.117-.003-.035-.082-.342-.027-.342.092 0 .791-.063.776-.081.074.091.219.082.318.062.135-.03.43.371.508.451.312-.289-.234-.627-.338-.877l.07-.668c-.11-.257.146-.392.333-.507.338-.205.49-.587.582-.957.049-.195.082-.402.07-.605-.02-.37-.417-.226-.711-.226.003-.227.215-.317.413-.308.329.016.47-.242.675-.444.252.512.689-.157.766-.384.077-.235.245-.466.465-.586.245-.135.292-.424.48-.612l-.912-.273c-.345-.146-.57-.524-.746-.836-.152-.274-.155-.63-.376-.868-.183-.195-.526-.292-.775-.356-.379-.097-1.225.234-1.068.749.096.315.617 1.367.122 1.642-.151.084-.5.08-.577.265-.078.184.292.404.11.637-.39.5-.484-.425-.679-.46-.267-.048-.41.144-.704-.068-.18-.131-.002-.339-.362-.287-.288.042-.444.048-.674-.158-.16-.144-.423-.495-.108-.633.329-.143 1.216-1.216.512-1.359l-.256-.003c-2.51 1.078-4.562 3.118-5.659 5.621.093.077.18.162.261.301.189.327.354.33.677.471.371.163.454.039.454.478 0 .521.272 1.63.903 1.63.363 0 .535.246.769.479.274.274.554.475.921.609-.122-.053-.23-.126-.324-.221.464-.462 1.157.534 1.476.876.494.531 1.412.585 2.109.5.195-.023.351-.156.481-.293.193-.204.206-.202.406-.197.216.004.371-.353.683-.305.117.018.972.215.979.284.042.365 1.636.675 1.469 1.052-.122.269-.414.377-.411.709 0 .166-.041.647.105.771.179.148.384.276.606.326.262.058.344.537.505.727.19.228.379.332.665.336l.578.027c-.113.131.158.28.27.388.105.104.044.381.034.509-.039.397-.041.893.188 1.238.299.454.272.699.242 1.229-.005.108-.094.798.04.828.063.014.229-.233.271-.273.052.287.417.374.196.695-.042.06-.047.131-.035.202.365-.196.718-.415 1.057-.652-.063-.075-.162-.207-.157-.255 0-.055.487-.016.385-.227-.05-.106-.438-.314-.125-.427.078-.029.297-.048.279-.182-.032-.228.175-.241.33-.375.379-.326.319-.444-.024-.755-.251-.223.146-.174.284-.176.402-.006.151-.414.326-.649.189-.259.734-.653.428-1.018-.205-.244.126-.69-.075-.893.312.313.674-.28.835-.483.355-.454.166-.78.023-1.27-.128-.433.296-.774.237-1.197z"/><linearGradient x1="904.152" gradientTransform="matrix(1 0 0 -1 -882.011 -2438.024)" y1="-2459.242" x2="904.152" gradientUnits="userSpaceOnUse" y2="-2448.512" xlink:type="simple" xlink:actuate="onLoad" id="d" xlink:show="other"><stop stop-color="#26bfff" offset="0"/><stop stop-color="#43c8ff" offset=".046"/><stop stop-color="#6fd5ff" offset=".126"/><stop stop-color="#96e0ff" offset=".211"/><stop stop-color="#b6eaff" offset=".302"/><stop stop-color="#d1f1ff" offset=".399"/><stop stop-color="#e5f7ff" offset=".504"/><stop stop-color="#f4fcff" offset=".623"/><stop stop-color="#fcfeff" offset=".767"/><stop stop-color="#fff" offset="1"/></linearGradient><path fill="url(#d)" d="M11.411 21.233c0-5.79 4.938-10.729 10.729-10.729 5.791 0 10.731 4.939 10.731 10.729h-21.46" fill-opacity=".7"/></svg>