<svg xmlns="http://www.w3.org/2000/svg" width="31.9" height="31.9" viewBox="70.6 59.9 31.9 31.9"><path fill="#CCCFD1" d="M76.6 59.9c2 0 20.8 2 20.8 2l2.2 6h-20s-9-2-9-4c0-1.9 4.1-4 6-4z"/><path fill="#B7BABC" d="M96.5 61.9c-1.5-.2-4.5-.5-7.9-.8V68h7l1.8-6-.9-.1z"/><path fill="#D9DCDD" d="M77 67.5c1.1.3 2 .4 2.6.4h16.8c-.9-2.3-5-4-9.8-4-4.5 0-8.3 1.5-9.6 3.6z"/><path fill="#C2C4C5" d="M88.6 64v3.9h7v-1.2c-1.3-1.3-3.9-2.4-7-2.7z"/><path fill="#BF392C" d="M74.4 81.7l18-18c2.3-2.3 6.1-2.3 8.4 0 2.3 2.3 2.3 6.1 0 8.4l-18 18c-2.3 2.3-6.1 2.3-8.4 0-2.3-2.3-2.3-6.1 0-8.4z"/><path fill="#E4E5E5" d="M80.6 85.4l.7-.7c.4-.4.4-1.1 0-1.5s-1.1-.4-1.5 0l-.7.7-.7-.7c-.4-.4-1.1-.4-1.5 0s-.4 1.1 0 1.5l.7.7-.7.7c-.4.4-.4 1.1 0 1.5s1.1.4 1.5 0l.7-.7.7.7c.4.4 1.1.4 1.5 0s.4-1.1 0-1.5l-.7-.7z"/></svg>