<svg xmlns="http://www.w3.org/2000/svg" xmlns:xlink="http://www.w3.org/1999/xlink" width="24" height="34" viewBox="0 0 24 34"><image overflow="visible" opacity=".33" enable-background="new" width="27" height="36" xlink:href="3B98E278.png"/><linearGradient id="a" gradientUnits="userSpaceOnUse" x1="13.834" y1="3.242" x2="13.834" y2="31.241" gradientTransform="matrix(1 0 0 -1 0 35)"><stop offset="0" stop-color="#0071BC"/><stop offset="1" stop-color="#009DDC"/></linearGradient><path fill="url(#a)" d="M23.007 14.786c.103-.55.16-1.113.16-1.693 0-5.152-4.176-9.334-9.33-9.334-5.16 0-9.338 4.18-9.338 9.333 0 .658.068 1.3.196 1.914.4 1.912.617 2.326 1.992 4.896l7.184 11.856 6.478-11.222c1.236-2.008 2.25-3.658 2.657-5.752m-9.176 1.488c-1.862 0-3.376-1.51-3.376-3.38 0-1.866 1.514-3.378 3.377-3.378 1.87 0 3.384 1.512 3.384 3.377 0 1.872-1.515 3.38-3.383 3.38z"/><path fill="#fff" d="M13.883 32.74L6.26 20.16c-1.387-2.592-1.635-3.054-2.053-5.05C4.067 14.447 4 13.77 4 13.09c0-5.423 4.41-9.834 9.836-9.834 5.422 0 9.832 4.41 9.832 9.834 0 .58-.055 1.162-.17 1.784-.425 2.188-1.49 3.92-2.723 5.923m-6.94-16.54C8.964 4.26 5 8.22 5 13.092c0 .608.06 1.218.186 1.812.39 1.855.596 2.244 1.943 4.76l6.73 11.112L19.92 20.29c1.236-2.015 2.21-3.594 2.598-5.6.104-.556.152-1.08.152-1.597 0-4.87-3.962-8.834-8.832-8.834zm-.004 12.514c-2.137 0-3.876-1.74-3.876-3.88 0-2.14 1.74-3.878 3.877-3.878 2.143 0 3.884 1.74 3.884 3.877 0 2.14-1.74 3.88-3.883 3.88zm0-6.757c-1.585 0-2.876 1.29-2.876 2.877 0 1.59 1.29 2.88 2.877 2.88 1.59 0 2.884-1.29 2.884-2.88 0-1.586-1.293-2.877-2.883-2.877z"/></svg>