<svg xmlns="http://www.w3.org/2000/svg" width="32" height="32" viewBox="121 13 32 32"><path fill="#26A6D1" d="M121 13l8 3 8-3 8 3 8-3v29l-8 3-8-3-8 3-8-3V13z"/><path fill="#2295BC" d="M129 45l8-3V13l-8 3M145 16v29l8-3V13"/><path fill="#EFC75E" d="M145 16l-8-3-3.1 1.1c-5.2 6-3.2 11 3.6 17.2 5.8 5.2 11.8 8.3 15.5 5.7V13l-8 3z"/><path fill="#3DB39E" d="M153 13l-8 3-8-3c-7.1 6-3.6 9.5 2.6 15.2 5 4.6 9.1 7.3 13.4 4.8V13z"/><path fill="#D7B354" d="M145 16v20.7c3.1 1.5 5.9 1.9 8 .3V13l-8 3zM137 13l-1.7.6-1.4.5c-5 5.8-3.3 10.7 3.1 16.7V13z"/><path fill="#37A18E" d="M153 13l-8 3v16.5c2.7 1.6 5.3 2.1 8 .5V13zM137 13c-6.1 5.1-4.4 8.4 0 12.8V13z"/></svg>