<svg xmlns="http://www.w3.org/2000/svg" width="32" height="32" viewBox="14.5 9 32 32"><path fill="#DBDEE0" d="M45.4 19.7c0-.2.1-.5.1-.7 0-2.2-1.8-4-4-4-1.6 0-2.9.9-3.6 2.2-.5-.8-1.4-1.2-2.4-1.2-1.7 0-3 1.3-3 3 0 .2 0 .5.1.7-.7.6-1.1 1.4-1.1 2.3 0 1.7 1.3 3 3 3h9c1.7 0 3-1.3 3-3 0-.9-.4-1.7-1.1-2.3z"/><path fill="#3DB39E" d="M30.5 9l16 32h-32l16-32z"/><path fill="#E4E7E7" d="M24.5 20l3 3 3-3 3 3 3-3-5-11h-2l-5 11z"/><path fill="#4A4A4A" d="M32.5 38h2v3h-2v-3z"/><path fill="#277264" d="M38.5 38l-3.2-4h2.2l-4-5-4 5h2.2l-3.2 4"/><path fill="#349886" d="M21.5 27l-7 14h1l14-14"/><path fill="#ECEEEE" d="M28.4 23.7c0-.2.1-.5.1-.7 0-2.2-1.8-4-4-4-1.6 0-2.9.9-3.6 2.2-.5-.8-1.4-1.2-2.4-1.2-1.7 0-3 1.3-3 3 0 .2 0 .5.1.7-.7.6-1.1 1.4-1.1 2.3 0 1.7 1.3 3 3 3h9c1.7 0 3-1.3 3-3 0-.9-.4-1.7-1.1-2.3z"/></svg>