<svg xmlns="http://www.w3.org/2000/svg" width="32.1" height="23.9" viewBox="85.5 132.7 32.1 23.9"><path fill="#E8927C" d="M117.6 143.2c0-5.8-6.5-10.5-14.5-10.5-2.8 0-5.4.6-7.6 1.6 0-.2-.1-.4-.3-.6h-4.4c-.4.5-.4 1.3 0 1.8l.9 1.1c-1.4 1.3-2.5 2.9-2.9 4.6l-1.2.3c-1.5.4-2.4 1.9-2 3.4l.7 2.7c.4 1.5 1.9 2.4 3.4 2l1.4-.4c1 1.1 2.3 2 3.8 2.7l-.4 1.8c-.3 1.2.4 2.5 1.5 2.8s2.2-.4 2.4-1.6l.4-1.8c1.3.3 2.7.4 4.2.4 1.8 0 3.5-.2 5.1-.7l.5 2c.3 1.2 1.4 1.9 2.4 1.6 1.1-.3 1.7-1.6 1.4-2.8l-.5-2.3c3.5-1.7 5.7-4.7 5.7-8.1zm-23.9-.5c-.6 0-1-.4-1-1s.5-1 1-1c.6 0 1 .4 1 1 0 .5-.5 1-1 1zm15-5.1s-2.5-.8-5-.8-5 .9-5 .9v-1.1s2.5-.9 5-.9 5 .8 5 .8v1.1z"/></svg>